<svg width="290" height="74" viewBox="0 0 290 74" fill="none" xmlns="http://www.w3.org/2000/svg">
<g clip-path="url(#clip0_1076_6)">
<path fill-rule="evenodd" clip-rule="evenodd" d="M269.313 0.96322C269.313 0.38329 269.573 0.12463 270.154 0.12463H286.107C286.624 0.12463 286.948 0.38329 286.948 0.96322V5.35577C286.948 5.93688 286.624 6.19554 286.107 6.19554H276.288C275.707 6.19554 275.45 6.51917 275.45 7.10028V20.7279C275.45 21.3091 275.707 21.5677 276.288 21.5677H280.682C281.263 21.5677 281.521 21.8264 281.521 22.4075V26.7989C281.521 27.3812 281.263 27.7036 280.682 27.7036H276.288C275.707 27.7036 275.45 27.9623 275.45 28.5434V48.3719C275.45 48.953 275.126 49.2117 274.545 49.2117H270.154C269.573 49.2117 269.313 48.953 269.313 48.3719V0.96322ZM259.82 0.12463C260.209 0.12463 260.595 0.25337 260.854 0.51203L263.049 2.77268C263.373 3.03134 263.502 3.35379 263.502 3.80615V45.5301C263.502 45.9175 263.373 46.3049 263.049 46.5624L260.854 48.7605C260.595 49.0817 260.209 49.2117 259.82 49.2117H248.774C248.389 49.2117 248.001 49.0817 247.741 48.7605L245.546 46.5624C245.224 46.3049 245.094 45.9175 245.094 45.5301V3.80615C245.094 3.35379 245.223 3.03134 245.546 2.77268L247.741 0.51203C248.001 0.25337 248.389 0.12463 248.774 0.12463H259.82ZM257.301 7.61642C257.301 7.22902 257.237 6.90657 256.978 6.64791C256.655 6.38925 256.398 6.32429 255.945 6.32429H252.586C252.132 6.32429 251.876 6.39043 251.553 6.64791C251.295 6.90657 251.23 7.22902 251.23 7.6176V41.7199C251.23 42.171 251.295 42.4297 251.553 42.7533C251.876 43.0108 252.132 43.0758 252.586 43.0758H255.946C256.398 43.0758 256.655 43.0108 256.978 42.7533C257.237 42.4297 257.301 42.1722 257.301 41.7199V7.61642ZM227.399 48.3719C227.399 48.953 227.075 49.2117 226.495 49.2117H222.102C221.521 49.2117 221.263 48.953 221.263 48.3719V0.96322C221.263 0.38329 221.521 0.12463 222.102 0.12463H235.989C236.376 0.12463 236.764 0.25337 237.022 0.51203L239.218 2.77268C239.542 3.03134 239.67 3.35379 239.67 3.80615V24.087C239.67 24.4744 239.542 24.8618 239.218 25.1205L237.022 27.3162C236.764 27.6386 236.635 27.9623 236.701 28.4146L239.542 48.3069C239.605 48.8242 239.283 49.2117 238.766 49.2117H234.31C233.858 49.2117 233.471 48.953 233.404 48.4368L230.564 28.5434C230.498 28.0272 230.176 27.7686 229.659 27.7686H228.238C227.657 27.7686 227.399 28.0272 227.399 28.6071V48.3719ZM227.399 20.7917C227.399 21.374 227.657 21.6315 228.238 21.6315H232.178C232.631 21.6315 232.888 21.5677 233.212 21.3091C233.471 20.9866 233.534 20.7279 233.534 20.2756V7.61642C233.534 7.22902 233.471 6.90657 233.212 6.64791C232.888 6.38925 232.63 6.32429 232.178 6.32429H228.238C227.657 6.32429 227.399 6.58413 227.399 7.16406V20.7917ZM203.891 48.3719C203.891 48.953 203.567 49.2117 202.987 49.2117H198.594C198.014 49.2117 197.755 48.953 197.755 48.3719V0.96322C197.755 0.38329 198.014 0.12463 198.594 0.12463H212.481C212.868 0.12463 213.257 0.25337 213.515 0.51203L215.71 2.77268C216.034 3.03134 216.164 3.35379 216.164 3.80615V24.087C216.164 24.4744 216.034 24.8618 215.71 25.1205L213.515 27.3162C213.257 27.6386 212.868 27.7686 212.481 27.7686H204.731C204.15 27.7686 203.891 28.0272 203.891 28.6071V48.3719ZM203.891 20.7917C203.891 21.374 204.15 21.6315 204.731 21.6315H208.606C209.057 21.6315 209.317 21.5677 209.639 21.3091C209.898 20.9866 209.962 20.7279 209.962 20.2756V7.61642C209.962 7.22902 209.898 6.90657 209.639 6.64791C209.317 6.38925 209.057 6.32429 208.606 6.32429H204.731C204.15 6.32429 203.891 6.58413 203.891 7.16406V20.7917ZM162.494 48.3719C162.494 48.953 162.172 49.2117 161.589 49.2117H157.198C156.616 49.2117 156.358 48.953 156.358 48.3719V0.96322C156.358 0.38329 156.616 0.12463 157.198 0.12463H161.718C162.235 0.12463 162.559 0.31833 162.688 0.83448L169.147 25.5079C169.277 26.0252 170.052 25.9603 170.052 25.3142V0.96322C170.052 0.38329 170.374 0.12463 170.956 0.12463H175.347C175.928 0.12463 176.187 0.38329 176.187 0.96322V48.3719C176.187 48.953 175.928 49.2117 175.347 49.2117H170.826C170.309 49.2117 169.986 49.0179 169.857 48.5006L163.399 23.8933C163.269 23.2473 162.494 23.441 162.494 24.087V48.3719ZM122.882 0.12463C123.463 0.12463 123.785 0.38329 123.785 0.96322V5.42073C123.785 6.00184 123.463 6.32429 122.882 6.32429H117.779C117.197 6.32429 116.939 6.58413 116.939 7.16406V48.3719C116.939 48.953 116.681 49.2117 116.099 49.2117H111.707C111.126 49.2117 110.803 48.953 110.803 48.3719V7.16406C110.803 6.58295 110.544 6.32429 109.964 6.32429H104.86C104.281 6.32429 104.022 6.00184 104.022 5.42073V0.96322C104.022 0.38329 104.281 0.12463 104.86 0.12463H122.882ZM101.181 48.3069C101.246 48.8242 100.988 49.2117 100.406 49.2117H96.0139C95.4978 49.2117 95.1753 48.953 95.1104 48.4368L93.1722 37.7147C93.1084 37.1986 92.721 36.9399 92.2686 36.9399H87.1013C86.6489 36.9399 86.2615 37.1986 86.1965 37.7147L84.4532 48.4357C84.3882 48.953 84.0008 49.2117 83.4847 49.2117H79.0921C78.511 49.2117 78.2524 48.8242 78.3173 48.3069L86.5201 0.89944C86.5851 0.38329 86.9075 0.12463 87.4249 0.12463H91.945C92.4623 0.12463 92.7859 0.38329 92.9147 0.89944L101.181 48.3069ZM87.4898 29.8343C87.4249 30.3516 87.6824 30.7391 88.2635 30.7391H91.1052C91.6875 30.7391 91.945 30.3516 91.8812 29.8343L90.2017 19.8244C90.0729 18.9846 89.3619 18.9846 89.1682 19.8244L87.4898 29.8343ZM62.044 48.3719C62.044 48.953 61.7203 49.2117 61.1392 49.2117H56.7478C56.1656 49.2117 55.9081 48.953 55.9081 48.3719V0.96322C55.9081 0.38329 56.1656 0.12463 56.7478 0.12463H70.6342C71.0216 0.12463 71.409 0.25337 71.6677 0.51203L73.8633 2.77268C74.187 3.03134 74.3157 3.35379 74.3157 3.80615V24.087C74.3157 24.4744 74.187 24.8618 73.8633 25.1205L71.6677 27.3162C71.409 27.6386 71.2803 27.9623 71.344 28.4146L74.187 48.3069C74.2507 48.8242 73.9271 49.2117 73.411 49.2117H68.9546C68.5023 49.2117 68.1149 48.953 68.0499 48.4368L65.2082 28.5434C65.1432 28.0272 64.8207 27.7686 64.3034 27.7686H62.8825C62.3014 27.7686 62.044 28.0272 62.044 28.6071V48.3719ZM62.044 20.7917C62.044 21.374 62.3014 21.6315 62.8825 21.6315H66.8227C67.2751 21.6315 67.5338 21.5677 67.8562 21.3091C68.1149 20.9866 68.1798 20.7279 68.1798 20.2756V7.61642C68.1798 7.22902 68.1149 6.90657 67.8562 6.64791C67.5338 6.38925 67.2751 6.32429 66.8227 6.32429H62.8825C62.3014 6.32429 62.044 6.58413 62.044 7.16406V20.7917ZM50.8069 48.3719C50.8069 48.953 50.4844 49.2117 49.9671 49.2117H34.0138C33.4327 49.2117 33.174 48.953 33.174 48.3719V0.96322C33.174 0.38329 33.4327 0.12463 34.0138 0.12463H49.9671C50.4844 0.12463 50.8069 0.38329 50.8069 0.96322V5.35577C50.8069 5.93688 50.4844 6.19554 49.9671 6.19554H40.1497C39.5686 6.19554 39.3099 6.51917 39.3099 7.10028V20.7279C39.3099 21.3091 39.5686 21.5677 40.1497 21.5677H44.606C45.1883 21.5677 45.447 21.8264 45.447 22.4075V26.7989C45.447 27.3812 45.1883 27.7036 44.606 27.7036H40.1497C39.5686 27.7036 39.3099 27.9623 39.3099 28.5434V42.171C39.3099 42.7521 39.5686 43.0108 40.1497 43.0108H49.9671C50.4844 43.0108 50.8069 43.3333 50.8069 43.8506V48.3719ZM28.4614 48.242C28.6563 48.8242 28.3976 49.2117 27.8153 49.2117H23.359C22.8428 49.2117 22.5192 49.0179 22.3905 48.5006L16.9656 32.095C16.7069 31.3851 16.1258 31.3851 15.8022 32.095L14.3813 35.6478C14.2526 35.9714 14.1876 36.2938 14.1876 36.6812V48.3719C14.1876 48.953 13.8652 49.2117 13.2829 49.2117H8.89153C8.31042 49.2117 8.05176 48.953 8.05176 48.3719V0.96322C8.05176 0.38329 8.31042 0.12463 8.89153 0.12463H13.2829C13.8652 0.12463 14.1876 0.38329 14.1876 0.96322V17.6925C14.1876 18.5323 14.8337 18.661 15.1573 17.8862L22.068 0.76951C22.2617 0.31833 22.5192 0.12463 23.0365 0.12463H27.8803C28.5263 0.12463 28.785 0.51203 28.5263 1.09314L20.0011 21.6965C19.8723 22.1488 19.8723 22.4075 20.0011 22.8587L28.4614 48.242ZM145.317 19.8279C145.397 21.8358 144.992 23.7315 144.202 25.4973C143.399 27.2949 142.447 29.0323 141.461 30.7391C140.322 32.7103 138.997 34.5741 137.894 36.5643C136.024 39.9376 135.48 43.5199 136.671 47.2569C136.955 48.1463 137.41 48.9813 137.855 50.0006C137.453 49.8235 137.147 49.7243 136.879 49.5636C132.635 47.0219 130.9 42.1864 132.402 37.1076C133.289 34.1088 135.026 31.6237 137.121 29.3631C137.912 28.5127 138.737 27.6965 139.556 26.8745C141.702 24.7189 143.958 22.6543 145.317 19.8279ZM134.634 19.1299C133.384 19.3224 132.801 20.3594 131.986 21.5122C131.727 18.4638 131.159 15.72 131.659 12.9267C132.005 10.9991 132.935 9.37274 134.386 8.08296C134.961 7.57036 135.164 7.0424 135.145 6.2983C135.098 4.56088 135.126 4.5597 136.767 4.01403C137.115 2.29433 137.056 1.99315 136.054 0.87581C136.389 0.65022 136.682 0.30061 137.021 0.24864C138.176 0.0691103 139.331 0.000610352 140.488 0.000610352C142.071 0.000610352 143.656 0.13053 145.239 0.28762C145.468 0.31006 145.68 0.50613 145.895 0.61951C145.859 1.36361 145.414 1.24905 144.982 1.14983C143.347 0.7766 141.871 1.31046 140.386 1.84433C140.386 2.61795 140.386 3.29119 140.386 3.89828C140.543 4.01403 140.604 4.08253 140.681 4.11324C142.18 4.7038 142.2 4.7038 142.12 6.37271C142.089 7.02587 142.263 7.49477 142.787 7.9306C144.353 9.23337 145.345 10.9046 145.791 12.9043C146.137 14.4515 146.006 15.9255 144.993 17.174C144.106 18.2689 143.132 19.3035 142.11 20.2768C140.993 21.3409 139.762 22.287 138.608 23.3146C136.003 25.6355 134.007 28.3934 132.708 31.6438C132.554 32.0276 132.371 32.4009 132.103 32.7564C131.969 29.382 131.726 26.0004 132.824 22.7488C133.244 21.5098 133.995 20.3831 134.634 19.1299Z" fill="#2B2A29"/>
</g>
<path d="M20.2098 57.338V70H18.2078V61.602C18.2078 61.3247 18.2165 61.056 18.2338 60.796C18.2512 60.5187 18.2685 60.224 18.2858 59.912H18.2338C18.1298 60.1547 17.9912 60.4147 17.8178 60.692C17.6618 60.952 17.5058 61.186 17.3498 61.394L10.9018 70H9.08185V57.338H11.0838V65.736C11.0838 66.0133 11.0752 66.2907 11.0578 66.568C11.0578 66.828 11.0405 67.114 11.0058 67.426H11.0578C11.1965 67.166 11.3438 66.906 11.4998 66.646C11.6558 66.386 11.8118 66.1607 11.9678 65.97L18.4158 57.338H20.2098ZM27.3056 57.338V70H25.1216V57.338H27.3056ZM34.1956 62.434V64.124H27.1496V62.434H34.1956ZM36.1456 57.338V70H33.9616V57.338H36.1456ZM43.2184 57.338V70H41.0344V57.338H43.2184ZM50.1084 62.434V64.124H43.0624V62.434H50.1084ZM52.0584 57.338V70H49.8744V57.338H52.0584ZM62.3292 57.026C63.7852 57.026 64.9466 57.2427 65.8132 57.676C66.6799 58.1093 67.3039 58.82 67.6852 59.808C68.0839 60.7787 68.2832 62.07 68.2832 63.682C68.2832 65.294 68.0839 66.594 67.6852 67.582C67.3039 68.5527 66.6799 69.2547 65.8132 69.688C64.9466 70.1213 63.7852 70.338 62.3292 70.338C60.8732 70.338 59.7032 70.1213 58.8192 69.688C57.9526 69.2547 57.3199 68.5527 56.9212 67.582C56.5399 66.594 56.3492 65.294 56.3492 63.682C56.3492 62.07 56.5399 60.7787 56.9212 59.808C57.3199 58.82 57.9526 58.1093 58.8192 57.676C59.7032 57.2427 60.8732 57.026 62.3292 57.026ZM62.3292 58.898C61.4106 58.898 60.6826 59.0453 60.1452 59.34C59.6079 59.6173 59.2266 60.1027 59.0012 60.796C58.7759 61.4893 58.6632 62.4513 58.6632 63.682C58.6632 64.9127 58.7759 65.8747 59.0012 66.568C59.2266 67.2613 59.6079 67.7553 60.1452 68.05C60.6826 68.3273 61.4106 68.466 62.3292 68.466C63.2479 68.466 63.9672 68.3273 64.4872 68.05C65.0246 67.7553 65.4059 67.2613 65.6312 66.568C65.8566 65.8747 65.9692 64.9127 65.9692 63.682C65.9692 62.4513 65.8566 61.4893 65.6312 60.796C65.4059 60.1027 65.0246 59.6173 64.4872 59.34C63.9672 59.0453 63.2479 58.898 62.3292 58.898ZM77.7287 57.208C79.0461 57.208 80.0861 57.3033 80.8487 57.494C81.6287 57.6847 82.1921 58.0227 82.5387 58.508C82.8854 58.9933 83.0587 59.6867 83.0587 60.588C83.0587 61.4893 82.8421 62.174 82.4087 62.642C81.9927 63.0927 81.2994 63.3613 80.3287 63.448V63.526C81.5074 63.6127 82.3307 63.942 82.7987 64.514C83.2667 65.0687 83.5007 65.8573 83.5007 66.88C83.5007 67.7467 83.3274 68.4227 82.9807 68.908C82.6514 69.376 82.1141 69.7053 81.3687 69.896C80.6407 70.0867 79.6614 70.182 78.4307 70.182C77.5467 70.182 76.7754 70.1733 76.1167 70.156C75.4581 70.156 74.8514 70.1387 74.2967 70.104C73.7594 70.0867 73.1874 70.0607 72.5807 70.026L72.8927 68.388C73.2394 68.4053 73.8807 68.4227 74.8167 68.44C75.7527 68.44 76.8534 68.44 78.1187 68.44C78.8987 68.44 79.5227 68.388 79.9907 68.284C80.4587 68.1627 80.7881 67.9547 80.9787 67.66C81.1867 67.3653 81.2907 66.9493 81.2907 66.412C81.2907 65.5973 81.0481 65.0427 80.5627 64.748C80.0774 64.436 79.2194 64.28 77.9887 64.28H72.8667V62.694H77.9887C78.7167 62.694 79.2974 62.642 79.7307 62.538C80.1641 62.434 80.4761 62.2433 80.6667 61.966C80.8574 61.6713 80.9527 61.2727 80.9527 60.77C80.9527 60.2847 80.8487 59.912 80.6407 59.652C80.4327 59.392 80.0861 59.21 79.6007 59.106C79.1154 59.002 78.4654 58.95 77.6507 58.95C76.9054 58.9327 76.2294 58.924 75.6227 58.924C75.0334 58.924 74.5134 58.9327 74.0627 58.95C73.6121 58.95 73.2221 58.9673 72.8927 59.002L72.5807 57.364C73.1181 57.312 73.6294 57.2773 74.1147 57.26C74.6001 57.2427 75.1287 57.234 75.7007 57.234C76.2727 57.2167 76.9487 57.208 77.7287 57.208ZM74.6607 57.364V70.026H72.5807V57.364H74.6607ZM93.7632 57.026C94.6992 57.026 95.4879 57.156 96.1292 57.416C96.7706 57.6587 97.2559 58.0747 97.5852 58.664C97.9146 59.2533 98.0792 60.0593 98.0792 61.082V70H96.3372L95.9992 67.244L95.8692 66.958V61.082C95.8519 60.302 95.6699 59.7473 95.3232 59.418C94.9766 59.0713 94.3006 58.898 93.2952 58.898C92.6192 58.898 91.7786 58.9327 90.7732 59.002C89.7852 59.0713 88.8059 59.1493 87.8352 59.236L87.6272 57.598C88.2166 57.494 88.8666 57.3987 89.5772 57.312C90.2879 57.2253 91.0072 57.156 91.7352 57.104C92.4632 57.052 93.1392 57.026 93.7632 57.026ZM97.0392 62.2L97.0132 63.864L90.9812 63.89C90.3746 63.9073 89.9412 64.072 89.6812 64.384C89.4386 64.6787 89.3172 65.0947 89.3172 65.632V66.438C89.3172 67.0967 89.4732 67.582 89.7852 67.894C90.1146 68.1887 90.6172 68.336 91.2932 68.336C91.7786 68.336 92.3246 68.2493 92.9312 68.076C93.5552 67.8853 94.1792 67.5993 94.8032 67.218C95.4272 66.8367 95.9992 66.3513 96.5192 65.762V67.4C96.3459 67.6427 96.0772 67.9287 95.7132 68.258C95.3666 68.57 94.9419 68.882 94.4392 69.194C93.9539 69.4887 93.4079 69.74 92.8012 69.948C92.1946 70.1387 91.5446 70.234 90.8512 70.234C90.1059 70.234 89.4472 70.104 88.8752 69.844C88.3032 69.5667 87.8612 69.168 87.5492 68.648C87.2372 68.1107 87.0812 67.4607 87.0812 66.698V65.32C87.0812 64.332 87.3846 63.5693 87.9912 63.032C88.6152 62.4773 89.4819 62.2 90.5912 62.2H97.0392ZM105.067 57.338V70H102.909V57.338H105.067ZM115.285 68.232V70H104.885L104.859 68.232H115.285ZM113.569 57.338L113.543 70H111.359V57.338H113.569ZM115.285 69.87V73.744H113.829L113.595 69.87H115.285ZM130.228 57.338V70H128.226V61.602C128.226 61.3247 128.235 61.056 128.252 60.796C128.27 60.5187 128.287 60.224 128.304 59.912H128.252C128.148 60.1547 128.01 60.4147 127.836 60.692C127.68 60.952 127.524 61.186 127.368 61.394L120.92 70H119.1V57.338H121.102V65.736C121.102 66.0133 121.094 66.2907 121.076 66.568C121.076 66.828 121.059 67.114 121.024 67.426H121.076C121.215 67.166 121.362 66.906 121.518 66.646C121.674 66.386 121.83 66.1607 121.986 65.97L128.434 57.338H130.228ZM146.268 57.338V70H144.266V61.602C144.266 61.3247 144.275 61.056 144.292 60.796C144.31 60.5187 144.327 60.224 144.344 59.912H144.292C144.188 60.1547 144.05 60.4147 143.876 60.692C143.72 60.952 143.564 61.186 143.408 61.394L136.96 70H135.14V57.338H137.142V65.736C137.142 66.0133 137.134 66.2907 137.116 66.568C137.116 66.828 137.099 67.114 137.064 67.426H137.116C137.255 67.166 137.402 66.906 137.558 66.646C137.714 66.386 137.87 66.1607 138.026 65.97L144.474 57.338H146.268ZM167.915 57.338V59.08H163.391C162.42 59.08 161.892 59.5913 161.805 60.614C161.718 61.862 161.562 63.032 161.337 64.124C161.112 65.216 160.791 66.2473 160.375 67.218C159.976 68.1713 159.43 69.0987 158.737 70H156.891C157.567 68.9947 158.096 67.9633 158.477 66.906C158.876 65.8313 159.179 64.7393 159.387 63.63C159.595 62.5033 159.734 61.3767 159.803 60.25C159.872 59.2793 160.167 58.5513 160.687 58.066C161.224 57.5807 162.004 57.338 163.027 57.338H167.915ZM158.087 69.87L157.879 73.744H156.449V69.87H158.087ZM169.969 68.232V70H156.449V68.232H169.969ZM169.969 69.87V73.744H168.513L168.305 69.87H169.969ZM168.227 57.338V70H166.121V57.338H168.227ZM183.929 57.338V59.08H179.301C178.763 59.08 178.373 59.2013 178.131 59.444C177.905 59.6693 177.749 60.0767 177.663 60.666C177.576 61.4287 177.472 62.2087 177.351 63.006C177.247 63.8033 177.125 64.5747 176.987 65.32C176.848 66.0653 176.666 66.7327 176.441 67.322C176.233 67.9287 175.947 68.44 175.583 68.856C175.219 69.272 174.777 69.584 174.257 69.792C173.754 70 173.156 70.1127 172.463 70.13L172.229 68.44C172.697 68.3187 173.069 68.18 173.347 68.024C173.641 67.868 173.867 67.6773 174.023 67.452C174.196 67.2267 174.343 66.9667 174.465 66.672C174.621 66.256 174.759 65.7793 174.881 65.242C175.002 64.7047 175.106 64.1413 175.193 63.552C175.279 62.9627 175.349 62.3907 175.401 61.836C175.47 61.264 175.531 60.7527 175.583 60.302C175.704 59.3313 176.016 58.5947 176.519 58.092C177.039 57.5893 177.827 57.338 178.885 57.338H183.929ZM184.267 57.338V70H182.057V57.338H184.267ZM193.588 57.208C194.542 57.208 195.33 57.2167 195.954 57.234C196.578 57.234 197.133 57.2513 197.618 57.286C198.121 57.3033 198.641 57.338 199.178 57.39L198.866 59.08C198.676 59.0453 198.104 59.0193 197.15 59.002C196.214 58.9847 195.044 58.976 193.64 58.976C192.583 58.976 191.881 59.158 191.534 59.522C191.205 59.8687 191.04 60.4493 191.04 61.264C191.04 62.1133 191.214 62.7287 191.56 63.11C191.924 63.474 192.644 63.656 193.718 63.656H198.892L198.944 65.294C198.754 65.294 198.433 65.3027 197.982 65.32C197.532 65.32 196.942 65.32 196.214 65.32C195.486 65.32 194.62 65.32 193.614 65.32C193.008 65.32 192.514 65.4327 192.132 65.658C191.768 65.8833 191.526 66.204 191.404 66.62L190.442 70H188.154L189.298 66.204C189.42 65.84 189.61 65.5453 189.87 65.32C190.148 65.0947 190.451 64.93 190.78 64.826C191.127 64.7047 191.456 64.6267 191.768 64.592V64.488C191.075 64.384 190.512 64.1847 190.078 63.89C189.662 63.5953 189.359 63.2053 189.168 62.72C188.978 62.2173 188.882 61.628 188.882 60.952C188.882 60.3627 188.952 59.834 189.09 59.366C189.246 58.898 189.506 58.508 189.87 58.196C190.234 57.8667 190.72 57.624 191.326 57.468C191.933 57.2947 192.687 57.208 193.588 57.208ZM199.178 57.39V70H197.02V57.39H199.178ZM215.783 57.208C217.1 57.208 218.14 57.3033 218.903 57.494C219.683 57.6847 220.246 58.0227 220.593 58.508C220.939 58.9933 221.113 59.6867 221.113 60.588C221.113 61.4893 220.896 62.174 220.463 62.642C220.047 63.0927 219.353 63.3613 218.383 63.448V63.526C219.561 63.6127 220.385 63.942 220.853 64.514C221.321 65.0687 221.555 65.8573 221.555 66.88C221.555 67.7467 221.381 68.4227 221.035 68.908C220.705 69.376 220.168 69.7053 219.423 69.896C218.695 70.0867 217.715 70.182 216.485 70.182C215.601 70.182 214.829 70.1733 214.171 70.156C213.512 70.156 212.905 70.1387 212.351 70.104C211.813 70.0867 211.241 70.0607 210.635 70.026L210.947 68.388C211.293 68.4053 211.935 68.4227 212.871 68.44C213.807 68.44 214.907 68.44 216.173 68.44C216.953 68.44 217.577 68.388 218.045 68.284C218.513 68.1627 218.842 67.9547 219.033 67.66C219.241 67.3653 219.345 66.9493 219.345 66.412C219.345 65.5973 219.102 65.0427 218.617 64.748C218.131 64.436 217.273 64.28 216.043 64.28H210.921V62.694H216.043C216.771 62.694 217.351 62.642 217.785 62.538C218.218 62.434 218.53 62.2433 218.721 61.966C218.911 61.6713 219.007 61.2727 219.007 60.77C219.007 60.2847 218.903 59.912 218.695 59.652C218.487 59.392 218.14 59.21 217.655 59.106C217.169 59.002 216.519 58.95 215.705 58.95C214.959 58.9327 214.283 58.924 213.677 58.924C213.087 58.924 212.567 58.9327 212.117 58.95C211.666 58.95 211.276 58.9673 210.947 59.002L210.635 57.364C211.172 57.312 211.683 57.2773 212.169 57.26C212.654 57.2427 213.183 57.234 213.755 57.234C214.327 57.2167 215.003 57.208 215.783 57.208ZM212.715 57.364V70.026H210.635V57.364H212.715ZM231.168 57.026C232.624 57.026 233.785 57.2427 234.652 57.676C235.518 58.1093 236.142 58.82 236.524 59.808C236.922 60.7787 237.122 62.07 237.122 63.682C237.122 65.294 236.922 66.594 236.524 67.582C236.142 68.5527 235.518 69.2547 234.652 69.688C233.785 70.1213 232.624 70.338 231.168 70.338C229.712 70.338 228.542 70.1213 227.658 69.688C226.791 69.2547 226.158 68.5527 225.76 67.582C225.378 66.594 225.188 65.294 225.188 63.682C225.188 62.07 225.378 60.7787 225.76 59.808C226.158 58.82 226.791 58.1093 227.658 57.676C228.542 57.2427 229.712 57.026 231.168 57.026ZM231.168 58.898C230.249 58.898 229.521 59.0453 228.984 59.34C228.446 59.6173 228.065 60.1027 227.84 60.796C227.614 61.4893 227.502 62.4513 227.502 63.682C227.502 64.9127 227.614 65.8747 227.84 66.568C228.065 67.2613 228.446 67.7553 228.984 68.05C229.521 68.3273 230.249 68.466 231.168 68.466C232.086 68.466 232.806 68.3273 233.326 68.05C233.863 67.7553 234.244 67.2613 234.47 66.568C234.695 65.8747 234.808 64.9127 234.808 63.682C234.808 62.4513 234.695 61.4893 234.47 60.796C234.244 60.1027 233.863 59.6173 233.326 59.34C232.806 59.0453 232.086 58.898 231.168 58.898ZM251.356 57.338V59.08H246.728C246.191 59.08 245.801 59.2013 245.558 59.444C245.333 59.6693 245.177 60.0767 245.09 60.666C245.003 61.4287 244.899 62.2087 244.778 63.006C244.674 63.8033 244.553 64.5747 244.414 65.32C244.275 66.0653 244.093 66.7327 243.868 67.322C243.66 67.9287 243.374 68.44 243.01 68.856C242.646 69.272 242.204 69.584 241.684 69.792C241.181 70 240.583 70.1127 239.89 70.13L239.656 68.44C240.124 68.3187 240.497 68.18 240.774 68.024C241.069 67.868 241.294 67.6773 241.45 67.452C241.623 67.2267 241.771 66.9667 241.892 66.672C242.048 66.256 242.187 65.7793 242.308 65.242C242.429 64.7047 242.533 64.1413 242.62 63.552C242.707 62.9627 242.776 62.3907 242.828 61.836C242.897 61.264 242.958 60.7527 243.01 60.302C243.131 59.3313 243.443 58.5947 243.946 58.092C244.466 57.5893 245.255 57.338 246.312 57.338H251.356ZM251.694 57.338V70H249.484V57.338H251.694ZM261.978 57.026C263.434 57.026 264.595 57.2427 265.462 57.676C266.328 58.1093 266.952 58.82 267.334 59.808C267.732 60.7787 267.932 62.07 267.932 63.682C267.932 65.294 267.732 66.594 267.334 67.582C266.952 68.5527 266.328 69.2547 265.462 69.688C264.595 70.1213 263.434 70.338 261.978 70.338C260.522 70.338 259.352 70.1213 258.468 69.688C257.601 69.2547 256.968 68.5527 256.57 67.582C256.188 66.594 255.998 65.294 255.998 63.682C255.998 62.07 256.188 60.7787 256.57 59.808C256.968 58.82 257.601 58.1093 258.468 57.676C259.352 57.2427 260.522 57.026 261.978 57.026ZM261.978 58.898C261.059 58.898 260.331 59.0453 259.794 59.34C259.256 59.6173 258.875 60.1027 258.65 60.796C258.424 61.4893 258.312 62.4513 258.312 63.682C258.312 64.9127 258.424 65.8747 258.65 66.568C258.875 67.2613 259.256 67.7553 259.794 68.05C260.331 68.3273 261.059 68.466 261.978 68.466C262.896 68.466 263.616 68.3273 264.136 68.05C264.673 67.7553 265.054 67.2613 265.28 66.568C265.505 65.8747 265.618 64.9127 265.618 63.682C265.618 62.4513 265.505 61.4893 265.28 60.796C265.054 60.1027 264.673 59.6173 264.136 59.34C263.616 59.0453 262.896 58.898 261.978 58.898ZM277.637 57.026C278.019 57.026 278.443 57.0433 278.911 57.078C279.397 57.1127 279.882 57.1733 280.367 57.26C280.853 57.3467 281.303 57.468 281.719 57.624L281.433 59.054C280.861 59.002 280.255 58.9673 279.613 58.95C278.989 58.9153 278.452 58.898 278.001 58.898C277.013 58.898 276.216 59.0367 275.609 59.314C275.02 59.5913 274.595 60.0767 274.335 60.77C274.075 61.4633 273.945 62.4253 273.945 63.656C273.945 64.8867 274.075 65.8573 274.335 66.568C274.595 67.2613 275.02 67.7467 275.609 68.024C276.216 68.3013 277.013 68.44 278.001 68.44C278.261 68.44 278.599 68.4313 279.015 68.414C279.449 68.3967 279.899 68.3707 280.367 68.336C280.853 68.3013 281.312 68.2493 281.745 68.18L281.953 69.662C281.329 69.8873 280.636 70.052 279.873 70.156C279.128 70.26 278.383 70.312 277.637 70.312C276.181 70.312 275.011 70.0953 274.127 69.662C273.243 69.2287 272.602 68.5267 272.203 67.556C271.822 66.5853 271.631 65.2853 271.631 63.656C271.631 62.0267 271.822 60.7267 272.203 59.756C272.602 58.7853 273.243 58.092 274.127 57.676C275.011 57.2427 276.181 57.026 277.637 57.026Z" fill="#2B2A29"/>
<defs>
<clipPath id="clip0_1076_6">
<rect width="279" height="50" fill="white" transform="translate(8)"/>
</clipPath>
</defs>
</svg>
