<?xml version="1.0" encoding="iso-8859-1"?>
<!-- Generator: Adobe Illustrator 24.2.3, SVG Export Plug-In . SVG Version: 6.00 Build 0)  -->
<svg version="1.1" id="&#x421;&#x43B;&#x43E;&#x439;_1"
	 xmlns="http://www.w3.org/2000/svg" xmlns:xlink="http://www.w3.org/1999/xlink" x="0px" y="0px" viewBox="0 0 5088.501 5779.887"
	 style="enable-background:new 0 0 5088.501 5779.887;" xml:space="preserve">
<path style="opacity:0.07;fill:#D7154B;" d="M2653.938,57.446c-1171.294,0-2149.396,827.155-2382.043,1929.203
	c14.339-23.75,29.709-46.886,45.12-69.578c16.787-36.581,35.354-72.321,56.501-106.581c28.274-45.804,59.279-90.462,92.075-133.127
	c35.358-45.998,74.096-90.625,120.137-126.282c28.512-22.081,61.248-41.34,96.598-49.206c-1.655-0.885-1.412-3.864,0.771-3.641
	c3.766,0.385,7.514,0.861,11.245,1.42c9.14-1.321,18.437-1.844,27.866-1.42c2.487,0.112,2.493,3.986,0,3.874
	c-4.641-0.208-9.266-0.174-13.869,0.068c21.844,4.556,43.017,11.94,63.306,21.444c53.755,25.181,100.792,63.417,142.72,105.361
	c6.605,3.942,13.248,7.775,19.964,11.415c0.066,0.004,0.132,0.005,0.198,0.009c-1.472-2.528-2.881-5.096-4.214-7.701
	c-1.135-2.217,2.209-4.175,3.345-1.955c2.352,4.597,4.931,9.077,7.738,13.385c24.67,12.713,50.515,22.391,79.437,24.605
	c39.752,3.044,80.378-2.116,119.024,7.289c11.143,0.069,22.265,1.06,33.374,3.225c20.736,4.041,40.569,11.535,60.988,16.84
	c19.311,5.017,38.73,9.608,58.056,14.568c20.237,5.194,40.447,10.646,60.251,17.326c15.484,5.224,31.629,10.955,45.299,20.106
	c16.253,10.88,23.389,30.452,26.82,50.735c9.336-5.079,18.517-10.437,27.451-16.201c52.675-33.984,88.646-80.514,88.915-145.37
	c0.101-24.265-0.075-50.325,7.159-72.757c-8.5-9.305-16.797-18.807-25.23-28.113c-25.553-28.197-53.233-54.92-88.033-71.349
	c-31.332-14.792-65.311-23.331-96.793-37.82c-24.26-11.167-45.814-26.681-59.361-50.18c-8.128-14.1-9.95-29.552-16.092-44.185
	c-3-7.146,1.717-6.458-3.839-3.819c-2.929,1.391-6.466,6.608-8.769,8.911c-6.603,6.602-13.333,13.094-20.488,19.101
	c-22.835,19.171-52.543,35.48-81.927,19.888c-24.017-12.745-10.943-38.289-21.519-58.442c-14.927-28.444-51.29-49.156-82.629-50.205
	c-30.143-1.009-60.437,6.986-89.495,14.323c-43.366,10.949-222.252,68.446-197.543-33.092
	c15.853-65.145,75.885-109.418,129.585-142.983c63.752-39.848,141.823-76.84,174.903-148.67
	c15.721-34.136,20.177-71.755,30.578-107.562c10.613-36.541,29.487-68.694,55.37-96.613c17.093-18.438,42.898-39.87,70.13-35.087
	c19.427,3.412,31.107,20.457,34.607,38.861c5.253,27.618-4.991,56.581-19.528,79.757c-5.572,8.883-13.565,16.294-19.018,25.063
	c-1.947,3.132-3.943,2.4-3.062,6.271c0.55,2.418,18.542,2.711,21.84,2.899c25.064,1.424,50.036-3.082,74.728-6.687
	c21.856-3.191,43.933-6.163,66.073-4.926c20.562,1.148,40.052,7.362,59.302,14.363c38.635,14.052,75.739,32.646,117.415,35.621
	c38.126,2.722,78.46-6.668,110.52-27.912c14.892-9.868,31.386-24.875,31.41-44.25c0.025-20.512-18.895-37.049-34.962-46.93
	c-27.148-16.695-58.771-10.151-88.605-7.576c-20.607,1.779-43.456,1.813-57.82-15.51c-32.061-38.666-8.492-87.566,19.622-119.468
	c40.509-45.969,94.746-80.341,147.766-110.02c48.511-27.154,100.511-53.467,155.17-65.488
	c65.696-14.449,124.465,1.34,179.334,38.458c60.372,40.842,120.274,105.299,196.348,112.811
	c43.75,4.32,86.068-11.118,129.205-15.146c43.016-4.016,84.461,4.471,126.891,9.855c41.694,5.292,84.447,9.8,125.971,0.883
	c30.602-6.572,58.508-20.362,84.289-37.828c55.285-37.454,103.676-81.731,167.397-105.338
	c148.533-55.027,319.334-20.763,465.981,23.411c126.829,38.204,249.175,90.801,369.972,144.813
	c109.511,48.966,219.475,103.855,313.229,179.582c42.477,34.31,85.487,77.458,110.608,127.107c4.131,2.282,8.16,4.754,12.071,7.429
	c1.918-5.159,3.82-10.323,5.682-15.498c0.839-2.333,4.582-1.32,3.736,1.03c-2.015,5.602-4.071,11.189-6.147,16.77
	c11.633,8.44,22.161,18.761,31.188,31.332c54.208,75.489,35.638,180.128,53.417,266.518
	c22.565,109.646,109.038,175.877,181.442,253.675c63.616,68.355,137.105,164.053,86.152,259.737
	c-45.912,86.217-152.622,138.332-174.81,237.387c-18.477,82.485,24.717,165.5,53.408,240.359
	c24.73,64.524,48.873,141.039,6.972,203.998c-51.62,77.563-157.559,96.746-243.988,99.62c-44.992,1.496-97.703,0.999-140.257-15.801
	c-45.936-18.135-81.054-54.454-107.586-95.132c-12.229-18.75-22.832-38.499-32.828-58.523c-6.207-0.682-12.374-2.862-18.273-6.983
	c-18.423-12.871-22.383-35.349-19.939-56.295c-4.216-2.05-7.511-3.644-9.359-4.626c-25.006-13.297-49.512-27.588-70.841-46.386
	c-25.267-22.269-46.662-47.245-76.048-64.673c-53.705-31.851-107.329-20.164-153.813,18.408
	c-53.156,44.109-93.125,104.632-130.646,161.976c-37.299,57.003-70.496,116.539-101.282,177.278
	c-19.526,38.522-38.673,77.678-65.089,112.089c-15.277,19.901-42.257,53.076-70.156,35.875
	c-30.863-19.028-45.623-64.552-56.119-97.062c-16.629-51.506-24.355-105.723-39.354-157.811
	c-19.602-68.074-41.109-137.236-68.066-202.77c-17.837-43.363-35.811-89.442-67.288-125.048
	c-69.923-79.094-181.438-71.394-277.226-76.483c-46.905-2.492-95.915-7.085-139.122-26.897c-47.11-21.6-73.49-61.761-95.897-106.736
	c-13.638-27.374-28.406-54.16-51.354-74.988c-23.308-21.155-49.774-40.473-75.577-58.411
	c-39.96-27.779-101.115-59.904-146.11-23.608c-29.536,23.825-33.153,67.296-30.756,102.427
	c2.672,39.164,13.424,78.889,30.656,114.157c20.458,41.87,53.744,72.227,95.433,92.573c41.798,20.4,88.357,32.297,125.871,60.796
	c57.553,43.724,103.402,153.619,42.3,212.273c-26.847,25.772-64.81,38.108-99.88,47.79c-56.95,15.72-113.823,28.18-169.616,48.277
	c-65.979,23.767-130.605,51.755-197.831,71.959c-39.94,12.003-86.729,20.045-127.833,9.116
	c-90.242-23.993-109.325-141.955-128.282-218.106c-17.38-69.813-32.874-140.162-55.976-208.392
	c-16.349-48.283-26.611-98.167-42.93-146.372c-8.207-24.242-28.26-55.658-56.692-57.868c-28.177-2.191-38.533,35.087-43.163,56.616
	c-10.217,47.513-9.887,99.244-10.662,147.667c-0.876,54.767,0.647,110.329,6.698,165.273
	c22.438,61.622,34.636,126.833,52.997,189.689c5.974,20.45,12.781,41.067,21.005,61.017c7.284,12.051,15.295,23.649,24.136,34.641
	c36.003,44.761,84.288,70.768,138.437,87.835c41.851,13.191,85.253,22.028,126.548,36.945c22.49,0.57,44.904,2.189,66.5,7.977
	c37.202,9.97,61.83,35.812,71.256,73.154c11.767,46.618,5.983,96.126-20.163,136.772c-26.806,41.672-67.819,71.991-105.519,103.091
	c-45.024,37.142-85.172,78.557-118.303,126.8c-34.754,50.608-58.272,105.613-73.917,163.178c-0.126,0.865-0.256,1.73-0.379,2.595
	c-15.769,110.563-10.714,222.964-28.672,333.332c-0.4,2.458-4.133,1.409-3.736-1.03c10.132-62.27,13.278-125.237,16.55-188.157
	c1.966-37.818,4.085-76.284,8.322-114.428c-7.743,35.266-12.856,71.337-16.05,107.819c-5.041,57.571-6.56,115.389-8.782,173.116
	c-1.425,37.024-3.97,73.832-7.727,110.533c10.81-0.895,21.176-3.335,29.26-9.04c25.875-18.257,0.607-59.075-10.71-78.351
	c-1.266-2.157,2.083-4.104,3.345-1.955c10.736,18.284,27.939,45.93,20.809,68.547c-5.422,17.2-23.214,23.483-43.161,25.229
	c-0.578,5.504-1.191,11.006-1.825,16.506c35.669,10.594,68.94,30.114,96.903,54.146c67.71,58.189,117.334,136.482,158.823,214.586
	c43.102,81.14,80.556,164.94,125.784,244.986c45.13,79.875,85.094,162.491,133.861,240.322
	c47.705,76.137,103.478,147.03,171.968,205.446c-2.765-4.889-5.475-9.81-8.139-14.754c-29.642-55.008-55.743-112.008-80.77-169.232
	c-33.854-77.407-65.113-155.998-93.068-235.729c-28.605-81.583-54.18-164.603-71.819-249.305
	c-13.803-66.282-25.095-136.792-15.554-204.473c3.415-24.227,10.003-48.842,23.502-69.528c13.424-20.57,32.329-33.192,55.387-40.882
	c45.106-15.043,93.611-15.778,138.565,0.208c43.5,15.469,81.105,44.223,112.473,77.622
	c64.797,68.993,109.722,159.333,134.44,250.235c39.883,146.665,98.216,286.451,161.684,424.294
	c15.506,33.677,32.144,66.944,47,100.907c13.166,30.1,24.932,60.79,38.371,90.786c27.344,61.035,58.818,121.752,103.201,172.312
	c22.195,25.284,47.582,45.904,74.215,66.302c12.258,9.388,24.27,18.921,35.707,29.063
	c1220.041-131.938,2169.818-1165.218,2169.818-2420.333C5088.501,1147.437,3998.51,57.446,2653.938,57.446z"/>
<path style="fill:#D7154B;" d="M1041.182,1656.499c6.172-0.983,12.668-2.926,17.921-6.539c-1.033-3.251,0.929-12.015,5.148-29.11
	c14.399-58.348,30.204-115.607,47.346-171.673c2.263-7.401,3.308-11.582,4.476-13.844c-12.367-4.545-24.142-10.725-36.857-14.255
	c-0.424,2.669-2.316,7.087-5.305,16.441c-19.055,59.618-37.604,120.451-51.295,182.864c-3.412,15.555-3.926,27.846-7.455,32.927
	c0.489,0.259,0.985,0.505,1.49,0.734C1024.151,1657.458,1033.153,1657.777,1041.182,1656.499z"/>
<path style="fill:#D7154B;" d="M2276.021,1866.504c-4.471,0.951-15.418-0.127-31.496,0.318
	c-41.847,1.158-83.672,2.594-125.462,4.308c-14.264,0.584-23.653,1.747-29.307-0.53c0.371,2.3,0.988,4.767,1.677,7.033
	c3.639,11.984,9.819,23.255,16.472,33.881c5.043-0.963,12.518-1.369,22.882-1.77c50.703-1.957,101.455-3.522,152.232-4.686
	c12.355-0.283,19.889-1.173,25.32-0.884c-3.73-6.388-7.769-12.591-12.325-18.405
	C2290.285,1878.458,2283.699,1871.706,2276.021,1866.504z"/>
<path style="fill:#D7154B;" d="M4804.804,4251.181c-190.837-18.683-328.624-62.419-415.03-94.042
	c-48.873-17.885-44.53-8.968-11.415-47.521c8.917-10.379,17.751-20.836,26.496-31.367
	c358.083-431.215,573.389-985.104,573.389-1589.129C4978.244,1114.427,3863.817,0,2489.122,0S0,1114.427,0,2489.122
	c0,687.351,281.208,1335.785,774.649,1804.448c152.03,144.393,87.719,60.166-61.402,55.896
	c-53.502-1.532-104.865,7.628-146.857,29.971c-190.155,101.182-10.849,310.423,98.792,424.52
	c56.547,58.839,72.188,53.14-15.714,43.076c-67.876-7.772-134.636-10.853-194.626-5.894
	c-290.454,24.011-370.627,278.186-38.686,391.208c221.584,75.432,455.385,139.482,682.074,195.719
	c152.631,37.866,304.28,70.909,434.673,91.53c94.225,14.901,77.425,23.039,172.495,57.415
	c209.627,75.806,355.546,28.431,561.641,56.253c448.214,60.501,581.74,251.691,1136.271,70.439
	c184.033-60.151,380.772-123.467,604.92-171.118c223.906-47.602,475.578-79.727,770.081-77.751
	c18.025,0.071,32.697-14.486,32.768-32.511c0.07-18.025-14.486-32.698-32.511-32.768l0,0
	c-300.19-2.015-556.295,30.641-783.906,79.03c-227.37,48.337-425.905,112.225-611.575,172.912
	c-528.465,172.732-671.724-14.206-1107.343-73c-189.862-25.63-362.641,14.129-548.072-52.927
	c-86.826-31.397-166.291-79.478-264.386-139.59c-92.505-56.685-479.202-340.157-722.692-588.247
	c-64.684-65.907-301.787-279.358-134.386-355.093c29.886-13.522,66.551-19.001,105.25-17.894
	c171.54,4.911,261.684,112.265,385.508,212.193c50.109,40.44,105.124,84.123,160.535,126.985
	c199.498,154.323,393.934,305.581,649.54,327.077c65.448,5.505,32.769-8.095,81.201,42.313
	c184.265,191.771,493.883,343.159,729.077,464.071c38.222,19.699,68.171-38.415,29.953-58.112
	c-238.807-122.769-592.594-294.114-759.89-505.944c-122.617-155.255-224.376-336.754-317.742-522.993
	c-42.592-84.957-83.44-170.905-123.724-255.794c-34.999-73.752-99.583-190.223-131.621-286.748
	c-49.32-148.605,20.934-287.802,186.407-197.499c117.796,64.282,189.914,240.87,250.275,358.249
	c124.324,241.764,260.888,507.294,439.88,682.738c202.036,414.152,344.852,498.352,753.305,713.287
	c38.047,20.036,68.515-37.818,30.464-57.855c-395.491-208.115-529.056-282.692-724.139-682.573c-1.023-3.58-2.667-7.018-4.931-10.14
	c-3.887-8.021-7.774-16.099-11.655-24.23c-129.39-271.024-252.227-595.771-299.851-741.85
	c-104.537-320.644,240.907-364.349,352.248-59.808c11.118,30.411,24.327,65.607,39.04,104.817
	c131.329,349.996,210.49,686.53,536.955,925.172c156.154,114.146,286.126,102.739,469.597,93.998
	c42.931-2.02,39.862-67.299-3.072-65.279c-147.625,7.033-264.317,19.636-389.858-56.024c-34.78-20.96-30.824-16.622,4.565-24.672
	c473.245-107.671,895.201-350.173,1223.319-684.973c47.82-48.798,30.018-38.542,94.157-14.831
	c88.749,32.817,233.581,79.908,437.664,99.889C4841.428,4320.246,4847.568,4255.221,4804.804,4251.181z M753.48,4928.673
	c63.043,11.267,39.694,1.683,88.055,45.053c190.86,171.162,410.621,336.815,526.715,417.492v-0.001
	c73.958,51.391,101.922,52.691-2.742,31.029c-80.954-16.756-166.072-36.437-251.663-57.67
	c-225.254-55.88-462.662-119.318-682.459-196.145c-245.62-85.871-194.812-243.528,28.832-262.015
	C547.791,4899.178,652.707,4910.66,753.48,4928.673z M4818.802,3159.558c-50.8,22.336-95.871,47.41-135.879,74.475
	c76.393-92.989,141.114-194.474,189.875-304.587C4858.475,3007.523,4840.416,3084.294,4818.802,3159.558z M4901.944,2718.728
	c-115.983,505.191-587.729,859.722-1042.839,1055.927c94.345-240.133,162.973-507.415,199.921-792.517
	c422.068-88.007,727.864-211.132,849.629-351.973C4906.947,2659.831,4904.706,2689.356,4901.944,2718.728z M3808.394,3795.927
	c-241.921,98.767-513.076,170.822-803.356,209.673c58.352-296.567,92.233-600.336,111.605-901.703
	c332.928-21.764,638.657-60.918,901.67-113.438v0C3979.536,3281.538,3907.391,3553.427,3808.394,3795.927z M1829.467,4914.13
	c15.288,23.482,30.798,46.443,46.54,68.796c25.444,36.127,31.987,34.333-16.29,26.251
	c-217.454-36.408-390.859-174.358-562.286-306.966l0,0c-165.374-127.928-151.651-108.748,14.368-19.836
	c147.019,78.737,303.221,143.393,462.273,191.445C1814.784,4886.12,1806.331,4878.598,1829.467,4914.13z M1837.146,3949.983
	c-44.524-84.158-86.637-162.594-161.578-218.959c-29.39-22.102-40.763-23.362-44.502-28.801c-5.313-2.147-9.767-5.682-14.582-8.713
	c-4.804-3.024-10.169-4.944-15.482-6.878c-5.804-2.113-11.661-4.081-17.582-5.839c-7.328-2.176-14.687-4.281-21.95-6.665
	c-7.086,2.551-22.419-4.672-55.658-5.283c-157.314-2.898-204.104,162.116-153.432,311.873
	c16.749,49.486,41.013,102.263,65.781,152.641c0.668,0,1.306,0.369,1.721,0.946c4.475,6.218,8.008,13.021,11.224,19.958
	c2.762,5.957,5.314,12.011,8.169,17.925c2.639,5.467,5.275,10.868,7.576,16.493c4.391,10.737,8.279,22.439,15.84,31.455
	c0.627,0.749,0.579,1.626,0.198,2.302c7.326,14.583,14.26,28.558,20.559,41.719c71.044,148.452,66.321,141.031-24.959,9.026
	c-4.658-6.737-9.285-13.526-13.891-20.351c-1.794,1.996-3.607,3.976-5.434,5.941c-7.331,7.891-15.089,15.966-20.726,25.267
	c59.85,87.765,124.091,168.354,192.176,240.854c40.062,79.489,81.502,158.284,124.672,234.048
	c26.174,45.941,36.463,46.594-16.471,28.865c-288.142-96.511-552.149-245.705-780.586-436.133
	c-478.023-398.49-786.03-964.289-856.89-1584.248c52.915,195.764,161.567,379.135,315.079,543.15
	c53.161,56.799,111.713,111.271,175.193,163.121c26.627,21.75,43.711,38.582,56.123,54.466c-2.689-7.953-5.332-15.879-8.436-23.691
	c-1.661-4.18-3.365-8.344-5.029-12.523c-1.649-4.141-3.411-8.29-4.663-12.569c-1.2-4.103-2.39-8.209-3.723-12.271
	c-1.274-3.882-3.012-7.635-4.157-11.549c-1.443-4.932-1.771-10.5-3.636-15.372c-4.547-0.099-15.66-7.999-37.221-26.508
	c-48.584-41.711-93.959-85.037-135.882-129.828c-184.775-197.418-302.485-423.354-332.995-664.853
	c68.969,90.122,200.889,163.071,347.899,220.706c16.48,6.46,26.101,9.357,32.146,12.497c-0.122-0.74-0.236-1.481-0.36-2.221
	c-0.986-5.884-1.764-11.883-3.298-17.653c-2.509-9.438-6.255-18.567-7.885-28.195c-5.658-0.413-16.46-4.691-33.145-11.439
	c-185.687-75.102-343.276-175.275-343.276-299.25c0-54.772,30.612-107.795,87.827-158.122c0.244-6.585-0.545-13.244-0.516-19.834
	c0.036-7.987,1.766-15.826,2.419-23.761c-33.771,25.59-61.318,51.913-82.129,78.857c25.452-205.794,110.766-389.079,232.649-548.978
	c-1.032-0.161-2.022-1.068-1.76-2.395c1.406-7.136,4.827-13.66,8.028-20.121c3.297-6.655,5.772-13.641,8.621-20.494
	c5.095-12.257,10.186-24.571,16.607-36.205c6.284-11.386,13.434-22.26,20.413-33.224c3.462-5.438,7.033-10.864,10.104-16.536
	c2.428-4.484,4.766-9.016,7.091-13.554c-145.971,156.097-258.727,338.271-313.666,546.364
	C199.825,1115.82,1069.714,228.148,2176.339,85.556c-261.84,85.845-480.031,262.617-654.773,478.734
	c-63.153,78.107-118.411,157.909-170.362,243.848c-4.454,7.367-6.636,11.678-8.521,14.397c15.686-1.53,31.381-3.143,47.158-2.267
	c1.447-3.117,5.401-8.56,11.678-18.607c4.474-7.158,8.989-14.299,13.545-21.416c10.181-15.902,15.313-24.746,18.418-28.285
	c-0.16-15.946,0.307-31.904,3.461-47.523c3.924-19.43,14.561-36.839,26.127-52.65c12.377-16.918,26.472-32.56,41.249-47.403
	c7.127-7.159,14.267-14.469,22.337-20.571c9.414-7.119,19.796-12.796,29.837-18.954c2.564-1.573,5.11-3.177,7.617-4.841
	c2.4-1.593,4.868-3.09,7.235-4.732c4.538-3.151,8.665-6.849,12.634-10.68c7.969-7.693,15.388-15.984,24.365-22.553
	c0.354-0.259,0.793-0.317,1.22-0.245c204.106-229.594,462.019-403.149,770.683-442.186
	c-105.146,80.499-186.906,246.678-248.246,422.531c4.288,8.618,8.754,17.161,13.926,25.28c2.979,4.677,6.194,9.242,9.969,13.316
	c1.102,1.189,2.257,2.346,3.478,3.421c78.105-235.294,194.37-472.505,346.475-472.505c110.112,0,213.166,123.621,301.402,338.749
	c10.555-2.159,21.068-4.552,31.724-6.028c-63.421-154.674-134.391-266.522-210.267-325.119
	c274.839,33.99,509.553,174.681,701.969,366.765c13.081,4.697,26.537,8.346,40.087,11.404c10.545,2.38,21.179,4.381,31.866,6.02
	C3249.973,299.967,3068.83,167.622,2858.954,93.58c1021.981,156.48,1836.222,952.263,2016.492,1969.961
	c-72.118-165.389-212.567-353.272-356.476-489.786c2.345,4.833,4.5,9.759,6.489,14.747c4.487,11.248,8.161,22.802,11.558,34.42
	c3.386,11.583,6.491,23.247,9.837,34.841c0.081,0.278,0.163,0.556,0.243,0.834c8.681,9.55,22.445,25.907,44.26,49.313
	c149.873,160.791,263.562,349.682,311.918,566.062c2.357,26.771,4.279,53.669,5.758,80.684
	c-107.837-126.621-337.706-217.92-553.466-280.033c-24.203-6.967-43.709-14.947-53.275-27.467c0.257,5.175,0.664,10.342,1.263,15.49
	c1.892,16.241,5.9,32.297,12.73,47.187c0.576,1.254,1.175,2.496,1.787,3.731c4.691-4.616,17.711-3.682,43.574,3.906
	c229.82,67.448,484.11,170.705,550.285,309.769c1.122,44.66,1.029,89.353-0.283,134.008
	c-72.132,153.878-386.568,289.795-848.08,384.451c13.102-109.646,21.392-220.292,24.884-331.208
	c-4.542-0.505-9.075-1.098-13.601-1.736c-8.525-1.202-17.036-2.543-25.562-3.734c-3.503,115.515-12.254,230.742-26.276,344.814
	c-262.044,51.431-568.82,89.855-903.956,111.187c5.862-97.838,10.211-195.964,13.054-294.227c-7.09-0.485-14.085-1.86-20.934-3.807
	c-6.106-1.735-12.101-3.824-18.123-5.827c-2.856,102.29-7.343,204.434-13.484,306.263c-381.12,22.586-766.361,22.728-1147.464-0.261
	c-2.223-36.862-4.231-73.77-6.022-110.707c-0.173-3.572-0.323-6.655-0.437-9.356c-6.544,10.022-16.18,18.19-25.152,25.766
	c-4.095,3.457-8.123,6.953-12.07,10.548c0.378,5.495,0.417,14.361,1.111,27.203c0.975,18.036,2.004,36.062,3.081,54.079
	c-20.85-1.351-41.59-2.771-62.218-4.254c-17.122-1.233-27.8-1.265-32.755-2.209c-8.427,4.1-16.948,8.018-25.288,12.288
	c-10.138,5.191-19.986,11.013-28.765,18.187c0.013,0.007,0.027,0.01,0.039,0.018c0.947,0.554,1.158,1.712,0.695,2.65
	c-0.708,1.435-1.294,2.922-1.783,4.442c7.486-4.17,14.317-1.529,38.053,0.31c37.775,2.928,75.942,5.636,114.474,8.113
	c14.116,219.611,36.185,439.145,69.197,656.734c5.601,36.949,1.46,28.992-6.839,63.233c-9.778,40.344-10.616,87.713,0.385,141.356
	c7.602,37.078,18.04,36.049-19.337,30.324c-17.092-2.62-34.167-5.366-51.219-8.236
	C1847.113,3980.892,1856.202,3986.004,1837.146,3949.983z M2187.434,4575.434c-104.057-147.934-194.069-322.953-278.35-486.844
	c-5.438-10.574-10.853-21.104-16.244-31.574c-19.781-38.42-22.527-32.234,20.04-25.461c12.722,2.024,25.454,3.981,38.195,5.87
	c35.091,5.199,26.884-0.215,38.652,33.78C2032.094,4193.557,2104.854,4384.836,2187.434,4575.434z M2479.041,4000.215
	c-10.416-27.786-20.317-54.315-31.306-84.375c-62.398-170.671-271.119-336.956-420.741-206.55
	c-33.024,28.777-24.635,42.964-32.306-10.878c-27.967-196.25-47.293-393.925-60.108-591.734
	c379.497,22.707,763.079,22.78,1142.557-0.313c-19.563,302.294-53.795,607.153-113.085,904.507
	c-140.048,17.134-284.384,26.559-431.891,27.56C2483.522,4038.76,2496.406,4046.526,2479.041,4000.215z M2741.605,4635.931
	c-94.541-152.117-156.149-346.187-219.636-520.542c-15.422-42.357-22.872-37.326,19.929-37.721
	c141.151-1.305,279.431-10.271,413.886-26.247c-49.014,235.314-108.868,432.718-176.444,579.74
	C2760.087,4673.045,2765.865,4674.964,2741.605,4635.931z M2873.501,4805.071c-21.881-22.459-42.061-45.36-60.753-68.594
	c-29.141-36.217-28.204-25.285-9.144-64.754c74.71-154.679,140.421-368.34,193.242-625.398
	c284.273-37.012,550.766-105.539,790.265-199.624c-169.074,392.175-450.28,789.617-847.746,971.715
	C2897.255,4837.71,2906.277,4838.712,2873.501,4805.071z M2982.96,4862.437c-58.914,12.191-60.62,7.902-6.67-18.073
	c407.352-196.139,692.531-609.788,862.079-1018.362c224.17-93.001,450.258-221.082,640.978-385.083
	c-80.848,125.066-110.044,253.673-129.742,340.537c-9.778,43.128-16.851,74.313-23.177,80.904
	c-9.017,9.396-42.675,31.155-80.356,55.514c-20.051,12.962-41.105,26.572-56.235,36.725c-37.104,24.898-73.733,79.812-85.729,151.99
	c-8.372,50.379-5.134,109.72,18.063,173.479C3807.233,4567.39,3416.258,4772.76,2982.96,4862.437z M4175.081,4230.33
	c-11.083-41.682-11.978-80.052-6.462-113.246c8.835-53.167,33.28-91.914,57.569-108.214c21.217-14.237,38.625-25.491,55.213-36.214
	c41.42-26.777,78.415-50.692,92.132-64.986c18.915-19.705,27.688-58.385,39.815-111.879
	c31.884-140.61,90.461-398.863,379.244-550.991h0c-95.818,292.41-245.716,560.271-437.914,791.722
	C4298.35,4104.354,4238.37,4169.04,4175.081,4230.33z"/>
<path d="M1739.877,3091.893c-2.749,2.464-5.38,5.073-7.853,7.871c-1.655,1.873-4.385-0.877-2.739-2.739
	c1.393-1.577,2.833-3.111,4.324-4.596c11.842-11.787,26.434-20.165,41.302-27.523c6.519-3.227,13.12-6.308,19.672-9.481
	c1.454-3.111,10.402-9.162,25.679-21.682c13.965-11.446,27.673-23.067,40.745-34.969c19.851-18.076,25.094-26.963,26.807-20.109
	c4.469-3.972,9.086-7.768,13.623-11.67c8.926-7.678,18.676-16.421,23.991-27.247c-0.162-15.316,2.755-13.25,15.331-36.335
	c10.806-19.833,18.464-40.792,21.896-63.193c23.012-150.196,25.357-181.299-46.561-194.397c-0.013-0.776-0.02-1.552-0.032-2.328
	c-3.497-0.531-7.005-0.987-10.521-1.38c-9.591-1.072-19.225-1.775-28.836-2.669c0.009,0.613,0.015,1.226,0.025,1.839
	c-3.286-0.244-6.698-0.488-10.241-0.741c-164.877-11.772-254.031-21.187-328.047-183.802
	c-49.159-108.001-72.066-242.674-69.367-325.527c1.594-49-8.942-103.422-9.741-154.076c-0.279-17.94-3.375-16.127,13.183-18.037
	c7.67-0.884,15.364-1.761,23.08-2.625c19.055-2.135,14.964-3.616,20.118,16.027c10.858,41.365,22.289,97.451,34.602,157.87
	c30.56,149.956,66.005,323.877,138.63,406.214c38.976,44.188,94.352,51.992,156.674,41.374l0,0
	c21.166-3.604,27.875-7.849,29.894-2.891c13.41-3.308,26.993-5.883,40.074-10.292c2.56-7.333,11.011-8.046,35.619-17.318
	c38.52-14.518,77.647-31.911,115.591-48.78c72.069-32.04,139.309-61.933,179.75-61.933c136.643,0,210.723-105.547,174.001-231.615
	c-31.831-109.261-95.639-110.31-181.25-142.343c-51.545-19.29-80.97-39.846-119.154-105.759
	c-17.557-30.307-26.73-40.499-16.176-44.465c-3.58-5.842-6.903-11.838-9.867-17.989c-2.883-5.982-5.508-12.182-7.166-18.626
	c-0.713-2.773-1.278-5.695-1.42-8.615c-3.484-4.902-3.472-14.662-1.153-33.509c9.546-77.548,118.839-34.662,175.223,12.494
	c10.191,8.522,15.993,13.564,17.946,16.524c3.298,2.177,6.418,4.625,9.348,7.28c10.022,9.08,17.91,20.373,24.722,31.981
	c0.551,0.939,1.086,1.888,1.624,2.834c6.455,1.936,10.223,7.879,20.345,23.865c8.988,14.198,15.866,27.271,22.16,39.184
	c78.792,152.587,238.244,106.578,381.151,120.536c112.351,10.98,156.792,67.505,245.544,423.14l1.062,4.257
	c22.043,88.378,50.484,202.355,102.726,239.222c0.286-0.062,0.603-0.059,0.955,0.049c16.298,5.032,32.186,11.693,49.484,11.914
	c38.322-6.981,79.559-50.926,123.394-151.744c36.143-83.129,57.036-153.781,104.781-235.337
	c83.384-142.431,213.143-276.203,321.937-89.186c79.75,137.09,167.693,239.606,273.732,288.452
	c22.221,10.235,45.109,18.094,68.736,23.436c20.072,1.777,39.863,5.765,59.884,7.962c76.49,3.264,160.582-18.681,254.546-70.839
	c133.273-73.977,72.34-206.012,11.702-337.407v0c-18.873-40.897-40.729-71.153-39.316-84.354
	c-5.366-10.386-9.532-21.369-12.347-32.748c-3.667-14.821-5.163-30.081-5.544-45.329c-4.577-11.136-2.514-25.427,8.714-44.565
	c26.468-45.115,114.061-79.101,165.258-143.929c34.782-44.043,57.267-96.75,59.836-151.691c2.028-43.375-3.553-59.774,9.377-47.265
	c-6.278-22.263-12.015-44.777-20.903-66.182c-2.974-7.162-6.362-14.15-10.211-20.848c-26.27-24.515-52.61-47.282-78.628-67.83
	c-103.89-82.048-234.017-207.303-195.987-354.564c20.114-77.896,36.216-140.255-220.765-350.011
	c-161.796-132.06-383.458-251.179-606.346-323.354h0c-0.555-0.6-1.114-1.196-1.669-1.795c-6.434-0.911-12.847-1.958-19.236-3.141
	c-14.21-2.63-28.33-5.86-42.196-9.942c-12.889-3.795-25.7-8.305-37.667-14.467c-166.506-42.955-329.651-56.954-465.471-27.965
	c-0.596-1.474-1.194-2.936-1.792-4.402c-2.214,0.287-4.424,0.603-6.628,0.971c-8.425,1.407-16.78,3.232-25.149,4.938
	c0.822,2.016,1.645,4.023,2.464,6.056c-84.831,23.968-111.581,71.979-134.923,113.901c-23.003,41.312-40.973,73.582-189.304,22.605
	c-77.604-26.669-139.902-0.349-195.504,23.142c-51.555,21.781-94.941,40.104-134.493-28.123c0.373-1.135,0.749-2.271,1.124-3.406
	c-2.204-1.785-4.213-3.834-6.048-5.926c-7.917-9.025-13.87-19.732-19.395-30.328c-0.807-1.546-1.594-3.103-2.376-4.663
	c-0.275,0.795-0.553,1.589-0.828,2.385c-83.344-106.138-210.744-105.045-330.923-68.229
	c-70.592,21.623-138.192,55.721-191.263,86.389c-1.052,0.853-2.086,1.729-3.103,2.625c-8.214,7.239-15.373,15.59-23.7,22.706
	c-4.279,3.656-8.924,6.62-13.582,9.744c-4.914,3.296-9.984,6.349-15.063,9.38c-9.935,5.93-20.007,11.821-28.743,19.475
	c-7.142,6.258-13.831,13.165-20.45,19.967c-14.593,14.999-28.542,30.814-40.428,48.068c-5.615,8.151-10.794,16.66-14.922,25.667
	c-4.148,9.05-6.59,18.501-7.958,28.351c-1.701,12.239-2.041,24.583-1.955,36.943c2.658,2.744,4.577,15.052,15.71,31.162
	c11.562,16.734,27.892,30.115,47.358,34.186c28.034,5.866,63.848-0.964,99.675-7.734c139.99-28.368,60.237,50.498-9.003,64.964
	c-47.249,11.015-102.152,7.046-141.125-24.312c-12.089-9.726-24.976-16.181-38.313-20.13c-11.436-3.387-18.325-3.445-21.052-4.657
	c-17.851-1.078-35.598,1.086-53.341,2.754c-3.036,1.13-7.675,1.865-16.37,4c-10.522,2.586-20.859,5.659-30.843,8.863
	c-37.522,12.048-74.454,27.373-8.133-17.671c8.597-5.838,16.864-11.453,24.062-17.705c78.152-67.879-14.14-208.045-174.59-68.697
	c-54.261,47.129-99.031,116.134-86.441,186.775c7.553,42.383-26.452,62.144-93.398,101.041
	c-56.904,33.062-127.911,72.887-183.007,108.747c-98.422,64.058-102.924,177.186-30.941,222.231
	c15.49,9.691,26.329,12.109,29.511,14.482c14.424,0.912,28.871,1.56,43.315,0.681c15.078-0.917,29.995-3.307,44.89-5.724
	c17.137-10.235,34.366-20.243,51.671-30.009c30.508-16.233,100.05-59.626,129.036-54.399c46.384,8.361,47.16,12.309,22.488,52.68
	c-16.006,26.192-11.427,54.378,7.788,74.415c5.589,5.826,9.191,8.206,11.165,9.972c4.339,1.052,8.586,2.434,12.762,4.009
	c10.48,3.952,20.628,8.952,31.251,12.448c2.917,0.36,7.433,1.396,15.055,1.686c16.598,0.629,34.059-1.924,50.348-8.467
	c18.88-7.585,34.461-21.628,43.124-39.337c11.419-23.345,15.934-15.862,16.342,5.26c0.18,9.31,1.88,20.51,4.991,33.799
	c5.437,23.211,16.718,43.955,43.858,57.4c84.684,41.952,147.628-49.042,172.829,85.195c12.144,64.703,75.178,131.678-41.788,148.932
	c-49.941,7.369-114.706-8.204-173.501-64.466c-65.755-62.924-113.74-45.581-159.435-20.147
	c-13.697,7.624-22.828,14.396-28.228,17.192c-3.316,3.131-7.348,5.367-11.563,7.055c-8.694,3.481-18.513,4.605-27.777,3.331
	c-4.901-0.674-9.826-2.18-14.034-4.761c-4.389,0.831-11.669-3.567-24.838-15.197c-16.021-14.148-33.967-37.358-54.7-73.552
	c-38.042-66.405-106.821-106.351-183.202-109.372c-10.08-0.399-20.358-0.164-30.793,0.73c-0.052,0.92-0.664,1.764-1.853,1.684
	c-12.199-0.818-24.362,2.818-35.971,6.103c-20.648,5.842-41.712,10.052-62.333,16.013c-3.792,1.096-7.585,2.243-11.363,3.46
	c-12.694,9.872-25.269,19.885-37.708,30.046c-21.998,15.325-44.009,33.959-65.738,56.205h0
	c-34.768,31.134-68.245,63.5-100.192,97.085c-1.993,3.853-3.962,7.718-5.937,11.577c-3.066,5.991-6.055,12.068-9.525,17.837
	c-3.281,5.457-6.7,10.829-10.13,16.193c-7,10.947-14.071,21.876-20.157,33.368c-3.048,5.754-5.677,11.667-8.269,17.634
	c-2.736,6.299-5.453,12.606-8.024,18.975c-1.273,3.153-2.395,6.378-3.722,9.507c-1.238,2.918-2.655,5.754-4.066,8.593
	c-2.81,5.654-5.62,11.371-6.85,17.611c-0.189,0.958-0.875,1.375-1.612,1.39c-20,35.03-38.383,70.739-54.876,107.27
	c-49.039,108.62-81.49,224.36-90.809,350.581c-0.22,2.974-0.419,5.877-0.624,8.796v0c-0.176,0.131-0.346,0.262-0.522,0.393
	c-0.145,3.646-0.561,7.269-1.055,10.886c-0.51,3.737-1.072,7.469-1.351,11.233c-0.298,4.018-0.175,8.036,0.021,12.055
	c0.147,3.021,0.307,6.048,0.329,9.068c0.001-0.001,0.002-0.002,0.004-0.003c-0.001,0.026-0.002,0.052-0.003,0.078
	c0.017,2.522-0.066,5.039-0.332,7.541c-9.728,232.369,41.996,261.764,143.854,319.601c59.659,33.875,98.435,53.918,126.574,102.425
	c15.266,26.314,22.182,38.756,18.366,41.831c0.806,4.897,2.221,9.69,3.715,14.419c1.708,5.407,3.563,10.781,4.842,16.312
	c0.689,2.978,1.093,6.048,1.612,9.061c0.511,2.966,1.015,5.933,1.502,8.902c0.161,0.984,0.318,1.969,0.475,2.953
	c6.805,5.716,6.898,14.8,13.519,42.649c23.551,99.055,44.597,191.922,53.34,296.903c4.281,51.408,15.08,106.698,31.005,164.085v0
	c10.058,36.242,25.806,67.159,26.352,77.676c3.166,6.207,3.067,13.685,5.493,20.168c1.551,4.144,3.115,8.251,4.434,12.479
	c1.292,4.137,2.3,8.402,3.802,12.466c3.121,8.441,6.642,16.727,9.913,25.11c3.224,8.262,5.925,16.692,8.734,25.1
	c0.733,2.195,1.441,4.396,2.109,6.607c20.859,30.727,27.732,61.076,57.331,121.022c94.2,190.778,345.368,603.694,567.438,662.176
	c56.597,14.905,109.142,7.203,152.593-34.57c1.01-2.006,2.112-3.965,3.318-5.869c7.939-12.533,18.936-22.659,28.605-33.791
	c0.011-0.012,0.022-0.02,0.034-0.032c5.023-7.888,9.867-16.412,14.523-25.594c-3.724-4.748-6.562-10.101-9.047-15.589
	c-2.54-5.609-4.748-11.358-7.089-17.051c-2.303-5.601-5.053-10.941-7.637-16.411c-4.699-9.945-8.748-20.259-14.353-29.722
	c-34.695,103.543-86.916,130.51-144.304,115.396c-196.628-51.781-442.143-459.142-525.456-627.871
	c-75.557-153.016-131.709-311.354-142.519-441.164c-10.416-125.077-38.111-234.378-66.401-354.78
	c-31.137-132.493-78.242-168.352-190.566-232.13c-85.493-48.544-125.53-71.28-107.298-318.208
	c8.707-117.945,39.15-226.359,85.178-328.309c46.43-102.838,108.702-199.21,180.566-292.188
	c39.233-50.76,79.81-86.19,119.434-108.889c41.28-23.647,81.153-33.219,116.908-31.805c54.012,2.135,102.016,29.621,128.93,76.604
	c101.208,176.676,167.519,138.184,234.898,99.068c29.626-17.199,59.613-34.605,97.452,1.605
	c75.578,72.322,161.115,92.003,228.03,82.13c47.467-7.003,98.126-31.548,119.316-76.933c20.709-49.199-11.97-91.415-22.742-148.799
	c-36.052-158.301-104.665-122.05-171.349-123.483c-12.561-0.269-24.932-2.418-36.809-8.303
	c-9.146-4.531-17.988-33.245-24.341-64.275c-17.085-83.444-69.825-95.977-114.79-24.323c-18.151,52.373-80.194,54.654-57.449,5.653
	c34.389-74.108-6.779-113.354-79.999-126.554c-45.403-8.188-94.711,18.935-145.032,46.616
	c-54.738,30.11-111.137,61.133-134.549,25.163c-29.448-45.245-0.789-75.954,36.16-100.001
	c54.218-35.29,124.078-74.348,180.191-106.953c93.288-54.201,140.673-81.735,125.141-168.881
	c-7.881-44.221,25.183-91.794,64.683-126.102c14.718-12.782,30.337-23.627,45.232-31.805c49.009-26.906,67.4-13.373,25.935,14.784
	c-46.465,31.556-111.759,125.463-41.609,153.547c22.453,8.985,49.744-0.36,82.806-11.687c40.919-14.018,94.689-32.438,122.502-10.06
	c54.803,44.091,129.815,52.756,196.933,37.109c47.778-11.138,89.705-34.697,112.183-62.635
	c87.491-114.449-19.32-154.145-128.013-130.583c-12.587,1.146-25.344,2.707-36.855,4.058c-37.56,4.409-69.881,3.703-48.802-49.006
	c18.096-45.246,58.056-67.08,97.038-91.41c53.355-33.3,133.229-78.25,215.974-103.596c106.97-32.768,219.951-32.293,280.793,76.605
	c68.575,122.74,137.012,93.828,218.545,59.381c44.643-18.86,94.663-39.993,148.913-21.349
	c199.963,68.72,229.645,15.419,267.639-52.814c17.586-31.584,37.796-67.875,100.697-84.173
	c150.788-39.07,345.854-15.227,541.646,46.538c219.914,69.374,439.225,186.215,597.965,315.781
	c224.494,183.239,213.049,227.567,198.75,282.939c-45.746,177.136,91.436,321.583,218.77,422.147
	c32.346,25.544,56.854,56.997,68.366,93.284c18.883,59.515-0.917,121.184-38.586,168.884
	c-55.482,70.252-137.733,80.439-174.22,139.205c-45.746,73.682,1.667,176.427,49.262,279.56
	c47.97,103.945,96.173,208.397,15.946,252.929c-129.241,71.738-234.427,78.411-324.031,37.136
	c-92.327-42.529-171.271-135.867-244.547-261.828c-143.57-246.802-323.229-90.205-433.557,90.122
	c-51.759,84.602-71.987,154.446-109.643,241.057c-81.689,203.829-114.098,67.682-153.166-88.945l-1.062-4.257
	c-103.395-414.318-156.928-464.73-310.083-473.678c-107.834-6.299-265.31,25.425-321.988-84.334
	c-19.265-37.308-43.624-84.479-112.274-141.892c-211.061-176.516-387.513-5.513-204.535,244.615
	c31.206,42.659,63.951,61.93,120.713,83.197c62.267,23.328,118.253,24.437,140.078,99.355
	c24.711,84.822-18.973,147.902-111.28,147.902c-53.568,0-127.199,32.736-206.119,67.82
	c-119.04,52.923-251.753,111.924-302.588,54.29c-60.988-69.145-94.571-233.928-123.525-376.005
	c-28.203-138.389-52.442-257.325-107.905-276.039c-56.526-19.075-87.067,5.058-102.488,50.755
	c-22.331,66.175-0.649,178.416-0.359,253.994c0.355,91.242,25.318,227.631,75.485,337.85
	c85.333,187.474,192.705,208.366,382.83,221.944c70.65,5.536,49.351,37.574,36.007,124.667
	c-12.443,81.214-131.367,161.427-194.549,213.202c-146.326,119.883-142.111,278.944-137.32,459.666
	c0.974,36.745,1.971,74.445,1.638,112.739l0.001-0.001c-0.292,33.82,0.643,49.012-2.771,55.073c1.278,0.409,2.557,0.816,3.84,1.211
	c11.835,3.641,23.742,6.926,35.349,11.272c5.338,1.999,10.576,4.036,15.37,7.159c3.336,2.174,6.568,4.64,10.113,6.492
	c-0.536-6.762,1.955-19.448,2.822-49.298c1.459-50.167,0.167-98.943-1.083-146.183c-4.013-151.446-7.581-286.096,88.263-384.337
	c8.56-8.772,13.868-14.504,18.112-18.151C1738.179,3096.79,1738.902,3094.295,1739.877,3091.893z M1465.875,1912.769
	c2.931-8.684,8.823-13.242,19.8-9.538c2.363,0.797,4.743,2.966,7.14,6.369c7.752,10.996,4.743,8.972-6.221,10.249
	c-4.222,0.492-8.438,0.989-12.647,1.488C1462.488,1922.693,1461.758,1924.977,1465.875,1912.769z"/>
<path style="fill:#D7154B;" d="M1914.741,2569.172c-1.735,0.571-3.477,1.123-5.23,1.636c-10.97,3.209-22.199,5.407-33.287,8.13
	c0.307,4.542-0.145,12.033-0.011,23.841c0.124,10.933,0.278,21.865,0.44,32.796c13.133,1.226,26.307,2.089,39.356,4.017
	c-0.188-12.28-0.364-24.56-0.503-36.842C1915.308,2585.406,1914.206,2575.473,1914.741,2569.172z"/>
<path style="fill:#D7154B;" d="M667.933,1465.555c5.295-1.386,10.541-2.952,15.818-4.403c9.493-2.611,19.424-5.171,29.357-5.099
	c43.48-30.551,88.05-59.48,133.307-86.777c-4.772,0.749-9.55,1.467-14.339,2.104c-15.931,2.12-31.859,2.965-47.923,2.389
	c-5.909-0.212-11.811-0.555-17.711-0.933c-3.874,3.397-14.963,9.358-35.45,23.069c-39.431,26.395-78.066,54.055-115.657,82.966
	c12.305-3.61,24.795-6.634,37.251-9.615C657.702,1468.033,662.844,1466.886,667.933,1465.555z"/>
</svg>
