<?xml version="1.0" encoding="iso-8859-1"?>
<!-- Generator: Adobe Illustrator 24.2.3, SVG Export Plug-In . SVG Version: 6.00 Build 0)  -->
<svg version="1.1" id="&#x421;&#x43B;&#x43E;&#x439;_1"
	 xmlns="http://www.w3.org/2000/svg" xmlns:xlink="http://www.w3.org/1999/xlink" x="0px" y="0px" viewBox="0 0 6288.738 5775.854"
	 style="enable-background:new 0 0 6288.738 5775.854;" xml:space="preserve">
<g>
	<path style="fill:#D92154;" d="M5773.085,2877.942c-22.613-30.852-69.522,3.532-46.908,34.384l274.284,372.502
		c-163.324,185.94-179.655,410.563-73.638,630.03l-2441.05,1307.914c-197.114-215.202-489.203-214.922-737.254-91.797
		L79.566,1707.58c159.164-171.644,160.938-421.8,72.482-627.889L2405.726,70.084c188.404,191.299,510.92,234.269,740.896,94.162
		L3334.1,367.212c25.908,28.155,68.72-11.239,42.81-39.395L3155.813,88.453C2915.831,250.816,2614.665,213.729,2420.047,0
		C1638.159,350.238,856.292,700.526,74.417,1050.799c110.221,231.588,122.143,463.516-72.321,651.867l172.148,220.809
		c-23.03,86.385-94.111,163.299-155.002,226.589C846.73,3328.301,1674.208,4506.547,2501.74,5684.754
		c256.923-129.943,537.163-166.079,731.118,91.099c885.856-452.352,1771.693-904.743,2657.536-1357.118
		c-61.019-107.91-110.359-246.321-87.604-371.54l0.001,0.002l201.953-108.21c-128.674-243.818-124.436-442.451,71.059-649.932
		L5773.085,2877.942z M5810.807,4394.199L3249.483,5702.187c-186.18-224.4-486.206-206.97-728.863-91.785L94.258,2155.641
		c48.099-51.863,95.356-111.724,122.559-177.556l0,0c838.566,1075.61,1677.122,2151.232,2515.708,3226.83
		c264.807-140.455,533.615-152.42,739.596,91.048c756.085-405.086,1512.157-810.2,2268.228-1215.312
		C5734.036,4183.471,5765.823,4302.577,5810.807,4394.199z"/>
	<path d="M3402.355,3182.813l-540.062,573.919l-359.31-727.648l-15.371-14.232l-804.823-318.813l641.478-489.034l40.066-780.464
		l470.333,257.291c33.549,18.271,61.326-32.738,27.781-51.007l-551.437-301.658l-43.427,845.917l-702.023,535.192l890.274,352.664
		l391.409,792.647l589.378-626.328l947.328-41.009l-148.212-204.996c-22.314-31.002-69.451,2.926-47.137,33.928l0.001,0.001
		l85.073,117.665l-851.395,36.856L3402.355,3182.813z"/>
	<path style="fill:#D92154;" d="M3686.803,2945.755l-0.001,0.005l-340.284,22.429l-9.791,4.667l-424.81,460.707l-257.787-575.304
		l-569.025-205.032l456.069-363.063l18.209-427.3c0.748-19.097-28.287-20.232-29.034-1.139l-17.638,413.913l-486.44,387.241
		l606.384,218.493l270.78,604.3l450.748-488.839l334.443-22.044C3707.719,2973.591,3705.9,2944.558,3686.803,2945.755z"/>
	<path d="M5647.615,1771.676l61.028-3.209l-422.016-466.312l21.375-506.409l-545.65,110.534l-578.048-288.697l73.55,534.26
		l-377.463,337.587l598.65,214.001l337.165,488.689l294.861-392.216l536.548-28.226V1771.676z M5381.96,1727.429l-287.405,15.118
		l-13.552,0.712l-262.748,349.5l-296.782-430.16l-14.118-10.93l-515.312-184.211l327.606-292.994l-36.094-262.185l468.91,217.24
		l9.278,0.967l304.659-68.845l-15.172,290.012l3.701,10.419L5381.96,1727.429L5381.96,1727.429z M5419.169,1725.471
		l-338.593-378.272l16.863-322.359l-337.239,76.206l-481.36-223.008h-0.001l-21.898-159.069l488.249,243.849l18.673,2.392
		l482.954-97.834l-18.752,444.259l7.516,20.608l348.046,384.578L5419.169,1725.471z"/>
	<path style="fill:#D92154;" d="M6278.586,1534.326L6278.586,1534.326c-47.737-335.097-257.726-658.023-558.64-909.234
		c-299.745-250.235-690.221-429.8-1100.375-479.377c-445.447-53.845-974.872,54.954-1220.721,467.279
		c-56.136,94.144-107.118,208.835-157.734,307.714c-86.75,169.462-108.297,335.265-81.594,522.712
		c47.736,335.097,257.726,658.025,558.638,909.234c299.748,250.235,690.223,429.8,1100.375,479.377
		c269.741,32.606,519.3,0.518,724.172-75.71c225.482-83.895,378.103-200.421,495.604-407.319
		c56.964-100.303,121.456-206.258,169.687-307.566C6278.49,1893.351,6305.286,1721.761,6278.586,1534.326z M5522.44,2701.899
		c-196.477,73.103-436.617,103.779-697.075,72.294c-398.699-48.193-778.354-222.813-1069.861-466.17
		c-290.342-242.385-492.741-552.471-538.373-872.801c-23.138-162.428-6.775-327.038,68.672-474.422
		c-6.969,72.643-5.197,148.717,6.048,227.654c47.736,335.097,257.726,658.024,558.638,909.234
		c299.744,250.234,690.219,429.8,1100.373,479.379c355.079,42.912,750.078-12.826,1032.027-248.307l0.002,0.001
		C5878.108,2516.99,5723.734,2627.003,5522.44,2701.899z M6157.515,2012.362c-49.433,105.573-122.702,196.403-210.868,270.47
		c-269.441,226.359-649.356,277.441-988.953,236.397c-398.698-48.194-778.352-222.812-1069.859-466.172
		c-290.341-242.384-492.738-552.471-538.371-872.801c-11.614-81.536-12.475-159.828-3.489-234.164
		c14.524-120.157,47.05-194.75,100.266-298.708l0.004,0c232.868-395.541,742.102-495.133,1166.498-443.833
		c398.698,48.194,778.354,222.812,1069.861,466.17c290.342,242.385,492.738,552.471,538.372,872.801
		C6245.757,1716.489,6221.648,1875.39,6157.515,2012.362z"/>
	<path style="fill:#D92154;" d="M5705.476,2210.307L5705.476,2210.307c-130.547,74.673-282.569,107.775-431.965,111.927
		c-19.094,0.523-18.3,29.557,0.797,29.033c154.092-4.282,310.997-38.674,445.629-115.685
		C5736.539,2226.084,5722.08,2200.809,5705.476,2210.307z"/>
</g>
<path style="opacity:0.07;fill:#D92154;" d="M5980.444,3442.746c-71.111-96-277.333-395.819-277.333-395.819
	s-525.86,340.157-1447.852-18.741c16.959,37.741,29.167,77.172,33.899,118.671c0.101,0.881-0.693,1.596-1.422,1.868
	c-23.731,8.859-48.382,14.695-73.387,18.603c-108.156,16.901-218.164,3.352-326.906,2.815
	c-119.753-0.59-243.877-22.437-360.975,11.653c-55.497,16.156-102.426,50.461-143.743,89.979
	c-41.565,39.755-81.056,83.972-115.64,129.922c-32.781,43.555-61.521,90.176-96.796,131.84
	c-37.153,43.883-81.574,79.039-132.517,105.618c-25.349,13.225-53.024,25.271-74.418,44.68
	c-18.092,16.414-30.373,37.962-44.819,57.391c-11.356,15.273-24.421,30.183-42.191,38.003c-11.155,4.909-12.636,5.624-20.738-2.367
	c-10.175-10.036-19.786-20.643-28.855-31.686c-72.382-88.14-108.815-199.825-156.239-301.985
	c-28.673-61.767-55.365-124.446-84.193-186.154c-25.716-55.046-49.806-112.995-85.64-162.432
	c-23.996-33.104-54.169-59.88-90.338-79.004c-38.105-20.148-79.618-33.355-119.948-48.21
	c-122.175-45.004-239.326-101.996-361.036-148.097c-100.002-37.879-208.93-64.673-299.114-124.097
	c-0.703-0.463-1.156-1.337-0.89-2.188c13.238-42.355,45.788-74.844,80.165-101.262c41.762-32.093,88.443-57.152,134.49-82.419
	c99.911-54.824,190.805-123.984,284.075-189.16c41.555-29.038,87.487-55.695,119.555-95.878
	c22.881-28.671,33.626-62.633,37.669-98.701c5.193-46.326,3.906-93.259,6.728-139.751c4.132-68.069,10.448-136.022,19.092-203.668
	c8.281-64.81,21.119-128.417,24.039-193.825c2.784-62.348,3.119-125.334,19.52-186.003c0.27-1,1.382-1.645,2.383-1.353
	c51.207,14.953,100.706,34.96,148.625,58.339c163.233,79.64,306.95,195.077,473.201,268.605c-0.656-4.186-1.287-8.364-1.9-12.538
	c-9.279-8.078-19.056-15.726-29.417-22.866c-2.042-1.407-0.103-4.764,1.955-3.346c9.343,6.438,18.199,13.263,26.622,20.435
	c-53.212-372.895,59.868-696.322,120.533-831.65c120.589-269,209.978-365,209.978-365l-206.893-221.045
	c0,0-376.219,238.822-735.33-91.844C2257.778,239.19,74.667,1227.635,74.667,1227.635S245.333,1600.968,0,1856.968
	c24.889,46.222,2688,3456,2688,3456s433.778-220.444,736,88.889c85.333-24.889,2478.223-1315.556,2478.223-1315.556
	S5720.889,3752.079,5980.444,3442.746z"/>
</svg>
