<?xml version="1.0" encoding="iso-8859-1"?>
<!-- Generator: Adobe Illustrator 24.2.3, SVG Export Plug-In . SVG Version: 6.00 Build 0)  -->
<svg version="1.1" id="&#x421;&#x43B;&#x43E;&#x439;_1"
	 xmlns="http://www.w3.org/2000/svg" xmlns:xlink="http://www.w3.org/1999/xlink" x="0px" y="0px" viewBox="0 0 6536.667 6553.594"
	 style="enable-background:new 0 0 6536.667 6553.594;" xml:space="preserve">
<g>
	<path d="M5307.225,3520.417l0,0.002c-19.791-63.236-33.938-68.839-93.596-80.514c-137.43-26.891-264.732-90.351-303.595-235.4
		c-15.379-57.402-28.884-64.816-96.398-77.406c-1115.31-207.977-2282.586,841.632-3704.93,730.044
		c-47.131-3.696-66.595,1.905-72.157,52.984c-16.035,147.199-72.753,240.788-227.009,262.397
		c-68.567,9.607-75.683,44.421-55.424,104.58l349.031,1036.378c21.758,64.741,40.847,66.179,101.552,66.895
		c209.849,2.515,350.337,84.193,439.458,275.568c25.266,54.259,52.575,71.722,111.881,72.246
		c645.731,5.701,1170.608-125.469,1661.201-275.825c641.219-196.521,1228.674-420.8,1915.165-423.652
		c58.046-0.24,65.641-10.573,78.732-61.47c28.968-112.573,85.036-184.261,202.99-207.062c54.334-10.5,69.763-36.166,53.278-88.818
		L5307.225,3520.417z M5607.963,4727.953c-130.8,25.285-196.345,106.074-228.543,231.204c-7.879,30.722-11.112,36.664-47.144,36.814
		c-690.597,2.869-1278.982,227.208-1923.787,424.836c-488.445,149.707-1010.809,280.302-1652.195,274.64
		c-46.453-0.409-62.537-10.828-82.347-53.37c-94.495-202.92-246.738-291.884-469.24-294.447
		c-44.914-0.511-53.734,5.292-70.486-44.549L785.556,4267.782c-13.715-40.719-18.393-56.206,28.479-62.772
		c169.626-23.764,237.433-128.941,255.131-291.417c3.263-29.959,6.523-26.095,36.971-23.707
		c1424.455,111.755,2600.923-935.803,3701.592-730.557c47.106,8.784,60.36,15.467,70.587,53.649
		c42.342,158.028,178.524,229.708,329.022,259.158c45.374,8.134,57.576,22.274,68.555,58.041l360.057,1150.56l0.003,0.002
		C5646.674,4714.992,5642.352,4721.306,5607.963,4727.953z"/>
	<path d="M1846.046,4647.88h-0.002c-33.464-22.29-72.578-7.167-86.243,29.692c-12.828,34.606,0.137,79.041,31.192,99.728
		c32.746,21.81,70.908,7.802,85.333-27.361C1890.669,4714.988,1877.765,4669.007,1846.046,4647.88z M1846.049,4737.262
		c-6.546,16.409-21.497,22.979-36.949,12.687c-18.493-12.319-26.021-40.726-18.478-61.076c6.342-17.105,21.569-24.131,37.318-13.642
		C1846.609,4687.667,1854.249,4716.741,1846.049,4737.262z"/>
	<path style="fill:#D7154B;" d="M5826.852,5664.662l0.002,0.001c-7.69,41.896-68.913,27.586-98.212,23.099
		c-729.809-111.783-1425.38,113.122-2167.748,353.158c-790.479,255.592-1634.512,528.5-2624.493,424.251
		c-113.081-11.898-157.409-3.179-199.248-126.374L80.966,4406.719c-23.354-68.773-32.87-96.56,45.247-117.613
		c41.721-11.147,24.771-74.583-16.95-63.435c-118.978,32.066-126.048,97.275-90.448,202.108l656.187,1932.079
		c54.661,160.953,105.408,154.827,254.72,170.546c163.773,17.246,323.476,24.345,479.543,23.039
		c0.129-0.844,0.742-1.601,1.844-1.601c1.091,0,1.704,0.739,1.841,1.572c798.736-7.362,1502.199-234.815,2167.975-450.086
		c734.641-237.539,1422.975-460.103,2137.956-350.59c72.083,11.04,156.062,12.929,172.433-76.262
		C5899.083,5634.079,5834.621,5622.269,5826.852,5664.662z"/>
	<path style="fill:#D7154B;" d="M5475.176,3209.988c-33.947-107.889-71.502-175.062-186.294-210.864v0
		c-1686.245-525.957-2796.691,983.056-4802.426,557.632c-146.786-31.142-206.634,46.208-162.614,186.105L948.884,5729.34
		c40.872,129.899,73.81,154.266,205.657,176.157c862.014,143.13,1606.26-26.277,2317.236-223.396
		c804.082-222.93,1586.826-488.526,2435.297-353.37c141.804,22.588,218.212-52.608,173.995-193.132L5475.176,3209.988z
		 M5917.347,5264.011c-862.3-137.359-1647.807,128.914-2464.278,355.179c-703.814,195.049-1440.11,362.37-2287.998,221.586
		c-106.403-17.665-120.498-25.995-153.523-130.957L386.507,3723.342c-28.718-91.267-9.978-122.812,86.337-102.38
		c2017.55,427.929,3143.612-1074.73,4796.52-559.174v-0.001c92.158,28.745,116.081,81.691,143.149,167.719l605.893,1925.61
		C6047.748,5248.37,6010.573,5278.86,5917.347,5264.011z"/>
	<path style="fill:#D7154B;" d="M3356.708,3862.453l0.002,0.001c-315.701-210.281-666.559-68.605-795.191,278.32
		c-129.949,350.478,1.299,812.635,316.165,1022.36c315.701,210.281,666.558,68.605,795.191-278.32
		C3802.811,4534.369,3671.607,4072.2,3356.708,3862.453z M3642.054,4873.515c-121.296,327.146-448.322,460.721-746.264,262.269
		c-302.228-201.307-428.149-647.401-303.453-983.709v0c121.297-327.145,448.322-460.721,746.264-262.269
		C3640.966,4091.204,3766.687,4537.38,3642.054,4873.515z"/>
	<path d="M4560.852,4083.579h-0.002c-33.464-22.291-72.578-7.167-86.243,29.692c-12.829,34.606,0.137,79.041,31.191,99.728
		c34.302,22.845,73.969,6.264,86.886-31.497C4604.416,4147.17,4591.371,4103.905,4560.852,4083.579z M4561.537,4171.131
		c-5.999,17.329-21.332,25.37-37.631,14.515c-18.493-12.319-26.021-40.726-18.478-61.075c6.342-17.105,21.569-24.131,37.318-13.642
		C4560.977,4123.073,4568.55,4150.853,4561.537,4171.131z"/>
	<path style="fill:#D7154B;" d="M5929.508,5434.748L5929.508,5434.748c-10.697,54.133-63.845,51.913-108.492,45.831
		c-823.386-112.162-1536.766,66.197-2305.381,341.227c-771.487,276.058-1661.443,477.804-2481.049,346.704
		c-107.138-16.805-120.633-18.438-156.624-128.921L222.409,4027.216c-21.631-66.401-41.383-106.855,42.146-122.47
		c42.394-7.937,30.328-72.401-12.07-64.462c-130.893,24.465-126.728,102.098-92.482,207.22l655.554,2012.372
		c47.859,146.919,66.327,150.563,208.758,173.352c830.581,132.857,1731.445-69.722,2513.41-349.529
		c757.89-271.191,1462.576-448.753,2274.562-338.146c82.241,11.203,163.317-5.26,181.685-98.222
		C6002.247,5404.936,5937.784,5392.352,5929.508,5434.748z"/>
	<path d="M4355.286,637.765L4355.286,637.765l455.028-263.69c11.184-6.478,1.321-23.504-9.863-17.027l-455.028,263.69
		C4334.24,627.216,4344.103,644.243,4355.286,637.765z"/>
	<path style="fill:#D7154B;" d="M4926.567,1009.21l226.316-357.909c11.471-18.219-16.266-35.682-27.736-17.463l0,0l-226.316,357.909
		C4887.36,1009.967,4915.096,1027.43,4926.567,1009.21z"/>
	<path d="M4355.286,1247.801l282.487-163.701c11.184-6.478,1.321-23.505-9.863-17.027l-282.487,163.701
		C4334.24,1237.252,4344.103,1254.279,4355.286,1247.801z"/>
	<path d="M4070.195,2047.273c-154.177,199.908,141.3,382.442,260.796,147.778l531.025-1042.987
		c5.411-10.626,12.595-26.505,14.559-37.419c6.741-37.614-30.263-55.12-57.766-33.68c-11.125,8.67-20.996,22.917-29.648,34.134
		l-718.964,932.176L4070.195,2047.273z M4120.729,2089.089l521.067-675.592h0.002c47.337-61.376,44.705-61.428,9.988,6.755
		l-382.444,751.094C4198.054,2311.357,4025.653,2212.351,4120.729,2089.089z"/>
	<path d="M4355.286,1125.794l416.302-241.249c11.184-6.478,1.321-23.505-9.863-17.027l-416.302,241.249
		C4334.24,1115.245,4344.103,1132.271,4355.286,1125.794z"/>
	<path d="M4355.286,1369.808l150.881-87.434c11.184-6.478,1.321-23.504-9.863-17.027l-150.881,87.434
		C4334.24,1359.259,4344.103,1376.286,4355.286,1369.808z"/>
	<path style="fill:#D7154B;" d="M6532.75,2098.183c-7.881-367.635-117.561-720.831-315.574-1032.078
		c-207.961-326.886-502.854-591.222-843.729-773.785C5026.532,106.52,4622.634,0,4191.587,0
		c-432.239,0-837.175,107.109-1184.734,293.861c-337.405,181.297-629.597,442.792-836.751,765.818
		c-194.472,303.251-309.627,654.133-319.453,1028.903c-4.195,160.044-0.685,322.117-0.685,482.204
		c0,251.197,47.716,498.62,140.584,731.991c15.876,40.03,76.743,15.891,60.867-24.141
		c-79.495-199.771-124.846-411.059-133.964-625.842c53.121,197.848,136.691,386.114,246.267,559.155
		c22.944,36.438,78.418,1.51,55.474-34.929c-187.606-296.267-293.027-631.807-302.738-982.579l182.341,0.007
		c64.861,0,64.861-98.619,0-98.619l-182.516,0.008c8.283-354.554,114.1-687.253,293.944-976.639l161.313,85.036
		c19.084,10.05,34.368-18.969,15.28-29.021l-158.988-83.811c201.045-312.133,483.825-564.417,810.292-739.756l93.204,147.399
		c11.469,18.219,39.207,0.757,27.736-17.463l-91.883-145.31c318.307-165.229,684.589-262.446,1075.116-270.011l-0.015,168.05
		c0,64.861,98.62,64.861,98.62,0l-0.015-168.05c390.527,7.565,756.807,104.782,1075.116,270.011l-91.883,145.31
		c-11.471,18.219,16.266,35.682,27.736,17.463l93.204-147.399c326.472,175.341,609.243,427.622,810.291,739.756l-158.988,83.811
		c-19.088,10.051-3.804,39.07,15.28,29.021l161.313-85.036c179.899,289.471,285.722,622.28,293.951,976.951l-182.523-0.319
		c-64.861,0-64.861,98.619,0,98.619l182.341-0.299c-4.251,154.127-27.016,305.402-67.097,451.672
		c-50.339,183.707-127.994,359.524-230.593,523.19l-157.39-82.969c-19.084-10.05-34.368,18.969-15.28,29.021l154.962,81.689
		c-72.652,111.844-156.5,216.956-250.15,314.044c-29.896,31.08,17.361,76.536,47.256,45.457
		c244.274-253.246,424.944-561.156,516.688-901.075c-21.935,444.72-197.704,859.549-487.85,1195.891
		c-28.173,32.559,21.395,75.447,49.565,42.89c299.006-346.61,480.531-774.587,503.817-1232.829h0
		C6539.933,2478.424,6536.687,2282.06,6532.75,2098.183z"/>
	<path d="M4355.286,1003.785l550.585-319.064c11.184-6.478,1.321-23.505-9.863-17.027l-550.585,319.064
		C4334.24,993.236,4344.103,1010.263,4355.286,1003.785z"/>
	<path style="fill:#D7154B;" d="M4208.024,1729.77V410.783c0-21.619-32.873-21.619-32.873,0h-0.001V1729.77
		c0,9.078,7.359,16.437,16.437,16.437C4200.665,1746.207,4208.024,1738.847,4208.024,1729.77z"/>
	<path d="M4355.286,515.756l307.484-178.185c11.184-6.478,1.321-23.505-9.863-17.027l-307.484,178.185
		C4334.24,505.207,4344.103,522.234,4355.286,515.756z"/>
	<path d="M4355.583,393.59l146.525-84.926c11.184-6.478,1.321-23.504-9.863-17.027l-146.526,84.926
		C4334.537,383.042,4344.399,400.068,4355.583,393.59z"/>
	<path d="M4355.286,759.771l585.346-339.207c11.184-6.478,1.321-23.504-9.863-17.027l-585.346,339.207
		C4334.24,749.222,4344.103,766.249,4355.286,759.771z"/>
	<path d="M4355.286,881.778l688.651-399.072c11.184-6.478,1.321-23.504-9.863-17.027l-688.651,399.072
		C4334.24,871.229,4344.103,888.256,4355.286,881.778z"/>
</g>
<path style="opacity:0.07;fill:#D92154;" d="M2055.859,3285.065c0,0-376-477.333-285.333-1290.667S2604.48,184.62,4062.114,156.176
	s2298.958,1013.221,2315.523,2126.222c9.526,640.083-184.889,792.889-568.889,1347.555l-195.556-526.222
	c0,0-115.861-362.397-1187.397-341.064c-510.641,10.166-1127.269,257.875-1665.936,443.469
	C2221.192,3391.731,2170.968,3480.9,2055.859,3285.065z"/>
</svg>
