<?xml version="1.0" encoding="iso-8859-1"?>
<!-- Generator: Adobe Illustrator 24.2.3, SVG Export Plug-In . SVG Version: 6.00 Build 0)  -->
<svg version="1.1" id="&#x421;&#x43B;&#x43E;&#x439;_1"
	 xmlns="http://www.w3.org/2000/svg" xmlns:xlink="http://www.w3.org/1999/xlink" x="0px" y="0px" viewBox="0 0 6375.817 4750.55"
	 style="enable-background:new 0 0 6375.817 4750.55;" xml:space="preserve">
<path style="opacity:0.06;fill:#DA2658;" d="M1021.151,0v1544.692c10.656-0.03,21.311-0.084,31.966-0.182
	c116.033-1.06,232.391-5.264,348.171,4.782c28.191,2.446,56.316,5.753,84.266,10.191c19.967,3.17,39.968,6.253,59.414,11.911
	c32.771,9.534,66.61,25.107,88.811,51.926c23.32,28.17,25.77,63.914,14.215,97.741c-10.426,30.521-32.199,53.869-61.957,66.264
	c-31.106,12.956-66.017,14.637-99.289,14.069c-37.273-0.636-74.362-4.358-111.665-4.432
	c-105.784-0.21-213.279,12.121-314.987,41.915c23.699,14.948,47.444,29.834,70.599,45.619c25.804,17.59,50.973,36.257,74.221,57.145
	c23.157,20.806,42.924,43.997,61.355,69.013c43.262,58.72,81.126,121.267,123.117,180.893
	c38.374,54.49,73.787,114.674,89.731,179.967c5.921,24.247,8.91,49.532,12.26,74.248c1.597,11.783,3.096,23.617,3.764,35.494
	c0.484,8.615,0.663,16.696-2.651,24.776c-8.479,20.669-26.392,33.312-43.203,46.821c-8.865,7.124-17.489,14.801-23.708,24.428
	c-8.006,12.391-10.946,27.011-11.806,41.561c-1.929,32.616,7.519,64.466,13.226,96.26c5.645,31.447,6.145,61.294-3.558,91.971
	c-20.422,64.563-52.185,123.771-79.668,185.345c-21.021,47.098-43.354,94.244-73.141,136.539
	c-25.415,36.088-60.322,75.633-107.569,78.648c-39.37,2.513-65.633-28.6-84.529-59.064c-10.795-17.404-20.12-35.666-30.773-53.153
	c-7.721-12.674-16.666-23.943-26.612-34.418v448.364h1960.5l48.867-66.438c305.8-485.563,823.133-386.896,1085.654,2.514
	l44.146,63.924h2215.5V0H1021.151z"/>
<g>
	<path d="M3831.319,3708.809c0,142.013-115.116,257.132-257.13,257.132c-25.862,0-25.862,39.322,0,39.322
		c163.719,0,296.452-132.734,296.452-296.454C3870.641,3682.947,3831.319,3682.947,3831.319,3708.809z"/>
	<path d="M3496.508,960.15H1822.205c-43.102,0-43.102,65.536,0,65.536h1674.303C3539.61,1025.686,3539.61,960.15,3496.508,960.15z"
		/>
	<path d="M1815.535,1464.889h2298.619c34.208,0,34.208-65.536,0-65.536H1815.535
		C1781.327,1399.353,1781.327,1464.889,1815.535,1464.889z"/>
	<path d="M3322.266,4315.53L3322.266,4315.53l-223.601,310.398L2988.579,4412.4l-255.972-29.737l246.941-340.296
		c25.255-34.855-27.741-73.25-52.993-38.399l-312.613,430.796l332.528,38.632l142.891,277.154l285.897-396.875
		C3400.345,4318.823,3347.353,4280.678,3322.266,4315.53z"/>
	<path d="M1080.668,502.254v754.898c0,25.862,39.322,25.862,39.322,0V502.254C1119.99,476.392,1080.668,476.392,1080.668,502.254z"
		/>
	<path d="M6052.718,3345.431V502.254c0-25.862-39.322-25.862-39.322,0v2843.177
		C6013.396,3371.293,6052.718,3371.293,6052.718,3345.431z"/>
	<path d="M3908.113,3374.884L3908.113,3374.884c-183.406-183.406-484.442-183.405-667.85,0
		c-183.406,183.406-183.406,484.443,0.001,667.848c183.405,183.408,484.442,183.408,667.848,0.002
		C4091.518,3859.326,4091.52,3558.291,3908.113,3374.884z M3286.601,3996.396c-157.951-157.948-157.951-417.226-0.001-575.175
		c157.951-157.948,417.226-157.951,575.177,0c157.95,157.949,157.949,417.226,0,575.177
		C3703.827,4154.347,3444.55,4154.347,3286.601,3996.396z"/>
	<path style="fill:#DA2658;" d="M849.477,96.384v1425.438h0c-283.701,51.631-521.064,353.639-709.893,558.728
		C-23.248,2257.392-8.779,2322.695,13.293,2424.614c9.816,45.325,28.427,112.331,17.134,167.76
		c-15.675,76.931-25.917,133.967-1.3,209.681c19.623,60.354,51.41,131.29,58.279,190.115c4.522,38.733,10.892,133.544,19.7,172.361
		c32.404,142.802,130.93,226.849,161.001,398.743c26.808,153.244,8.282,371.891-1.493,529.249
		c-2.526,42.933,62.753,46.773,65.279,3.84c9.799-157.737,22.89-335.863,7.52-493.058c17.059,33.634,30.289,67.158,36.424,100.244
		c7.741,42.257,71.999,30.49,64.257-11.775c-33.431-180.314-228.432-361.729-269.244-541.579
		c-8.104-35.72-14.089-128.368-18.418-165.448c-7.96-68.174-39.332-135.971-61.097-202.915
		c-21.033-64.688-10.277-110.783,3.093-176.402c14.115-69.277-5.924-142.883-17.134-194.638
		c-18.395-84.945-29.375-134.13,110.419-285.952c185.323-201.28,432.974-520.444,718.795-544.624
		c207.722-17.571,396.16-13.043,603.192,13.901c139.344,18.131,159.405,178.84-7.231,179.553
		c-157.832,0.675-371.627-19.979-537.334,30.702c-179.51,54.901-442.017,271.745-610.759,374.813
		c-36.658,22.364-2.61,78.172,34.047,55.808c161.652-98.739,569.93-449.398,713.414-310.187
		c111.139,107.829,205.76,213.308,292.717,342.197c46.73,69.261,64.195,119.242,58.279,164.431
		c-4.702,35.905-24.279,71.8-55.792,113.899c-60.594-101.194-140.613-190.833-195.472-252.293
		c-108.44-121.472-138.994-123.809-295.901-49.556c-114.889,54.376-315.691,149.417-418.367,186.955
		c-40.408,14.647-18.138,76.088,22.272,61.441c106.039-38.767,308.287-134.492,424.001-189.259
		c130.603-61.811,132.836-62.983,219.355,33.939c64.853,72.655,166.35,186.358,223.219,308.541
		c31.342,67.336,29.937,136.063-12.862,197.36c-21.982-42.143-59.454-89.893-102.623-129.78
		c-139.352-128.754-208.765-97.921-370.826-43.719c-102.767,34.369-217.92,77.609-278.805,104.03
		c-39.399,17.005-13.542,76.909,25.855,59.905c59.091-25.644,171.981-67.969,273.685-101.983
		c139.126-46.532,187.711-79.216,305.802,29.894c55.488,51.269,99.357,113.223,102.117,147.535
		c8.967,111.475-34.206,170.854-100.836,244.956c-71.298,79.285-155.314,5.196-119.999-78.249c6.77,3.383,13.934,6.011,21.363,7.989
		c24.956,6.567,34.934-31.376,9.985-37.94c-9.13-2.43-14.199-3.783-21.07-9.495c12.989-12.14,24.802-26.096,33.14-37.041
		c26.065-34.138-30.067-74.162-56.129-40.028c-56.934,74.725-203.231,150.075-297.317,158.01
		c-42.929,3.534-37.56,68.813,5.377,65.279c18.176-1.534,36.711-4.713,55.306-9.225c-5.619,79.063-40.881,183.31-91.459,244.192
		c-27.41,32.959,22.767,74.688,50.177,41.728c15.554-18.721,29.793-40.499,42.45-64.067v347.122h161.478
		c-1.719,110.38-0.326,239.063-20.77,346.71c-7.911,42.266,56.347,54.289,64.257,12.033
		c21.259-111.937,20.013-244.076,21.805-358.743h1854.468c43.102,0,43.102-65.536,0-65.536H915.013l-0.549-524.729
		c38.003-15.08,74.774-34.25,109.216-56.278c-20.792,120.323,134.84,220.534,236.176,108.871
		c78.511-86.493,131.338-153.535,124.902-285.315c87.299-89.47,100.317-198.98,46.288-310.579
		c48.628-60.886,79.187-111.889,86.553-168.129c8.154-62.27-12.445-125.998-68.775-209.488
		c-89.706-132.961-186.794-241.224-301.42-352.437c-14.679-14.243-29.846-25.605-45.496-34.424
		c133.607-15.581,267.033-4.013,400.816-4.585c246.73-1.056,236.734-280.803,15.423-309.6
		c-205.558-26.751-396.777-32.344-603.134-15.563V161.92h5318.353v3514.12H4208.978c-43.102,0-43.102,65.536,0,65.536h2089.923
		V96.384H849.477z"/>
	<path d="M4187.969,4042.367l246.941,340.296l-255.972,29.737l-110.086,213.528l-223.601-310.398
		c-25.087-34.853-78.08,3.292-52.993,38.145h0l285.897,396.875l142.891-277.154l332.528-38.632l-312.614-430.796
		C4215.71,3969.117,4162.714,4007.512,4187.969,4042.367z"/>
</g>
<path style="fill:#FFFFFF;stroke:#000000;stroke-width:34;stroke-linecap:round;stroke-linejoin:round;stroke-miterlimit:10;" d="
	M5176.938,1960.535c-42.896,43.079-86.161,85.851-127.57,130.417c-109.808,118.47-200.86,248.705-247.342,405.862
	c-78.673,266.156,12.253,519.566,234.653,652.769c14.048,8.419,30.08,13.616,51.127,22.902
	c-23.337-53.417-47.167-97.18-62.021-143.787c-62.456-195.844-33.921-383.581,64.062-560.358
	c57.812-104.297,127.263-201.97,186.93-305.278c51.686-89.443,101.575-180.491,143.666-274.7
	c41.409-92.536,62.638-191.881,58.429-297.109C5407.628,1739.374,5289.404,1847.57,5176.938,1960.535z"/>
<path style="fill:#FFFFFF;stroke:#000000;stroke-width:34;stroke-linecap:round;stroke-linejoin:round;stroke-miterlimit:10;" d="
	M5346.288,967.76c-27.482-22.838-36.582-47.413-34.973-81.641c4.209-87.46,3.157-87.46-75.392-118.409
	c-4.021-1.609-7.242-5.201-15.472-11.266v-107.64c77.803-27.978,155.174-55.956,240.843-36.397
	c22.652,5.201,45.99,11.205,47.845-27.793c-11.266-5.94-22.342-16.217-34.353-17.391c-82.943-8.233-166.008-15.043-249.012-15.043
	c-60.598,0-121.135,3.592-181.668,12.999c-17.765,2.725-33.115,21.047-50.695,32.869c52.55,58.554,55.646,74.339,37.386,164.46
	c-85.976,28.599-87.46,28.66-84.984,119.711c0.988,38.994-9.657,66.662-39.8,93.527c-76.012,67.59-124.784,152.823-142.92,253.839
	c-26.184,146.388,3.589,290.178,17.145,449.932c42.708-60.412,73.287-114.756,138.775-124.845
	c-33.49,65.674-72.855,124.724-94.829,189.652c-57.563,170.406-44.813,347.615-37.817,524.457
	c14.048-18.632,23.644-38.191,31.692-58.308c68.085-170.342,172.693-314.871,309.238-436.498
	c60.473-53.852,124.97-103.43,183.527-159.201c53.542-51.005,104.604-105.225,151.089-162.604
	c53.046-65.424,59.917-142.674,41.78-223.759C5480.358,1123.619,5428.365,1036.035,5346.288,967.76z"/>
</svg>
