<?xml version="1.0" encoding="iso-8859-1"?>
<!-- Generator: Adobe Illustrator 24.2.3, SVG Export Plug-In . SVG Version: 6.00 Build 0)  -->
<svg version="1.1" id="&#x421;&#x43B;&#x43E;&#x439;_1"
	 xmlns="http://www.w3.org/2000/svg" xmlns:xlink="http://www.w3.org/1999/xlink" x="0px" y="0px" viewBox="0 0 6197.168 5399.5"
	 style="enable-background:new 0 0 6197.168 5399.5;" xml:space="preserve">
<g>
	<path d="M5099.5,3892.079l297.18,93.531c8.22,2.557,12.105-9.938,3.89-12.494l-297.18-93.532
		C5095.171,3877.029,5091.286,3889.523,5099.5,3892.079z"/>
	<path d="M5141.714,4025.617l299.004,85.618c8.288,2.355,11.864-10.244,3.583-12.596l-299.004-85.618
		C5137.01,4010.665,5133.435,4023.264,5141.714,4025.617z"/>
	<path d="M5057.26,3758.539l295.354,101.448c8.151,2.794,12.399-9.597,4.25-12.392l-295.355-101.448
		C5053.359,3743.353,5049.111,3755.745,5057.26,3758.539z"/>
	<path d="M4972.83,3491.434l291.71,117.286c7.983,3.198,12.843-8.938,4.863-12.135l-291.71-117.286
		C4969.71,3476.102,4964.85,3488.237,4972.83,3491.434z"/>
	<path d="M4930.613,3357.894L4930.613,3357.894l289.888,125.203c7.915,3.401,13.083-8.632,5.172-12.032l-289.888-125.203
		C4927.871,3342.46,4922.701,3354.494,4930.613,3357.894z"/>
	<path d="M5015.044,3624.974l293.533,109.367c8.054,2.995,12.602-9.244,4.557-12.237l-293.533-109.367
		C5011.547,3609.742,5006.999,3621.982,5015.044,3624.974z"/>
	<path d="M5768.641,4909.234l111.851,312.408c14.478,40.576,76.174,18.562,61.695-22.015l-111.851-312.408
		C5815.858,4846.644,5754.162,4868.657,5768.641,4909.234z"/>
	<path d="M5310.627,4559.723l306.297,53.945c8.488,1.479,10.736-11.423,2.252-12.903l-306.297-53.945
		C5304.391,4545.34,5302.143,4558.244,5310.627,4559.723z"/>
	<path d="M5183.93,4159.13l300.827,77.698c8.319,2.155,11.592-10.492,3.277-12.646l-300.827-77.698
		C5178.888,4144.33,5175.615,4156.977,5183.93,4159.13z"/>
	<path d="M5268.412,4426.184l304.473,61.864c8.419,1.683,10.977-11.118,2.561-12.801l-304.473-61.863
		C5262.553,4411.701,5259.995,4424.501,5268.412,4426.184z"/>
	<path d="M5226.172,4292.669l302.649,69.782c8.388,1.917,11.299-10.832,2.918-12.749l-302.649-69.781
		C5220.702,4278.003,5217.791,4290.752,5226.172,4292.669z"/>
	<path d="M4761.778,2823.636l282.594,156.871c7.511,4.176,13.856-7.243,6.349-11.417l-282.594-156.871
		C4760.617,2808.043,4754.272,2819.462,4761.778,2823.636z"/>
	<path d="M4593.02,2289.377l275.301,188.539c7.095,4.843,14.469-5.96,7.375-10.803l-275.301-188.539
		C4593.298,2273.731,4585.925,2284.534,4593.02,2289.377z"/>
	<path d="M4888.397,3224.331l288.065,133.119c7.812,3.603,13.291-8.274,5.479-11.877l-288.065-133.12
		C4886.064,3208.85,4880.585,3220.728,4888.397,3224.331z"/>
	<path d="M4466.478,1888.656l269.831,212.292c6.76,5.313,14.849-4.978,8.089-10.292l-269.83-212.292
		C4467.807,1873.051,4459.719,1883.343,4466.478,1888.656z"/>
	<path d="M4424.315,1755.067l268.005,220.209c6.627,5.449,14.92-4.64,8.294-10.087l-268.005-220.208
		C4425.982,1739.532,4417.689,1749.62,4424.315,1755.067z"/>
	<path d="M4635.209,2422.942L4635.209,2422.942l277.124,180.622c7.197,4.675,14.314-6.283,7.117-10.958l-277.124-180.623
		C4635.129,2407.309,4628.012,2418.268,4635.209,2422.942z"/>
	<path d="M4508.667,2022.221l271.654,204.375c6.869,5.151,14.701-5.292,7.833-10.444L4516.5,2011.777
		C4509.631,2006.626,4501.798,2017.07,4508.667,2022.221z"/>
	<path d="M4677.401,2556.506l278.946,172.707c7.296,4.506,14.157-6.604,6.86-11.109l-278.946-172.708
		C4676.964,2540.89,4670.104,2552,4677.401,2556.506z"/>
	<path d="M4803.994,2957.202l284.416,148.951c7.608,3.974,13.654-7.595,6.042-11.571l-284.416-148.952
		C4802.429,2941.657,4796.382,2953.227,4803.994,2957.202z"/>
	<path d="M4846.183,3090.767l286.24,141.038c7.715,3.805,13.495-7.925,5.786-11.726l-286.24-141.037
		C4844.254,3075.236,4838.473,3086.966,4846.183,3090.767z"/>
	<path d="M4719.589,2690.072l280.771,164.788c7.401,4.338,14.004-6.929,6.606-11.264l-280.771-164.788
		C4718.793,2674.469,4712.191,2685.736,4719.589,2690.072z"/>
	<path style="fill:#D92154;" d="M5215.235,4530.226l-881.305-2861.353c-7.576-24.648-45.056-13.129-37.479,11.521l0,0
		l881.305,2861.353C5185.333,4566.396,5222.813,4554.877,5215.235,4530.226z"/>
	<path d="M4550.831,2155.786l273.477,196.458c6.968,5.016,14.601-5.58,7.628-10.599l-273.477-196.458
		C4551.492,2140.171,4543.859,2150.768,4550.831,2155.786z"/>
	<path style="fill:#D92154;" d="M4956.736,4704.608c42.426-6.733,32.189-71.245-10.24-64.511l-388.225,61.989
		c-42.426,6.733-32.19,71.245,10.24,64.511L4956.736,4704.608z"/>
	<path d="M5115.958,4809.258l125.667,410.684c12.46,41.081,74.923,22.137,62.464-18.945l-125.668-410.684
		C5165.962,4749.232,5103.499,4768.176,5115.958,4809.258z"/>
	<path style="fill:#D92154;" d="M4314.91,4339.376l186.099,877.442c8.922,42.088,72.923,28.526,64-13.568l-186.099-877.442
		C4369.988,4283.719,4305.987,4297.281,4314.91,4339.376z"/>
	<path style="fill:#D92154;" d="M5825.556,4680.117L4808.423,1911.799c-20.443-55.708-14.75-48.591-60.032-86.893
		c-200.388-169.484-400.825-338.914-601.243-508.363c-27.77-24.662-38.909-36.142-68.617,2.079l-248.588,312.86
		c-39.383-144.096-87.094-321.764-150.695-500.669c-5.811,4.561-10.715,10.334-14.945,16.73
		c-10.119,15.301-18.052,35.841-31.685,49.182c1.575,5.774,2.96,11.604,4.404,17.403c2.585,10.378,5.99,20.505,8.507,30.904
		c2.115,8.739,3.913,17.659,6.034,26.485c5.594,13.378,10.714,26.477,15.313,39.23c3.88,11.967,7.743,24.035,11.595,36.18
		c0.13,0.128,0.252,0.273,0.355,0.459c5.897,10.615,9.622,22.234,12.596,33.96c2.65,10.448,4.748,21.03,7.524,31.447
		c2.266,8.502,4.12,17.078,6.01,25.67c0.578,2.627,1.17,5.253,1.789,7.873c4.667,11.851,8.875,23.492,12.611,34.893
		c1.434,2.38,3.01,4.669,4.797,6.802c1.269,1.515-0.208,3.564-1.671,3.366c2.681,9.142,5.354,18.339,8.024,27.565
		c0.023,0.05,0.052,0.093,0.071,0.146c2.865,7.713,5.216,15.604,7.305,23.56c3.738,14.232,6.67,28.662,10.364,42.905
		c3.645,14.055,8.055,27.984,14.729,40.924c0.68,1.319-0.232,2.539-1.322,2.848c4.292,15.58,8.573,31.267,12.845,47.061
		c1.943,5.967,3.733,11.981,5.388,18.034c4.828,17.653,8.62,35.559,12.697,53.395c0.911,2.168,1.804,4.33,2.679,6.486
		c5.953,22.66,11.891,45.538,17.815,68.603c1.689,5.125,3.135,10.326,4.46,15.556c1.335,5.272,2.561,10.57,3.828,15.857
		c1.284,5.359,2.744,10.631,4.301,15.916c3.267,11.094,6.288,22.258,9.209,33.447c0.243,0.931-0.164,1.651-0.789,2.052
		c5.037,20.095,10.067,40.33,15.092,60.705c0.549,0.222,1.012,0.654,1.104,1.243c0.923,5.886,2.121,11.723,3.464,17.526
		c3.441,14.875,7.761,29.616,10.427,44.649c0.351,0.734,0.713,1.471,1.059,2.205c7.522,30.989,15.038,62.283,22.554,93.875
		c-0.138-0.22-0.281-0.44-0.419-0.66c1.811,7.86,3.103,15.809,5.512,23.526c2.056,6.588,3.46,13.445,4.574,20.291
		c0.342,0.669,0.695,1.34,1.034,2.009c6.688,28.346,13.38,56.934,20.078,85.734c1.831,3.777,3.418,7.673,4.753,11.652
		c4.896,14.595,6.739,29.879,8.401,45.152c6.248,27.079,12.505,54.345,18.774,81.792c0.52,0.17,0.958,0.577,1.123,1.286
		c1.222,5.245,2.854,10.379,4.618,15.464c6.3,18.161,14.109,36.435,11.382,56.085c-0.041,0.294-0.183,0.545-0.376,0.755
		c5.485,24.19,10.983,48.517,16.496,72.975c6.41,16.941,8.907,34.939,12.325,52.648c0.097,0.503,0.009,0.941-0.186,1.307
		c6.66,29.648,13.342,59.473,20.056,89.487c1.861,4.795,3.574,9.648,5.104,14.559c2.247,7.208,4.209,14.565,5.248,22.054
		c0.145,1.041-0.236,2.076-1.353,2.383c-0.087,0.024-0.181,0.034-0.274,0.043c6.928,31.016,13.891,62.222,20.889,93.6
		c0.918,0.548,1.125,1.852,0.61,2.736c0.577,2.586,1.152,5.165,1.729,7.754c-0.457-0.559-0.926-1.116-1.386-1.674
		c0.047,0.284,0.094,0.567,0.137,0.852c1.046,6.969,1.184,14.031,2.104,21.013c0.104,0.792,0.218,1.608,0.35,2.433
		c1.869,2.515,3.717,5.031,5.523,7.549c7.134,31.993,14.311,64.171,21.529,96.511c0.225,0.216,0.409,0.499,0.512,0.875
		c1.135,4.139,2.409,8.237,3.652,12.344c1.182,3.903,2.508,7.819,3.055,11.874c0.444,3.292,0.435,6.661,0.484,10.021
		c0.062,0.079,0.127,0.157,0.189,0.235c8.219,36.785,16.494,73.783,24.837,110.981c-0.471-0.504-0.955-1.006-1.429-1.51
		c1.618,5.927,4.463,11.524,5.535,17.61c0.561,3.186,0.94,6.4,1.307,9.616c0.16,0.189,0.326,0.378,0.486,0.567
		c7.517,33.47,15.09,67.106,22.719,100.882c0.375,0.217,0.674,0.59,0.795,1.158c0.685,3.225,1.204,6.481,1.667,9.746
		c0.057,0.251,0.113,0.502,0.17,0.754c-0.025-0.025-0.05-0.05-0.075-0.075c0.061,0.433,0.124,0.866,0.183,1.299
		c0.952,7.009,1.737,14.048,2.973,21.016c0.866,0.954,1.744,1.906,2.599,2.86c1.406,6.21,2.818,12.432,4.228,18.651
		c0.121,0.266,0.177,0.526,0.176,0.774c6.699,29.54,13.445,59.187,20.24,88.935c5.771,11.567,4.801,25.338,9.32,37.372
		c0.286,0.763,0.078,1.379-0.358,1.79c7.821,34.119,15.706,68.358,23.665,102.724c-0.592-0.536-1.199-1.068-1.794-1.604
		c0.422,5.481,1.966,10.79,3.568,16.07c0.701,2.31,1.379,4.628,1.98,6.961c0.519,0.506,1.05,1.01,1.566,1.517
		c8.586,36.978,17.254,74.09,26.014,111.325c-0.501-0.42-1.015-0.838-1.519-1.257c2.296,7.148,4.065,14.467,5.391,21.868
		c0.411,0.368,0.832,0.734,1.241,1.103c9.404,39.867,18.91,79.869,28.527,119.994c-0.572-0.464-1.158-0.926-1.733-1.389
		c0.933,2.191,1.756,4.428,2.488,6.678c1.634,5.017,2.805,10.18,3.56,15.403c0.271,0.236,0.551,0.471,0.821,0.708
		c9.333,38.824,18.77,77.759,28.318,116.792c-1.842-1.42-3.711-2.835-5.583-4.249c0.923,2.72,1.816,5.45,2.771,8.154
		c2.043,5.791,4.175,12.093,7.984,17.005c0.467,0.602,0.688,1.357,0.451,2.036c7.76,31.613,15.601,63.292,23.511,95.023
		c2.401,3.428,3.305,7.782,3.836,11.93c0.668,5.208,0.511,10.98,2.727,15.848c0.169,0.371,0.246,0.765,0.225,1.142
		c0.179,0.148,0.364,0.295,0.543,0.444c15.156,60.495,20.757,72.054-15.679,54.517
		c-351.054-198.191-941.509-302.045-1340.278-325.399c-37.685-2.199-87.066,5.557-86.088-47.174l2.063-68.908
		c0.127,0.005,0.257,0.01,0.385,0.015c0.13-4.372,0.607-8.723,1.448-13.016c-0.479-0.018-0.965-0.038-1.442-0.055l4.155-138.785
		c-0.032-0.146-0.052-0.3-0.052-0.468c0.012-7.116,0.581-14.217,0.593-21.333c0-0.269,0.053-0.502,0.133-0.713l4.088-136.579
		c0.356,0.017,0.719,0.037,1.076,0.054c-0.134-4.406,0.836-8.695,1.713-12.997c-0.797-0.039-1.604-0.082-2.398-0.119l4.171-139.329
		c-0.294-0.308-0.488-0.729-0.487-1.28c0.011-8.311,0.593-16.603,1.185-24.889c0.013-0.183,0.051-0.347,0.101-0.503l3.908-130.544
		c-0.628-0.333-1.12-0.974-1.046-1.693c0.431-4.233,1.136-8.442,1.515-12.679c-0.012-0.001-0.025-0.001-0.038-0.002l4.197-140.176
		c-0.24-0.301-0.38-0.702-0.341-1.216c0.36-4.679,0.711-9.359,0.94-14.045c-0.047-0.003-0.095-0.007-0.143-0.01l4.261-142.354
		c0.032,0.002,0.065,0.005,0.098,0.007c-0.753-5.727,0.157-11.469,0.177-17.229c0.001-0.394,0.107-0.718,0.27-0.987l4.028-134.545
		c-0.093-0.222-0.149-0.475-0.15-0.764c-0.011-8.282-0.566-16.584,0.662-24.812c0.035-0.236,0.136-0.443,0.272-0.626l3.948-131.88v0
		l0.013,0.001c-0.598-4.242-0.817-8.648-0.075-12.848c-0.047-0.164-0.08-0.331-0.079-0.501c0.006-1.517,0.219-3.075,0.677-4.546
		l3.942-131.703c-0.829-0.149-1.588-0.757-1.656-1.825c-0.524-8.209,2.318-16.121,2.37-24.296c0.001-0.205,0.036-0.386,0.085-0.557
		l3.954-132.087c-0.293-0.308-0.487-0.73-0.483-1.282c0.03-4.77,1.047-9.465,1.564-14.192c-0.204-0.021-0.411-0.046-0.615-0.067
		l4.26-142.287v0c0.041,0.005,0.083,0.01,0.125,0.015v-18.877c0-0.543,0.19-0.961,0.477-1.268l4.049-135.217
		c0.166,0.021,0.335,0.045,0.501,0.066c0.672-4.325,1.141-8.662,1.355-13.023c-0.487-0.062-0.977-0.129-1.463-0.19l4.186-139.834
		c-0.587-0.411-0.961-1.115-0.739-2.011c1.095-4.42,1.627-8.903,1.695-13.447c-0.163-0.022-0.328-0.047-0.491-0.069l4.236-141.492
		c-0.448-0.306-0.767-0.806-0.768-1.515c-0.011-6.499-0.586-13.049,0.662-19.478c0.089-0.458,0.386-0.82,0.766-1.066l3.952-132.032
		c-0.417-0.305-0.691-0.799-0.639-1.498c0.336-4.521,1.055-8.986,1.828-13.444c-0.245-0.04-0.491-0.083-0.736-0.123l4.235-141.495
		c-0.251-0.231-0.442-0.522-0.517-0.868c-1.217-5.642-0.673-11.392-0.662-17.107c0.002-1.176,0.864-1.79,1.773-1.858l3.988-133.214
		c-0.262-0.303-0.431-0.707-0.427-1.224c0.038-4.941,1.533-9.708,2.158-14.567c-0.416-0.08-0.834-0.167-1.25-0.245l4.185-139.8
		c-0.818-0.149-1.538-0.758-1.538-1.832v-19.556c0-1.376,1.176-1.988,2.232-1.847l3.959-132.278
		c-0.162-0.269-0.266-0.593-0.266-0.986v-17.186c0-0.759,0.36-1.283,0.858-1.581l4.109-137.233l0,0
		c0.079,0.02,0.159,0.042,0.238,0.062c-0.762-4.854-0.902-9.913,0.177-14.7l1.606-133.17h0c0.049,0.013,0.097,0.028,0.146,0.042
		c-0.008-0.078-0.023-0.15-0.023-0.233v-16.593c0-0.433,0.122-0.785,0.314-1.067l0.542-65.988v0
		c105.449,24.99,195.241,86.458,271.413,165.551c0.372-0.776,0.75-1.55,1.142-2.318c8.139-15.952,20.225-29.593,34.105-40.796
		c1.941-1.567,3.922-3.095,5.925-4.598c-93.14-92.662-201.689-159.978-329.047-187.438c-27.564-5.721-42.136,3.501-44.091,41.315
		l-1.84,61.468l-77.92-94.946c-20.417-29.841-59.901-27.335-70.857,8.34l-261.772,922.313l-69.496,407.336l-225.275-285.628
		c-51.866-67.755-49.208-53.667-107.303-8.568c-208.324,175.265-416.654,350.531-624.963,525.82L438.279,4687.875
		c-24.002,58.816-34.435,99.83,45.96,97.318c26.782-0.836,56.485-6.225,75.805-8.884l596.771-82.146l792.21,155.417
		c42.264,8.249,54.801-56.009,12.544-64.256l-761.825-149.457l987.807-3237.157l247.979,314.415l1.693-1.332l-480.085,2813.951
		c-11.791,59.413,36.236,96.649,88.44,52.916l366.888-314.999c125.918,24.334,243.979,47.1,369.888,71.457
		c80.3,15.532,104.012-4.449,106.7-79.55c3.539-99.92,8.006-199.907,12.026-299.819c1.683-42.935-63.596-45.491-65.279-2.561
		l-12.019,291.897c-1.334,26.77-9.207,28.213-36.881,24.328l-347.992-67.273l409.8-3815.513l79.924,97.389l-97.992,3273.403
		c-2.396,112.63,58.024,109,147.784,114.246c390.49,22.871,1012.795,130.656,1347.879,338.314
		c50.37,31.211,141.536,92.147,105.396-32.759l-580.611-2467.206l247.258-311.187l985.133,3291.693l655.824,90.346
		c58.111,8.006,86.275,10.081,98.209-10.479C5854.164,4741.701,5835.411,4707.456,5825.556,4680.117z M1132.832,4631.5
		l-581.49,82.663c-63.25,10.763-46.617-11.056-32.203-53.201L1549.236,1898.17l561.932-472.786L1132.832,4631.5z M2372.059,4212.203
		l-345.679,296.822l558.655-3274.478l171.879-605.585L2372.059,4212.203z M5723.511,4712.724l-589.372-81.191l-959.527-3206.131
		l559.086,472.727l1020.241,2780.109C5772.486,4725.806,5784.464,4721.119,5723.511,4712.724z"/>
	<path d="M601.96,4645.296l313.798-55.111c8.484-1.48,6.236-14.382-2.252-12.903l-313.798,55.111
		C591.224,4633.873,593.472,4646.775,601.96,4645.296z"/>
	<path d="M696.09,4388.654l310.333-71.286c8.381-1.917,5.47-14.666-2.918-12.749l-310.333,71.286
		C684.791,4377.822,687.702,4390.572,696.09,4388.654z"/>
	<path d="M743.142,4260.323l308.601-79.377c8.315-2.12,5.094-14.767-3.224-12.646h0l-308.601,79.377
		C731.602,4249.797,734.824,4262.444,743.142,4260.323z"/>
	<path d="M649.013,4516.961l312.068-63.198c8.416-1.683,5.859-14.483-2.561-12.8l-312.068,63.198
		C638.035,4505.844,640.593,4518.645,649.013,4516.961z"/>
	<path style="fill:#D92154;" d="M3499.562,4058.591c25.733,384.207,48.075,768.634,73.809,1152.839
		c2.86,42.928,68.139,38.584,65.279-4.352c-25.735-384.207-48.076-768.634-73.809-1152.839
		C3561.981,4011.311,3496.702,4015.655,3499.562,4058.591z"/>
	<path d="M1099.46,4804.94l-111.945,392.321c-11.786,41.419,51.19,59.336,62.975,17.92l111.945-392.321
		C1174.221,4781.442,1111.245,4763.524,1099.46,4804.94z"/>
	<path d="M385.606,5218.035l117.94-308.159c15.322-40.24-45.862-63.537-61.184-23.297h0l-117.94,308.16
		C309.1,5234.979,370.284,5258.275,385.606,5218.035z"/>
	<path d="M790.219,4132.015l306.87-87.464c8.28-2.353,4.704-14.951-3.583-12.596l-306.87,87.464
		C778.356,4121.772,781.931,4134.371,790.219,4132.015z"/>
	<path style="fill:#D92154;" d="M6164.842,5333.964H32.326c-43.102,0-43.102,65.536,0,65.536h6132.516
		C6207.943,5399.5,6207.943,5333.964,6164.842,5333.964z"/>
	<path d="M1890.386,4949.068l-41.758,247.953c-7.072,42.43,57.441,53.178,64.511,10.753l41.758-247.953
		C1961.969,4917.391,1897.456,4906.643,1890.386,4949.068z"/>
	<path style="fill:#D92154;" d="M2982.042,3970.096l-3.912,1237.125c0,42.933,65.279,42.933,65.279,0l3.913-1237.125
		C3047.322,3927.164,2982.042,3927.164,2982.042,3970.096z"/>
	<path style="fill:#D92154;" d="M2100.052,4626.439L2100.052,4626.439l-85.586,572.375c-6.228,42.598,58.541,52.067,64.768,9.471
		l85.586-572.375c2.615-17.885-9.764-34.504-27.648-37.12C2119.287,4596.175,2102.667,4608.554,2100.052,4626.439z"/>
	<path style="fill:#D92154;" d="M2632.148,4406.438l-57.097,801.403c-3.029,42.938,62.251,47.537,65.279,4.608l57.097-801.403
		C2700.456,4368.109,2635.176,4363.51,2632.148,4406.438z"/>
	<path style="fill:#D92154;" d="M3901.507,4161.076l134.538,1052.887c5.384,42.593,70.154,34.411,64.768-8.192l-134.538-1052.887
		C3960.891,4110.291,3896.121,4118.473,3901.507,4161.076z"/>
	<path d="M1448.797,2335.093l282.614-200.7c2.94-2.092,3.628-6.174,1.536-9.114c-2.092-2.94-6.175-3.628-9.115-1.536l-282.614,200.7
		C1434.223,2329.42,1441.802,2340.071,1448.797,2335.093z"/>
	<path d="M1354.743,2591.835l286.078-184.523c7.23-4.639,0.168-15.647-7.065-11.008l0,0l-286.078,184.523
		C1340.449,2585.467,1347.511,2596.476,1354.743,2591.835z"/>
	<path d="M1401.771,2463.45l284.345-192.61c7.096-4.809-0.227-15.612-7.322-10.803l-284.345,192.61
		C1387.353,2457.457,1394.676,2468.259,1401.771,2463.45z"/>
	<path d="M1307.716,2720.195l287.813-176.435c7.331-4.471,0.523-15.636-6.811-11.162l-287.813,176.435
		C1293.575,2713.504,1300.383,2724.669,1307.716,2720.195z"/>
	<path d="M1542.823,2078.374l279.149-216.875c6.793-5.281-1.247-15.622-8.037-10.342l-279.149,216.875
		C1527.992,2073.313,1536.032,2083.654,1542.823,2078.374z"/>
	<path style="fill:#D92154;" d="M1025.889,4572.219l962.138-2923.135c8.082-24.547-29.241-36.837-37.324-12.29L988.565,4559.93
		C980.483,4584.477,1017.806,4596.766,1025.889,4572.219z"/>
	<path d="M1495.798,2206.734l280.882-208.789c6.902-5.115-0.878-15.614-7.783-10.496l-280.882,208.789
		C1481.113,2201.354,1488.893,2211.853,1495.798,2206.734z"/>
	<path d="M1589.825,1949.99l277.417-224.965c6.657-5.414-1.585-15.552-8.244-10.137h0l-277.416,224.965
		C1574.924,1945.267,1583.165,1955.405,1589.825,1949.99z"/>
	<path d="M1260.69,2848.555l289.543-168.347c3.123-1.809,4.189-5.811,2.38-8.934c-1.809-3.124-5.81-4.189-8.934-2.38
		l-289.543,168.346C1246.706,2841.543,1253.257,2852.859,1260.69,2848.555z"/>
	<path d="M1166.611,3105.272l293.01-152.169c3.209-1.653,4.47-5.598,2.817-8.807c-1.653-3.208-5.598-4.47-8.807-2.817
		l-293.01,152.169C1152.978,3097.584,1158.964,3109.211,1166.611,3105.272z"/>
	<path d="M978.429,3618.656l299.939-119.817c7.977-3.161,3.172-15.299-4.813-12.135l-299.939,119.817
		C965.639,3609.683,970.444,3621.82,978.429,3618.656z"/>
	<path d="M931.377,3747.015l301.671-111.729c8.081-2.962,3.578-15.252-4.506-12.289l-301.671,111.728
		C918.79,3737.688,923.292,3749.978,931.377,3747.015z"/>
	<path d="M1025.481,3490.322l298.205-127.905c3.321-1.413,4.869-5.254,3.456-8.576s-5.255-4.869-8.576-3.457l0,0l-298.205,127.905
		C1012.45,3481.655,1017.567,3493.689,1025.481,3490.322z"/>
	<path d="M1213.663,2976.913l291.277-160.258c7.542-4.139,1.248-15.609-6.297-11.469h0l-291.277,160.258
		C1199.824,2969.583,1206.118,2981.054,1213.663,2976.913z"/>
	<path d="M884.326,3875.348l303.403-103.641c8.147-2.759,3.953-15.153-4.2-12.391v0l-303.403,103.641
		C871.979,3865.716,876.173,3878.11,884.326,3875.348z"/>
	<path d="M837.271,4003.683l305.136-95.553c8.214-2.556,4.329-15.051-3.89-12.494l-305.136,95.553
		C825.167,3993.745,829.052,4006.24,837.271,4003.683z"/>
	<path d="M1072.532,3361.963l296.474-135.994c7.812-3.569,2.385-15.447-5.426-11.877l-296.474,135.994
		C1059.294,3353.654,1064.72,3365.532,1072.532,3361.963z"/>
	<path d="M1119.586,3233.606l294.74-144.081c7.711-3.771,1.977-15.498-5.736-11.726l-294.74,144.081
		C1106.139,3225.651,1111.874,3237.378,1119.586,3233.606z"/>
</g>
<path style="fill:#FFFFFF;stroke:#000000;stroke-width:34;stroke-linecap:round;stroke-linejoin:round;stroke-miterlimit:10;" d="
	M3613.346,1425.354c-42.897,43.079-86.161,85.851-127.57,130.417c-109.808,118.47-200.86,248.705-247.342,405.862
	c-78.673,266.156,12.254,519.566,234.653,652.769c14.048,8.419,30.08,13.616,51.126,22.902
	c-23.337-53.417-47.167-97.18-62.021-143.787c-62.456-195.844-33.921-383.581,64.062-560.358
	c57.812-104.297,127.263-201.97,186.93-305.279c51.686-89.443,101.575-180.491,143.666-274.7
	c41.409-92.536,62.638-191.881,58.429-297.109C3844.036,1204.193,3725.812,1312.389,3613.346,1425.354z"/>
<path style="opacity:0.07;fill:#D92154;" d="M3852.332,432.579c-27.482-22.838-36.583-47.413-34.974-81.641
	c4.209-87.46,3.157-87.46-75.391-118.409c-4.021-1.609-7.242-5.201-15.472-11.266v-107.64
	c77.803-27.978,155.174-55.956,240.843-36.397c22.653,5.201,45.99,11.205,47.845-27.793c-11.265-5.94-22.342-16.217-34.353-17.391
	C3897.886,23.81,3814.822,17,3731.818,17c-60.598,0-121.135,3.592-181.668,12.999c-17.765,2.725-33.115,21.047-50.695,32.869
	c52.55,58.554,55.646,74.339,37.385,164.46c-85.975,28.599-87.459,28.66-84.984,119.711c0.989,38.994-9.656,66.662-39.8,93.527
	c-76.012,67.59-124.784,152.823-142.92,253.838c-26.184,146.388,3.589,290.178,17.145,449.932
	c42.708-60.412,73.287-114.757,138.775-124.845c-33.49,65.674-72.855,124.723-94.829,189.652
	c-57.562,170.406-44.813,347.615-37.817,524.457c14.048-18.632,23.644-38.191,31.692-58.307
	c68.086-170.342,172.693-314.871,309.239-436.498c60.473-53.852,124.969-103.43,183.527-159.201
	c53.542-51.005,104.604-105.225,151.089-162.605c53.046-65.424,59.917-142.674,41.78-223.759
	C3986.401,588.438,3934.408,500.854,3852.332,432.579z"/>
<path style="fill:none;stroke:#000000;stroke-width:34;stroke-linecap:round;stroke-linejoin:round;stroke-miterlimit:10;" d="
	M3782.696,432.579c-27.482-22.838-36.583-47.413-34.974-81.641c4.209-87.46,3.157-87.46-75.391-118.409
	c-4.021-1.609-7.241-5.201-15.472-11.266v-107.64c77.803-27.978,155.174-55.956,240.843-36.397
	c22.653,5.201,45.99,11.205,47.845-27.793c-11.266-5.94-22.342-16.217-34.353-17.391C3828.251,23.81,3745.186,17,3662.182,17
	c-60.598,0-121.135,3.592-181.668,12.999c-17.765,2.725-33.115,21.047-50.695,32.869c52.55,58.554,55.646,74.339,37.385,164.46
	c-85.976,28.599-87.46,28.66-84.984,119.711c0.988,38.994-9.657,66.662-39.8,93.527c-76.012,67.59-124.784,152.823-142.92,253.838
	c-26.184,146.388,3.589,290.178,17.145,449.932c42.708-60.412,73.287-114.757,138.775-124.845
	c-33.489,65.674-72.855,124.723-94.829,189.652c-57.562,170.406-44.813,347.615-37.817,524.457
	c14.048-18.632,23.644-38.191,31.692-58.307c68.085-170.342,172.693-314.871,309.238-436.498
	c60.473-53.852,124.97-103.43,183.527-159.201c53.542-51.005,104.604-105.225,151.09-162.605
	c53.046-65.424,59.916-142.674,41.78-223.759C3916.766,588.438,3864.772,500.854,3782.696,432.579z"/>
<polygon style="opacity:0.07;fill:#D92154;" points="3901.189,1713.343 4242.87,1403.598 4898.2,1952.265 5956.647,4793.477 
	5935.314,4816.931 5083.479,4690.52 4605.438,4781.426 4548.074,4645.414 4590.137,4478.962 "/>
<polygon style="opacity:0.07;fill:#D92154;" points="2360.369,1743.414 2061.703,1384.302 1406.372,1932.969 347.925,4774.181 
	369.258,4797.636 1055.106,4701.5 1853.468,4865.53 1869.703,4759.434 1816.369,4669.873 "/>
</svg>
