<?xml version="1.0" encoding="iso-8859-1"?>
<!-- Generator: Adobe Illustrator 24.2.3, SVG Export Plug-In . SVG Version: 6.00 Build 0)  -->
<svg version="1.1" id="&#x421;&#x43B;&#x43E;&#x439;_1"
	 xmlns="http://www.w3.org/2000/svg" xmlns:xlink="http://www.w3.org/1999/xlink" x="0px" y="0px" viewBox="0 0 6297.137 4999.756"
	 style="enable-background:new 0 0 6297.137 4999.756;" xml:space="preserve">
<g>
	<path d="M5015.229,1317.977c-117.492,4.237-143.893,48.119-179.051,149.234l-231.321,665.192
		c-5.938,17.037,3.059,35.662,20.096,41.6c17.037,5.938,35.662-3.059,41.6-20.096l230.577-663.051
		c25.22-72.522,30.639-104.364,120.404-107.6c118.03-4.26,311.964,31.186,440.277,71.376c40.384,12.651,66.335,20.984,84.722,64.15
		c12.342,28.976,15.113,66.076,11.813,110c-1.917,25.762,37.25,28.673,39.167,2.917c2.36-31.419,2.663-60.307-2.682-85.953l0.001,0
		c-7.738-37.131-1.774-33.029,21.421-4.573c16.854,23.095,23.473,50.349,24.158,82.416c0.84,42.93,66.119,41.656,65.279-1.279
		c-2.324-108.779-62.249-166.416-158.494-206.825C5416.365,1362.23,5153.562,1312.983,5015.229,1317.977z"/>
	<path style="fill:#D92154;" d="M3333.08,1400.719c5.302-6.806,10.632-13.59,16.101-20.263c8.939-10.907,18.23-21.553,28.262-31.474
		c2.842-2.81,5.754-5.557,8.727-8.236c-71.148-8.834-146.356-13.441-221.965-13.803c-8.348,9.608-16.102,19.711-23.656,29.951
		c-7.507,10.174-14.821,20.489-22.364,30.637c-1.318,1.773-2.646,3.539-3.979,5.301
		C3188.016,1391.332,3262.281,1393.964,3333.08,1400.719z"/>
	<path style="fill:#D92154;" d="M5079.727,2815.697c-21.216-51.259-59.916-105.753-117.716-163.585
		c-332.022-341.152-662.662-693.605-1000.201-1027.7c-89.483-90.747-173.319-153.348-254.956-196.455
		c-44.935-23.727-100.371-43.295-162.687-58.683c-1.119,2.968-2.38,5.877-3.644,8.708c-5.393,12.075-11.945,23.625-18.655,35.007
		c-3.125,5.301-6.346,10.546-9.536,15.809c63.633,14.623,119.781,33.631,164.059,57.012
		c75.917,40.087,154.358,98.778,238.701,184.295c332.666,341.813,663.474,690.975,1000.457,1027.957
		c51.735,51.7,85.822,99.117,103.763,142.465c52.372,126.536-45.431,205.653-148.461,258.002
		c-161.739,82.177-401.495,133.256-659.246,164.957c-604.083,74.299-1354.084,69.567-1962.183,8.468
		c-519.666-52.212-1049.044-167.428-970.633-421.06c14.212-45.969,48.128-96.808,104.19-152.833l1000.457-1027.958
		c76.814-77.881,148.71-133.512,218.236-173.086c76.891-43.766,190.255-73.713,316.732-90.003
		c-2.245-7.601-3.426-15.521-3.812-23.424c-0.53-10.844,0.452-21.743,2.441-32.405c0.635-3.405,1.392-6.786,2.24-10.145
		c-138.615,17.222-263.906,50.22-349.859,99.144c-74.649,42.492-151.354,101.733-232.697,184.224l-1000.203,1027.7h0
		c-63.706,63.747-102.875,123.572-120.191,179.586c-98.713,319.295,478.969,452.778,1034.311,508.55
		c601.6,60.417,1366.979,61.749,1964.122-11.251c266.314-32.557,515.384-85.646,685.532-172.096
		C5036.335,3087.775,5146.756,2977.646,5079.727,2815.697z"/>
	<path d="M1976.115,3130.979c25.563,3.838,31.392-35.024,5.838-38.86c-116.232-17.574-400.299-66.863-465.812-181.368
		c-40.335-70.5,19.927-146.518,68.218-194.774l281.777-289.52c17.982-18.488-10.128-45.828-28.11-27.342l-281.545,289.292
		c-62.47,62.491-125.267,153.011-74.44,241.851C1556.516,3060.427,1843.474,3110.924,1976.115,3130.979z"/>
	<path d="M4313.835,3137.533c132.641-20.055,419.6-70.552,494.073-200.723c50.827-88.839-11.971-179.36-74.438-241.853
		l-281.547-289.289c-17.982-18.486-46.092,8.854-28.11,27.342h0l281.777,289.518c48.291,48.257,108.553,124.276,68.218,194.776
		c-65.512,114.506-349.579,163.794-465.812,181.368C4282.444,3102.509,4288.272,3141.37,4313.835,3137.533z"/>
	<path style="fill:#D92154;" d="M1261.18,1229.85c-0.148-28.311,4.684-52.146,18.429-72.014
		c18.819-27.206,15.971-20.43,12.436,2.385c-2.74,17.666-3.42,36.853-2.473,57.466c1.112,25.758,40.279,24.07,39.167-1.69
		c-1.548-33.766,1.703-62.259,12.228-84.532c17.932-37.943,48.432-41.748,85.888-52.483
		c103.087-29.546,253.248-59.997,358.524-56.197c66.138,2.388,70.183,14.802,93.624,74.625l180.204,609.402
		c12.123,41.251,74.842,22.817,62.721-18.431l-180.686-611.032l-0.896-2.688c-33.301-85.187-57.571-113.724-152.662-117.156
		c-112.099-4.047-266.215,26.807-375.907,57.807c-67.127,18.969-144.71,45.816-185.927,105.404
		c-22.306,32.246-30.162,68.148-29.947,109.39C1196.07,1273.04,1261.349,1272.784,1261.18,1229.85z"/>
	<path style="fill:#D92154;" d="M4197.353,1728.958c17.318,5.089,35.487-4.826,40.576-22.145l175.161-592.342
		c23.439-59.823,27.487-72.239,93.624-74.625c97.178-3.507,262.811,25.764,372.64,60.026c33.511,10.453,55.455,14.131,71.77,48.653
		c10.526,22.273,13.775,50.768,12.228,84.533c-1.112,25.761,38.055,27.449,39.167,1.691c0.738-16.081,0.485-31.293-0.96-45.593v0
		c-4.14-40.906-0.142-39.145,17.836-2.471c8.494,17.321,11.637,37.307,11.518,60.225c-0.169,42.934,65.11,43.189,65.279,0.257
		c0.215-41.242-7.642-77.144-29.947-109.39c-21.649-31.296-55.898-57.42-108.494-79.502c-109.014-45.773-334.442-88-453.34-83.708
		c-95.09,3.43-119.365,31.97-152.662,117.156l-0.896,2.688l-175.642,593.97C4170.119,1705.7,4180.035,1723.868,4197.353,1728.958z"
		/>
	<path style="fill:#D92154;" d="M1661.608,3514.492c-136.024,124.295-243.381,177.471-434.095,170.062
		c-95.124-3.696-203.274-24.732-327.117-56.347c-80.478-20.543-163.832-44.162-252.53-69.294
		c-65.903-18.674-134.607-38.142-198.447-55.506c-123.237-33.519-172.952-86.544-192.825-213.245
		c-56.589-360.745-104.485-726.29-167.99-1085.167c-23.133-130.706-39.247-223.15,19.477-292.06
		c38.356-45.008,43.663-43.838,25.102,0.918c-14.381,54.583-10.558,122.281,3.607,200.898l216.752,1202.959
		c9.794,54.358,8.872,60.207,62.787,74.698l576.971,155.087c190.436,54.146,363.967,69.578,518.419-70.581
		c19.067-17.35-7.346-46.384-26.419-29.03c-143.87,130.557-304.429,112.1-481.247,61.826l-521.319-140.117
		c-59.319-15.944-53.281-9.482,0.916-37.41l578.794-310.807c22.93-11.816,4.964-46.687-17.97-34.868l-614.763,329.341
		c-40.707,20.977-32.345,24.22-40.565-21.416L175.344,2107.84c-13.203-73.277-16.988-135.544-4.221-184
		c19.228-72.982,63.689-90.277,127.668-109.336c150.545-44.844,366.323-84.506,504.961-79.503
		c97.055,3.503,106.314,23.594,140.601,111.102l229.537,767.511c12.291,41.25,75.011,22.562,62.72-18.688l-229.879-768.656
		l-0.896-2.56c-44.173-113.005-73.598-149.433-199.779-153.987c-162.62-5.869-472.129,52.152-621.226,114.753
		c-220.75,92.689-198.253,219.804-160.738,431.785c63.404,358.312,111.478,723.626,167.99,1083.887
		c23.939,152.619,91.56,226.065,240.184,266.492c73.718,20.051,137.124,38.019,197.936,55.249
		c43.615,12.352,38.308,2.493,38.129,46.732l-0.941,229.228c-0.03,7.438-0.942,24.023,1.264,31.434
		c1.704,9.064,4.969,17.265,9.522,24.617c14.563,23.523,15.854,7.955,15.227,40.008l-3.686,188.487
		c-0.709,36.258,4.399,32.218-28.745,16.431l-112.858-53.758l-0.014,0.031c-49.084-26.812-138.48-58.463-193.867-40.653
		c-110.635,35.577-91.86,173.996,30.456,181.824c33.641,2.153,26.187-4.013,59.066,11.711l67.261,32.168
		c48.477,23.185,49.469,16.193-0.43,35.974L351.711,4429.1l-0.009-0.025c-187.244,67.942-34.417,295.593,120.767,166.545
		c34.186-28.428,35.375-35.074,80.67-53.889l206.585-80.913c47.284-18.521,34.277-18.445,79.907,4.255l171.628,85.379
		c55.596,27.656,32.722,9.442,68.125,54.72c25.949,33.192,63.139,44.41,99.89,41.031c56.472-5.188,118.519-49.485,120.089-110.248
		c0.908-35.271-18.756-71.366-71.058-98.831l-137.234-72.063c-51.633-27.293-56.876-19.696-3.495-41.461l17.043-6.948
		c36.299-14.799,17.932-10.644,47.654,1.64c11.475,4.742,23.816,6.775,36.205,6.501c48.077-1.064,98.761-37.759,97.607-89.321
		l-0.005-0.979c-0.581-38.979-19.944-68.93-48.004-88.982c-58.364-41.708-114.651-31.911-174.432-4.056l0.026,0.058l-148.119,62.612
		c-35.502,15.008-29.888,19.069-29.591-19.307l1.613-207.108l0,0c19.154-13.837,31.31-33.283,31.397-58.398l0.005-0.248
		l1.857-188.716c0.358-36.397-4.669-30.42,31.413-22.041c99.874,23.203,190.142,38.307,272.963,41.525
		c209.297,8.134,331.045-50.708,480.431-187.214C1737.292,3533.661,1693.262,3485.533,1661.608,3514.492z M732.731,3883.632
		l0.824-201.138c0.156-38.02-5.54-32.932,31.393-22.717c21.012,5.81,41.615,11.441,61.774,16.841
		c37.15,9.95,29.316,4.014,28.918,44.376l-1.73,175.811c-0.198,20.201,4.926,29.089-18.907,35.766
		c-21.269,5.958-56.033,6.652-79.071,0.491h0C725.459,3924.911,732.625,3909.539,732.731,3883.632z M821.887,4029.985
		l-1.804,218.553l0,0c-0.223,28.589-66.287,30.055-66.287-0.707l4.281-221.669c0.575-29.419-0.486-26.606,18.342-24.059
		c10.034,1.357,19.88-0.257,29.977-0.48C821.904,4001.279,822.097,4002.995,821.887,4029.985z M921.809,4272.353l167.948-70.994
		c40.96-14.445,67.901-32.989,110.432-2.599c47.847,34.19-0.882,76.281-26.129,57.244c-20.393-15.375-52.297-17.619-75.611-8.116
		L956.8,4305.637c-59.672,26.12-65.2,29.567-0.662,62.42l241.703,126.922c99.117,52.046-41.908,127.165-74.802,56.592
		c-9.931-21.309-28.917-33.731-49.53-43.208l0.034-0.068l-209.626-104.282c-71.371-35.506-50.855-34.252-125.161-5.325
		c-70.239,27.343-140.577,54.601-210.496,82.54c-54.647,22.691-56.879,30.415-97.52,64.215
		c-74.124,61.639-149.611-21.24-56.767-54.927l0.897-0.384l263.893-104.607c92.352-36.607,89.757-23.704-0.018-66.637
		l-185.113-88.532c-11.319-5.414-22.699-12.824-35.772-10.802c-74.829,11.574-90.564-36.324-48.352-50.379
		c28.652-9.541,72.115,1.021,108.036,15.093c58.904,23.07,125.785,59.648,182.582,86.703v-0.001
		c33.629,16.018,21.408,18.188,43.938,35.459c42.45,32.542,134.532,34.495,174.433,0.121
		C902.139,4286.179,883.543,4288.528,921.809,4272.353z"/>
	<path d="M4077.941,4632.193v-837.856c0-25.862-39.321-25.862-39.321,0v837.856c0,10.858,8.803,19.661,19.661,19.661
		S4077.941,4643.051,4077.941,4632.193z"/>
	<path d="M660.726,1607.892c0.685-32.068,7.305-59.32,24.157-82.416c37.386-51.236,25.6-23.484,20.549,9.953
		c-3.687,24.4-4.007,51.32-1.809,80.574c1.916,25.756,41.084,22.845,39.167-2.917c-3.299-43.924-0.527-81.023,11.815-110l0,0
		c16.086-37.77,37.404-48.819,73.28-60.498c127.968-41.668,330.126-79.418,451.719-75.029
		c80.176,2.896,86.418,19.077,114.725,91.399l236.128,694.693c5.796,17.107,24.365,26.276,41.472,20.48s26.276-24.365,20.48-41.473
		l-236.382-695.443l-0.512-1.408c-38.138-97.565-64.676-129.595-173.606-133.528c-138.327-4.994-401.142,44.255-527.967,97.508
		c-58.284,24.471-96.898,53.173-121.793,87.29c-25.695,35.212-35.738,74.505-36.7,119.535
		C594.607,1649.548,659.886,1650.822,660.726,1607.892z"/>
	<path style="fill:#D92154;" d="M6112.306,1784.475c-149.097-62.602-458.606-120.623-621.226-114.753
		c-140.003,5.054-173.046,64.162-208.566,182.936l-226.334,747.202c-12.291,41.25,50.43,59.938,62.721,18.688l226.375-747.341
		c28.15-94.128,41.597-132.362,148.109-136.206c137.84-4.974,351.932,34.203,502.353,78.729
		c64.879,19.206,110.716,35.868,130.276,110.111c12.768,48.456,8.982,110.723-4.221,184l-212.646,1180.176
		c-10.471,58.111-3.296,47.634-59.314,18.77l-646.415-330.681c-22.934-11.819-40.9,23.052-17.97,34.868l635.242,324.924
		c48.483,24.983,49.658,18.659-3.049,32.827l-524.56,140.987c-141.356,40.192-349.286,62.577-466.62-43.9
		c-19.072-17.354-45.486,11.68-26.419,29.03c128.649,116.745,348.085,96.932,503.791,52.65l572.425-153.859
		c49.717-13.363,56.52-15.901,65.417-65.276l218.67-1213.603c14.165-78.617,17.988-146.316,3.607-200.898
		c-8.718-33.097-20.451-49.093,19.153-7.493c65.986,69.319,49.304,163.711,25.425,298.634
		c-63.504,358.876-111.401,724.422-167.989,1085.167c-9.913,63.2-27.558,108.508-57.368,141.366
		c-60.871,67.094-242.993,101.625-333.898,127.382c-88.7,25.133-172.057,48.752-252.538,69.296
		c-123.841,31.615-231.991,52.65-327.115,56.347c-190.714,7.409-297.693-45.474-433.717-169.77
		c-31.654-28.959-75.684,19.169-44.033,48.127c149.387,136.506,270.757,195.056,480.054,186.921
		c74.618-2.899,155.284-15.447,243.57-34.873c63.305-13.925,60.366-29.276,60.958,30.81l1.56,158.475
		c0.21,21.369-0.689,37.032,13.793,56.303c18.54,24.662,17.672,6.502,17.955,42.907l1.429,183.283h0.002
		c0.266,34.181,6.306,32.569-24.074,19.728l-142.013-60.033c-135.693-60.539-281.321,17.328-217.83,137.727
		c25.306,33.566,75.28,50.073,115.106,35.111c29.338-11.018,13.64-18.083,45.954-4.911l27.79,11.33
		c45.438,18.524,42.155,11.952-1.699,34.98l-145.595,76.455c-191.613,100.62,49.145,298.969,149.82,166.881
		c21.701-28.475,11.666-25.914,43.648-41.826l200.718-99.849c38.265-19.036,27.525-19.869,66.983-4.416l213.995,83.815
		c45.3,18.817,46.48,25.458,80.671,53.889c152.782,127.051,303.279-91.642,129.22-163.278
		c-55.136-22.694-111.477-44.077-166.996-66.085c-50.646-20.076-49.076-13.005,0.157-36.553l62.904-30.083
		c35.387-16.924,26.49-10.992,62.638-13.376c123.066-8.119,140.126-146.487,30.313-181.799c-25.337-8.147-57.932-6.029-90.669,1.505
		c-64.629,14.874-161.284,66.777-221.474,95.446c-27.778,13.231-22.669,15.406-23.281-15.845l-3.516-179.671
		c-0.827-42.332-2.708-22.37,15.573-52.928c11.285-18.857,10.305-31.381,10.226-50.763l-0.875-213.275
		c-0.235-57.019-12.967-52.572,38.051-67.029c111.043-31.461,287.93-61.799,364.619-146.325
		c38.945-42.93,61.518-99.053,73.495-175.414c56.512-360.261,104.586-725.575,167.99-1083.887
		C6310.559,2004.278,6333.056,1877.164,6112.306,1784.475z M5471.447,3676.341c17.328-4.644,34.984-9.458,52.945-14.41
		c51.518-14.208,39.045-13.96,39.286,44.315l2.708,195.189c0,44.803-123.48,38.11-123.844,1.11l-1.71-173.762
		C5440.386,3683.382,5430.938,3687.2,5471.447,3676.341z M5502.318,4003.259c6.997,0.014,13.982-0.302,20.844-0.953
		c20.48-1.94,15.351-3.94,15.824,20.236l4.721,241.356c0.524,21.712-67.514,20.501-66.64-0.536l-1.869-239.799h0
		C5474.965,3993.605,5472.504,4003.196,5502.318,4003.259z M5633.411,4272.684c56.341-26.836,170.364-88.481,233.414-102.991
		c22.51-5.18,43.192-7.194,56.111-3.041c48.606,15.629,28.887,57.14-22.491,54.764l0.001,0.002
		c-27.255-1.26-24.75-6.456-64.05,12.34l-197.852,94.624c-66.322,31.718-68.353,22.191-0.119,49.237l292.64,116.057
		c81.661,32.385,7.231,111.561-64.669,51.77c-40.645-33.801-42.872-41.525-97.522-64.215
		c-78.633-31.421-157.799-61.98-236.753-92.77c-45.083-17.58-32.627-17.416-76.168,4.245l-226.2,112.528
		c-22.732,11.307-44.056,21.453-55.656,46.34c-32.894,70.573-173.918-4.546-74.802-56.592l249.175-130.847
		c67.147-35.259,73.237-25.323,3.79-53.635l-153.574-62.61c-10.711-4.366-24.897-6.534-38.594-5.313
		c-13.061,1.166-26.28,5.334-37.016,13.428c-31.15,23.487-82.749-39.24-7.417-67.004c42.02-15.482,68.983,2.748,104.78,17.879
		l156.688,66.234c37.888,16.017,20.661,18.269,45.33,36.766c43.377,32.533,135.722,27.786,175.035-8.208
		C5616.284,4284.474,5605.748,4285.861,5633.411,4272.684z"/>
	<path d="M5092.32,3148.794c11.449-41.421-51.529-58.824-62.975-17.409l0,0c-32.948,118.615-223.796,206.191-519.91,267.103
		c-88.251,18.154-185.502,33.716-290.456,46.82c-613.261,76.579-1354.255,77.826-1970.914,15.041
		c-157.619-16.047-302.973-37.117-431.156-63.61c-295.56-61.089-496.325-148.812-538.072-267.279
		c-14.309-40.575-76.007-18.819-61.696,21.76c50.356,142.899,268.675,243.784,586.712,309.519
		c131.165,27.109,279.912,48.609,441.142,64.919c618.568,62.575,1356.931,61.213,1972.351-14.356
		c110.411-13.558,212.609-29.778,305.142-48.813C4843.171,3396.522,5051.9,3294.31,5092.32,3148.794z"/>
	<path style="fill:#D92154;" d="M4193.542,3682.97v1076.427c0,70.082-257.954,136.035-590.342,159.824
		c-287.378,20.567-584.812,19.924-872.19-0.508c-344.652-24.504-615.728-93.848-615.728-161.938V3681.884
		c0-43.102-65.536-43.102-65.536,0v1095.863c0,110.79,297.899,179.315,676.655,206.246c289.846,20.61,591.563,21.25,881.407,0.507
		c366.692-26.244,651.269-93.643,651.269-206.753V3682.97C4259.078,3639.868,4193.542,3639.868,4193.542,3682.97z"/>
	<path d="M2270.066,4632.193v-837.856c0-25.862-39.322-25.862-39.322,0v837.856
		C2230.745,4658.054,2270.066,4658.054,2270.066,4632.193z"/>
</g>
<path style="opacity:0.07;fill:#D92154;" d="M2169.1,3704.896v1059.556c0,0,16.4,74.667,148.644,110.222
	c132.245,35.555,448.689,113.778,1017.578,92.444s909.245-85.333,960-163.556c50.755-78.222,17.778-241.778,17.778-241.778
	l10.531-878.222c0,0-422.976,86.757-1023.865,91.379C2698.878,3779.562,2169.1,3704.896,2169.1,3704.896z"/>
<path style="opacity:0.07;fill:#D92154;" d="M5049.101,2691.562c0,0-771.556-782.222-1034.667-1056
	c-159.18-165.633-308.571-233.489-462.327-261.889c-3.749,12.346-8.658,24.021-12.781,33.545
	c-25.583,59.091-64.025,111.854-99.121,165.486c-39.228,59.945-78.24,120.038-116.344,180.706
	c-18.243,29.045-37.951,57.127-55.945,86.35c-17.874,29.026-36.242,58.172-47.874,90.368c-10.709,29.641-17.106,60.593-26.48,90.646
	c-9.673,31.011-18.307,62.422-27.061,93.709c-16.718,59.75-30.696,120.344-32.743,182.601
	c-2.225,67.693,8.155,134.444,31.396,198.075c9.402,25.741,26.127,46.891,39.804,70.372c11.724,20.129,21.92,43.467,15.011,66.99
	c-0.275,0.938-1.388,1.719-2.383,1.353c-10.843-3.988-21.439-8.601-31.704-13.906c-84.774-43.814-140.124-126.257-194.603-201.438
	c-13.791-19.031-28.344-37.53-41.834-56.772c-10.796-15.401-20.831-31.44-27.274-49.199c-6.944-19.138-9.613-39.533-11.551-59.699
	c-2.967-30.872-3.989-61.458-2.577-92.454c2.59-56.871,5.185-114.359,16.052-170.357c10.164-52.375,27.056-103.721,46.804-153.225
	c40.057-100.413,118.314-177.474,192.094-253.68c21.422-22.126,42.789-44.235,64.765-65.821
	c11.095-10.898,22.232-21.754,33.332-32.647c10.708-10.509,21.909-20.701,31.387-32.353c25.831-31.757,46.695-68.837,76.285-97.358
	c-41.688-1.686-84.052-2.234-127.349-2.686c-34.091-0.355-66.754,0.239-98.066,1.652c-0.387,1-0.803,1.984-1.244,2.948
	c-5.609,12.25-15.106,22.5-24.046,32.386c-21.672,23.967-45.935,45.573-66.008,70.978c-8.378,10.604-15.928,21.852-21.987,33.944
	c-4.823,9.625-8.947,19.586-12.821,29.625c-8.885,23.024-16.511,46.511-24.997,69.682c-8.491,23.185-17.649,46.371-29.971,67.828
	c-10.468,18.229-23.68,35.893-41.86,47.023c-1.122,0.687-2.453-0.006-2.845-1.158c-0.84-2.464-1.65-4.938-2.425-7.424
	c-6.506-20.886-10.645-42.455-13.215-64.161c-2.695-22.758-3.613-45.71-3.277-68.616c0.343-23.336,1.994-46.646,4.648-69.83
	c2.602-22.722,6.154-45.335,10.549-67.779c3.241-16.55,6.949-33.009,11.108-49.352c-0.568,0.116-1.142,0.229-1.709,0.346
	c-0.3,0.178-0.659,0.245-1.027,0.208c-319.145,65.774-426.007,222.982-426.007,222.982s-960,974.222-1105.778,1134.222
	s-67.413,269.667,92.444,369.908c369.778,202.797,1344,234.537,1752.689,245.204c408.689,10.667,1319.311-39.111,1721.089-215.097
	C5358.434,2961.813,5049.101,2691.562,5049.101,2691.562z"/>
<path style="fill:none;stroke:#000000;stroke-width:34;stroke-linecap:round;stroke-linejoin:round;stroke-miterlimit:10;" d="
	M3306.819,1425.354c-42.896,43.079-86.161,85.851-127.57,130.417c-109.808,118.47-200.86,248.705-247.342,405.862
	c-78.673,266.156,12.254,519.566,234.653,652.769c14.048,8.419,30.08,13.616,51.127,22.902
	c-23.337-53.417-47.167-97.18-62.021-143.787c-62.456-195.844-33.921-383.581,64.062-560.358
	c57.812-104.297,127.263-201.97,186.93-305.279c51.687-89.443,101.575-180.491,143.666-274.7
	c41.409-92.536,62.638-191.881,58.429-297.109C3537.509,1204.193,3419.285,1312.389,3306.819,1425.354z"/>
<path style="opacity:0.07;fill:#D92154;" d="M3550.836,432.579c-27.482-22.838-36.583-47.413-34.974-81.641
	c4.209-87.46,3.157-87.46-75.391-118.409c-4.021-1.609-7.242-5.201-15.472-11.266v-107.64
	c77.803-27.978,155.174-55.956,240.843-36.397c22.653,5.201,45.99,11.205,47.845-27.793c-11.265-5.94-22.342-16.217-34.353-17.391
	C3596.391,23.81,3513.326,17,3430.322,17c-60.598,0-121.135,3.592-181.668,12.999c-17.765,2.725-33.115,21.047-50.695,32.869
	c52.55,58.554,55.646,74.339,37.385,164.46c-85.975,28.599-87.459,28.66-84.984,119.711c0.989,38.994-9.656,66.662-39.8,93.527
	c-76.012,67.59-124.784,152.823-142.92,253.838c-26.184,146.388,3.589,290.178,17.145,449.932
	c42.708-60.412,73.286-114.757,138.775-124.845c-33.49,65.674-72.855,124.723-94.829,189.652
	c-57.562,170.406-44.813,347.615-37.817,524.457c14.048-18.632,23.644-38.191,31.692-58.307
	c68.086-170.342,172.693-314.871,309.238-436.498c60.473-53.852,124.97-103.43,183.527-159.201
	c53.542-51.005,104.604-105.225,151.089-162.605c53.046-65.424,59.917-142.674,41.78-223.759
	C3684.906,588.438,3632.913,500.854,3550.836,432.579z"/>
<path style="fill:none;stroke:#000000;stroke-width:34;stroke-linecap:round;stroke-linejoin:round;stroke-miterlimit:10;" d="
	M3476.169,432.579c-27.482-22.838-36.582-47.413-34.973-81.641c4.209-87.46,3.157-87.46-75.391-118.409
	c-4.021-1.609-7.242-5.201-15.472-11.266v-107.64c77.803-27.978,155.174-55.956,240.843-36.397
	c22.653,5.201,45.99,11.205,47.845-27.793c-11.265-5.94-22.342-16.217-34.353-17.391C3521.724,23.81,3438.659,17,3355.656,17
	c-60.598,0-121.135,3.592-181.668,12.999c-17.765,2.725-33.115,21.047-50.695,32.869c52.55,58.554,55.646,74.339,37.385,164.46
	c-85.975,28.599-87.459,28.66-84.984,119.711c0.988,38.994-9.657,66.662-39.8,93.527c-76.012,67.59-124.784,152.823-142.92,253.838
	c-26.184,146.388,3.589,290.178,17.145,449.932c42.708-60.412,73.287-114.757,138.775-124.845
	c-33.49,65.674-72.855,124.723-94.829,189.652c-57.562,170.406-44.813,347.615-37.817,524.457
	c14.048-18.632,23.644-38.191,31.692-58.307c68.086-170.342,172.693-314.871,309.239-436.498
	c60.473-53.852,124.97-103.43,183.527-159.201c53.542-51.005,104.604-105.225,151.09-162.605
	c53.046-65.424,59.916-142.674,41.78-223.759C3610.239,588.438,3558.246,500.854,3476.169,432.579z"/>
</svg>
