<?xml version="1.0" encoding="iso-8859-1"?>
<!-- Generator: Adobe Illustrator 24.2.3, SVG Export Plug-In . SVG Version: 6.00 Build 0)  -->
<svg version="1.1" id="&#x421;&#x43B;&#x43E;&#x439;_1"
	 xmlns="http://www.w3.org/2000/svg" xmlns:xlink="http://www.w3.org/1999/xlink" x="0px" y="0px" viewBox="0 0 5063.224 6150.722"
	 style="enable-background:new 0 0 5063.224 6150.722;" xml:space="preserve">
<g>
	<path style="opacity:0.07;fill:#D92154;" d="M4805.644,5255.8L4805.644,5255.8c-48.139-63.887-124.994-45.387-190.703-25.511
		c-129.397-166.833-205.889-438.508-279.455-699.824c-63.192-207.163-172.569-849.465-587.057-747.03
		c-81.709-102.301-256.058-191.716-381.132-121.454c-90.143-79.587-202.43-109.796-319.034-75.67
		c-45.705-119.804-101.833-261.954-141.673-383.888c-131.165-401.467-519.927-249.815-401.736,106.074
		c109.885,330.896,218.016,697.79,282.646,1038.91c9.735,51.375,17.975,104.133,30.376,155.085
		c16.991,69.813,12.182,70.278-14.845,4.518c-13.99-34.039-26.365-71.863-33.854-113.228
		c-22.046-121.758-56.174-205.305-103.007-259.462c-106.913-123.636-307.824-133.832-310.035,95.374
		c-2.131,221.399,91.416,537.93,216.261,715.417c212.967,302.769,409.79,466.227,760.349,592.623
		c155.366,56.016,298.519,107.632,413.47,254.158c-32.369,39.251-82.25,108.59-45.746,157.026l151.188,200.598
		c25.893,34.134,1124.868-667.002,1098.939-701.351L4805.644,5255.8z"/>
	<path style="fill:#D92154;" d="M4901.69,5173.133L4901.69,5173.133c-48.139-63.888-124.994-45.387-190.703-25.511
		c-129.397-166.833-205.889-438.508-279.455-699.823c-63.192-207.164-172.569-849.465-587.057-747.03
		c-81.709-102.301-256.058-191.716-381.132-121.454c-90.143-79.587-202.43-109.796-319.034-75.67
		c-45.705-119.804-101.833-261.954-141.673-383.888c-131.165-401.467-519.927-249.815-401.736,106.074
		c109.885,330.896,218.016,697.79,282.646,1038.909c9.735,51.375,17.975,104.133,30.376,155.086
		c16.991,69.813,12.182,70.278-14.845,4.518c-13.99-34.039-26.365-71.863-33.854-113.228
		c-22.046-121.758-56.174-205.304-103.007-259.462c-106.913-123.636-307.824-133.832-310.035,95.373
		c-2.131,221.399,91.416,537.93,216.261,715.417c212.967,302.769,409.79,466.227,760.349,592.623
		c155.366,56.017,298.519,107.633,413.47,254.158c-32.369,39.251-82.25,108.59-45.746,157.026l151.188,200.598
		c25.893,34.134,77.863-5.288,51.967-39.424l-142.845-193.605c-13.684-20.932,1.979-50.573,42.93-91.832
		c268.64-270.655,632.687-461.734,806.003-523.942c42.744-12.506,108.866-44.468,140.509-9.734l148.149,196.61
		c25.926,34.346,78.153-5.076,52.225-39.424L4901.69,5173.133z M3886.928,5660.36c-124.86-154.497-274.239-208.368-436.124-266.734
		c-337.243-121.594-523.942-277.485-728.86-568.812c-116.887-166.174-206.481-469.912-204.485-677.275
		c1.526-158.49,126.483-132.769,195.347-53.131c39.149,45.271,68.321,118.673,88.159,228.23
		c12.336,68.136,35.291,128.614,63.166,177.971c17.929,31.744,38.063,59.105,58.922,81.195c38.436,40.7,33.953,20.765,53.971,76.895
		c5.6,15.702,11.449,30.789,17.581,45.15c16.835,39.564,76.997,13.967,60.159-25.601c-47.342-110.899-78.01-272.744-106.963-425.54
		c-65.294-344.614-173.965-713.157-284.95-1047.358c-91.971-276.938,175.174-378.793,277.576-65.369
		c92.103,281.882,227.753,572.738,307.976,860.074c11.447,41.415,74.424,24.012,62.975-17.409
		c-37.989-136.063-91.77-279.462-143.824-417.514c104.294-28.616,199.162,6.529,273.141,82.869
		c76.331,78.761,135.296,232.08,162.693,337.32c10.773,41.584,74.006,25.207,63.232-16.384
		c-29.607-113.735-82.203-246.845-155.843-339.792c104.427-37.263,233.225,43.732,293.147,126.366
		c46.974,64.784,86.547,151.19,105.989,228.941c10.439,41.756,73.928,25.882,63.488-15.873
		c-18.395-73.556-50.404-146.316-89.85-211.072c269.707-56.705,373.948,313.47,485.004,707.953
		c72.839,258.74,148.484,527.391,277.674,704.861C4406.131,5264.514,4070.64,5475.811,3886.928,5660.36z"/>
	<path style="fill:#D92154;" d="M2361.69,3667.654h-260.06c-153.049-265.088-306.077-530.012-459.126-795.1
		c153.049-265.089,306.077-530.013,459.126-795.101h918.356l459.051,795.101l-124.761,216.093
		c-21.356,37.163,35.222,69.672,56.576,32.511l125.189-216.836h703.53c7.453,62.306,35.882,118.169,78.03,160.316
		c106.049,106.055,280.118,106.05,386.168,0c106.05-106.051,106.054-280.119,0-386.168c-106.052-106.051-280.117-106.051-386.168,0
		c-42.149,42.146-70.577,98.009-78.03,160.315h-704.685l-460.28-797.23l876.287-1517.777
		c102.057,43.68,221.649,20.699,300.416-58.071c106.05-106.05,106.054-280.119,0-386.168c-106.049-106.054-280.118-106.05-386.168,0
		c-117.341,117.336-102.622,312.511,29.27,411.567l0.001,0c-292.854,507.238-586.775,1013.529-879.653,1520.81h-910.079
		L1360.253,722.532c129.208-100.036,142.213-292.996,26.074-409.128c-106.052-106.052-280.116-106.052-386.168,0
		c-106.053,106.046-106.053,280.121,0,386.167c79.801,79.801,201.354,102.243,304.092,56.466l742.402,1285.879
		c-152.538,264.202-304.998,528.4-457.534,792.603l-1045.82,0.266c-8.079-60.906-36.23-115.477-77.592-156.839
		c-106.05-106.05-280.119-106.054-386.168,0c-106.052,106.052-106.052,280.117,0,386.168c106.049,106.054,280.118,106.05,386.168,0
		c43.028-43.026,71.759-100.348,78.47-164.226l1038.858,0.167c154.11,266.928,308.145,533.851,462.257,800.779l-1070.84,1854.75
		c-102.062-43.676-221.647-20.695-300.416,58.074c-106.05,106.05-106.054,280.119,0,386.168
		c106.052,106.052,280.116,106.052,386.168,0c117.341-117.334,102.622-312.514-29.27-411.57L2101.959,3733.19h259.731
		C2404.792,3733.19,2404.792,3667.654,2361.69,3667.654z M4363.937,2724.806c80.595-80.595,212.9-80.595,293.496,0
		c80.596,80.594,80.595,212.9,0,293.495c-80.595,80.595-212.902,80.597-293.496,0
		C4283.342,2937.707,4283.341,2805.4,4363.937,2724.806z M3911.477,125.876c80.595-80.595,212.902-80.596,293.495,0h0
		c80.596,80.594,80.595,212.9,0,293.495c-61.236,61.238-148.57,77.498-224.143,45.685c-18.118-7.627-35.367-16.633-51.076-29.613
		C3836.052,358.015,3825.289,212.061,3911.477,125.876z M1278.117,695.752c-76.289,33.899-169.378,19.728-231.622-42.517
		c-80.596-80.592-80.596-212.901,0-293.494c80.595-80.595,212.9-80.595,293.495,0l0,0
		C1443.023,462.77,1409.167,637.524,1278.117,695.752z M419.37,3017.778c-80.595,80.595-212.902,80.596-293.495,0
		c-80.595-80.595-80.595-212.9,0-293.495c80.594-80.596,212.9-80.595,293.495,0C499.965,2804.877,499.966,2937.184,419.37,3017.778z
		 M1013.868,5953.49c-80.595,80.595-212.9,80.595-293.495,0c-80.596-80.594-80.595-212.9,0-293.495l0,0
		c74.145-74.145,195.042-79.652,276.01-15.57C1092.782,5720.737,1100.994,5866.367,1013.868,5953.49z"/>
	<path d="M3489.065,2310.501c-35.649,23.877,0.704,78.149,36.352,54.271l1067.793-717.128
		c105.368,110.135,282.666,112.215,390.475,4.407c106.05-106.05,106.054-280.119,0-386.168l0,0
		c-106.052-106.052-280.117-106.052-386.168,0c-87.201,87.197-105.044,222.94-43.55,329.433L3489.065,2310.501z M4643.853,1312.22
		c80.595-80.595,212.9-80.595,293.496,0l0,0c80.596,80.593,80.595,212.9,0,293.495c-80.595,80.595-212.902,80.596-293.496,0
		C4563.258,1525.12,4563.257,1392.814,4643.853,1312.22z"/>
	<path d="M2642.852,2188.55c-25.862,0-25.862,39.321,0,39.321h288.742l144.278,249.897c12.811,22.296,46.757,2.792,33.945-19.506
		l-155.719-269.712H2642.852z"/>
	<path d="M2524.919,1318.164v520.648c0,43.102,65.536,43.102,65.536,0v-520.521c62.518-7.354,118.577-35.826,160.843-78.093
		c106.05-106.05,106.054-280.119,0-386.168l0,0c-106.049-106.054-280.118-106.05-386.168,0
		c-106.054,106.049-106.05,280.118,0,386.168C2407.158,1282.227,2462.825,1310.615,2524.919,1318.164z M2411.466,900.367
		c80.595-80.595,212.901-80.596,293.495,0l0,0c80.596,80.593,80.595,212.9,0,293.495c-80.594,80.596-212.9,80.595-293.495,0
		C2330.871,1113.267,2330.87,980.961,2411.466,900.367z"/>
	<path d="M1601.406,3399.377L1162.774,3693.1v0c-102.767-119.12-288.835-125.925-399.934-14.822
		c-106.052,106.052-106.052,280.117,0,386.168c106.049,106.054,280.118,106.051,386.168,0
		c83.544-83.544,103.822-212.268,50.231-317.152l438.518-293.646C1673.406,3429.771,1637.054,3375.5,1601.406,3399.377z
		 M1102.672,4018.11c-80.595,80.595-212.901,80.596-293.495,0c-80.595-80.594-80.595-212.9,0-293.495
		c80.211-80.213,213.276-80.219,293.495,0l0,0c18.796,18.794,33.208,40.405,43.237,63.511
		C1178.882,3864.105,1164.471,3956.311,1102.672,4018.11z"/>
	<path d="M1933.026,2624.776L1933.026,2624.776l-145.744,250.942l144.759,233.815c13.219,22.096,45.545,0.662,32.328-21.433
		l-131.53-212.642l134.133-231.022C1979.885,2622.139,1945.94,2602.477,1933.026,2624.776z"/>
</g>
</svg>
