<?xml version="1.0" encoding="iso-8859-1"?>
<!-- Generator: Adobe Illustrator 24.2.3, SVG Export Plug-In . SVG Version: 6.00 Build 0)  -->
<svg version="1.1" id="&#x421;&#x43B;&#x43E;&#x439;_1"
	 xmlns="http://www.w3.org/2000/svg" xmlns:xlink="http://www.w3.org/1999/xlink" x="0px" y="0px" viewBox="0 0 5719.858 6007.879"
	 style="enable-background:new 0 0 5719.858 6007.879;" xml:space="preserve">
<g>
	<path d="M2758.286,3248.352c83.35-600.39-383.671-1133.744-986.039-1133.744c-739.738,0-1211.534,775.547-897.264,1427.442
		c18.687,38.723,77.568,10.31,58.88-28.417v0c-293.583-608.983,147.287-1333.49,838.384-1333.49
		c563.07,0,999.193,497.914,921.271,1059.248C2687.626,3281.993,2752.396,3290.946,2758.286,3248.352z"/>
	<path style="fill:#D92154;" d="M2793.255,3839.019c740.477-402.496,1153.458-869.605,1515.459-1610.821
		c18.857-38.727-40.024-67.396-58.88-28.673c-356.108,729.146-757.783,1184.024-1486.034,1580.87
		c-828.543,451.496-1840.212,626.669-2378.237,32.658c-58.576-64.671-105.271-138.951-137.892-223.169
		c-117.201-540.264-3.874-1072.917,399.861-1491.486c599.26-621.279,1591.618-652.967,2225.019-65.231
		c292.979,271.856,482.539,653.375,508.118,1078.748c2.526,42.933,67.804,39.092,65.279-3.84
		c-26.623-442.739-223.919-839.831-528.853-1122.78c-659.532-611.98-1692.537-579.27-2316.667,67.792
		C138.419,2532.072,52.405,3124.294,217.586,3741.249c114.862,429.027,328.123,887.381,566.179,1264.141
		c253.888,401.815,550.647,730.995,827.68,854.333l-528.459,2.713c-42.933,0.169-42.677,65.448,0.257,65.279l1536.312-7.889
		c42.932-0.169,42.677-65.448-0.257-65.279l-562.131,2.886c147.729-69.005,299.716-199.642,446.532-370.113
		c245.367-284.9,478.402-682.292,652.593-1086.973c17.004-39.566-43.155-65.421-60.159-25.855
		c-171.855,399.255-401.093,790.537-641.842,1070.075c-208.05,241.569-422.988,398.683-613.479,402.119
		c-309.365,5.58-686.668-377.446-1001.75-876.11c-72.198-114.266-140.986-234.497-204.859-357.469
		c33.63,29.867,68.126,57.285,103.411,82.355c899.305,638.94,2248.379-269.664,2838.356-967.365
		c27.745-32.794-22.178-75.028-49.92-42.239C2960.791,4354.323,1641.267,5257.324,775.5,4642.21
		c-42.66-30.311-84.227-64.375-124.551-102.396c-94.73-89.324-113.9-120.162-164.672-236.561
		c-70.738-162.178-131.117-324.487-177.831-479.951c9.263,11.429,18.843,22.604,28.734,33.525
		C898.087,4476.105,1940.875,4302.342,2793.255,3839.019z"/>
	<path d="M3846.083,2541.851c140.171-176.729,293.015-437.824,370.315-649.91c14.647-40.41-46.794-62.68-61.441-22.271h0
		c-74.924,205.566-224.212,460.185-360.073,631.479C3768.147,2534.777,3819.345,2575.482,3846.083,2541.851z"/>
	<path style="fill:#D92154;" d="M5698.3,1206.096l-108.387-139.383c-10.909-10.563-20.824-21.126-9.769-45.495l28.718-59.982
		c58.916-123.049-107.133-234.671-181.057-124.322c-10.802,16.121-5.426,16.362-17.723,2.718
		c-19.483-21.618-16.434-19.488-3.422-46.727l30.907-62.957c54.725-111.48-118.471-215.279-178.313-124.617
		c-17.22,26.087-48.219,35.986-18.39-15.122c8.137-13.941,14.749-29.274,22.058-43.739
		c37.198-73.705,81.815-174.111,106.408-267.418c76.081-288.669-113.333-382.116-293.116-142.503
		c-58.174,77.536-109.294,175.127-143.972,250.143c-8.186,17.73-22.852,56.681-36.911,65.679
		c-19.753,12.64-14.657-2.188-12.775-12.503c12.967-71.071-48.17-127.811-115.908-127.901c-39.472-0.052-77.71,18.836-96.973,63.777
		l-26.394,61.58c-6.054,14.125-5.606,16.286-20.535,16.181l-6.087-0.044c-27.252-0.202-17.837,2.857-16.118-20.873
		c7.668-105.818-170.797-169.755-219.419-50.921l-21.919,53.566c-9.938,24.289-6.669,18.247-32.987,18.493l-195.124,1.84
		c-78.634,1.344-130.542,144.165-43.832,171.015l524.365,162.972c105.611,32.823,117.138,52.627,80.326,156.975l-83.998,238.13
		c-31.339,85.363-60.313,69.346-147.967,65.128c-92.173-4.439-185.547-8.937-204.512,54.383
		c-27.441,91.627,0.454,112.63,83.332,138.28l77.928,24.115c47.678,14.755,45.952,50.084,44.382,82.186l0.002,0
		c-6.053,123.948,97.802,174.187,185.078,83.068c20.705-21.619,43.162-45.063,82.985-20.068
		c42.173,26.469,120.777,84.219,167.923,84.23c32.793,0.008,57.644-16.784,77.988-56.986c29.786-58.864,3.999-88.765-39.987-139.761
		c-32.659-37.855-65.739-75.268-98.764-112.814c-31.557-35.877-22.701-49.583,2.521-89.699l135.934-216.178
		c63.233-100.568,89.44-88.609,175.995-29.513l449.215,306.714C5670.521,1405.996,5762.172,1288.231,5698.3,1206.096z
		 M5613.556,1287.812l-433.232-295.801c-117.143-79.995-182.472-70.882-259.67,51.875l-137.091,218.019
		c-40.543,64.489-49.439,107.44,2.411,166.395c33.301,37.861,66.819,75.534,99.72,113.687c25.911,30.04,41.103,47.656,31.027,67.569
		c-7.547,14.915-13.671,21.147-19.619,21.146c-22.64-0.005-108.936-59.077-133.108-74.249
		c-85.013-53.355-126.579-9.963-164.905,30.054c-46.016,48.042-75.762,28.111-72.694-34.685h-0.001
		c2.746-56.151,5.767-117.941-90.462-147.722l-77.927-24.114c-46.72-14.46-53.564-9.185-43.624-44.188
		c4.733-16.671,3.797-18.788,23.455-21.583c25.658-3.647,72.58-1.388,119.077,0.851c117.746,5.669,168.888,10.851,212.481-107.879
		l84.185-238.705c48.964-138.842,21.467-196.571-119.896-240.504l-513.518-159.601c-12.126-3.769-14.798-1.561-10.879-15.104
		c4.029-13.911,14.663-32.219,22.829-32.431l209.828-1.98c47.084-0.437,52.5,2.496,71.73-44.525l27.862-68.095
		c20.379-49.806,108.556-9.873,91.046,32.771c-24.211,58.937-15.559,80.271,48.489,79.466l48.318,0.772
		c18.83,0.302,37.037-1.687,45.173-6.476c11.901-7.004,16.366-20.665,26.598-44.532l28.673-66.898
		c21.173-49.4,106.896-14.907,88.709,35.291c-8.343,23.021-23.184,44.809-7.075,66.98c16.144,22.24,79.947,22.512,104.374,16.163
		c16.55-4.303,27.591-13.275,37.692-28.241c15.112-22.39,26.537-52.408,38.099-77.455c33.355-72.154,82.17-165.548,136.805-238.367
		c135.328-180.359,234.978-130.788,177.66,86.695c-23.218,88.092-65.89,183.973-101.545,254.621
		c-37.114,73.447-68.227,100.938-2.563,169.649c30.842,32.282,47.094,36.843,69.829,15.119
		c10.929-10.442,16.451-19.959,27.139-38.261c29.201-45.301,103.252-9.66,79.986,37.735l-32.844,66.902
		c-8.766,17.856-19.345,37.474-18.03,58.073c1.578,24.74,32.437,55.859,48.909,76.317c28.726,35.683,49.562,37.835,72.862,19.082
		c14.62-11.771,21.743-32.717,32.237-48.383c28.371-42.349,91.981,9.52,67.905,59.811l-28.718,59.982
		c-31.447,65.789-22.688,62.892,16.936,113.846l102.224,131.458C5665.564,1267.72,5654.228,1316.23,5613.556,1287.812z"/>
	<path d="M4577.854,2029.531c-157.393,420.155-448.229,897.461-731.738,1244.604c-27.073,33.293,23.614,74.512,50.688,41.217
		c287.958-352.593,582.374-836.298,742.235-1263.037C4654.021,2012.07,4592.833,1989.295,4577.854,2029.531z"/>
</g>
<path style="opacity:0.07;fill:#D92154;" d="M3246.317,3222.017c0,0-29.998-642.04-405.333-985.985s-672-571.349-1322.667-539.349
	s-1584,672-1514.667,1690.667s976.016,2291.189,1301.333,2474.667s437.333,144,458.667,138.667
	c21.333-5.333,424.846-195.858,752-677.333c327.154-481.476,592-1029.333,672-1525.333S3246.317,3222.017,3246.317,3222.017z"/>
</svg>
