<?xml version="1.0" encoding="iso-8859-1"?>
<!-- Generator: Adobe Illustrator 24.2.3, SVG Export Plug-In . SVG Version: 6.00 Build 0)  -->
<svg version="1.1" id="&#x421;&#x43B;&#x43E;&#x439;_1"
	 xmlns="http://www.w3.org/2000/svg" xmlns:xlink="http://www.w3.org/1999/xlink" x="0px" y="0px" viewBox="0 0 4241.681 5439.737"
	 style="enable-background:new 0 0 4241.681 5439.737;" xml:space="preserve">
<g>
	<path style="fill:#E91E57;" d="M3225.666,513.943l1.498-0.255c-0.235-1.571-0.455-3.144-0.634-4.72
		c-0.704-6.189-1.545-12.328-2.793-18.433c-1.078-5.271-2.328-10.517-4.021-15.627c-1.667-5.031-3.892-9.761-6.505-14.366
		c-5.379-9.478-12.465-17.845-17.522-27.523c-5.077-9.717-10.978-18.946-17.377-27.84c-5.467-7.598-11.552-14.888-15.448-23.431
		c-19.332-17.173-44.926-29.315-71.157-24.865l-251.881,42.677c-14.97,1.168-29.597,5.583-43.293,13.356
		c-34.965,19.844-62.923,61.642-72.079,126.953c4.977-0.281,9.927-0.362,14.879-1.035c5.153-0.7,10.262-1.681,15.407-2.434
		c2.492-0.365,4.981-0.646,7.44-1.207c2.422-0.553,4.81-1.245,7.224-1.83c2.326-0.564,4.669-0.951,6.962-1.651
		c1.73-0.528,3.463-1.065,5.253-1.294c11.757-52.519,50.305-103.249,106.231-61.82c13.141,9.737,25.273,23.847,35.218,42.136
		l-0.03,0.005c1.902,2.483,3.195,5.426,4.265,8.35c1.27,3.475,2.186,7.064,3.397,10.557c1.512,4.357,3.457,8.566,5.237,12.816
		c1.879,4.485,3.742,9.043,4.827,13.796c0.513,2.249,0.863,4.526,1.153,6.812l0.311-0.052c4.155,18.323,6.61,38.822,6.893,61.43
		c2.8,224.12-14.722,469.866-65.22,658.171c-31.955,119.164-104.329,323.91-262.954,296.621
		c-76.326-13.129-95.954-36.881-134.273-97.004c-120.257-188.675-222.506-454.505-298.493-652.091
		c-18.569-48.285-35.622-92.627-51.08-131.021l0.233-0.04c-0.42-1.17-0.784-2.365-1.324-3.487c-1.016-2.109-2.095-4.24-2.96-6.415
		c-0.76-1.914-1.232-3.928-2.123-5.791c-0.88-1.842-1.832-3.625-2.496-5.563c-1.389-4.049-3.135-7.949-4.872-11.857
		c-1.718-3.864-3.445-7.763-5.4-11.513c-1.468-2.815-3.605-5.827-3.463-9.144c0-0.005,0.002-0.009,0.002-0.013
		c-37.761-85.708-95.659-111.786-194.541-107.599c-65.84,2.788-137.266,22.97-192.416,48.131
		c-69.193,31.568-104.275,60.322-111.734,143.81c1.072,0.083,2.169,0.008,3.208-0.095c2.096-0.208,4.179-0.565,6.271-0.82
		c4.062-0.495,8.137-0.862,12.206-1.285c4.088-0.425,8.14-1.03,12.21-1.58c3.855-0.521,7.569-1.214,11.325-2.225
		c3.554-0.957,7.128-1.92,10.318-3.812c0.248-0.147,0.492-0.227,0.729-0.261c14.072-84.548,74.494-74.289,120.233-16.479
		l-0.484,0.083c0.38,0.847,1.064,1.586,1.618,2.31c0.652,0.851,1.134,1.771,1.684,2.688c1.287,2.146,2.743,4.206,4.236,6.212
		c2.711,3.643,5.663,7.123,7.937,11.065c2.201,3.817,4.296,7.624,6.858,11.22c2.592,3.638,5.253,7.184,6.99,11.328
		c0.799,1.906,1.688,3.892,1.988,5.948c0.067,0.455,0.106,0.914,0.138,1.375c5.825,13.035,11.118,27.313,15.696,42.85
		c57.457,194.941,140.395,457.697,266.367,670.159c129.136,217.805,303.273,382.826,541.457,372.513
		c107.715-4.664,211.646-48.722,298.317-129.993l0,0c136.426-127.927,194.59-318.434,230.492-497.402
		c48.665-242.603,54.8-504.422,54.001-645.173C3229.693,548.684,3228.229,530.566,3225.666,513.943z M2644.636,1786.194
		c-213.207,9.233-372.255-143.836-491.956-345.726c-122.868-207.229-204.435-465.783-261.008-657.731
		c-23.585-80.025-65.266-134.552-108.269-160.736c43.201-15.979,92.737-27.697,138.897-29.652
		c49.099-2.079,111.131,5.995,134.056,56.23c22.274,48.826,49.335,119.189,80.824,201.071h0
		c86.118,223.93,216.881,577.884,374.363,756.017c74.614,84.388,149.397,150.67,233.445,162.655
		C2712.287,1778.734,2678.653,1784.723,2644.636,1786.194z M3122.227,1202.729c-46.661,232.593-224.75,712.907-518.099,429.083
		c199.177,40.66,291.456-181.228,332.704-335.047c51.804-193.174,69.789-444.304,66.934-672.957
		c-1.064-85.218-29.353-148.19-67.007-185.142l134.288-22.754c70.27-11.904,88.969,38.053,99.861,102.352
		c2.635,15.557,4.149,32.334,4.25,50.223C3175.944,707.144,3169.937,964.893,3122.227,1202.729z"/>
	<path d="M3374.786,174.462L3206.94,0l-822.178,101.118c1.061,4.12,1.651,8.353,1.952,12.597c0.675,9.514-0.065,19.048,0.007,28.571
		c0.031,4.026,0.516,8.048,0.401,12.069c-0.016,0.575-0.032,1.151-0.045,1.727l780.148-95.948V381.96
		c1.932,3.847,4.338,7.462,6.837,10.953c3.461,4.834,7.103,9.532,10.5,14.414c3.146,4.521,6.155,9.137,8.97,13.872
		c2.834,4.769,5.242,9.773,8.077,14.536c5.563,9.347,12.46,17.765,17.443,27.477c4.948,9.646,7.407,20.426,9.343,31.023
		c1.025,5.61,1.561,11.289,2.26,16.944c0.077,0.625,0.163,1.25,0.25,1.875l779.359-132.577l-43.031,3793.18
		c-4.563,190.894-126.727,212.374-271.64,260.688l-2483.059,827.843c2.262-14.081,3.168-30.134,2.64-48.245l-15.74-4354.432
		l619.999-105.468c-0.475-2.205-1.508-4.488-2.519-6.49c-2.023-4.007-4.984-7.487-7.482-11.195
		c-2.434-3.612-4.281-7.563-6.643-11.215c-2.494-3.857-5.617-7.287-8.215-11.075c-1.22-1.778-2.34-3.589-3.442-5.44
		c-0.98-1.647-2.385-2.889-2.997-4.759c-0.004-0.012-0.004-0.022-0.008-0.034l-115.051,19.572
		c-3.751,2.123-7.949,3.188-12.081,4.311c-4.08,1.109-8.209,1.579-12.378,2.212c-4.279,0.649-8.57,1.157-12.876,1.59
		c-4.326,0.436-8.659,0.833-12.965,1.44c-2.7,0.381-5.349,0.736-7.959,0.357l-436.268,74.213L808.877,477.718
		c-21.252-18.959-12.28-15.47-38.013-18.229l-454.512-48.734l758.372-93.271c0.628-4.941,1.153-9.895,1.447-14.868
		c0.302-5.1,0.333-10.24,0.35-15.349c0.018-5.315-0.076-10.708-0.979-15.958c-0.387-2.246-0.902-4.541-1.782-6.641
		c-0.316-0.754-0.714-1.48-1.157-2.172l-71.812,8.833h0c0.002-0.015,0.004-0.03,0.006-0.045c-4.678,1.037-9.381,1.959-14.108,2.748
		c-15.015,2.505-30.163,3.838-45.349,4.609L58.619,387.204L0,4592.466v0.965c0.844,110.567,53.567,134.128,140.425,185.525
		l915.939,541.996c72.287,37.193,89.327,21.095,156.02-1.14l2496.998-832.49c174.255-58.095,306.983-81.784,312.495-312.38l0-0.001
		c14.553-1282.982,29.135-2565.969,43.655-3848.95L3374.786,174.462z M3332.585,440.223l-110.5,18.798V94.658l112.474,116.908
		L3332.585,440.223z M3387.315,430.914l1.703-197.217l505.615,110.917L3387.315,430.914z M54.655,4592.479l57.828-4148.531
		l640.462,68.672l5.475,4117.008l-700.077,8.264C55.921,4626.445,55.153,4612.132,54.655,4592.479z M1111.392,5284.904
		c-8.64-2.605-18.343-6.674-29.034-12.124l-913.236-540.466c-22.364-13.236-43.389-25.832-64.967-40.309l665.799-7.859
		L1111.392,5284.904L1111.392,5284.904z M1158.129,5256.43l-345.038-607.094L807.64,550.048l337.118,300.767
		c5.34,1454.612,15.774,2910.133,15.774,4364.628C1161.009,5231.846,1160.181,5245.459,1158.129,5256.43z"/>
	<path style="fill:#E91E57;" d="M1010.638,230.257c12.208-27.41,38.028-30.706,53.205-4.956c5.168,8.77,9.109,20.147,11.23,34.026
		c2.604,3.242,3.69,7.653,4.324,11.688c0.876,5.571,1.028,11.227,0.994,16.857c-0.033,5.53-0.081,11.084-0.467,16.601
		c-0.602,8.609-1.792,17.147-3.102,25.671v77.611c0,153.06,284.476,129.122,284.476-27.885v-97.632
		c0.647-0.08,1.294-0.159,1.942-0.239c-0.043-0.414-0.096-0.827-0.136-1.241c-1.74-17.848-0.757-35.846-2.423-53.692l-0.787,0.097
		c-22.108-156.392-351.184-126.987-399.186-19.193c-6.994,15.701-12.162,36.671-15.376,66.584
		c18.836-1.097,37.613-3.182,56.022-7.363C1003.715,250.642,1006.817,238.841,1010.638,230.257z M1102.734,185.487
		c48.909-10.921,168.801-27.339,197.017,29.5c2.979,6.502,4.705,14.234,5.793,23.316c4.925,41.158,0.896,100.699,0.896,141.567
		c0,86.561-174.757,104.727-174.757,27.885V283.758c0-35.513-8.044-64.631-20.697-86.101
		C1108.416,193.296,1105.657,189.238,1102.734,185.487L1102.734,185.487z"/>
	<path d="M1365.333,238.776c0.602,14.225,0.271,28.583,1.737,42.752c245.078-30.141,490.158-60.281,735.222-90.422
		c0.004-0.356,0.011-0.712,0.013-1.068c0.047-6.138-0.108-12.275-0.154-18.412c-0.033-4.373,0.122-8.738,0.173-13.11
		c0.052-4.464,0.014-8.994-0.71-13.41c-0.493-3.006-1.274-6.158-2.861-8.813l-66.445,8.171c0.007-0.047,0.015-0.092,0.022-0.14
		c-3.224,1.631-6.822,2.548-10.365,3.172c-4.979,0.877-10.033,1.249-15.076,1.535c-5.073,0.289-10.134,0.692-15.205,1.011
		c-5.107,0.321-10.222,0.508-15.339,0.578c-0.028,0.247-0.056,0.488-0.083,0.736l-611.744,75.237
		C1364.908,230.646,1365.161,234.709,1365.333,238.776z"/>
	<path style="fill:#E91E57;" d="M2021.946,143.576c3.837-0.742,8.054-1.781,11.202-4.242c2.185-12.458,4.937-21.39,8.208-27.958
		c12.806-25.725,37.632-26.244,51.417-2.485c4.023,6.932,7.255,15.514,9.415,25.653c1.844,3.201,2.794,6.881,3.318,10.544
		c1.332,9.325,0.44,18.825,0.537,28.207c0.117,11.415,0.487,22.873-0.854,34.221v78.229c0,149.744,278.03,128.494,278.03-25.083
		V159.607c-0.107-1.677-0.023-3.382,0.023-4.946c0.12-4.126-0.361-8.245-0.393-12.376c-0.037-4.842,0.135-9.682,0.224-14.523
		c0.16-8.765,0.083-17.662-2.19-26.167l-0.928,0.114c-2.016-8.903-4.928-17.144-8.641-24.762
		c-34.055-69.869-125.495-75.061-193.145-69.173c-64.418,5.604-159.039,25.243-185.885,79.17
		c-6.912,13.884-12.163,32.579-15.48,59.781c10.272-0.202,20.501-1.004,30.76-1.604
		C2012.373,144.839,2017.206,144.493,2021.946,143.576z M2183.486,62.247c40.358-3.841,117.331-4.805,138.536,38.703
		c4.069,8.35,6.335,18.695,6.335,31.356v128.355c0,83.149-168.311,98.809-168.311,25.083V165.227
		c0-34.44-7.732-62.771-19.915-83.767c-2.349-4.045-4.868-7.834-7.542-11.361C2148.52,66.721,2165.828,63.927,2183.486,62.247z"/>
	<path d="M2122.689,654.937c1.849,3.848,3.617,7.73,5.345,11.634c0.855,1.934,1.704,3.872,2.497,5.833
		c0.75,1.854,1.309,3.79,2.084,5.629c0.759,1.802,1.766,3.484,2.489,5.305c0.765,1.925,1.25,3.936,2.151,5.807
		c0.875,1.817,1.74,3.65,2.574,5.487c0.556,1.224,0.874,2.557,1.381,3.801l796.895-134.715c-0.363-2.833-0.817-5.652-1.576-8.419
		c-2.409-8.781-6.963-16.778-9.827-25.394c-2.051-6.17-3.292-13.706-8.177-18.4l-137.829,23.301
		c0.021-0.109,0.045-0.219,0.067-0.328c-1.776,0.385-3.51,1.061-5.252,1.522c-2.573,0.681-5.21,1.119-7.789,1.794
		c-2.394,0.627-4.79,1.275-7.233,1.687c-2.528,0.426-5.083,0.7-7.616,1.104c-5.136,0.819-10.254,1.755-15.421,2.365
		c-4.496,0.53-9.015,0.601-13.529,0.843c-0.027,0.209-0.058,0.413-0.084,0.624L2118.72,646.71c0.277,1.165,0.887,2.281,1.434,3.309
		C2121.023,651.652,2121.888,653.269,2122.689,654.937z"/>
</g>
<path style="opacity:0.07;fill:#E91E57;stroke:#000000;stroke-miterlimit:10;" d="M4241.172,510.148l-969.305,156.916
	c-0.416,16.802-9.654,249.263-24.68,352.585c-17.322,119.111-64,460.444-170.263,593.949
	c-27.823,34.956-115.959,220.273-347.07,250.495c-86.572,11.321-201.442,21.333-297.499-21.795
	c-20.285-9.108-185.231-62.285-326.494-277.249c-104.896-159.623-281.019-625.592-294.358-661.574l-695.664,112.618L742.506,700.968
	l-469.333-54.919l-27.126,3845.43l699.286-19.849l499.893,967.491c0,0,2161.302-760.135,2512.574-892.36
	c283.373-106.667,234.666-554.667,234.666-554.667L4241.172,510.148z"/>
</svg>
