<?xml version="1.0" encoding="iso-8859-1"?>
<!-- Generator: Adobe Illustrator 24.2.3, SVG Export Plug-In . SVG Version: 6.00 Build 0)  -->
<svg version="1.1" id="&#x421;&#x43B;&#x43E;&#x439;_1"
	 xmlns="http://www.w3.org/2000/svg" xmlns:xlink="http://www.w3.org/1999/xlink" x="0px" y="0px" viewBox="0 0 5919.137 5343.121"
	 style="enable-background:new 0 0 5919.137 5343.121;" xml:space="preserve">
<path style="fill:#E91E57;" d="M3225.666,513.943l1.498-0.255c-0.235-1.571-0.455-3.144-0.634-4.72
	c-0.704-6.189-1.545-12.328-2.793-18.433c-1.078-5.271-2.328-10.517-4.021-15.627c-1.667-5.031-3.892-9.761-6.505-14.366
	c-5.379-9.478-12.465-17.845-17.522-27.523c-5.077-9.717-10.978-18.946-17.377-27.84c-5.467-7.598-11.552-14.888-15.448-23.431
	c-19.332-17.173-44.926-29.315-71.157-24.865l-251.881,42.677c-14.97,1.168-29.597,5.583-43.293,13.356
	c-34.965,19.844-62.923,61.642-72.079,126.953c4.977-0.281,9.927-0.362,14.879-1.035c5.153-0.7,10.262-1.681,15.407-2.434
	c2.492-0.365,4.981-0.646,7.44-1.207c2.422-0.553,4.81-1.245,7.224-1.83c2.326-0.564,4.669-0.951,6.962-1.651
	c1.73-0.528,3.463-1.065,5.253-1.294c11.757-52.519,50.305-103.249,106.231-61.82c13.141,9.737,25.273,23.847,35.218,42.136
	l-0.03,0.005c1.902,2.483,3.195,5.426,4.265,8.35c1.27,3.475,2.186,7.064,3.397,10.557c1.512,4.357,3.457,8.566,5.237,12.816
	c1.879,4.485,3.742,9.043,4.827,13.796c0.513,2.249,0.863,4.526,1.153,6.812l0.311-0.052c4.155,18.323,6.61,38.822,6.893,61.43
	c2.8,224.12-14.722,469.866-65.22,658.171c-31.955,119.164-104.329,323.91-262.954,296.621
	c-76.326-13.129-95.954-36.881-134.273-97.004c-120.257-188.675-222.506-454.505-298.493-652.091
	c-18.569-48.285-35.622-92.627-51.08-131.021l0.233-0.04c-0.42-1.17-0.784-2.365-1.324-3.487c-1.016-2.109-2.095-4.24-2.96-6.415
	c-0.76-1.914-1.232-3.928-2.123-5.791c-0.88-1.842-1.832-3.625-2.496-5.563c-1.389-4.049-3.135-7.949-4.872-11.857
	c-1.718-3.864-3.445-7.763-5.4-11.513c-1.468-2.815-3.605-5.827-3.463-9.144c0-0.005,0.002-0.009,0.002-0.013
	c-37.761-85.708-95.659-111.786-194.541-107.599c-65.84,2.788-137.266,22.97-192.416,48.131
	c-69.193,31.568-104.275,60.322-111.734,143.81c1.072,0.083,2.169,0.008,3.208-0.095c2.096-0.208,4.179-0.565,6.271-0.82
	c4.062-0.495,8.137-0.862,12.206-1.285c4.088-0.425,8.14-1.03,12.21-1.58c3.855-0.521,7.569-1.214,11.325-2.225
	c3.554-0.957,7.128-1.92,10.318-3.812c0.248-0.147,0.492-0.227,0.729-0.261c14.072-84.548,74.494-74.289,120.233-16.479
	l-0.484,0.083c0.38,0.847,1.064,1.586,1.618,2.31c0.652,0.851,1.134,1.771,1.684,2.688c1.287,2.146,2.743,4.206,4.236,6.212
	c2.711,3.643,5.663,7.123,7.937,11.065c2.201,3.817,4.296,7.624,6.858,11.22c2.592,3.638,5.253,7.184,6.99,11.328
	c0.799,1.906,1.688,3.892,1.988,5.948c0.067,0.455,0.106,0.914,0.138,1.375c5.825,13.035,11.118,27.313,15.696,42.85
	c57.457,194.941,140.395,457.697,266.367,670.159c129.136,217.805,303.273,382.826,541.457,372.513
	c107.715-4.664,211.646-48.722,298.317-129.993l0,0c136.426-127.927,194.59-318.434,230.492-497.402
	c48.665-242.603,54.8-504.422,54.001-645.173C3229.693,548.684,3228.229,530.566,3225.666,513.943z M2644.636,1786.194
	c-213.207,9.233-372.255-143.836-491.956-345.726c-122.868-207.229-204.435-465.783-261.008-657.731
	c-23.585-80.025-65.266-134.552-108.269-160.736c43.201-15.979,92.737-27.697,138.897-29.652
	c49.099-2.079,111.131,5.995,134.056,56.23c22.274,48.826,49.335,119.189,80.824,201.071h0
	c86.118,223.93,216.881,577.884,374.363,756.017c74.614,84.388,149.397,150.67,233.445,162.655
	C2712.287,1778.734,2678.653,1784.723,2644.636,1786.194z M3122.227,1202.729c-46.661,232.593-224.75,712.907-518.099,429.083
	c199.177,40.66,291.456-181.228,332.704-335.047c51.804-193.174,69.789-444.304,66.934-672.957
	c-1.064-85.218-29.353-148.19-67.007-185.142l134.288-22.754c70.27-11.904,88.969,38.053,99.861,102.352
	c2.635,15.557,4.149,32.334,4.25,50.223C3175.944,707.144,3169.937,964.893,3122.227,1202.729z"/>
<path d="M2386.721,142.285c0.031,4.026,0.516,8.048,0.401,12.069c-0.016,0.575-0.032,1.151-0.045,1.727l780.148-95.948V381.96
	c1.932,3.847,4.338,7.462,6.837,10.953c3.461,4.834,7.103,9.532,10.5,14.414c3.146,4.521,6.155,9.137,8.97,13.872
	c2.834,4.769,5.242,9.773,8.077,14.536c5.563,9.347,12.46,17.765,17.443,27.477c4.948,9.646,7.407,20.426,9.343,31.023
	c1.025,5.61,1.561,11.289,2.26,16.944c0.077,0.625,0.163,1.25,0.25,1.875l779.359-132.577l-20.605,1816.346
	c1.195-0.031,2.39-0.056,3.584-0.088c17.037-0.463,34.071-1.037,51.102-1.687c7.07-623.019,14.136-1246.038,21.187-1869.055
	l-690.747-151.53L3206.94,0l-822.178,101.118c1.061,4.12,1.651,8.353,1.952,12.597
	C2387.388,123.228,2386.648,132.763,2386.721,142.285z M3389.017,233.696l505.615,110.917l-507.318,86.3L3389.017,233.696z
	 M3222.085,94.658l112.474,116.908l-1.974,228.657l-110.5,18.798V94.658z"/>
<path d="M2018.332,5015.626c-2.083-6.668-4.251-13.31-6.493-19.925l-799.305,266.485c2.262-14.081,3.168-30.134,2.64-48.245
	l-15.74-4354.432l619.999-105.468c-0.475-2.205-1.508-4.488-2.519-6.49c-2.023-4.007-4.984-7.487-7.482-11.195
	c-2.434-3.612-4.281-7.563-6.643-11.215c-2.494-3.857-5.617-7.287-8.215-11.075c-1.22-1.778-2.34-3.589-3.442-5.44
	c-0.98-1.647-2.385-2.889-2.997-4.759c-0.004-0.012-0.004-0.022-0.008-0.034l-115.051,19.572c-3.751,2.123-7.949,3.188-12.081,4.311
	c-4.08,1.109-8.209,1.579-12.378,2.212c-4.279,0.649-8.57,1.157-12.876,1.59c-4.326,0.436-8.659,0.833-12.965,1.44
	c-2.7,0.381-5.349,0.736-7.959,0.357l-436.268,74.213L808.877,477.718c-21.252-18.959-12.28-15.47-38.013-18.229l-454.512-48.734
	l758.372-93.271c0.628-4.941,1.153-9.895,1.447-14.868c0.302-5.1,0.333-10.24,0.35-15.349c0.018-5.315-0.076-10.708-0.979-15.958
	c-0.387-2.246-0.902-4.541-1.782-6.641c-0.316-0.754-0.714-1.48-1.157-2.172l-71.812,8.833h0c0.002-0.015,0.004-0.03,0.006-0.045
	c-4.678,1.037-9.381,1.959-14.108,2.748c-15.015,2.505-30.163,3.838-45.349,4.609L58.619,387.204L0,4592.466v0.965
	c0.844,110.567,53.567,134.128,140.425,185.525l915.939,541.996c72.287,37.193,89.327,21.095,156.02-1.14l815.407-271.854
	C2024.823,5037.129,2021.68,5026.347,2018.332,5015.626z M54.655,4592.479l57.828-4148.531l640.462,68.672l5.475,4117.008
	l-700.077,8.264C55.921,4626.445,55.153,4612.132,54.655,4592.479z M1111.392,5284.904c-8.64-2.605-18.343-6.674-29.034-12.124
	l-913.236-540.466c-22.364-13.236-43.389-25.832-64.967-40.309l665.799-7.859L1111.392,5284.904L1111.392,5284.904z
	 M1158.129,5256.43l-345.038-607.094L807.64,550.048l337.118,300.767c5.34,1454.612,15.774,2910.133,15.774,4364.628
	C1161.009,5231.846,1160.181,5245.459,1158.129,5256.43z"/>
<path style="fill:#E91E57;" d="M1010.638,230.257c12.208-27.41,38.028-30.706,53.205-4.956c5.168,8.77,9.109,20.147,11.23,34.026
	c2.604,3.242,3.69,7.653,4.324,11.688c0.876,5.571,1.028,11.227,0.994,16.857c-0.033,5.53-0.081,11.084-0.467,16.601
	c-0.602,8.609-1.792,17.147-3.102,25.671v77.611c0,153.06,284.476,129.122,284.476-27.885v-97.632
	c0.647-0.08,1.294-0.159,1.942-0.239c-0.043-0.414-0.096-0.827-0.136-1.241c-1.74-17.848-0.757-35.846-2.423-53.692l-0.787,0.097
	c-22.108-156.392-351.184-126.987-399.186-19.193c-6.994,15.701-12.162,36.671-15.376,66.584
	c18.836-1.097,37.613-3.182,56.022-7.363C1003.715,250.642,1006.817,238.841,1010.638,230.257z M1102.734,185.487
	c48.909-10.921,168.801-27.339,197.017,29.5c2.979,6.502,4.705,14.234,5.793,23.316c4.925,41.158,0.896,100.699,0.896,141.567
	c0,86.561-174.757,104.727-174.757,27.885V283.758c0-35.513-8.044-64.631-20.697-86.101
	C1108.416,193.296,1105.657,189.238,1102.734,185.487L1102.734,185.487z"/>
<path d="M1365.333,238.776c0.602,14.225,0.271,28.583,1.737,42.752c245.078-30.141,490.158-60.281,735.222-90.422
	c0.004-0.356,0.011-0.712,0.013-1.068c0.047-6.138-0.108-12.275-0.154-18.412c-0.033-4.373,0.122-8.738,0.173-13.11
	c0.052-4.464,0.014-8.994-0.71-13.41c-0.493-3.006-1.274-6.158-2.861-8.813l-66.445,8.171c0.007-0.047,0.015-0.092,0.022-0.14
	c-3.224,1.631-6.822,2.548-10.365,3.172c-4.979,0.877-10.033,1.249-15.076,1.535c-5.073,0.289-10.134,0.692-15.205,1.011
	c-5.107,0.321-10.222,0.508-15.339,0.578c-0.028,0.247-0.056,0.488-0.083,0.736l-611.744,75.237
	C1364.908,230.646,1365.161,234.709,1365.333,238.776z"/>
<path style="fill:#E91E57;" d="M2021.946,143.576c3.837-0.742,8.054-1.781,11.202-4.242c2.185-12.458,4.937-21.39,8.208-27.958
	c12.806-25.725,37.632-26.244,51.417-2.485c4.023,6.932,7.255,15.514,9.415,25.653c1.844,3.201,2.794,6.881,3.318,10.544
	c1.332,9.325,0.44,18.825,0.537,28.207c0.117,11.415,0.487,22.873-0.854,34.221v78.229c0,149.744,278.03,128.494,278.03-25.083
	V159.607c-0.107-1.677-0.023-3.382,0.023-4.946c0.12-4.126-0.361-8.245-0.393-12.376c-0.037-4.842,0.135-9.682,0.224-14.523
	c0.16-8.765,0.083-17.662-2.19-26.167l-0.928,0.114c-2.016-8.903-4.928-17.144-8.641-24.762
	c-34.055-69.869-125.495-75.061-193.145-69.173c-64.418,5.604-159.039,25.243-185.885,79.17
	c-6.912,13.884-12.163,32.579-15.48,59.781c10.272-0.202,20.501-1.004,30.76-1.604
	C2012.373,144.839,2017.206,144.493,2021.946,143.576z M2183.486,62.247c40.358-3.841,117.331-4.805,138.536,38.703
	c4.069,8.35,6.335,18.695,6.335,31.356v128.355c0,83.149-168.311,98.809-168.311,25.083V165.227c0-34.44-7.732-62.771-19.915-83.767
	c-2.349-4.045-4.868-7.834-7.542-11.361C2148.52,66.721,2165.828,63.927,2183.486,62.247z"/>
<path d="M2122.689,654.937c1.849,3.848,3.617,7.73,5.345,11.634c0.855,1.934,1.704,3.872,2.497,5.833
	c0.75,1.854,1.309,3.79,2.084,5.629c0.759,1.802,1.766,3.484,2.489,5.305c0.765,1.925,1.25,3.936,2.151,5.807
	c0.875,1.817,1.74,3.65,2.574,5.487c0.556,1.224,0.874,2.557,1.381,3.801l796.895-134.715c-0.363-2.833-0.817-5.652-1.576-8.419
	c-2.409-8.781-6.963-16.778-9.827-25.394c-2.051-6.17-3.292-13.706-8.177-18.4l-137.829,23.301c0.021-0.109,0.045-0.219,0.067-0.328
	c-1.776,0.385-3.51,1.061-5.252,1.522c-2.573,0.681-5.21,1.119-7.789,1.794c-2.394,0.627-4.79,1.275-7.233,1.687
	c-2.528,0.426-5.083,0.7-7.616,1.104c-5.136,0.819-10.254,1.755-15.421,2.365c-4.496,0.53-9.015,0.601-13.529,0.843
	c-0.027,0.209-0.058,0.413-0.084,0.624L2118.72,646.71c0.277,1.165,0.887,2.281,1.434,3.309
	C2121.023,651.652,2121.888,653.269,2122.689,654.937z"/>
<g>
	<path d="M2458.532,4160.151c-118.764-118.764-313.698-118.764-432.462,0c-118.764,118.765-118.764,313.697,0,432.462
		s313.698,118.765,432.462,0C2577.296,4473.848,2577.296,4278.915,2458.532,4160.151L2458.532,4160.151z M2424.87,4558.952
		c-100.271,100.271-264.869,100.271-365.14,0c-100.272-100.271-100.272-264.87,0-365.141c100.271-100.271,264.869-100.271,365.14,0
		v0C2525.142,4294.083,2525.142,4458.681,2424.87,4558.952z"/>
	<path d="M5621.082,4052.642c-17.905-147.043-71.892-241.464-180.212-341.73c-79.32-73.423-196.204-176.685-287.836-231.172
		c-62.688-37.276-117.931-33.004-172.229-79.998l-479.289-432.301c-24.065-34.839,6.548-46.182-44.543-89.21
		c-63.154-53.187-167.264-136.105-200.589-162.647c-61.36-48.874-105.869-46.514-178.919-46.514H1695.252
		c-128.953-4.733-159.135,258.444-139.159,386.18c6.842,43.755,6.61,12.738-7.513,57.916
		c-22.545,72.109-62.157,244.915-46.458,602.909c1.945,44.37-35.076,77.046-36.875,135.179l-8.626,278.494
		c-32.093,45.813-43.914,129.919-20.13,181.738c10.814,23.56,28.719,42.942,56.056,54.033c70.868,28.76,203.26,28.952,324.26,29.125
		c17.173,0.023,34.116,0.049,50.679,0.156c13.326,0.052,25.161-11.764,25.161-25.084c0-96.041,38.691-181.427,101.313-242.93
		c139.697-137.208,368.26-132.829,502.535,9.429c54.729,57.983,89.761,134.592,94.83,218.833
		c1.426,23.759-8.212,66.379,23.842,66.379h1924.679c13.419,0,26.024-12.132,26.024-25.703
		c0-103.356,38.905-195.169,101.871-261.237c131.198-137.656,347.263-142.155,483.181-9.143
		c59.495,58.221,99.304,132.23,110.43,221.581c4.117,33.044,5.998,43.163,47.279,53.934c8.54,2.228,12.636,2.613,22.587,3.772
		c66.675,7.775,167.496-5.957,229.604-26.816c88.148-26.227,71.132-126.23,73.498-127.92c16.497-11.788,23.842-23.757,31.798-40.831
		C5689.451,4158.986,5681.025,4070.783,5621.082,4052.642z M1910.986,4152.599c-32.39,47.938-54.263,103.578-62.403,164.024
		c-4.774,35.467,4.962,30.655-31.777,30.601c-116.396-0.166-243.749-0.351-306.407-25.779
		c-14.996-6.084-24.824-16.729-30.764-29.672c-19.32-42.093-4.682-104.142,20.153-140.956L1910.986,4152.599L1910.986,4152.599z
		 M4633.333,4101.756c-66.618,69.899-109.392,164.985-114.548,272.063h-1849.59c-36.445,0-28.167,5.679-30.846-28.67
		c-7.241-92.849-46.604-177.206-107.267-241.477c-152.655-161.734-411.602-166.707-570.412-10.73
		c-4.116,4.042-8.138,8.178-12.068,12.396l-348.11-1.508l1.871-168.341c0.145-18.715-28.308-18.933-28.452-0.223l-1.872,168.441
		l-67.142-0.291l7.77-250.86c1.671-53.979,39.528-78.023,36.875-138.526c-15.769-359.601,24.638-525.655,45.843-591.397
		c13.61-42.202,15.164-28.596,8.24-72.237c-15.851-99.868,2.324-324.85,86.812-333.72h0l2385.767,0.003
		c60.915,0,98.823-5.153,150.611,36.099c33.556,26.726,138.9,110.626,200.897,162.892c28.856,24.324,9.143,41.669,34.75,78.737
		l487.284,441.229c65.616,56.787,111.988,45.103,179.11,85.017c88.394,52.562,203.245,154.137,279.839,225.036
		c98.105,90.81,147.342,173.987,164.562,307.058c-40.849,5.339-80.712,15.7-120.953,26.16
		c-52.244,13.581-227.08,52.739-268.098,12.593C5029.267,3939.871,4782.929,3944.795,4633.333,4101.756z M5620.4,4194.192
		c-13.273,21.373-52.759,35.072-75.711,41.566c-30.088,8.438-17.257,54.187,12.831,45.748c9.316-2.636,18.425-5.563,27.166-8.813
		c0.182,21.313-1.829,47.655-38.93,60.118c-55.569,18.663-149.664,31.587-209.442,24.938c-29.714-3.304-25.206-1.844-29.414-27.592
		c-10.628-65.036-35.274-125.176-70.583-176.585c81.709,9.259,155.409-9.889,227.891-28.729
		c45.928-11.938,91.339-23.743,137.112-27.228C5635.988,4094.973,5634.873,4168.674,5620.4,4194.192z"/>
	<path d="M2187.034,4321.116c-30.356,30.356-30.356,80.174,0,110.53c30.356,30.356,80.174,30.356,110.53,0s30.356-80.174,0-110.53
		S2217.39,4290.76,2187.034,4321.116z M2277.368,4411.451c-19.26,19.26-50.88,19.26-70.14,0c-19.259-19.259-19.259-50.881,0-70.14
		c19.26-19.26,50.88-19.26,70.14,0C2296.628,4360.57,2296.628,4392.192,2277.368,4411.451z"/>
	<path d="M4917.016,4298.222c-21.579,0-41.122,8.75-55.265,22.894c-30.356,30.356-30.356,80.174,0,110.53
		c30.355,30.356,80.173,30.356,110.529,0s30.356-80.174,0-110.53C4958.138,4306.973,4938.597,4298.222,4917.016,4298.222z
		 M4952.085,4411.451c-19.259,19.26-50.879,19.26-70.139,0c-19.26-19.259-19.26-50.881,0-70.14
		c8.973-8.973,21.373-14.525,35.07-14.525c13.696,0,26.097,5.552,35.07,14.525h0
		C4971.344,4360.57,4971.344,4392.192,4952.085,4411.451z"/>
	<path d="M2351.666,4267.016c-60.072-60.068-158.663-60.071-218.734,0c-60.068,60.074-60.068,158.66,0,218.733
		c60.071,60.067,158.664,60.072,218.733-0.001C2411.739,4425.679,2411.733,4327.086,2351.666,4267.016L2351.666,4267.016z
		 M2331.469,4465.553c-48.972,48.975-129.368,48.973-178.342,0.001c-48.972-48.976-48.972-129.369,0-178.343
		c48.974-48.974,129.369-48.972,178.343,0l0,0C2380.442,4336.185,2380.444,4416.58,2331.469,4465.553z"/>
	<path d="M5133.246,4160.151c-118.765-118.764-313.698-118.764-432.462,0c-118.765,118.765-118.765,313.697,0,432.462
		s313.698,118.765,432.462,0S5252.01,4278.915,5133.246,4160.151L5133.246,4160.151z M5099.585,4558.952
		c-100.271,100.271-264.869,100.271-365.141,0c-100.271-100.271-100.271-264.87,0-365.141
		c100.271-100.271,264.869-100.271,365.141,0v0C5199.856,4294.083,5199.856,4458.681,5099.585,4558.952z"/>
	<path d="M5506.445,4009.524c18.787,0,18.787-28.565,0-28.565c-58.524,0-188.105-44.371-188.599-117.121
		c-0.147-22.61-10.473-76.186,21.449-78.533c18.71-1.319,16.706-29.772-2.01-28.452h0c-61.224,4.502-48.17,65.571-47.892,107.097
		C5290.014,3955.689,5431.06,4009.524,5506.445,4009.524z"/>
	<path d="M3630.527,3704.765v99.892c0,58.075,88.271,58.076,88.271,0v-99.892
		C3718.798,3646.689,3630.527,3646.689,3630.527,3704.765z M3690.234,3804.657c0,20.471-31.142,20.471-31.142,0v-99.892
		c0-20.471,31.142-20.471,31.142,0V3804.657z"/>
	<path style="fill:#E91E57;" d="M3786.212,2995.066h-652.501c-0.053,0.655-307.244,0-307.244,0c-8.079,0-14.745,6.031-14.745,14.282
		l0.007,58.245H1683.353c-18.787,0-18.787,28.564,0,28.564h0h1128.38l0.081,723.858h-1128.46c-18.787,0-18.787,28.565,0,28.565
		h1128.463l0.049,446.187c0,10.414,8.138,14.229,17.084,14.229l959.271-1.028c7.863,0.099,14.303-6.401,14.303-14.225
		l-0.148-1280.161C3803.687,3003.474,3795.894,2995.066,3786.212,2995.066z M2840.316,4280.532
		c-0.046-418.916-0.095-838.127-0.139-1256.901h933.748l0.146,1255.901L2840.316,4280.532z"/>
	<path d="M4726.107,3400.545l-256.104-236.567c-66.691-60.022-96.792-93.052-189.093-93.076l-255.419-0.078
		c-53.257-0.265-92.283,7.856-92.419,70.198l-0.778,356.787c-0.214,98.178,10.669,98.138,122.713,97.717h0
		c50.504-0.187,101.024-0.018,151.53,0.006c152.951,0.071,305.902,0.143,458.857,0.215
		C4807.102,3595.394,4829.394,3490.198,4726.107,3400.545z M4055.008,3567.073c-86.054,0.324-94.412,0.355-94.261-69.263
		l0.778-356.787c0.094-43.381,27.394-41.927,63.855-41.746l180.3,0.055v467.747l0,0
		C4155.459,3567.054,4105.226,3566.888,4055.008,3567.073z M4665.395,3567.293l-431.151-0.201v-467.753l0,0l46.667,0.015
		c83.66,0.022,109.215,31.108,170.015,85.819l256.218,236.622C4787.129,3491.049,4783.881,3566.995,4665.395,3567.293z"/>
	<path d="M5026.383,4267.016c-60.074-60.069-158.66-60.069-218.734,0c-60.069,60.074-60.069,158.66,0,218.733
		c60.071,60.067,158.664,60.073,218.733-0.001C5086.456,4425.679,5086.45,4327.086,5026.383,4267.016L5026.383,4267.016z
		 M5006.187,4465.553c-48.974,48.975-129.368,48.973-178.342,0.001c-48.973-48.976-48.973-129.369,0-178.343
		c48.974-48.973,129.368-48.973,178.343,0l0,0C5055.159,4336.185,5055.161,4416.58,5006.187,4465.553z"/>
	<path style="fill:#E91E57;" d="M4908.258,3502.919c-0.02-49.41-22.356-62.566-51.964-89.492l-317.721-288.953
		c-103.769-94.256-115.694-130.573-272.226-130.195l-389.939,0.946c-9.152,0-17.304,4.853-17.304,15.51l1.097,1284.034
		c0,9.495,7.497,14.283,16.133,14.283h584.499c22.562-214.131,163.897-379.426,382.874-405.041c28.43-3.163,64.718-7.2,64.69-72.391
		L4908.258,3502.919L4908.258,3502.919z M4836.752,3876.09c-215.09,25.48-372.637,191.641-401.365,404.397h-546.746l-1.074-1256.836
		l378.779-0.92c145.394-0.35,156.878,35.491,253.035,122.832l319.061,290.172l0,0c22.735,20.676,41.347,31.32,41.364,67.186
		l0.139,328.7C4879.959,3865.965,4866.576,3872.804,4836.752,3876.09z"/>
	<path d="M3940.26,3704.765v99.892c0,58.075,88.272,58.076,88.272,0v-99.892C4028.531,3646.689,3940.26,3646.689,3940.26,3704.765z
		 M3999.967,3804.657c0,20.471-31.142,20.471-31.142,0v-99.892c0-20.471,31.142-20.471,31.142,0V3804.657z"/>
</g>
<path style="opacity:0.07;fill:#E91E57;stroke:#000000;stroke-miterlimit:10;" d="M5904.965,4140.761c-14,8-26,15-37,27
	c-1,1-5,0-5,0c-2,5,0,11-2,16h-3c-0.845,8.453-0.796,16.727-0.686,24.974c17.36-26.739,37.431-53.132,60.605-78.046
	c-2.701,0.236-5.806-0.336-7.919,1.073C5906.965,4133.761,5906.965,4139.761,5904.965,4140.761z"/>
<path style="opacity:0.07;fill:#E91E57;stroke:#000000;stroke-miterlimit:10;" d="M5723.065,3916.612
	c-30.322-72.759-84.384-407.435-583.824-623.686c-252.294-208.529-527.758-401.611-574.098-540.63
	c-61.786-54.063-221.401-216.252-303.782-216.252H1780.927c0,0-137.76,77.106-83.697,380.308
	c-15.447,48.334-69.51,326.372-61.786,643.027c-23.17,96.541-32.738,89.251-41.191,325.665
	c-25.744,144.168-56.637,188.559-30.893,241.022s-100.08,62.569,252.616,65.16c46.34-15.431,43.765-32.916,59.212-93.683
	s162.013-251.116,416.625-233.095s437.763,218.794,437.763,355.255c-2.575,15.463-2.575,15.463-2.575,15.463l1169.817,10.187
	c-1.311-5.777-2.535-11.596-2.232-17.669c-0.303,6.073,0.921,11.892,2.232,17.669l9.307,0.081
	c-0.133-29.086-0.442-58.173,0.77-87.259c0-2.896,2.896-5.068,2.896-7.965c1.448-43.443,0-87.611,1.448-131.054
	c0-1.448,2.172-2.896,2.172-4.344c1.448-74.578,1.448-149.156,0-223.734c0-3.62-2.172-7.965-2.896-11.585
	c0-7.965-1.448-14.481-3.62-23.17c-2.896-15.929,1.448-30.41-1.448-46.34c-2.172-11.585-2.172-23.17-3.62-34.755
	c0-1.448-2.172-2.172-2.172-3.62c-1.448-215.045-0.724-430.091-0.724-645.136c61.545-1.448,123.09,1.448,185.359-2.172
	c66.614-4.344,133.227-5.792,200.564,0.724c5.792,0.724,15.205-0.724,23.17,1.448c1.448,0.724,2.172,2.896,3.62,2.896
	c13.757,0,26.79,3.62,39.099,7.965c5.068,2.172,10.137,0,15.205,1.448c5.792,2.172,10.137,6.517,15.206,10.137
	c2.172,1.448,5.068,0,7.964,0.724c1.448,0.724,2.172,2.896,3.621,3.62c1.448,0.724,3.62-0.724,4.344,0
	c4.344,7.965,10.861,7.965,18.825,8.689c1.448,0,2.896,2.172,4.345,2.172c13.033,0,21.722,11.585,34.754,13.033
	c1.448,0,2.172,2.172,3.621,3.62c8.688,5.068,18.825,2.896,26.066,7.965c10.861,7.965,22.446,9.413,32.583,18.102
	c1.448,1.448,4.345,0,7.241,0.724c1.448,0.724,2.172,2.896,3.62,3.62c0.724,0,2.896-0.724,3.621,0
	c2.172,2.172,2.172,5.792,4.344,7.965c7.241,5.069,17.377,3.62,23.17,11.585c0.724,0.724-0.724,2.896,0,3.62s2.896-0.724,3.62,0
	c2.896,2.896,4.344,5.792,7.965,7.965c0.724,0,2.896-0.724,3.62,0s-0.724,2.896,0,3.62c6.517,8.689,14.481,13.757,19.55,23.17
	c0.724,0,2.896-0.724,3.62,0c2.172,3.62,2.896,7.965,4.344,10.861c7.241,13.033,15.206,23.17,22.446,35.479
	c0.724,0.724,3.621-0.724,4.344,0c6.517,8.689,5.069,19.55,15.206,27.514c0.724,0.724-0.724,2.896,0,3.62s2.896,0,3.62,0
	c2.896,6.517,7.241,10.137,11.585,15.205c1.448,2.172,2.172,5.792,4.344,7.965c0.724,0.724,2.896,0,2.896,0
	c2.896,11.585,13.033,15.929,19.549,23.894c5.068,4.344,7.241,12.309,15.206,15.205c4.344,1.448,4.344,9.413,12.309,11.585
	c2.172,0.724-1.448,7.24,11.585,7.965c2.896,0,5.068,5.792,7.965,6.517c7.964,1.448,11.585,8.688,15.929,15.929
	c1.448,2.172,4.344,2.172,7.241,3.62c1.448,1.448,2.172,2.896,3.62,4.344c2.896,1.448,5.792,2.172,7.965,3.62
	c0.724,0.724-0.724,2.896,0,3.62c3.62,4.344,4.344,9.413,15.205,8.688c2.172-0.724,4.344,2.172,3.62,7.241
	c2.896-0.724,4.345,0.724,7.965,2.896c2.172,0.724,5.068,1.448,7.965,4.344c0.724,0.724,2.896,0,3.62,0
	c0.724,2.172-0.724,6.517,0.724,7.241c1.448,1.448,4.344,0,7.24,0.724c2.896,0.724,2.896,5.069,4.345,6.517
	c12.309,10.137,23.17,20.998,33.307,32.583c0.724,0.724,0.724,4.344,4.344,7.241c0.724,0.724-0.724,2.896,0,3.62
	c3.62,4.344,10.137,7.24,10.137,11.585c1.448,8.689,5.792,15.929,9.413,23.17c0.724,0,2.172,0,3.621,0
	c-2.172,6.517-0.724,11.585,7.241,20.274c1.448,0.724,0,4.344,0.724,7.24c1.448,5.069,5.069,7.965,7.241,11.585
	c2.172,3.62,0,7.965,1.448,11.585c3.62,10.137,2.172,20.274,2.896,30.41c0.724,2.896,2.896,5.069,2.896,7.965
	c1.448,44.892,3.62,89.783-0.724,135.399c-0.724,8.689-1.448,17.377-2.896,26.79c0,0-2.172-0.724-2.896,0
	c-0.724,0.724,0.724,2.896,0,3.62c-8.688,7.965,0,21.722-5.068,30.411c-5.068,7.24-0.724,16.653-3.62,23.894c0,0-1.448,0-2.896,0
	c0,5.068,2.896,8.689-3.62,15.929c-2.172,2.172,0,7.241-0.724,10.861c-0.724,1.448-2.896,2.896-3.621,4.344c0,0.724,0,2.896,0,3.62
	c-3.62,5.792-7.24,10.137-11.584,15.205c-0.724,0.724,0,2.896,0,4.344c-1.448,2.896-2.896,4.344-7.965,3.62
	c0,10.861-8.688,16.654-15.205,23.17c-0.724,0.724-2.896-0.724-3.621,0c-0.566,0.566-0.249,1.577-0.083,2.683
	c255.411-34.305,528.957,102.985,562.482,330.197c51.039,24.966,308.482,43.613,318.779-78.985c10.298-55.663,0-52.001,0-52.001
	S5807.449,4025.412,5723.065,3916.612z"/>
</svg>
