<?xml version="1.0" encoding="iso-8859-1"?>
<!-- Generator: Adobe Illustrator 24.2.3, SVG Export Plug-In . SVG Version: 6.00 Build 0)  -->
<svg version="1.1" id="&#x421;&#x43B;&#x43E;&#x439;_1"
	 xmlns="http://www.w3.org/2000/svg" xmlns:xlink="http://www.w3.org/1999/xlink" x="0px" y="0px" viewBox="0 0 354 309.187"
	 style="enable-background:new 0 0 354 309.187;" xml:space="preserve">
<g>
	<g>
		<path style="fill:#1D2856;" d="M347.169,215.688l-0.138,0.08L322.206,230.1l-0.069,0.04l-18.71,10.802l-3.72,2.148l-5.244,3.027
			l-0.138,0.08l-25.774,14.881l-3.307,1.909l-35.34,20.404l-2.067,1.193l-38.93,22.476c1.011-0.428,2.005-0.914,2.97-1.471
			l158.001-91.222c0.521-0.301,0.976-0.659,1.387-1.045L347.169,215.688z"/>
		<polygon style="fill:#1D2856;" points="190.969,205.469 212.708,192.918 188.711,179.079 166.985,191.622 		"/>
		<path style="fill:#1D2856;" d="M196.344,266.401l-49.617,28.646l18.258,10.542c7.355,4.247,16.217,4.732,23.922,1.471
			l38.93-22.476L196.344,266.401z"/>
		<path style="fill:#232F6D;" d="M272.077,227.479c-0.225-0.24-0.453-0.479-0.682-0.717l-3.199-1.845l-31.18,18.001l31.535,18.159
			l25.774-14.881c-5.994-4.037-11.219-8.415-16.826-12.724C275.417,231.794,273.746,229.397,272.077,227.479z"/>
		<polygon style="fill:#232F6D;" points="220.149,233.207 251.342,215.198 219.367,196.758 188.15,214.781 		"/>
		<polygon style="fill:#232F6D;" points="66.21,231.755 51.656,240.158 60.577,245.308 75.131,236.906 		"/>
		<polygon style="fill:#232F6D;" points="33.974,229.949 50.824,239.677 65.258,231.344 		"/>
		<polygon style="fill:#232F6D;" points="85.716,243.017 71.162,251.42 80.084,256.57 94.638,248.168 		"/>
		<polygon style="fill:#232F6D;" points="114.976,259.91 100.422,268.313 140.072,291.205 154.626,282.802 		"/>
		<polygon style="fill:#232F6D;" points="75.963,237.386 61.409,245.789 70.33,250.939 84.884,242.537 		"/>
		<polygon style="fill:#232F6D;" points="95.469,248.648 80.915,257.051 89.837,262.201 104.39,253.799 		"/>
		<polygon style="fill:#232F6D;" points="105.222,254.279 90.669,262.682 99.59,267.832 114.144,259.43 		"/>
		<polygon style="fill:#232F6D;" points="198.411,265.208 229.904,283.39 265.245,262.987 233.709,244.828 		"/>
		<polygon style="fill:#232F6D;" points="155.28,159.799 116.073,137.189 110.921,140.163 150.106,162.786 		"/>
		<path style="fill:#232F6D;" d="M264.148,218.129c-5.88-13.895-3.054-28.013-14.318-40.72
			c-5.841-6.713-14.989-11.517-26.205-15.607c-7.063-2.646-15.408-2.989-22.831-5.068c-6.021-1.686-11.217-4.09-12.896-7.923
			c-2.1-5.031-3.371-10.06-6.298-14.613c-5.138-7.453-16.784-14.153-30.517-17.222l-31.29,18.065l144.48,83.322
			C264.232,218.285,264.188,218.208,264.148,218.129z"/>
		<path style="fill:#1D2856;" d="M129.421,168.716c4.833,0.919,10.059,0.205,13.639-1.861l4.979-2.875l-39.184-22.623
			l-24.078,13.902l12.888,7.421L129.421,168.716z"/>
		<path style="fill:#232F6D;" d="M102.536,169.297l-31.653-6.017L2.775,202.602c-3.593,2.074-3.593,7.26,0,9.334L23.2,223.729
			l86.817-50.124L102.536,169.297z"/>
		<polygon style="fill:#1D2856;" points="81.47,157.167 78.299,158.997 87.778,160.799 		"/>
		<polygon style="fill:#232F6D;" points="137.919,247.384 150.327,254.548 167.893,244.406 155.485,237.242 		"/>
		<path style="fill:#232F6D;" d="M125.307,234.021l-11.415-0.509l23.196,13.392l17.566-10.142l-7.194-4.153
			C140.385,233.862,132.881,234.358,125.307,234.021z"/>
		<polygon style="fill:#232F6D;" points="181.151,252.06 168.725,244.887 151.159,255.028 163.585,262.202 		"/>
		<polygon style="fill:#232F6D;" points="144.42,253.524 126.234,264.024 135.155,269.174 153.341,258.675 		"/>
		<polygon style="fill:#1D2856;" points="134.667,247.893 116.481,258.393 125.402,263.544 143.588,253.044 		"/>
		<polygon style="fill:#1D2856;" points="154.173,259.155 135.987,269.655 144.909,274.805 163.095,264.306 		"/>
		<path style="fill:#1D2856;" d="M172.076,224.062c-6.167,3.561-13.526,6.248-21.524,7.946l46.026,26.573l30.467-17.59
			l-42.203-24.301L172.076,224.062z"/>
		<polygon style="fill:#1D2856;" points="222.231,234.406 230.352,239.082 261.537,221.077 253.422,216.398 		"/>
		<polygon style="fill:#232F6D;" points="145.74,275.286 156.693,281.609 174.879,271.109 163.927,264.786 		"/>
		<polygon style="fill:#232F6D;" points="164.416,262.682 176.946,269.916 194.512,259.775 181.982,252.541 		"/>
		<polygon style="fill:#232F6D;" points="157.47,197.116 181.486,210.944 188.903,206.662 164.919,192.815 		"/>
		<path style="fill:#1D2856;" d="M103.225,227.354l0.474,0.274l22.272,0.993c14.691,0.655,29.069-2.407,39.451-8.4l12.758-7.366
			l-24.016-13.829l-0.046,0.027l-3.327-1.921c0.042-0.024-37.44-21.607-37.44-21.607L28.88,224.292l73.938,3.296L103.225,227.354z"
			/>
		<polygon style="fill:#232F6D;" points="109.412,233.312 98.914,232.844 85.572,240.547 96.143,246.65 114.329,236.151 		"/>
		<polygon style="fill:#1D2856;" points="69.996,231.555 84.74,240.067 97.369,232.775 		"/>
		<polygon style="fill:#232F6D;" points="124.914,242.262 106.728,252.762 115.649,257.912 133.835,247.413 		"/>
		<path style="fill:#232F6D;" d="M176.573,172.079l-14.635-8.44l-12.224,7.057c-6.083,3.512-14.964,4.725-23.177,3.163
			l-14.116-2.684l32.901,18.945L176.573,172.079z"/>
		<polygon style="fill:#232F6D;" points="154.138,195.197 185.382,177.159 178.654,173.279 147.405,191.32 		"/>
		<polygon style="fill:#232F6D;" points="115.16,236.631 96.974,247.131 105.896,252.281 124.082,241.782 		"/>
		<path style="fill:#35468E;" d="M204.761,123.707c14.565,9.841,25.399,19.914,34.999,31.661c2.5,2.398,5.001,4.797,9.155,6.24
			c10.798,3.371,21.594,6.263,27.019,12.736c7.928,9.35,4.671,20.356,12.599,29.706c0.272,0.321,0.557,0.639,0.837,0.958
			l20.851-12.038c-9.178-8.749-14.979-18.192-25.419-27.107c-4.435-3.642-9.26-6.982-14.269-10.177l-70.909-40.939
			C199.49,118.019,200.84,121.097,204.761,123.707z"/>
		<path style="fill:#35468E;" d="M294.085,209.97c7.618,7.416,17.196,14.192,28.121,20.13l24.825-14.333
			c-12.164-4.876-22.826-10.949-31.522-18.166L294.085,209.97z"/>
		<path style="fill:#1D2856;" d="M349.879,201.495l-20.557-11.869l-13.813,7.975c8.696,7.217,19.358,13.29,31.522,18.166l0.138-0.08
			l4.097-2.365C354.766,210.04,354.311,204.054,349.879,201.495z"/>
		<path style="fill:#1D2856;" d="M310.222,192.969l12.445-7.185l-52.133-30.099c5.01,3.195,9.835,6.535,14.269,10.177
			C295.243,174.777,301.043,184.22,310.222,192.969z"/>
		<path style="fill:#1D2856;" d="M181.6,134.198c2.927,4.554,4.198,9.583,6.298,14.613c1.679,3.833,6.875,6.236,12.896,7.923
			c7.423,2.079,15.768,2.422,22.831,5.068c11.217,4.09,20.365,8.894,26.205,15.607c11.263,12.707,8.438,26.826,14.318,40.72
			c0.039,0.078,0.084,0.155,0.125,0.234l0.984,0.567l24.114-13.922c-0.279-0.319-0.565-0.637-0.837-0.958
			c-7.928-9.35-4.671-20.355-12.599-29.706c-5.425-6.473-16.221-9.365-27.019-12.736c-4.154-1.444-6.655-3.842-9.155-6.24
			c-9.6-11.747-20.434-21.82-34.999-31.661c-3.921-2.61-5.271-5.688-5.136-8.961l-13.152-7.593c-5.685-3.282-12.69-3.282-18.376,0
			l-17.014,9.823C164.816,120.045,176.462,126.745,181.6,134.198z"/>
		<path style="fill:#1D2856;" d="M272.077,227.479c1.669,1.918,3.34,4.315,5.423,5.994c5.607,4.308,10.832,8.687,16.826,12.724
			l0.138-0.08l5.244-3.027l-28.312-16.328C271.624,227,271.852,227.239,272.077,227.479z"/>
		<path style="fill:#1D2856;" d="M271.915,222.77l31.511,18.173l18.71-10.802l0.069-0.04c-10.925-5.937-20.503-12.714-28.121-20.13
			L271.915,222.77z"/>
		<path style="fill:#626FA6;" d="M294.085,209.97l21.424-12.369l13.813-7.975l-6.655-3.842l-12.445,7.185l-20.851,12.038
			l-24.114,13.922l-0.984-0.567l-144.48-83.322l-3.72,2.148l39.207,22.61l-5.174,2.987l-39.184-22.623l-2.067,1.193l39.184,22.623
			l-4.979,2.875c-3.58,2.067-8.806,2.78-13.639,1.861l-31.756-6.037l-12.888-7.421l-3.307,1.909l6.308,3.633l-9.479-1.802
			l-7.417,4.282l31.653,6.017l7.482,4.308L23.2,223.729l10.774,6.22l31.284,1.395l-14.434,8.334l0.832,0.48l14.554-8.403
			l8.921,5.151l-14.554,8.403l0.832,0.48l14.554-8.403l8.922,5.151l-14.554,8.403l0.832,0.48l14.554-8.403l8.922,5.151
			l-14.554,8.403l0.832,0.48l14.554-8.403l8.921,5.15l-14.554,8.403l0.832,0.48l14.554-8.403l8.922,5.151l-14.554,8.403l0.832,0.48
			l14.554-8.403l39.651,22.893l-14.554,8.403l6.655,3.842l49.617-28.646l31.493,18.183l2.067-1.193l-31.493-18.183l35.298-20.38
			l31.535,18.159l3.307-1.909l-31.535-18.159l31.18-18.001l3.199,1.845l28.312,16.328l3.72-2.148l-31.511-18.173L294.085,209.97z
			 M251.342,215.198l-31.193,18.009l-31.999-18.425l31.217-18.023L251.342,215.198z M181.486,210.944l-24.016-13.829l7.449-4.3
			l23.984,13.847L181.486,210.944z M212.708,192.918l-21.739,12.551l-23.984-13.847l21.726-12.543L212.708,192.918z
			 M185.382,177.159l-31.243,18.038l-6.733-3.877l31.248-18.041L185.382,177.159z M126.537,173.86
			c8.213,1.561,17.093,0.349,23.177-3.163l12.224-7.057l14.635,8.44l-31.25,18.042l-32.901-18.945L126.537,173.86z M28.88,224.292
			l84.469-48.768l37.482,21.583c-0.042,0.024,3.285,1.945,3.285,1.945l0.046-0.027l24.016,13.829l-12.758,7.366
			c-10.381,5.993-24.76,9.055-39.451,8.4l-22.272-0.993l-0.474-0.274l-0.406,0.234L28.88,224.292z M150.327,254.548l-12.408-7.164
			l17.566-10.142l12.408,7.164L150.327,254.548z M168.725,244.887l12.425,7.174l-17.566,10.142l-12.426-7.174L168.725,244.887z
			 M137.087,246.904l-23.196-13.392l11.415,0.509c7.574,0.338,15.078-0.159,22.153-1.412l7.194,4.153L137.087,246.904z
			 M84.74,240.067l-14.744-8.512l27.373,1.22L84.74,240.067z M85.572,240.547l13.342-7.703l10.498,0.468l4.917,2.839l-18.186,10.5
			L85.572,240.547z M96.974,247.131l18.186-10.5l8.922,5.151l-18.186,10.5L96.974,247.131z M106.728,252.762l18.186-10.5
			l8.921,5.151l-18.186,10.5L106.728,252.762z M116.481,258.393l18.186-10.5l8.921,5.151l-18.186,10.5L116.481,258.393z
			 M126.234,264.024l18.186-10.5l8.921,5.15l-18.186,10.5L126.234,264.024z M135.987,269.655l18.186-10.5l8.922,5.151l-18.186,10.5
			L135.987,269.655z M156.693,281.609l-10.953-6.323l18.186-10.5l10.952,6.324L156.693,281.609z M176.946,269.916l-12.529-7.234
			l17.566-10.142l12.529,7.234L176.946,269.916z M196.578,258.581l-46.026-26.573c7.998-1.698,15.356-4.385,21.524-7.946
			l12.767-7.371l42.203,24.301L196.578,258.581z M230.352,239.082l-8.121-4.676l31.191-18.008l8.115,4.68L230.352,239.082z"/>
	</g>
	<linearGradient id="SVGID_1_" gradientUnits="userSpaceOnUse" x1="0" y1="158.9016" x2="354" y2="158.9016">
		<stop  offset="0.2919" style="stop-color:#EAEAF9"/>
		<stop  offset="0.388" style="stop-color:#E3E3F7"/>
		<stop  offset="0.5253" style="stop-color:#D0D0F2"/>
		<stop  offset="0.627" style="stop-color:#BEBEED"/>
	</linearGradient>
	<path style="fill:url(#SVGID_1_);" d="M2.698,211.947l0.303,0.176l66.969-38.763l7.427-4.299l3.175-1.838l3.312-1.917
		l24.112-13.956l2.07-1.198l5.159-2.986l3.725-2.156l31.334-18.137l17.037-9.862c5.694-3.296,12.708-3.296,18.402,0l13.17,7.623
		l71.008,41.101l52.206,30.218l6.664,3.857l20.586,11.916c0.845,0.489,1.544,1.104,2.1,1.8c0.072-0.063,0.15-0.122,0.22-0.187
		c3.504-3.295,3.05-9.304-1.389-11.874l-20.586-11.916l-6.664-3.857l-52.206-30.218l-71.008-41.101l-13.17-7.623
		c-5.693-3.296-12.708-3.296-18.401,0l-17.038,9.862l-31.334,18.137l-3.725,2.156l-5.159,2.986l-2.07,1.198l-24.112,13.956
		l-3.311,1.917l-3.175,1.838l-7.427,4.299L2.698,202.575C-0.9,204.658-0.9,209.864,2.698,211.947z"/>
	<g>
		<path style="opacity:0.76;fill:#232F6D;" d="M105.346,238.753l-3.34-1.941c-0.33-0.192-0.737-0.192-1.068-0.001l-4.278,2.472
			l3.76,2.234h1.617l3.318-2.045C105.624,239.306,105.619,238.912,105.346,238.753z"/>
		
			<linearGradient id="SVGID_2_" gradientUnits="userSpaceOnUse" x1="-670.1043" y1="239.264" x2="-661.0435" y2="239.264" gradientTransform="matrix(1 0 0 1 765.6934 0)">
			<stop  offset="0.2919" style="stop-color:#EAEAF9"/>
			<stop  offset="0.388" style="stop-color:#E3E3F7"/>
			<stop  offset="0.5253" style="stop-color:#D0D0F2"/>
			<stop  offset="0.627" style="stop-color:#BEBEED"/>
		</linearGradient>
		<path style="fill:url(#SVGID_2_);" d="M104.41,236.993v2.087c0,0.102-0.051,0.204-0.151,0.262l-3.554,2.054
			c-0.325,0.188-0.725,0.188-1.05,0l-3.542-2.047c-0.102-0.059-0.15-0.165-0.145-0.269c-0.022,0-0.022-2.087-0.022-2.087H104.41z"/>
		<path style="fill:#F0F0FC;" d="M100.7,239.286l3.554-2.054c0.201-0.116,0.201-0.407,0-0.523l-3.574-2.065
			c-0.295-0.171-0.659-0.171-0.954,0l-3.618,2.091c-0.194,0.112-0.194,0.393,0,0.505l3.542,2.047
			C99.975,239.474,100.375,239.474,100.7,239.286z"/>
	</g>
	<g>
		<path style="opacity:0.76;fill:#232F6D;" d="M126.576,246.78l-2.116-1.229c-0.209-0.121-0.467-0.122-0.676-0.001l-2.71,1.566
			l2.382,1.415h1.024l2.101-1.296C126.753,247.13,126.749,246.881,126.576,246.78z"/>
		
			<linearGradient id="SVGID_3_" gradientUnits="userSpaceOnUse" x1="-692.277" y1="247.104" x2="-686.5372" y2="247.104" gradientTransform="matrix(1 0 0 1 812.6724 0)">
			<stop  offset="0.2919" style="stop-color:#EAEAF9"/>
			<stop  offset="0.388" style="stop-color:#E3E3F7"/>
			<stop  offset="0.5253" style="stop-color:#D0D0F2"/>
			<stop  offset="0.627" style="stop-color:#BEBEED"/>
		</linearGradient>
		<path style="fill:url(#SVGID_3_);" d="M125.983,245.665v1.322c0,0.065-0.032,0.129-0.096,0.166l-2.252,1.301
			c-0.206,0.119-0.459,0.119-0.665,0l-2.244-1.297c-0.065-0.037-0.095-0.105-0.091-0.17c-0.014,0-0.014-1.322-0.014-1.322H125.983z"
			/>
		<path style="fill:#F0F0FC;" d="M123.633,247.118l2.251-1.301c0.128-0.074,0.128-0.258,0-0.332l-2.264-1.308
			c-0.187-0.108-0.418-0.108-0.605,0l-2.292,1.325c-0.123,0.071-0.123,0.249,0,0.32l2.244,1.297
			C123.174,247.237,123.427,247.237,123.633,247.118z"/>
	</g>
	<g>
		<path style="opacity:0.76;fill:#232F6D;" d="M101.974,190.37l-2.116-1.229c-0.209-0.121-0.467-0.122-0.676-0.001l-2.71,1.566
			l2.382,1.415h1.024l2.102-1.296C102.15,190.72,102.147,190.471,101.974,190.37z"/>
		
			<linearGradient id="SVGID_4_" gradientUnits="userSpaceOnUse" x1="-716.8794" y1="190.6938" x2="-711.1396" y2="190.6938" gradientTransform="matrix(1 0 0 1 812.6724 0)">
			<stop  offset="0.2919" style="stop-color:#EAEAF9"/>
			<stop  offset="0.388" style="stop-color:#E3E3F7"/>
			<stop  offset="0.5253" style="stop-color:#D0D0F2"/>
			<stop  offset="0.627" style="stop-color:#BEBEED"/>
		</linearGradient>
		<path style="fill:url(#SVGID_4_);" d="M101.381,189.255v1.322c0,0.065-0.032,0.129-0.096,0.166l-2.251,1.301
			c-0.206,0.119-0.459,0.119-0.665,0l-2.244-1.297c-0.065-0.037-0.095-0.105-0.091-0.17c-0.014,0-0.014-1.322-0.014-1.322H101.381z"
			/>
		<path style="fill:#F0F0FC;" d="M99.031,190.708l2.251-1.301c0.128-0.074,0.128-0.258,0-0.332l-2.264-1.308
			c-0.187-0.108-0.418-0.108-0.605,0l-2.292,1.325c-0.123,0.071-0.123,0.249,0,0.32l2.244,1.297
			C98.572,190.827,98.825,190.827,99.031,190.708z"/>
	</g>
	<g>
		<path style="opacity:0.76;fill:#232F6D;" d="M95.429,193.617l-1.081-0.628c-0.107-0.062-0.239-0.062-0.346,0l-1.385,0.8
			l1.217,0.723h0.524l1.074-0.662C95.519,193.796,95.518,193.668,95.429,193.617z"/>
		
			<linearGradient id="SVGID_5_" gradientUnits="userSpaceOnUse" x1="-720.4024" y1="193.7825" x2="-717.4688" y2="193.7825" gradientTransform="matrix(1 0 0 1 812.6724 0)">
			<stop  offset="0.2919" style="stop-color:#EAEAF9"/>
			<stop  offset="0.388" style="stop-color:#E3E3F7"/>
			<stop  offset="0.5253" style="stop-color:#D0D0F2"/>
			<stop  offset="0.627" style="stop-color:#BEBEED"/>
		</linearGradient>
		<path style="fill:url(#SVGID_5_);" d="M95.126,193.047v0.676c0,0.033-0.016,0.066-0.049,0.085l-1.151,0.665
			c-0.105,0.061-0.235,0.061-0.34,0l-1.147-0.663c-0.033-0.019-0.049-0.053-0.047-0.087c-0.007,0-0.007-0.676-0.007-0.676H95.126z"
			/>
		<path style="fill:#F0F0FC;" d="M93.925,193.79l1.151-0.665c0.065-0.038,0.065-0.132,0-0.169l-1.157-0.669
			c-0.096-0.055-0.214-0.055-0.309,0l-1.171,0.677c-0.063,0.036-0.063,0.127,0,0.163l1.147,0.663
			C93.69,193.85,93.82,193.85,93.925,193.79z"/>
	</g>
	<g>
		<path style="opacity:0.76;fill:#232F6D;" d="M113.897,198.546l-4.91-2.853c-0.485-0.282-1.084-0.283-1.57-0.002l-6.289,3.635
			l5.528,3.284h2.377l4.877-3.006C114.307,199.359,114.3,198.779,113.897,198.546z"/>
		
			<linearGradient id="SVGID_6_" gradientUnits="userSpaceOnUse" x1="-713.1182" y1="199.2975" x2="-699.7981" y2="199.2975" gradientTransform="matrix(1 0 0 1 812.6724 0)">
			<stop  offset="0.2919" style="stop-color:#EAEAF9"/>
			<stop  offset="0.388" style="stop-color:#E3E3F7"/>
			<stop  offset="0.5253" style="stop-color:#D0D0F2"/>
			<stop  offset="0.627" style="stop-color:#BEBEED"/>
		</linearGradient>
		<path style="fill:url(#SVGID_6_);" d="M112.521,195.958v3.067c0,0.15-0.074,0.299-0.222,0.385l-5.225,3.019
			c-0.477,0.276-1.066,0.276-1.543,0l-5.208-3.01c-0.15-0.087-0.221-0.243-0.212-0.395c-0.032,0-0.032-3.067-0.032-3.067H112.521z"
			/>
		<path style="fill:#F0F0FC;" d="M107.068,199.33l5.225-3.02c0.296-0.171,0.296-0.599,0-0.77l-5.253-3.036
			c-0.434-0.251-0.969-0.251-1.403,0l-5.319,3.074c-0.285,0.165-0.285,0.577,0,0.742l5.207,3.01
			C106.002,199.606,106.59,199.606,107.068,199.33z"/>
	</g>
	<g>
		<path style="opacity:0.76;fill:#232F6D;" d="M146.447,220.621l-3.876-2.252c-0.383-0.223-0.855-0.223-1.239-0.002l-4.965,2.869
			l4.364,2.593h1.877l3.85-2.374C146.771,221.263,146.765,220.806,146.447,220.621z"/>
		
			<linearGradient id="SVGID_7_" gradientUnits="userSpaceOnUse" x1="-677.5481" y1="221.2146" x2="-667.0323" y2="221.2146" gradientTransform="matrix(1 0 0 1 812.6724 0)">
			<stop  offset="0.2919" style="stop-color:#EAEAF9"/>
			<stop  offset="0.388" style="stop-color:#E3E3F7"/>
			<stop  offset="0.5253" style="stop-color:#D0D0F2"/>
			<stop  offset="0.627" style="stop-color:#BEBEED"/>
		</linearGradient>
		<path style="fill:url(#SVGID_7_);" d="M145.361,218.578V221c0,0.118-0.059,0.236-0.176,0.304l-4.125,2.384
			c-0.377,0.218-0.841,0.218-1.218,0l-4.111-2.376c-0.119-0.069-0.174-0.192-0.168-0.312c-0.025,0-0.025-2.422-0.025-2.422H145.361z
			"/>
		<path style="fill:#F0F0FC;" d="M141.056,221.24l4.125-2.384c0.234-0.135,0.234-0.473,0-0.608l-4.147-2.397
			c-0.343-0.198-0.765-0.198-1.108,0l-4.199,2.427c-0.225,0.13-0.225,0.455,0,0.586l4.111,2.376
			C140.215,221.458,140.679,221.458,141.056,221.24z"/>
	</g>
	<g>
		<path style="opacity:0.76;fill:#232F6D;" d="M59.8,218.809l-7.134-4.145c-0.705-0.41-1.575-0.41-2.28-0.003l-9.137,5.281
			l8.032,4.771h3.454l7.086-4.368C60.396,219.991,60.385,219.149,59.8,218.809z"/>
		
			<linearGradient id="SVGID_8_" gradientUnits="userSpaceOnUse" x1="-773.7114" y1="219.9019" x2="-754.3583" y2="219.9019" gradientTransform="matrix(1 0 0 1 812.6724 0)">
			<stop  offset="0.2919" style="stop-color:#EAEAF9"/>
			<stop  offset="0.388" style="stop-color:#E3E3F7"/>
			<stop  offset="0.5253" style="stop-color:#D0D0F2"/>
			<stop  offset="0.627" style="stop-color:#BEBEED"/>
		</linearGradient>
		<path style="fill:url(#SVGID_8_);" d="M57.801,215.05v4.456c-0.001,0.218-0.108,0.435-0.323,0.56l-7.591,4.387
			c-0.694,0.401-1.549,0.401-2.242,0l-7.566-4.373c-0.219-0.126-0.321-0.353-0.308-0.574c-0.047,0-0.047-4.456-0.047-4.456H57.801z"
			/>
		<path style="fill:#F0F0FC;" d="M49.878,219.949l7.591-4.387c0.43-0.249,0.43-0.87,0-1.118l-7.632-4.411
			c-0.631-0.365-1.408-0.365-2.039,0l-7.728,4.466c-0.415,0.239-0.415,0.838,0,1.078l7.566,4.373
			C48.329,220.35,49.184,220.35,49.878,219.949z"/>
	</g>
	<g>
		<path style="opacity:0.76;fill:#232F6D;" d="M113.277,245.219l-2.549-1.481c-0.252-0.146-0.563-0.147-0.815-0.001l-3.265,1.887
			l2.87,1.705h1.234l2.532-1.561C113.49,245.641,113.486,245.34,113.277,245.219z"/>
		
			<linearGradient id="SVGID_9_" gradientUnits="userSpaceOnUse" x1="-679.4048" y1="245.6089" x2="-672.4888" y2="245.6089" gradientTransform="matrix(1 0 0 1 785.2351 0)">
			<stop  offset="0.2919" style="stop-color:#EAEAF9"/>
			<stop  offset="0.388" style="stop-color:#E3E3F7"/>
			<stop  offset="0.5253" style="stop-color:#D0D0F2"/>
			<stop  offset="0.627" style="stop-color:#BEBEED"/>
		</linearGradient>
		<path style="fill:url(#SVGID_9_);" d="M112.563,243.875v1.592c0,0.078-0.039,0.156-0.116,0.2l-2.713,1.568
			c-0.248,0.143-0.553,0.143-0.801,0l-2.704-1.563c-0.078-0.045-0.115-0.126-0.11-0.205c-0.017,0-0.017-1.592-0.017-1.592H112.563z"
			/>
		<path style="fill:#F0F0FC;" d="M109.732,245.626l2.713-1.568c0.154-0.089,0.154-0.311,0-0.4l-2.727-1.576
			c-0.225-0.13-0.503-0.13-0.729,0l-2.762,1.596c-0.148,0.086-0.148,0.299,0,0.385l2.704,1.563
			C109.178,245.769,109.484,245.769,109.732,245.626z"/>
	</g>
	<g>
		<path style="opacity:0.76;fill:#232F6D;" d="M185.125,229.725l-9.129-5.304c-0.902-0.524-2.015-0.525-2.918-0.003l-11.692,6.757
			l10.278,6.105h4.42l9.067-5.589C185.888,231.236,185.874,230.159,185.125,229.725z"/>
		
			<linearGradient id="SVGID_10_" gradientUnits="userSpaceOnUse" x1="-626.7766" y1="231.1223" x2="-602.0113" y2="231.1223" gradientTransform="matrix(1 0 0 1 785.2351 0)">
			<stop  offset="0.2919" style="stop-color:#EAEAF9"/>
			<stop  offset="0.388" style="stop-color:#E3E3F7"/>
			<stop  offset="0.5253" style="stop-color:#D0D0F2"/>
			<stop  offset="0.627" style="stop-color:#BEBEED"/>
		</linearGradient>
		<path style="fill:url(#SVGID_10_);" d="M182.568,224.914v5.703c-0.001,0.278-0.138,0.557-0.413,0.716l-9.714,5.614
			c-0.888,0.513-1.982,0.513-2.869,0l-9.682-5.595c-0.28-0.162-0.41-0.452-0.395-0.735c-0.06,0-0.06-5.703-0.06-5.703H182.568z"/>
		<path style="fill:#F0F0FC;" d="M172.429,231.182l9.714-5.614c0.551-0.318,0.551-1.113,0-1.431l-9.767-5.645
			c-0.807-0.467-1.802-0.467-2.609,0l-9.889,5.715c-0.53,0.306-0.53,1.073,0,1.379l9.682,5.595
			C170.447,231.696,171.541,231.696,172.429,231.182z"/>
	</g>
	<g>
		<path style="opacity:0.76;fill:#232F6D;" d="M203.571,240.452l-9.129-5.304c-0.902-0.524-2.015-0.525-2.918-0.003l-11.692,6.757
			l10.278,6.105h4.42l9.067-5.589C204.333,241.963,204.319,240.886,203.571,240.452z"/>
		
			<linearGradient id="SVGID_11_" gradientUnits="userSpaceOnUse" x1="-608.3311" y1="241.8495" x2="-583.5658" y2="241.8495" gradientTransform="matrix(1 0 0 1 785.2351 0)">
			<stop  offset="0.2919" style="stop-color:#EAEAF9"/>
			<stop  offset="0.388" style="stop-color:#E3E3F7"/>
			<stop  offset="0.5253" style="stop-color:#D0D0F2"/>
			<stop  offset="0.627" style="stop-color:#BEBEED"/>
		</linearGradient>
		<path style="fill:url(#SVGID_11_);" d="M201.013,235.641v5.703c-0.001,0.279-0.138,0.557-0.413,0.716l-9.714,5.614
			c-0.888,0.513-1.981,0.513-2.869,0l-9.682-5.595c-0.28-0.162-0.41-0.452-0.395-0.735c-0.06,0-0.06-5.703-0.06-5.703H201.013z"/>
		<path style="fill:#F0F0FC;" d="M190.874,241.91l9.714-5.614c0.551-0.318,0.551-1.113,0-1.431l-9.767-5.645
			c-0.807-0.467-1.802-0.467-2.609,0l-9.889,5.715c-0.53,0.306-0.53,1.073,0,1.379l9.682,5.595
			C188.893,242.423,189.986,242.423,190.874,241.91z"/>
	</g>
	<g>
		<path style="opacity:0.76;fill:#232F6D;" d="M188.233,258.626l-3.259-1.893c-0.322-0.187-0.719-0.187-1.042-0.001l-4.174,2.412
			l3.669,2.179h1.577l3.237-1.995C188.505,259.165,188.5,258.781,188.233,258.626z"/>
		
			<linearGradient id="SVGID_12_" gradientUnits="userSpaceOnUse" x1="-826.7253" y1="259.1246" x2="-817.8853" y2="259.1246" gradientTransform="matrix(1 0 0 1 1005.4392 0)">
			<stop  offset="0.2919" style="stop-color:#EAEAF9"/>
			<stop  offset="0.388" style="stop-color:#E3E3F7"/>
			<stop  offset="0.5253" style="stop-color:#D0D0F2"/>
			<stop  offset="0.627" style="stop-color:#BEBEED"/>
		</linearGradient>
		<path style="fill:url(#SVGID_12_);" d="M187.32,256.908v2.036c0,0.099-0.049,0.199-0.148,0.255l-3.468,2.004
			c-0.317,0.183-0.707,0.183-1.024,0l-3.456-1.997c-0.1-0.058-0.147-0.161-0.141-0.262c-0.021,0-0.021-2.036-0.021-2.036H187.32z"/>
		<path style="fill:#F0F0FC;" d="M183.701,259.146l3.468-2.004c0.196-0.114,0.196-0.397,0-0.511l-3.487-2.015
			c-0.288-0.167-0.643-0.167-0.931,0l-3.53,2.04c-0.189,0.109-0.189,0.383,0,0.492l3.456,1.997
			C182.993,259.329,183.384,259.329,183.701,259.146z"/>
	</g>
	<g>
		<path style="opacity:0.76;fill:#232F6D;" d="M216.551,238.934l-3.259-1.893c-0.322-0.187-0.719-0.187-1.042-0.001l-4.174,2.412
			l3.669,2.179h1.577l3.237-1.995C216.823,239.474,216.818,239.09,216.551,238.934z"/>
		
			<linearGradient id="SVGID_13_" gradientUnits="userSpaceOnUse" x1="-798.4067" y1="239.4333" x2="-789.5667" y2="239.4333" gradientTransform="matrix(1 0 0 1 1005.4392 0)">
			<stop  offset="0.2919" style="stop-color:#EAEAF9"/>
			<stop  offset="0.388" style="stop-color:#E3E3F7"/>
			<stop  offset="0.5253" style="stop-color:#D0D0F2"/>
			<stop  offset="0.627" style="stop-color:#BEBEED"/>
		</linearGradient>
		<path style="fill:url(#SVGID_13_);" d="M215.638,237.217v2.036c0,0.099-0.049,0.199-0.148,0.255l-3.468,2.004
			c-0.317,0.183-0.707,0.183-1.024,0l-3.456-1.997c-0.1-0.058-0.147-0.161-0.141-0.262c-0.021,0-0.021-2.036-0.021-2.036H215.638z"
			/>
		<path style="fill:#F0F0FC;" d="M212.019,239.455l3.467-2.004c0.197-0.113,0.197-0.397,0-0.511L212,234.925
			c-0.288-0.167-0.643-0.167-0.931,0l-3.53,2.04c-0.189,0.109-0.189,0.383,0,0.492l3.456,1.997
			C211.312,239.638,211.702,239.638,212.019,239.455z"/>
	</g>
	<g>
		<path style="opacity:0.76;fill:#232F6D;" d="M199.518,254.212l-2.193-1.274c-0.217-0.126-0.484-0.126-0.701-0.001l-2.809,1.623
			l2.469,1.467h1.062l2.178-1.343C199.701,254.575,199.697,254.317,199.518,254.212z"/>
		
			<linearGradient id="SVGID_14_" gradientUnits="userSpaceOnUse" x1="-812.3278" y1="254.5481" x2="-806.3783" y2="254.5481" gradientTransform="matrix(1 0 0 1 1005.4392 0)">
			<stop  offset="0.2919" style="stop-color:#EAEAF9"/>
			<stop  offset="0.388" style="stop-color:#E3E3F7"/>
			<stop  offset="0.5253" style="stop-color:#D0D0F2"/>
			<stop  offset="0.627" style="stop-color:#BEBEED"/>
		</linearGradient>
		<path style="fill:url(#SVGID_14_);" d="M198.903,253.057v1.37c0,0.067-0.033,0.134-0.099,0.172l-2.334,1.349
			c-0.213,0.123-0.476,0.123-0.689,0l-2.326-1.344c-0.067-0.039-0.099-0.109-0.095-0.176c-0.014,0-0.014-1.37-0.014-1.37H198.903z"
			/>
		<path style="fill:#F0F0FC;" d="M196.467,254.563l2.334-1.349c0.132-0.076,0.132-0.268,0-0.344l-2.346-1.356
			c-0.194-0.112-0.433-0.112-0.627,0l-2.376,1.373c-0.127,0.074-0.127,0.258,0,0.331l2.326,1.344
			C195.991,254.686,196.254,254.686,196.467,254.563z"/>
	</g>
	<g>
		<path style="opacity:0.76;fill:#232F6D;" d="M159.446,245.569l-5.907-3.432c-0.584-0.339-1.304-0.34-1.888-0.002l-7.565,4.372
			l6.65,3.951h2.86l5.867-3.617C159.939,246.547,159.93,245.851,159.446,245.569z"/>
		
			<linearGradient id="SVGID_15_" gradientUnits="userSpaceOnUse" x1="-797.7246" y1="246.4738" x2="-781.7001" y2="246.4738" gradientTransform="matrix(1 0 0 1 939.9156 0)">
			<stop  offset="0.2919" style="stop-color:#EAEAF9"/>
			<stop  offset="0.388" style="stop-color:#E3E3F7"/>
			<stop  offset="0.5253" style="stop-color:#D0D0F2"/>
			<stop  offset="0.627" style="stop-color:#BEBEED"/>
		</linearGradient>
		<path style="fill:url(#SVGID_15_);" d="M157.791,242.456v3.69c0,0.18-0.089,0.36-0.268,0.463l-6.286,3.632
			c-0.574,0.332-1.282,0.332-1.856,0l-6.265-3.62c-0.181-0.105-0.266-0.292-0.256-0.475c-0.039,0-0.039-3.69-0.039-3.69H157.791z"/>
		<path style="fill:#F0F0FC;" d="M151.23,246.513l6.286-3.633c0.356-0.206,0.356-0.72,0-0.926l-6.32-3.652
			c-0.522-0.302-1.166-0.302-1.688,0L143.109,242c-0.343,0.198-0.343,0.694,0,0.892l6.265,3.621
			C149.948,246.845,150.656,246.845,151.23,246.513z"/>
	</g>
	<g>
		<path style="opacity:0.76;fill:#232F6D;" d="M239.91,210.054l-11.164-6.486c-1.103-0.641-2.464-0.642-3.568-0.004l-14.298,8.263
			l12.569,7.466h5.404l11.088-6.835C240.843,211.903,240.826,210.586,239.91,210.054z"/>
		
			<linearGradient id="SVGID_16_" gradientUnits="userSpaceOnUse" x1="-732.6149" y1="211.7638" x2="-702.3306" y2="211.7638" gradientTransform="matrix(1 0 0 1 939.9156 0)">
			<stop  offset="0.2919" style="stop-color:#EAEAF9"/>
			<stop  offset="0.388" style="stop-color:#E3E3F7"/>
			<stop  offset="0.5253" style="stop-color:#D0D0F2"/>
			<stop  offset="0.627" style="stop-color:#BEBEED"/>
		</linearGradient>
		<path style="fill:url(#SVGID_16_);" d="M236.783,204.171v6.974c-0.001,0.34-0.169,0.681-0.506,0.875l-11.879,6.865
			c-1.086,0.627-2.423,0.627-3.509,0l-11.84-6.842c-0.342-0.198-0.502-0.552-0.483-0.898c-0.073,0-0.073-6.974-0.073-6.974H236.783z
			"/>
		<path style="fill:#F0F0FC;" d="M224.384,211.838l11.879-6.865c0.673-0.389,0.673-1.361,0-1.75l-11.944-6.902
			c-0.987-0.571-2.203-0.571-3.19,0l-12.094,6.989c-0.648,0.375-0.648,1.312,0,1.686l11.84,6.842
			C221.961,212.465,223.298,212.465,224.384,211.838z"/>
	</g>
	<g>
		<path style="opacity:0.76;fill:#232F6D;" d="M205.685,215.402l-3.975-2.31c-0.393-0.228-0.877-0.229-1.271-0.001l-5.092,2.943
			l4.476,2.659h1.925l3.949-2.434C206.017,216.06,206.011,215.591,205.685,215.402z"/>
		
			<linearGradient id="SVGID_17_" gradientUnits="userSpaceOnUse" x1="-745.8433" y1="216.0104" x2="-735.0587" y2="216.0104" gradientTransform="matrix(1 0 0 1 939.9156 0)">
			<stop  offset="0.2919" style="stop-color:#EAEAF9"/>
			<stop  offset="0.388" style="stop-color:#E3E3F7"/>
			<stop  offset="0.5253" style="stop-color:#D0D0F2"/>
			<stop  offset="0.627" style="stop-color:#BEBEED"/>
		</linearGradient>
		<path style="fill:url(#SVGID_17_);" d="M204.571,213.307v2.483c0,0.121-0.06,0.242-0.18,0.312l-4.23,2.445
			c-0.387,0.223-0.863,0.223-1.249,0l-4.216-2.437c-0.122-0.07-0.179-0.197-0.172-0.32c-0.026,0-0.026-2.483-0.026-2.483H204.571z"
			/>
		<path style="fill:#F0F0FC;" d="M200.156,216.037l4.23-2.445c0.24-0.139,0.24-0.485,0-0.623l-4.253-2.458
			c-0.352-0.203-0.785-0.203-1.136,0l-4.307,2.489c-0.231,0.133-0.231,0.467,0,0.6l4.216,2.437
			C199.293,216.26,199.769,216.26,200.156,216.037z"/>
	</g>
	<g>
		<path style="opacity:0.76;fill:#232F6D;" d="M214.948,220.913l-3.975-2.31c-0.393-0.228-0.877-0.229-1.271-0.001l-5.092,2.943
			l4.476,2.659h1.925l3.949-2.434C215.28,221.571,215.274,221.102,214.948,220.913z"/>
		
			<linearGradient id="SVGID_18_" gradientUnits="userSpaceOnUse" x1="-736.5799" y1="221.5215" x2="-725.7953" y2="221.5215" gradientTransform="matrix(1 0 0 1 939.9156 0)">
			<stop  offset="0.2919" style="stop-color:#EAEAF9"/>
			<stop  offset="0.388" style="stop-color:#E3E3F7"/>
			<stop  offset="0.5253" style="stop-color:#D0D0F2"/>
			<stop  offset="0.627" style="stop-color:#BEBEED"/>
		</linearGradient>
		<path style="fill:url(#SVGID_18_);" d="M213.835,218.818v2.484c0,0.121-0.06,0.242-0.18,0.312l-4.23,2.445
			c-0.387,0.223-0.863,0.223-1.249,0l-4.216-2.437c-0.122-0.07-0.179-0.197-0.172-0.32c-0.026,0-0.026-2.484-0.026-2.484H213.835z"
			/>
		<path style="fill:#F0F0FC;" d="M209.419,221.548l4.23-2.445c0.24-0.139,0.24-0.485,0-0.623l-4.253-2.458
			c-0.352-0.203-0.785-0.203-1.136,0l-4.307,2.489c-0.231,0.133-0.231,0.467,0,0.601l4.216,2.437
			C208.556,221.771,209.033,221.771,209.419,221.548z"/>
	</g>
	<g>
		<path style="opacity:0.76;fill:#232F6D;" d="M224.446,226.424l-3.975-2.31c-0.393-0.228-0.878-0.229-1.271-0.002l-5.092,2.943
			l4.476,2.659h1.925l3.949-2.434C224.778,227.082,224.772,226.613,224.446,226.424z"/>
		
			<linearGradient id="SVGID_19_" gradientUnits="userSpaceOnUse" x1="-727.082" y1="227.0327" x2="-716.2972" y2="227.0327" gradientTransform="matrix(1 0 0 1 939.9156 0)">
			<stop  offset="0.2919" style="stop-color:#EAEAF9"/>
			<stop  offset="0.388" style="stop-color:#E3E3F7"/>
			<stop  offset="0.5253" style="stop-color:#D0D0F2"/>
			<stop  offset="0.627" style="stop-color:#BEBEED"/>
		</linearGradient>
		<path style="fill:url(#SVGID_19_);" d="M223.333,224.329v2.484c0,0.121-0.06,0.242-0.18,0.312l-4.23,2.445
			c-0.387,0.224-0.863,0.224-1.249,0l-4.216-2.437c-0.122-0.07-0.179-0.197-0.172-0.32c-0.026,0-0.026-2.484-0.026-2.484H223.333z"
			/>
		<path style="fill:#F0F0FC;" d="M218.917,227.059l4.23-2.445c0.24-0.139,0.24-0.485,0-0.623l-4.253-2.458
			c-0.352-0.203-0.785-0.203-1.136,0l-4.307,2.489c-0.231,0.133-0.231,0.467,0,0.6l4.216,2.437
			C218.054,227.282,218.531,227.282,218.917,227.059z"/>
	</g>
	<g>
		<path style="opacity:0.76;fill:#232F6D;" d="M158.953,264.156l-4.868-2.79c-0.481-0.276-1.074-0.276-1.556-0.002l-4.755,2.71
			v1.711l4.001,2.344h2.357l4.836-2.94C159.36,264.951,159.352,264.384,158.953,264.156z"/>
		<g>
			
				<linearGradient id="SVGID_20_" gradientUnits="userSpaceOnUse" x1="-306.9985" y1="262.6164" x2="-296.5142" y2="262.6164" gradientTransform="matrix(1 0 0 1 452.5323 0)">
				<stop  offset="0.2919" style="stop-color:#EAEAF9"/>
				<stop  offset="0.388" style="stop-color:#E3E3F7"/>
				<stop  offset="0.5253" style="stop-color:#D0D0F2"/>
				<stop  offset="0.627" style="stop-color:#BEBEED"/>
			</linearGradient>
			<path style="fill:url(#SVGID_20_);" d="M146.746,257.094v8.104c0,0.122,0.061,0.244,0.181,0.313l4.256,2.46
				c0.389,0.225,0.868,0.225,1.257,0l4.242-2.451c0.123-0.071,0.18-0.198,0.173-0.322c0.026,0,0.026-8.072,0.026-8.072
				L146.746,257.094z"/>
			<path style="fill:#F0F0FC;" d="M151.188,259.851l-4.256-2.459c-0.241-0.139-0.241-0.488,0-0.627l4.279-2.473
				c0.354-0.204,0.789-0.204,1.143,0l4.333,2.504c0.232,0.134,0.232,0.47,0,0.604l-4.242,2.451
				C152.056,260.076,151.577,260.076,151.188,259.851z"/>
		</g>
	</g>
	<g>
		<path style="opacity:0.76;fill:#232F6D;" d="M242.842,264.766l-11.393-6.529c-1.125-0.645-2.515-0.646-3.642-0.004l-11.128,6.343
			v4.004l9.363,5.486h5.516l11.316-6.88C243.793,266.626,243.776,265.301,242.842,264.766z"/>
		<g>
			
				<linearGradient id="SVGID_21_" gradientUnits="userSpaceOnUse" x1="-149.1912" y1="261.1638" x2="-124.6555" y2="261.1638" gradientTransform="matrix(1 0 0 1 360.6284 0)">
				<stop  offset="0.2919" style="stop-color:#EAEAF9"/>
				<stop  offset="0.388" style="stop-color:#E3E3F7"/>
				<stop  offset="0.5253" style="stop-color:#D0D0F2"/>
				<stop  offset="0.627" style="stop-color:#BEBEED"/>
			</linearGradient>
			<path style="fill:url(#SVGID_21_);" d="M214.274,248.24v18.964c0.001,0.285,0.142,0.571,0.424,0.734l9.959,5.756
				c0.91,0.526,2.032,0.526,2.942,0l9.926-5.737c0.287-0.166,0.421-0.463,0.405-0.753c0.062,0,0.062-18.89,0.062-18.89
				L214.274,248.24z"/>
			<path style="fill:#F0F0FC;" d="M224.669,254.692l-9.959-5.756c-0.564-0.326-0.564-1.141,0-1.467l10.014-5.787
				c0.827-0.478,1.847-0.478,2.675,0l10.139,5.859c0.544,0.314,0.544,1.1,0,1.414l-9.926,5.737
				C226.7,255.218,225.579,255.218,224.669,254.692z"/>
		</g>
	</g>
	<g>
		<path style="fill:#CC3C70;" d="M221.357,230.494c0.031-0.016,0.061-0.031,0.091-0.046L221.357,230.494z"/>
		<linearGradient id="SVGID_22_" gradientUnits="userSpaceOnUse" x1="221.5281" y1="239.6694" x2="233.9439" y2="239.6694">
			<stop  offset="0" style="stop-color:#E91E57"/>
			<stop  offset="1" style="stop-color:#FF3933"/>
		</linearGradient>
		<path style="fill:url(#SVGID_22_);" d="M233.935,239.701c0-1.516-0.44-3.168-1.18-4.718c-1.069-2.237-2.765-4.263-4.675-5.364
			c-1.523-0.878-2.91-1.011-3.951-0.519c0,0-2.6,1.308-2.6,1.308c1.039-0.478,2.416-0.34,3.927,0.531
			c1.952,1.125,3.68,3.215,4.744,5.51c0.699,1.507,1.112,3.103,1.112,4.571c0,0,0.265,2.48-2.051,4.93
			c-0.398,0.422-1.058,1.202-1.708,1.988c-1.056,1.277-2.096,2.582-2.097,2.583l2.624-1.32c0,0,2.763-3.467,3.805-4.571
			C234.199,242.181,233.935,239.701,233.935,239.701z"/>
		
			<linearGradient id="SVGID_23_" gradientUnits="userSpaceOnUse" x1="-585.7894" y1="251.3152" x2="-585.7894" y2="234.0356" gradientTransform="matrix(1 0 0 1 811.2447 0)">
			<stop  offset="0" style="stop-color:#E91E57"/>
			<stop  offset="1" style="stop-color:#FF3933"/>
		</linearGradient>
		<path style="fill:url(#SVGID_23_);" d="M227.553,247.938c0.654-0.791,1.308-1.563,1.708-1.987c2.315-2.45,2.051-4.93,2.051-4.93
			c0-3.705-2.622-8.218-5.856-10.082c-1.511-0.871-2.888-1.009-3.927-0.531c-0.027,0.013-0.053,0.027-0.08,0.04
			c-0.03,0.015-0.06,0.03-0.089,0.046c-1.085,0.592-1.76,1.9-1.76,3.777c0,0-0.264,2.175,2.051,7.294
			c1.042,2.305,3.805,8.956,3.805,8.957C225.456,250.522,226.503,249.207,227.553,247.938
			C227.552,247.939,227.552,247.939,227.553,247.938z"/>
		<path style="fill:#FFFFFF;" d="M228.124,239.002c0-1.824-1.291-4.047-2.884-4.964c-1.593-0.918-2.884-0.184-2.884,1.641
			c0,1.824,1.291,4.047,2.884,4.965C226.833,241.561,228.124,240.826,228.124,239.002z"/>
	</g>
	<g>
		<path style="opacity:0.76;fill:#232F6D;" d="M122.16,183.451l-7.759-4.508c-0.767-0.445-1.713-0.447-2.48-0.003l-7.414,6.483
			l6.212,4.45h3.757l7.707-4.751C122.808,184.736,122.796,183.821,122.16,183.451z"/>
		<g>
			<g>
				
					<linearGradient id="SVGID_24_" gradientUnits="userSpaceOnUse" x1="-930.3808" y1="176.5084" x2="-914.133" y2="176.5084" gradientTransform="matrix(1 0 0 1 1032.943 0)">
					<stop  offset="0.2919" style="stop-color:#EAEAF9"/>
					<stop  offset="0.388" style="stop-color:#E3E3F7"/>
					<stop  offset="0.5253" style="stop-color:#D0D0F2"/>
					<stop  offset="0.627" style="stop-color:#BEBEED"/>
				</linearGradient>
				<path style="fill:url(#SVGID_24_);" d="M118.809,163.142h-16.247v22.017c0,0.195,0.097,0.391,0.29,0.503l6.822,3.943
					c0.624,0.36,1.392,0.36,2.015,0l6.8-3.93c0.197-0.114,0.33-0.317,0.32-0.516V163.142z"/>
				<path style="fill:#F0F0FC;" d="M109.683,167.619l-6.822-3.943c-0.387-0.223-0.387-0.782,0-1.005l6.859-3.964
					c0.567-0.328,1.265-0.328,1.832,0l6.945,4.014c0.372,0.215,0.372,0.753,0,0.969l-6.8,3.93
					C111.075,167.98,110.307,167.98,109.683,167.619z"/>
			</g>
		</g>
	</g>
	<g>
		<path style="opacity:0.76;fill:#232F6D;" d="M161.698,198.901l-17.751-10.313c-1.754-1.019-3.918-1.021-5.674-0.006
			l-16.961,14.831l14.211,10.18h8.594l17.632-10.869C163.181,201.84,163.153,199.746,161.698,198.901z"/>
		<g>
			<g>
				
					<linearGradient id="SVGID_25_" gradientUnits="userSpaceOnUse" x1="-916.0779" y1="183.0186" x2="-878.9078" y2="183.0186" gradientTransform="matrix(1 0 0 1 1032.943 0)">
					<stop  offset="0.2919" style="stop-color:#EAEAF9"/>
					<stop  offset="0.388" style="stop-color:#E3E3F7"/>
					<stop  offset="0.5253" style="stop-color:#D0D0F2"/>
					<stop  offset="0.627" style="stop-color:#BEBEED"/>
				</linearGradient>
				<path style="fill:url(#SVGID_25_);" d="M154.034,152.441h-37.169v50.368c0.001,0.447,0.222,0.894,0.664,1.15l15.607,9.02
					c1.427,0.824,3.184,0.824,4.61,0l15.556-8.99c0.45-0.26,0.756-0.726,0.731-1.18V152.441z"/>
				<path style="fill:#F0F0FC;" d="M133.155,162.683l-15.607-9.02c-0.884-0.511-0.884-1.788,0-2.299l15.692-9.069
					c1.297-0.75,2.895-0.75,4.192,0l15.889,9.182c0.852,0.492,0.852,1.723,0,2.216l-15.556,8.99
					C136.339,163.507,134.582,163.507,133.155,162.683z"/>
			</g>
		</g>
	</g>
	<g>
		<path style="opacity:0.76;fill:#232F6D;" d="M280.897,242.804l-11.493-6.677c-1.135-0.66-2.537-0.661-3.674-0.004l-10.981,9.602
			l9.201,6.591h5.564l11.415-7.037C281.857,244.708,281.84,243.352,280.897,242.804z"/>
		<g>
			<g>
				
					<linearGradient id="SVGID_26_" gradientUnits="userSpaceOnUse" x1="-781.0726" y1="232.5215" x2="-757.007" y2="232.5215" gradientTransform="matrix(1 0 0 1 1032.943 0)">
					<stop  offset="0.2919" style="stop-color:#EAEAF9"/>
					<stop  offset="0.388" style="stop-color:#E3E3F7"/>
					<stop  offset="0.5253" style="stop-color:#D0D0F2"/>
					<stop  offset="0.627" style="stop-color:#BEBEED"/>
				</linearGradient>
				<path style="fill:url(#SVGID_26_);" d="M275.935,212.724H251.87v32.611c0.001,0.289,0.144,0.579,0.43,0.745l10.105,5.84
					c0.924,0.534,2.061,0.534,2.985,0l10.072-5.821c0.291-0.168,0.489-0.47,0.473-0.764V212.724z"/>
				<path style="fill:#F0F0FC;" d="M262.417,219.355l-10.105-5.84c-0.572-0.331-0.572-1.158,0-1.489l10.16-5.872
					c0.84-0.485,1.874-0.485,2.714,0l10.287,5.945c0.551,0.319,0.551,1.116,0,1.434l-10.072,5.82
					C264.479,219.889,263.341,219.889,262.417,219.355z"/>
			</g>
		</g>
	</g>
	<g>
		<path style="opacity:0.76;fill:#232F6D;" d="M104.045,208.7l-15.877-9.224c-1.568-0.911-3.504-0.913-5.075-0.006l-20.334,11.751
			l17.875,10.618h7.686l15.769-9.721C105.371,211.329,105.347,209.456,104.045,208.7z"/>
		
			<linearGradient id="SVGID_27_" gradientUnits="userSpaceOnUse" x1="-882.2481" y1="211.131" x2="-839.1773" y2="211.131" gradientTransform="matrix(1 0 0 1 939.9156 0)">
			<stop  offset="0.2919" style="stop-color:#EAEAF9"/>
			<stop  offset="0.388" style="stop-color:#E3E3F7"/>
			<stop  offset="0.5253" style="stop-color:#D0D0F2"/>
			<stop  offset="0.627" style="stop-color:#BEBEED"/>
		</linearGradient>
		<path style="fill:url(#SVGID_27_);" d="M99.597,200.333v9.918c-0.001,0.484-0.241,0.968-0.719,1.245l-16.895,9.764
			c-1.544,0.892-3.446,0.892-4.99,0l-16.839-9.731c-0.487-0.281-0.714-0.786-0.687-1.277c-0.104,0-0.104-9.918-0.104-9.918H99.597z"
			/>
		<path style="fill:#F0F0FC;" d="M81.964,211.236l16.895-9.764c0.957-0.553,0.957-1.936,0-2.489l-16.986-9.817
			c-1.404-0.811-3.134-0.811-4.538,0l-17.199,9.94c-0.922,0.533-0.922,1.865,0,2.398l16.839,9.731
			C78.518,212.128,80.42,212.128,81.964,211.236z"/>
	</g>
	<g>
		<path style="opacity:0.76;fill:#232F6D;" d="M106.379,222.697l-4.868-2.79c-0.481-0.276-1.075-0.276-1.556-0.002l-4.755,2.71
			v1.711l4.001,2.344h2.357l4.836-2.94C106.786,223.492,106.779,222.925,106.379,222.697z"/>
		<g>
			
				<linearGradient id="SVGID_28_" gradientUnits="userSpaceOnUse" x1="-359.5725" y1="221.1573" x2="-349.088" y2="221.1573" gradientTransform="matrix(1 0 0 1 452.5323 0)">
				<stop  offset="0.2919" style="stop-color:#EAEAF9"/>
				<stop  offset="0.388" style="stop-color:#E3E3F7"/>
				<stop  offset="0.5253" style="stop-color:#D0D0F2"/>
				<stop  offset="0.627" style="stop-color:#BEBEED"/>
			</linearGradient>
			<path style="fill:url(#SVGID_28_);" d="M94.172,215.635v8.104c0,0.122,0.061,0.244,0.181,0.314l4.256,2.46
				c0.389,0.225,0.868,0.225,1.257,0l4.242-2.451c0.123-0.071,0.18-0.198,0.173-0.322c0.026,0,0.026-8.072,0.026-8.072
				L94.172,215.635z"/>
			<path style="fill:#F0F0FC;" d="M98.614,218.392l-4.256-2.459c-0.241-0.139-0.241-0.488,0-0.627l4.279-2.473
				c0.354-0.204,0.789-0.204,1.143,0l4.333,2.504c0.232,0.134,0.232,0.47,0,0.604l-4.242,2.451
				C99.482,218.616,99.003,218.616,98.614,218.392z"/>
		</g>
	</g>
	<g>
		<path style="opacity:0.76;fill:#232F6D;" d="M126.482,220.51l-7.112-4.076c-0.703-0.403-1.57-0.403-2.273-0.002l-6.947,3.96v2.499
			l5.845,3.424h3.443l7.064-4.295C127.076,221.672,127.065,220.844,126.482,220.51z"/>
		<g>
			
				<linearGradient id="SVGID_29_" gradientUnits="userSpaceOnUse" x1="-345.6537" y1="218.2617" x2="-330.338" y2="218.2617" gradientTransform="matrix(1 0 0 1 452.5323 0)">
				<stop  offset="0.2919" style="stop-color:#EAEAF9"/>
				<stop  offset="0.388" style="stop-color:#E3E3F7"/>
				<stop  offset="0.5253" style="stop-color:#D0D0F2"/>
				<stop  offset="0.627" style="stop-color:#BEBEED"/>
			</linearGradient>
			<path style="fill:url(#SVGID_29_);" d="M108.649,210.194v11.838c0.001,0.178,0.089,0.356,0.265,0.458l6.217,3.593
				c0.568,0.328,1.268,0.328,1.836,0l6.196-3.581c0.179-0.104,0.263-0.289,0.253-0.47c0.038,0,0.038-11.792,0.038-11.792
				L108.649,210.194z"/>
			<path style="fill:#F0F0FC;" d="M115.138,214.222l-6.217-3.593c-0.352-0.204-0.352-0.712,0-0.916l6.251-3.612
				c0.517-0.298,1.153-0.298,1.67,0l6.329,3.658c0.339,0.196,0.339,0.686,0,0.883l-6.196,3.581
				C116.406,214.55,115.706,214.55,115.138,214.222z"/>
		</g>
	</g>
	<g>
		<path style="fill:#CC3C70;" d="M75.69,188.602c0.02-0.01,0.04-0.02,0.059-0.03L75.69,188.602z"/>
		<linearGradient id="SVGID_30_" gradientUnits="userSpaceOnUse" x1="75.8008" y1="194.5564" x2="83.8586" y2="194.5564">
			<stop  offset="0" style="stop-color:#E91E57"/>
			<stop  offset="1" style="stop-color:#FF3933"/>
		</linearGradient>
		<path style="fill:url(#SVGID_30_);" d="M83.853,194.577c0-0.984-0.285-2.056-0.766-3.062c-0.694-1.452-1.795-2.767-3.034-3.481
			c-0.988-0.57-1.888-0.656-2.564-0.337c0,0-1.687,0.849-1.687,0.849c0.674-0.31,1.568-0.221,2.549,0.344
			c1.267,0.73,2.388,2.087,3.078,3.576c0.454,0.978,0.722,2.014,0.722,2.967c0,0,0.172,1.609-1.331,3.2
			c-0.258,0.274-0.687,0.78-1.109,1.29c-0.685,0.829-1.36,1.676-1.361,1.676l1.703-0.857c0,0,1.793-2.25,2.469-2.967
			C84.024,196.186,83.853,194.577,83.853,194.577z"/>
		
			<linearGradient id="SVGID_31_" gradientUnits="userSpaceOnUse" x1="-732.8952" y1="202.1145" x2="-732.8952" y2="190.9001" gradientTransform="matrix(1 0 0 1 811.2447 0)">
			<stop  offset="0" style="stop-color:#E91E57"/>
			<stop  offset="1" style="stop-color:#FF3933"/>
		</linearGradient>
		<path style="fill:url(#SVGID_31_);" d="M79.711,199.923c0.424-0.513,0.849-1.014,1.108-1.29c1.503-1.59,1.331-3.2,1.331-3.2
			c0-2.404-1.702-5.333-3.8-6.543c-0.981-0.565-1.874-0.655-2.549-0.344c-0.018,0.008-0.035,0.018-0.052,0.026
			c-0.019,0.01-0.039,0.019-0.058,0.03c-0.704,0.384-1.142,1.233-1.142,2.451c0,0-0.171,1.412,1.331,4.734
			c0.677,1.496,2.469,5.813,2.469,5.813C78.35,201.599,79.03,200.746,79.711,199.923C79.71,199.923,79.71,199.923,79.711,199.923z"
			/>
		<path style="fill:#FFFFFF;" d="M80.081,194.123c0-1.184-0.838-2.626-1.871-3.222c-1.034-0.596-1.871-0.119-1.871,1.065
			c0,1.184,0.838,2.626,1.871,3.222C79.243,195.784,80.081,195.307,80.081,194.123z"/>
	</g>
	<g>
		<path style="fill:#CC3C70;" d="M125.466,115.788c0.054-0.027,0.105-0.053,0.157-0.079L125.466,115.788z"/>
		<linearGradient id="SVGID_32_" gradientUnits="userSpaceOnUse" x1="125.7601" y1="131.5755" x2="147.1231" y2="131.5755">
			<stop  offset="0" style="stop-color:#E91E57"/>
			<stop  offset="1" style="stop-color:#FF3933"/>
		</linearGradient>
		<path style="fill:url(#SVGID_32_);" d="M147.107,131.629c0-2.609-0.756-5.451-2.031-8.118c-1.839-3.85-4.758-7.335-8.045-9.229
			c-2.62-1.51-5.007-1.739-6.799-0.893c0-0.001-4.473,2.251-4.473,2.251c1.788-0.822,4.158-0.585,6.757,0.913
			c3.358,1.935,6.331,5.532,8.162,9.481c1.202,2.593,1.914,5.339,1.914,7.866c0,0,0.455,4.267-3.528,8.483
			c-0.685,0.726-1.821,2.068-2.939,3.421c-1.816,2.197-3.607,4.443-3.608,4.445l4.515-2.271c0,0,4.755-5.965,6.547-7.865
			C147.563,135.896,147.107,131.629,147.107,131.629z"/>
		
			<linearGradient id="SVGID_33_" gradientUnits="userSpaceOnUse" x1="-678.7274" y1="151.6136" x2="-678.7274" y2="121.8816" gradientTransform="matrix(1 0 0 1 811.2447 0)">
			<stop  offset="0" style="stop-color:#E91E57"/>
			<stop  offset="1" style="stop-color:#FF3933"/>
		</linearGradient>
		<path style="fill:url(#SVGID_33_);" d="M136.126,145.803c1.125-1.36,2.25-2.69,2.938-3.419c3.984-4.216,3.528-8.483,3.528-8.483
			c0-6.375-4.511-14.14-10.076-17.347c-2.6-1.498-4.969-1.735-6.757-0.913c-0.047,0.022-0.092,0.047-0.138,0.069
			c-0.051,0.026-0.103,0.051-0.153,0.079c-1.867,1.019-3.027,3.269-3.027,6.499c0,0-0.454,3.743,3.528,12.55
			c1.793,3.967,6.547,15.411,6.547,15.412c0.001-0.001,1.804-2.263,3.607-4.445C136.125,145.804,136.125,145.804,136.126,145.803z"
			/>
		<path style="fill:#FFFFFF;" d="M137.109,130.427c0-3.139-2.222-6.963-4.962-8.542c-2.74-1.579-4.962-0.316-4.962,2.823
			c0,3.139,2.221,6.963,4.962,8.542C134.887,134.829,137.109,133.566,137.109,130.427z"/>
	</g>
	<g>
		<path style="opacity:0.76;fill:#232F6D;" d="M172.72,212.217l-6.446-3.745c-0.637-0.37-1.423-0.371-2.061-0.002l-6.16,5.386
			l5.161,3.697h3.121l6.403-3.947C173.258,213.285,173.248,212.524,172.72,212.217z"/>
		<g>
			<g>
				
					<linearGradient id="SVGID_34_" gradientUnits="userSpaceOnUse" x1="-876.5043" y1="206.4496" x2="-863.006" y2="206.4496" gradientTransform="matrix(1 0 0 1 1032.943 0)">
					<stop  offset="0.2919" style="stop-color:#EAEAF9"/>
					<stop  offset="0.388" style="stop-color:#E3E3F7"/>
					<stop  offset="0.5253" style="stop-color:#D0D0F2"/>
					<stop  offset="0.627" style="stop-color:#BEBEED"/>
				</linearGradient>
				<path style="fill:url(#SVGID_34_);" d="M169.936,195.345h-13.498v18.291c0,0.162,0.081,0.325,0.241,0.418l5.668,3.276
					c0.518,0.299,1.156,0.299,1.674,0l5.649-3.265c0.163-0.094,0.275-0.264,0.265-0.428V195.345z"/>
				<path style="fill:#F0F0FC;" d="M162.354,199.065l-5.668-3.276c-0.321-0.186-0.321-0.649,0-0.835l5.699-3.293
					c0.471-0.272,1.051-0.272,1.522,0l5.77,3.335c0.309,0.179,0.309,0.626,0,0.805l-5.649,3.265
					C163.511,199.364,162.872,199.364,162.354,199.065z"/>
			</g>
		</g>
	</g>
</g>
<g>
	<g>
		<g>
			<g>
				<linearGradient id="SVGID_35_" gradientUnits="userSpaceOnUse" x1="246.9891" y1="127.4291" x2="246.9891" y2="77.5142">
					<stop  offset="0" style="stop-color:#E91E57"/>
					<stop  offset="1" style="stop-color:#FF3933"/>
				</linearGradient>
				<polygon style="fill:url(#SVGID_35_);" points="270.122,82.246 270.122,135.685 223.892,108.984 223.856,55.524 				"/>
				<linearGradient id="SVGID_36_" gradientUnits="userSpaceOnUse" x1="270.1225" y1="95.5288" x2="316.6934" y2="95.5288">
					<stop  offset="0" style="stop-color:#E91E57"/>
					<stop  offset="1" style="stop-color:#FF3933"/>
				</linearGradient>
				<polygon style="fill:url(#SVGID_36_);" points="316.693,108.805 270.122,135.693 270.122,82.253 316.693,55.365 				"/>
			</g>
			<linearGradient id="SVGID_37_" gradientUnits="userSpaceOnUse" x1="223.8561" y1="55.4446" x2="316.7072" y2="55.4446">
				<stop  offset="0" style="stop-color:#E91E57"/>
				<stop  offset="1" style="stop-color:#FF3933"/>
			</linearGradient>
			<polygon style="fill:url(#SVGID_37_);" points="270.122,82.253 316.707,55.356 270.427,28.636 223.856,55.524 			"/>
		</g>
		<polygon style="fill:#D3D3ED;" points="274.381,129.348 285.344,123.018 285.344,119.114 274.381,125.444 		"/>
	</g>
	<g>
		<g>
			<path style="fill:#D3D3ED;" d="M257.234,20.192l-0.624-0.356c-0.803-0.459-1.267-1.05-1.401-1.684
				c-0.042,0-0.042,9.139-0.042,9.139c-0.106,0.883,0.356,1.746,1.443,2.368l0.624,0.356c0.886,0.506,2.052,0.773,3.289,0.815
				l-0.053-9.825C259.253,20.956,258.107,20.691,257.234,20.192z"/>
		</g>
		<g>
			<path style="fill:#BEBEED;" d="M271.129,15.234c-0.04,0.918-0.725,1.876-2.036,2.625l-3.479,1.989
				c-1.462,0.836-3.378,1.227-5.144,1.157l0.053,9.825c1.751,0.06,3.643-0.332,5.091-1.159l3.479-1.989
				c1.4-0.8,2.091-1.839,2.04-2.812c0.001,0,0.001-9.636,0.001-9.636H271.129z"/>
		</g>
		<g>
			<path style="fill:#F0F0FC;" d="M256.611,19.835l0.624,0.356c2.139,1.223,5.91,1.068,8.379-0.344l3.479-1.989
				c1.311-0.749,1.995-1.708,2.036-2.625c0.036-0.811-0.431-1.591-1.434-2.165l-0.624-0.356c-2.139-1.223-5.91-1.068-8.379,0.344
				l-3.479,1.989c-1.542,0.882-2.227,2.053-2.003,3.106C255.344,18.785,255.807,19.376,256.611,19.835z"/>
		</g>
	</g>
	<g>
		<g>
			<path style="fill:#D3D3ED;" d="M205.767,50.343l-0.623-0.356c-0.803-0.459-1.267-1.05-1.401-1.684
				c-0.042,0-0.042,9.139-0.042,9.139c-0.106,0.883,0.356,1.746,1.443,2.368l0.623,0.356c0.864,0.494,1.996,0.759,3.2,0.812
				l0.068-9.82C207.806,51.113,206.648,50.846,205.767,50.343z"/>
		</g>
		<g>
			<path style="fill:#BEBEED;" d="M219.662,45.385c-0.04,0.918-0.725,1.876-2.036,2.625l-3.479,1.989
				c-1.453,0.831-3.355,1.222-5.112,1.158l-0.068,9.82c1.775,0.077,3.708-0.314,5.18-1.155l3.479-1.989
				c1.4-0.8,2.091-1.839,2.04-2.812c0.001,0,0.001-9.636,0.001-9.636H219.662z"/>
		</g>
		<g>
			<path style="fill:#F0F0FC;" d="M205.144,49.987l0.623,0.356c2.139,1.223,5.91,1.068,8.38-0.344l3.479-1.989
				c1.311-0.749,1.996-1.708,2.036-2.625c0.036-0.811-0.431-1.591-1.434-2.164l-0.623-0.356c-2.139-1.223-5.91-1.068-8.38,0.344
				l-3.479,1.989c-1.542,0.882-2.227,2.053-2.003,3.106C203.877,48.937,204.34,49.528,205.144,49.987z"/>
		</g>
	</g>
	<g>
		<g>
			<path style="fill:#D3D3ED;" d="M275.731,88.236c-0.08,0.077-0.175,0.149-0.29,0.215c-0.751,0.429-1.973,0.427-2.728-0.005
				l-2.802-1.602c-4.178-2.388-6.547-5.551-6.795-8.821c-0.024,0.332-0.028,0.665-0.009,0.996c-0.016,0.276-0.016,0.552-0.002,0.828
				c-0.017,0.307-0.016,0.613,0.005,0.919c-0.229,3.634,2.179,7.224,6.801,9.866l2.802,1.602c0.756,0.432,1.977,0.434,2.728,0.005
				c0.323-0.185,0.501-0.42,0.545-0.662c0.015,0,0.015-3.933,0.015-3.933C276.003,87.849,275.919,88.055,275.731,88.236z"/>
		</g>
		<g>
			<path style="fill:#BEBEED;" d="M272.176,64.769l-4.015,8.659c-0.809,1.745-0.967,3.537-0.527,5.271
				c0.126-0.497,0.299-0.992,0.527-1.484l4.015-8.659c1.706-3.679,6.088-6.702,11.909-8.363l-0.336-3.688
				C278.095,58.185,273.849,61.161,272.176,64.769z"/>
		</g>
		<g>
			<path style="fill:#D3D3ED;" d="M330.452,56.546c0.003,0.283-0.184,0.566-0.56,0.781c-0.751,0.429-1.973,0.427-2.728-0.005
				l-1.222-0.699c-5.854-3.346-14.367-4.664-22.333-3.458l-15.148,2.295c-1.654,0.251-3.23,0.603-4.711,1.044l0.336,3.688
				c1.383-0.395,2.846-0.713,4.375-0.945l15.148-2.295c7.965-1.207,16.478,0.111,22.333,3.458l1.222,0.699
				c0.756,0.432,1.977,0.434,2.728,0.005c0.35-0.2,0.534-0.458,0.556-0.721C330.452,60.393,330.452,56.546,330.452,56.546
				L330.452,56.546z"/>
		</g>
		<g>
			<path style="fill:#F0F0FC;" d="M268.161,73.428l4.015-8.659c2.111-4.553,8.319-8.101,16.284-9.308l15.148-2.295
				c7.965-1.207,16.479,0.111,22.333,3.458l1.222,0.699c0.756,0.432,1.977,0.434,2.728,0.005c0.376-0.215,0.563-0.498,0.56-0.781
				c-0.002-0.282-0.192-0.563-0.569-0.779l-2.802-1.602c-5.854-3.346-14.367-4.664-22.333-3.458l-19.448,2.946
				c-7.965,1.207-14.173,4.755-16.284,9.308l-5.155,11.117c-0.604,1.304-0.845,2.633-0.746,3.945
				c0.248,3.27,2.617,6.433,6.795,8.821l2.802,1.602c0.756,0.432,1.977,0.434,2.728,0.005c0.115-0.066,0.211-0.139,0.29-0.215
				c0.189-0.181,0.272-0.387,0.262-0.592c-0.013-0.272-0.196-0.543-0.561-0.752l-1.222-0.699c-3.61-2.064-5.868-4.705-6.576-7.495
				C267.194,76.964,267.352,75.173,268.161,73.428z"/>
		</g>
	</g>
	<g>
		<g>
			<path style="fill:#D3D3ED;" d="M255.717,55.424l-18.511,2.805c-7.582,1.149-15.685-0.106-21.257-3.291l-2.667-1.525
				c-0.317-0.181-0.494-0.411-0.533-0.647c-0.009,0-0.009,3.871-0.009,3.871c-0.013,0.281,0.166,0.565,0.542,0.78l2.667,1.525
				c5.572,3.185,13.676,4.44,21.257,3.291l18.511-2.805c5.372-0.814,9.896-2.75,12.796-5.35l-0.151-3.867
				C265.457,52.743,260.995,54.624,255.717,55.424z"/>
			<path style="fill:#BEBEED;" d="M276.826,35.211c0.044-0.512,0.034-1.024-0.032-1.532c-0.098,0.771-0.319,1.542-0.672,2.304
				l-4.906,10.581c-0.611,1.317-1.586,2.544-2.854,3.648l0.151,3.867c1.193-1.069,2.118-2.247,2.703-3.51l4.906-10.581
				c0.568-1.224,0.799-2.472,0.715-3.704C276.861,35.925,276.857,35.568,276.826,35.211z"/>
		</g>
		<g>
			<path style="fill:#D3D3ED;" d="M266.273,24.452l-0.824-0.471l-0.34-0.194c-0.346-0.198-0.525-0.455-0.539-0.713v1.782
				c0,0.041,0,2.17,0,2.17c0,0.032,0,0.09,0,0.09c0.036,0.246,0.21,0.487,0.539,0.675l1.163,0.665
				c3.352,1.916,5.479,4.355,6.207,6.938C273.605,31.425,271.33,27.343,266.273,24.452z"/>
		</g>
		<g>
			<path style="fill:#F0F0FC;" d="M213.281,53.413l2.667,1.525c5.572,3.185,13.675,4.44,21.257,3.291l18.512-2.805
				c7.582-1.149,13.49-4.526,15.5-8.86l4.906-10.581c0.353-0.762,0.574-1.533,0.672-2.304c0.459-3.614-1.837-7.222-6.429-9.847
				l-2.667-1.525c-0.719-0.411-1.882-0.413-2.597-0.005c-0.371,0.212-0.546,0.493-0.531,0.771c0.014,0.259,0.193,0.515,0.539,0.713
				l0.34,0.194l0.824,0.471c5.057,2.891,7.332,6.973,6.207,10.943c-0.115,0.404-0.264,0.807-0.449,1.208l-3.822,8.242
				c-2.01,4.334-7.918,7.711-15.5,8.86l-14.419,2.184c-7.582,1.149-15.685-0.106-21.257-3.291l-1.163-0.665
				c-0.719-0.411-1.882-0.413-2.597-0.005c-0.4,0.229-0.575,0.538-0.525,0.838C212.787,53.002,212.965,53.232,213.281,53.413z"/>
		</g>
	</g>
	<g>
		<g>
			<path style="fill:#D3D3ED;" d="M279.899,58.876L260.5,61.671c-6.221,0.896-11.96-1.843-12.057-5.266
				c-0.003-0.001-0.816,6.999-0.816,6.999c-0.464,3.645,5.517,6.691,12.031,5.753l19.399-2.795c1.183-0.17,2.211-0.549,2.977-1.061
				l-0.041-7.005C281.379,58.564,280.672,58.765,279.899,58.876z"/>
		</g>
		<g>
			<path style="fill:#BEBEED;" d="M292.657,39.709l-8.622,16.889c-0.351,0.688-1.078,1.277-2.043,1.698l0.041,7.005
				c0.523-0.35,0.926-0.76,1.16-1.217l8.622-16.889c0.118-0.231,0.175-0.46,0.18-0.684c0.002-0.003,0.802-7.179,0.802-7.179
				C292.767,39.457,292.722,39.583,292.657,39.709z"/>
		</g>
		<g>
			<path style="fill:#F0F0FC;" d="M292.837,38.972c-0.038-1.609-2.772-2.889-5.677-2.405l-29.546,4.929
				c-1.969,0.329-3.484,1.227-3.985,2.365l-4.889,11.089c-0.218,0.493-0.311,0.981-0.297,1.456
				c0.097,3.423,5.836,6.162,12.057,5.266l19.399-2.795c1.99-0.287,3.562-1.152,4.136-2.278l8.622-16.889
				c0.065-0.126,0.11-0.252,0.14-0.377C292.826,39.211,292.839,39.09,292.837,38.972z"/>
		</g>
	</g>
	<g>
		<g>
			<path style="fill:#D3D3ED;" d="M272.401,88.967l-0.624-0.356c-0.803-0.459-1.267-1.05-1.401-1.684
				c-0.042,0-0.042,9.139-0.042,9.139c-0.106,0.883,0.355,1.746,1.443,2.368l0.624,0.356c1.154,0.66,2.784,0.915,4.427,0.791
				l-0.335-9.8C274.965,89.848,273.476,89.582,272.401,88.967z"/>
		</g>
		<g>
			<path style="fill:#BEBEED;" d="M286.295,84.009c-0.04,0.918-0.725,1.876-2.036,2.625l-3.479,1.989
				c-1.228,0.702-2.777,1.092-4.288,1.158l0.335,9.8c1.402-0.105,2.815-0.485,3.952-1.135l3.479-1.989
				c1.4-0.8,2.091-1.839,2.04-2.812c0.001,0,0.001-9.636,0.001-9.636H286.295z"/>
		</g>
		<g>
			<path style="fill:#F0F0FC;" d="M271.777,88.611l0.624,0.356c2.139,1.223,5.91,1.068,8.379-0.344l3.479-1.989
				c1.311-0.749,1.996-1.708,2.036-2.625c0.036-0.811-0.431-1.591-1.434-2.165l-0.623-0.356c-2.139-1.223-5.91-1.068-8.38,0.344
				l-3.479,1.989c-1.542,0.882-2.227,2.053-2.003,3.106C270.511,87.561,270.974,88.152,271.777,88.611z"/>
		</g>
	</g>
	<g>
		<g>
			<path style="fill:#D3D3ED;" d="M274.978,81.649l-0.352-0.201c-0.453-0.259-0.715-0.592-0.79-0.95
				c-0.023,0-0.023,5.155-0.023,5.155c-0.06,0.498,0.201,0.985,0.814,1.335l0.352,0.201c0.651,0.372,1.57,0.516,2.497,0.446
				l-0.189-5.528C276.424,82.145,275.584,81.995,274.978,81.649z"/>
		</g>
		<g>
			<path style="fill:#BEBEED;" d="M282.815,78.852c-0.023,0.518-0.409,1.058-1.148,1.481l-1.962,1.122
				c-0.693,0.396-1.567,0.616-2.419,0.653l0.189,5.528c0.791-0.059,1.588-0.274,2.229-0.64l1.962-1.122
				c0.79-0.451,1.18-1.037,1.151-1.586c0.001,0,0.001-5.436,0.001-5.436H282.815z"/>
		</g>
		<g>
			<path style="fill:#F0F0FC;" d="M274.626,81.448l0.352,0.201c1.207,0.69,3.334,0.602,4.727-0.194l1.962-1.122
				c0.74-0.423,1.126-0.963,1.148-1.481c0.02-0.458-0.243-0.897-0.809-1.221l-0.352-0.201c-1.207-0.69-3.334-0.603-4.727,0.194
				l-1.962,1.122c-0.87,0.497-1.256,1.158-1.13,1.752C273.911,80.855,274.173,81.189,274.626,81.448z"/>
		</g>
	</g>
	<g>
		<g>
			<path style="fill:#D3D3ED;" d="M326.258,58.455l-0.624-0.356c-0.803-0.459-1.267-1.05-1.401-1.684
				c-0.042,0-0.042,9.139-0.042,9.139c-0.106,0.883,0.356,1.746,1.443,2.367l0.624,0.356c1.044,0.597,2.477,0.863,3.958,0.817
				l-0.196-9.82C328.609,59.292,327.255,59.025,326.258,58.455z"/>
		</g>
		<g>
			<path style="fill:#BEBEED;" d="M340.152,53.497c-0.04,0.918-0.725,1.876-2.036,2.625l-3.479,1.989
				c-1.318,0.753-3.004,1.145-4.617,1.164l0.196,9.82c1.553-0.048,3.157-0.439,4.421-1.161l3.479-1.989
				c1.4-0.8,2.091-1.839,2.04-2.811c0.001,0,0.001-9.636,0.001-9.636H340.152z"/>
		</g>
		<g>
			<path style="fill:#F0F0FC;" d="M325.634,58.098l0.624,0.356c2.139,1.223,5.91,1.068,8.379-0.344l3.479-1.989
				c1.311-0.749,1.996-1.708,2.036-2.625c0.036-0.811-0.43-1.591-1.434-2.165l-0.624-0.356c-2.139-1.223-5.91-1.068-8.379,0.344
				l-3.479,1.989c-1.542,0.882-2.227,2.053-2.003,3.106C324.367,57.048,324.831,57.639,325.634,58.098z"/>
		</g>
	</g>
	<g>
		<path style="fill:#232F6D;" d="M275.726,89.091c-0.363,0.208-0.954,0.207-1.32-0.002c-0.366-0.209-0.367-0.547-0.004-0.754
			c0.363-0.208,0.954-0.207,1.32,0.002C276.087,88.545,276.089,88.883,275.726,89.091z"/>
	</g>
	<g>
		<path style="fill:#232F6D;" d="M206.202,48.752c-0.363,0.208-0.954,0.207-1.32-0.002c-0.366-0.209-0.368-0.547-0.004-0.754
			c0.363-0.208,0.954-0.207,1.32,0.002C206.564,48.207,206.566,48.545,206.202,48.752z"/>
	</g>
	<g>
		<g>
			<path style="fill:#DFDFF4;" d="M280.003,56.935c-0.461,0-0.932-0.119-1.364-0.366l-19.552-11.21
				c-0.613-0.351-0.929-1.028-0.803-1.723c0.123-0.68,0.643-1.195,1.325-1.312l24.823-4.141c1.667-0.278,3.408,0.084,4.433,0.922
				c0.524,0.429,0.808,0.943,0.821,1.487c0.003,0.15-0.012,0.286-0.044,0.418c-0.034,0.14-0.085,0.277-0.152,0.408l-7.234,14.17
				c-0.041,0.081-0.088,0.161-0.14,0.239C281.642,56.544,280.839,56.935,280.003,56.935z M285.554,38.922
				c-0.316,0-0.645,0.025-0.983,0.082l-24.79,4.135c-0.532,0.091-0.646,0.514-0.669,0.642c-0.05,0.275,0.028,0.645,0.396,0.856
				l19.552,11.21c0.815,0.468,1.869,0.254,2.35-0.476c0.035-0.052,0.066-0.105,0.094-0.159c0-0.001,7.234-14.171,7.234-14.171
				c0.037-0.073,0.065-0.148,0.084-0.224c0.016-0.066,0.023-0.133,0.022-0.2c-0.009-0.379-0.286-0.682-0.516-0.87
				C287.779,39.297,286.765,38.922,285.554,38.922z"/>
		</g>
	</g>
	<g>
		<g>
			<path style="fill:#DFDFF4;" d="M243.451,60.563c0.097,0.009,0.197,0.031,0.3,0.066c0.103,0.035,0.209,0.083,0.318,0.145
				l0.572,0.327c0.061,0.035,0.122,0.074,0.182,0.116c0.114,0.08,0.226,0.174,0.333,0.277c0.16,0.154,0.295,0.314,0.423,0.487
				c0.053,0.072,0.104,0.146,0.154,0.223c0.085,0.131,0.164,0.269,0.236,0.411c0.032,0.063,0.063,0.126,0.093,0.191
				c0.089,0.194,0.166,0.394,0.229,0.597c0.032,0.103,0.062,0.207,0.086,0.311c0.059,0.251,0.095,0.503,0.105,0.748L265.242,53.7
				c1.1-0.631,2.386-1.432,3.566-2.187c0.359-0.23,0.594-0.533,0.73-0.863c0.469-1.139-0.304-2.609-1.778-2.593
				c-3.54,0.038-6.04,1.845-6.04,1.845c-0.019,0.01-0.04,0.017-0.059,0.027c-0.009,0.005-18.742,10.713-18.742,10.713
				c0.042-0.009,0.083-0.025,0.125-0.039C243.169,60.563,243.306,60.549,243.451,60.563z"/>
		</g>
		<g>
			<path style="fill:#D3D3ED;" d="M246.486,64.593c0-0.043-0.003-0.088-0.005-0.132c-0.01-0.246-0.046-0.498-0.105-0.748
				c-0.024-0.104-0.054-0.208-0.086-0.311c-0.063-0.203-0.14-0.403-0.229-0.597c-0.03-0.064-0.061-0.128-0.093-0.191
				c-0.073-0.142-0.152-0.279-0.236-0.411c-0.049-0.077-0.101-0.151-0.154-0.223c-0.127-0.173-0.263-0.333-0.407-0.473
				c-0.123-0.117-0.234-0.21-0.348-0.29c-0.06-0.042-0.121-0.081-0.182-0.116l-0.572-0.327c-0.108-0.062-0.214-0.11-0.318-0.145
				c-0.103-0.035-0.203-0.057-0.3-0.066c-0.145-0.014-0.282,0-0.408,0.04c-0.042,0.013-0.083,0.03-0.122,0.049
				c-0.424,0.205-0.699,0.735-0.699,1.504v5.591c0,1.34,0.831,2.911,1.846,3.492l0.572,0.327c0.566,0.323,1.073,0.273,1.413-0.067
				c0.27-0.27,0.433-0.722,0.433-1.315V64.593z"/>
		</g>
		<g>
			<path style="fill:#BEBEED;" d="M268.808,51.513c-1.18,0.755-2.466,1.556-3.566,2.187l-18.761,10.762
				c0.002,0.044,0.005,0.088,0.005,0.132v5.591c0,0.593-0.163,1.045-0.433,1.315c0,0,6.924-3.947,6.924-3.947l0.294-6.188
				l11.977-6.577c0,0,4.297-2.439,4.297-4.143C269.402,50.979,269.167,51.283,268.808,51.513z"/>
		</g>
	</g>
	<g>
		<g>
			<path style="fill:#232F6D;" d="M285.596,43.572c0.246-0.141,0.215-0.389-0.069-0.551l-3.431-1.961
				c-0.284-0.163-0.718-0.18-0.965-0.04c-0.246,0.141-0.215,0.389,0.069,0.551l3.431,1.961
				C284.915,43.695,285.349,43.713,285.596,43.572z"/>
		</g>
		<g>
			<path style="fill:#232F6D;" d="M284.093,44.431c0.246-0.141,0.215-0.389-0.069-0.551l-3.431-1.961
				c-0.284-0.163-0.718-0.18-0.965-0.04c-0.246,0.141-0.215,0.389,0.069,0.552l3.431,1.961
				C283.413,44.554,283.847,44.572,284.093,44.431z"/>
		</g>
		<g>
			<path style="fill:#232F6D;" d="M282.59,45.29c0.246-0.141,0.215-0.389-0.069-0.551l-3.431-1.961
				c-0.284-0.162-0.718-0.18-0.965-0.04c-0.246,0.141-0.215,0.389,0.069,0.551l3.431,1.961
				C281.91,45.413,282.344,45.431,282.59,45.29z"/>
		</g>
		<g>
			<path style="fill:#232F6D;" d="M281.087,46.149c0.246-0.141,0.215-0.389-0.069-0.551l-3.431-1.961
				c-0.284-0.162-0.718-0.18-0.964-0.04c-0.246,0.141-0.215,0.389,0.069,0.551l3.431,1.961
				C280.407,46.272,280.841,46.29,281.087,46.149z"/>
		</g>
		<g>
			<path style="fill:#232F6D;" d="M279.584,47.008c0.246-0.141,0.215-0.389-0.069-0.551l-3.431-1.961
				c-0.284-0.163-0.718-0.18-0.965-0.04c-0.246,0.141-0.215,0.389,0.069,0.551l3.431,1.961
				C278.904,47.131,279.338,47.149,279.584,47.008z"/>
		</g>
		<g>
			<path style="fill:#232F6D;" d="M278.082,47.868c0.246-0.141,0.215-0.389-0.069-0.551l-3.431-1.961
				c-0.284-0.162-0.718-0.18-0.965-0.039c-0.246,0.141-0.215,0.389,0.069,0.551l3.431,1.961
				C277.401,47.99,277.835,48.008,278.082,47.868z"/>
		</g>
		<g>
			<path style="fill:#232F6D;" d="M276.579,48.727c0.246-0.141,0.215-0.389-0.069-0.551l-3.431-1.961
				c-0.284-0.162-0.718-0.18-0.965-0.04c-0.246,0.141-0.215,0.389,0.069,0.551l3.431,1.961
				C275.898,48.849,276.333,48.867,276.579,48.727z"/>
		</g>
		<g>
			<path style="fill:#232F6D;" d="M275.076,49.586c0.246-0.141,0.215-0.389-0.069-0.551l-3.431-1.961
				c-0.284-0.162-0.718-0.18-0.964-0.04c-0.246,0.141-0.215,0.389,0.069,0.551l3.431,1.961
				C274.396,49.708,274.83,49.726,275.076,49.586z"/>
		</g>
	</g>
	<g>
		<g>
			<g>
				<path style="fill:#232F6D;" d="M263.283,51.818c-0.221,0.126-0.581,0.126-0.804-0.001c-0.223-0.127-0.224-0.333-0.003-0.459
					c0.221-0.126,0.581-0.126,0.803,0.001C263.503,51.485,263.504,51.691,263.283,51.818z"/>
			</g>
		</g>
		<g>
			<g>
				<path style="fill:#232F6D;" d="M262.162,52.458c-0.221,0.126-0.581,0.126-0.804-0.001s-0.224-0.333-0.003-0.459
					c0.221-0.126,0.581-0.126,0.804,0.001C262.383,52.126,262.384,52.331,262.162,52.458z"/>
			</g>
		</g>
		<g>
			<g>
				<path style="fill:#232F6D;" d="M261.042,53.098c-0.221,0.126-0.581,0.126-0.804-0.001c-0.223-0.127-0.224-0.333-0.003-0.459
					c0.221-0.126,0.581-0.126,0.804,0.001S261.263,52.972,261.042,53.098z"/>
			</g>
		</g>
		<g>
			<g>
				<path style="fill:#232F6D;" d="M259.922,53.739c-0.221,0.126-0.581,0.126-0.804-0.001c-0.223-0.127-0.224-0.333-0.003-0.459
					c0.221-0.126,0.581-0.126,0.804,0.001C260.142,53.406,260.143,53.612,259.922,53.739z"/>
			</g>
		</g>
		<g>
			<g>
				<path style="fill:#232F6D;" d="M258.802,54.379c-0.221,0.126-0.581,0.126-0.804-0.001c-0.223-0.127-0.224-0.333-0.002-0.459
					s0.581-0.126,0.804,0.001C259.022,54.047,259.023,54.252,258.802,54.379z"/>
			</g>
		</g>
		<g>
			<g>
				<path style="fill:#232F6D;" d="M257.682,55.019c-0.221,0.126-0.581,0.126-0.804-0.001c-0.223-0.127-0.224-0.333-0.003-0.459
					c0.221-0.126,0.581-0.126,0.804,0.001C257.902,54.687,257.903,54.893,257.682,55.019z"/>
			</g>
		</g>
	</g>
	<g>
		<path style="fill:#232F6D;" d="M276.095,80.725c-0.795-0.454-0.695-1.256,0.224-1.781l1.101-0.629
			c0.918-0.525,2.32-0.582,3.115-0.128c0.795,0.455,0.695,1.256-0.224,1.781l-1.101,0.629
			C278.292,81.122,276.89,81.18,276.095,80.725z"/>
	</g>
	<g>
		<g>
			<path style="fill:#D3D3ED;" d="M207.96,43.119l-0.352-0.201c-0.453-0.259-0.714-0.592-0.79-0.95
				c-0.024,0-0.024,5.155-0.024,5.155c-0.06,0.498,0.201,0.985,0.814,1.335l0.352,0.201c0.651,0.372,1.57,0.516,2.497,0.446
				l-0.189-5.528C209.406,43.616,208.566,43.466,207.96,43.119z"/>
		</g>
		<g>
			<path style="fill:#BEBEED;" d="M215.797,40.322c-0.023,0.518-0.409,1.058-1.148,1.481l-1.963,1.122
				c-0.693,0.396-1.567,0.616-2.419,0.653l0.189,5.528c0.791-0.059,1.588-0.274,2.229-0.64l1.963-1.122
				c0.79-0.451,1.18-1.037,1.151-1.586c0.001,0,0.001-5.436,0.001-5.436H215.797z"/>
		</g>
		<g>
			<path style="fill:#F0F0FC;" d="M207.608,42.918l0.352,0.201c1.206,0.69,3.334,0.602,4.727-0.194l1.963-1.122
				c0.739-0.423,1.126-0.963,1.148-1.481c0.02-0.458-0.243-0.897-0.809-1.221l-0.352-0.201c-1.207-0.69-3.334-0.602-4.727,0.194
				l-1.963,1.122c-0.87,0.497-1.256,1.158-1.13,1.752C206.893,42.325,207.155,42.659,207.608,42.918z"/>
		</g>
	</g>
	<g>
		<path style="fill:#232F6D;" d="M209.077,42.196c-0.795-0.455-0.695-1.256,0.224-1.781l1.101-0.629
			c0.918-0.525,2.32-0.582,3.115-0.128c0.795,0.455,0.694,1.256-0.224,1.781l-1.101,0.629
			C211.273,42.593,209.872,42.65,209.077,42.196z"/>
	</g>
	<g>
		<g>
			<g>
				<path style="fill:#1D2856;" d="M194.263,30.417c0.03,0.041,0.073,0.084,0.133,0.13l2.251,1.7l4.027,3.041
					c0.051,0.039,0.111,0.075,0.176,0.107l9.12,4.506l0.968-0.208l0.351-0.075l0.254-0.055v0.221c-0.002,0-0.606,0.13-0.606,0.13
					l-0.968,0.208l-9.12-4.506c-0.065-0.032-0.124-0.068-0.176-0.107l-4.027-3.041l-2.251-1.7
					C194.195,30.617,194.174,30.489,194.263,30.417z"/>
			</g>
			<g>
				<path style="fill:#576BAD;" d="M203.033,33.953c0.058,0.026,0.112,0.056,0.16,0.089l8.349,5.522l-0.254,0.055l-0.351,0.075
					l-0.968,0.208l-3.896-1.925l-6.536-5.627L203.033,33.953z"/>
			</g>
			<g>
				<path style="fill:#35468E;" d="M194.964,30.249l4.574,2.099l6.536,5.627l-5.224-2.581c-0.065-0.032-0.125-0.068-0.176-0.107
					l-4.027-3.041l-2.251-1.7c-0.061-0.046-0.103-0.089-0.133-0.13C194.075,30.159,194.465,30.021,194.964,30.249z"/>
			</g>
		</g>
		<g>
			<g>
				<path style="fill:#35468E;" d="M209.747,40.57v-1.382c0.027,0.233,0.194,0.462,0.505,0.64c0.684,0.391,1.796,0.389,2.484-0.005
					c0.317-0.181,0.487-0.414,0.513-0.65v1.382c0.005,0.043,0.005,0.087,0,0.13v0.057c-0.055,0.216-0.222,0.426-0.513,0.593
					c-0.688,0.393-1.8,0.395-2.484,0.005c-0.292-0.167-0.458-0.379-0.499-0.597C209.742,40.656,209.742,40.613,209.747,40.57z"/>
			</g>
			<g>
				<path style="fill:#576BAD;" d="M212.735,39.823c-0.688,0.393-1.8,0.395-2.484,0.005c-0.311-0.178-0.478-0.406-0.505-0.64
					c-0.032-0.279,0.138-0.566,0.513-0.78c0.688-0.393,1.8-0.395,2.484-0.005c0.369,0.211,0.536,0.493,0.505,0.77
					C213.222,39.409,213.052,39.641,212.735,39.823z"/>
			</g>
		</g>
		<g>
			<g>
				<path style="fill:#35468E;" d="M210.279,38.736c0-0.514,0.48-1.503,1.095-1.623c-0.394,0.816-0.476,1.739-0.222,2.574
					C210.647,39.565,210.279,39.186,210.279,38.736z"/>
			</g>
			<g>
				<path style="fill:#232F6D;" d="M211.374,37.112c0.041-0.008,0.082-0.012,0.124-0.012c0.673,0,1.219,1.088,1.219,1.636
					c0,0.548-0.546,0.992-1.219,0.992c-0.12,0-0.236-0.015-0.346-0.041C210.898,38.851,210.98,37.929,211.374,37.112z"/>
			</g>
		</g>
		<g>
			<g>
				<path style="fill:#1D2856;" d="M211.861,40.658c0.059,0.054,0.13,0.109,0.215,0.165l8.404,5.558
					c0.049,0.032,0.103,0.062,0.16,0.089l3.14,1.441l4.93,2.262c0.318,0.146,0.592,0.142,0.7,0.054
					c0.19,0.258-0.201,0.398-0.7,0.169l-4.93-2.262l-3.14-1.441c-0.058-0.027-0.112-0.056-0.16-0.088l-8.404-5.558
					c-0.086-0.057-0.156-0.112-0.215-0.166V40.658z"/>
			</g>
			<g>
				<path style="fill:#576BAD;" d="M213.258,40.301l3.631,1.794l6.893,5.816l-3.14-1.441c-0.058-0.027-0.112-0.056-0.16-0.089
					l-8.404-5.558c-0.085-0.056-0.157-0.112-0.216-0.165L213.258,40.301z"/>
			</g>
			<g>
				<path style="fill:#35468E;" d="M228.712,50.173l-4.93-2.262l-6.893-5.816l5.936,2.933c0.065,0.032,0.124,0.068,0.176,0.107
					l4.027,3.041l2.251,1.7c0.199,0.15,0.221,0.279,0.132,0.351C229.303,50.315,229.03,50.319,228.712,50.173z"/>
			</g>
		</g>
	</g>
	<g>
		<g>
			<g>
				<path style="fill:#1D2856;" d="M260.993,69.303c0.03,0.041,0.073,0.084,0.133,0.13l2.251,1.7l4.027,3.041
					c0.051,0.039,0.111,0.075,0.176,0.107l9.12,4.506l0.968-0.208l0.351-0.075l0.254-0.055v0.221c-0.002,0-0.606,0.13-0.606,0.13
					l-0.968,0.208l-9.12-4.506c-0.065-0.032-0.125-0.068-0.176-0.107l-4.027-3.041l-2.251-1.7
					C260.925,69.504,260.904,69.375,260.993,69.303z"/>
			</g>
			<g>
				<path style="fill:#576BAD;" d="M269.764,72.839c0.058,0.026,0.112,0.056,0.161,0.089l8.349,5.522l-0.254,0.055l-0.351,0.075
					l-0.968,0.208l-3.896-1.925l-6.536-5.627L269.764,72.839z"/>
			</g>
			<g>
				<path style="fill:#35468E;" d="M261.694,69.136l4.574,2.099l6.536,5.627l-5.224-2.581c-0.065-0.032-0.124-0.068-0.176-0.107
					l-4.027-3.041l-2.251-1.7c-0.061-0.046-0.104-0.089-0.133-0.13C260.805,69.046,261.195,68.907,261.694,69.136z"/>
			</g>
		</g>
		<g>
			<g>
				<path style="fill:#35468E;" d="M276.477,79.456v-1.382c0.027,0.233,0.194,0.462,0.505,0.64c0.684,0.391,1.796,0.389,2.483-0.005
					c0.317-0.181,0.487-0.414,0.513-0.65v1.382c0.005,0.043,0.005,0.087,0,0.13v0.057c-0.054,0.216-0.222,0.426-0.513,0.593
					c-0.688,0.393-1.8,0.395-2.483,0.005c-0.292-0.167-0.458-0.379-0.499-0.597C276.472,79.543,276.472,79.499,276.477,79.456z"/>
			</g>
			<g>
				<path style="fill:#576BAD;" d="M279.466,78.709c-0.688,0.393-1.8,0.395-2.483,0.005c-0.311-0.178-0.478-0.406-0.505-0.64
					c-0.032-0.279,0.138-0.566,0.513-0.78c0.688-0.393,1.8-0.395,2.484-0.005c0.369,0.211,0.536,0.493,0.505,0.77
					C279.952,78.295,279.783,78.528,279.466,78.709z"/>
			</g>
		</g>
		<g>
			<g>
				<path style="fill:#35468E;" d="M277.009,77.622c0-0.514,0.48-1.503,1.095-1.623c-0.394,0.816-0.476,1.739-0.222,2.574
					C277.378,78.451,277.009,78.072,277.009,77.622z"/>
			</g>
			<g>
				<path style="fill:#232F6D;" d="M278.104,75.999c0.041-0.008,0.082-0.012,0.124-0.012c0.673,0,1.219,1.088,1.219,1.636
					c0,0.548-0.546,0.992-1.219,0.992c-0.12,0-0.236-0.015-0.346-0.041C277.628,77.737,277.71,76.815,278.104,75.999z"/>
			</g>
		</g>
		<g>
			<g>
				<path style="fill:#1D2856;" d="M278.592,79.544c0.059,0.054,0.13,0.109,0.215,0.165l8.404,5.558
					c0.049,0.032,0.103,0.062,0.161,0.089l3.14,1.441l4.93,2.262c0.318,0.146,0.592,0.142,0.7,0.053
					c0.19,0.258-0.201,0.398-0.7,0.169l-4.93-2.262l-3.14-1.441c-0.058-0.026-0.112-0.056-0.161-0.088l-8.404-5.558
					c-0.086-0.057-0.156-0.112-0.215-0.166V79.544z"/>
			</g>
			<g>
				<path style="fill:#576BAD;" d="M279.988,79.187l3.631,1.794l6.893,5.816l-3.14-1.441c-0.058-0.026-0.112-0.056-0.161-0.089
					l-8.404-5.558c-0.085-0.057-0.157-0.112-0.216-0.165L279.988,79.187z"/>
			</g>
			<g>
				<path style="fill:#35468E;" d="M295.442,89.059l-4.93-2.262l-6.893-5.816l5.936,2.933c0.065,0.032,0.124,0.068,0.176,0.107
					l4.027,3.041l2.251,1.7c0.199,0.15,0.221,0.279,0.132,0.351C296.034,89.201,295.76,89.205,295.442,89.059z"/>
			</g>
		</g>
	</g>
	<g>
		<g>
			<path style="fill:#D3D3ED;" d="M259.571,12.871l-0.352-0.201c-0.453-0.259-0.715-0.592-0.79-0.95
				c-0.023,0-0.023,5.155-0.023,5.155c-0.06,0.498,0.201,0.985,0.814,1.336l0.352,0.201c0.651,0.372,1.57,0.516,2.498,0.446
				l-0.189-5.528C261.017,13.368,260.177,13.218,259.571,12.871z"/>
		</g>
		<g>
			<path style="fill:#BEBEED;" d="M267.409,10.075c-0.023,0.518-0.409,1.058-1.148,1.481l-1.963,1.122
				c-0.693,0.396-1.566,0.616-2.419,0.653l0.189,5.528c0.791-0.059,1.588-0.274,2.229-0.64l1.963-1.122
				c0.79-0.451,1.18-1.037,1.151-1.586c0.001,0,0.001-5.436,0.001-5.436H267.409z"/>
		</g>
		<g>
			<path style="fill:#F0F0FC;" d="M259.219,12.67l0.352,0.201c1.206,0.69,3.334,0.602,4.727-0.194l1.962-1.122
				c0.74-0.423,1.126-0.963,1.148-1.481c0.02-0.458-0.243-0.897-0.809-1.221l-0.352-0.201c-1.207-0.69-3.334-0.602-4.727,0.194
				l-1.963,1.122c-0.87,0.497-1.256,1.158-1.13,1.752C258.504,12.078,258.766,12.411,259.219,12.67z"/>
		</g>
	</g>
	<g>
		<path style="fill:#232F6D;" d="M260.688,11.948c-0.795-0.454-0.695-1.256,0.224-1.781l1.101-0.629
			c0.918-0.525,2.32-0.582,3.115-0.128c0.795,0.455,0.694,1.256-0.224,1.781l-1.101,0.629
			C262.884,12.345,261.483,12.403,260.688,11.948z"/>
	</g>
	<g>
		<g>
			<path style="fill:#D3D3ED;" d="M328.847,50.842l-0.352-0.201c-0.453-0.259-0.715-0.592-0.79-0.95
				c-0.023,0-0.023,5.155-0.023,5.155c-0.06,0.498,0.201,0.985,0.814,1.335l0.352,0.201c0.651,0.372,1.57,0.516,2.497,0.447
				l-0.189-5.528C330.293,51.339,329.454,51.189,328.847,50.842z"/>
		</g>
		<g>
			<path style="fill:#BEBEED;" d="M336.685,48.045c-0.023,0.518-0.409,1.058-1.148,1.481l-1.962,1.122
				c-0.693,0.396-1.566,0.616-2.419,0.653l0.189,5.528c0.791-0.059,1.588-0.274,2.229-0.641l1.962-1.122
				c0.79-0.451,1.18-1.037,1.151-1.586c0.001,0,0.001-5.436,0.001-5.436H336.685z"/>
		</g>
		<g>
			<path style="fill:#F0F0FC;" d="M328.495,50.641l0.352,0.201c1.207,0.69,3.334,0.602,4.727-0.194l1.962-1.122
				c0.74-0.423,1.126-0.963,1.148-1.481c0.02-0.458-0.243-0.897-0.809-1.221l-0.352-0.201c-1.207-0.69-3.334-0.602-4.727,0.194
				l-1.962,1.122c-0.87,0.497-1.256,1.158-1.13,1.752C327.781,50.049,328.042,50.382,328.495,50.641z"/>
		</g>
	</g>
	<g>
		<path style="fill:#232F6D;" d="M329.964,49.919c-0.795-0.454-0.695-1.256,0.224-1.781l1.101-0.629
			c0.918-0.525,2.32-0.582,3.115-0.128c0.795,0.455,0.694,1.256-0.224,1.781l-1.101,0.629
			C332.161,50.316,330.759,50.373,329.964,49.919z"/>
	</g>
	<g>
		<g>
			<path style="fill:#D3D3ED;" d="M278.95,96.999c-0.181,0.103-0.329,0.02-0.329-0.186v-5.082c0-0.205,0.148-0.458,0.329-0.562
				c0.181-0.103,0.329-0.02,0.329,0.186v5.081C279.279,96.643,279.131,96.895,278.95,96.999z"/>
		</g>
		<g>
			<path style="fill:#D3D3ED;" d="M280.005,96.396c-0.181,0.104-0.329,0.02-0.329-0.186v-5.082c0-0.205,0.148-0.458,0.329-0.562
				c0.181-0.104,0.329-0.02,0.329,0.186v5.082C280.334,96.039,280.186,96.292,280.005,96.396z"/>
		</g>
		<g>
			<path style="fill:#D3D3ED;" d="M281.06,95.792c-0.181,0.104-0.329,0.02-0.329-0.186v-5.081c0-0.206,0.148-0.458,0.329-0.562
				c0.181-0.104,0.329-0.02,0.329,0.186v5.081C281.389,95.436,281.241,95.689,281.06,95.792z"/>
		</g>
		<g>
			<path style="fill:#D3D3ED;" d="M282.116,95.189c-0.181,0.103-0.329,0.02-0.329-0.186v-5.081c0-0.206,0.148-0.458,0.329-0.562
				c0.181-0.103,0.329-0.02,0.329,0.186v5.081C282.445,94.833,282.297,95.086,282.116,95.189z"/>
		</g>
		<g>
			<path style="fill:#D3D3ED;" d="M283.171,94.586c-0.181,0.103-0.329,0.02-0.329-0.186v-5.081c0-0.206,0.148-0.458,0.329-0.562
				c0.181-0.103,0.329-0.02,0.329,0.186v5.081C283.5,94.23,283.352,94.482,283.171,94.586z"/>
		</g>
		<g>
			<path style="fill:#D3D3ED;" d="M284.226,93.983c-0.181,0.103-0.329,0.02-0.329-0.186v-5.081c0-0.206,0.148-0.458,0.329-0.562
				c0.181-0.103,0.329-0.02,0.329,0.186v5.081C284.555,93.626,284.407,93.879,284.226,93.983z"/>
		</g>
	</g>
	<g>
		<g>
			<path style="fill:#D3D3ED;" d="M333.308,66.213c-0.181,0.103-0.329,0.02-0.329-0.186v-5.081c0-0.206,0.148-0.458,0.329-0.562
				c0.181-0.103,0.329-0.02,0.329,0.186v5.082C333.637,65.857,333.489,66.11,333.308,66.213z"/>
		</g>
		<g>
			<path style="fill:#D3D3ED;" d="M334.363,65.61c-0.181,0.103-0.329,0.02-0.329-0.186v-5.082c0-0.206,0.148-0.458,0.329-0.562
				c0.181-0.103,0.329-0.02,0.329,0.186v5.081C334.692,65.254,334.544,65.507,334.363,65.61z"/>
		</g>
		<g>
			<path style="fill:#D3D3ED;" d="M335.418,65.007c-0.181,0.103-0.329,0.02-0.329-0.186V59.74c0-0.205,0.148-0.458,0.329-0.562
				c0.181-0.104,0.329-0.02,0.329,0.186v5.082C335.747,64.651,335.599,64.903,335.418,65.007z"/>
		</g>
		<g>
			<path style="fill:#D3D3ED;" d="M336.474,64.404c-0.181,0.104-0.329,0.02-0.329-0.186v-5.082c0-0.206,0.148-0.458,0.329-0.562
				c0.181-0.103,0.329-0.02,0.329,0.186v5.081C336.802,64.047,336.655,64.3,336.474,64.404z"/>
		</g>
		<g>
			<path style="fill:#D3D3ED;" d="M337.529,63.8c-0.181,0.103-0.329,0.02-0.329-0.186v-5.081c0-0.206,0.148-0.458,0.329-0.562
				c0.181-0.103,0.329-0.02,0.329,0.186v5.082C337.858,63.444,337.71,63.697,337.529,63.8z"/>
		</g>
		<g>
			<path style="fill:#D3D3ED;" d="M338.584,63.197c-0.181,0.103-0.329,0.02-0.329-0.186V57.93c0-0.206,0.148-0.458,0.329-0.562
				c0.181-0.103,0.329-0.02,0.329,0.186v5.081C338.913,62.841,338.765,63.094,338.584,63.197z"/>
		</g>
	</g>
	<g>
		<path style="fill:#35468E;" d="M244.178,67.992c-0.693-0.396-1.26-1.469-1.26-2.383v-3.01c0-0.915,0.567-1.339,1.26-0.943
			c0.693,0.396,1.26,1.469,1.26,2.384v3.01C245.438,67.964,244.871,68.388,244.178,67.992z"/>
	</g>
	<g>
		<path style="fill:#35468E;" d="M244.994,69.987c0,0.512-0.365,0.718-0.816,0.46c-0.451-0.257-0.816-0.881-0.816-1.393
			c0-0.512,0.365-0.718,0.816-0.461C244.629,68.851,244.994,69.475,244.994,69.987z"/>
	</g>
	<g>
		<g>
			<g>
				<path style="fill:#1D2856;" d="M315.146,38.216c0.03,0.041,0.073,0.084,0.133,0.13l2.251,1.7l4.027,3.041
					c0.051,0.039,0.111,0.075,0.176,0.107l9.12,4.506l0.968-0.208l0.351-0.075l0.254-0.055v0.221c-0.002,0-0.606,0.13-0.606,0.13
					l-0.968,0.208l-9.12-4.506c-0.065-0.032-0.125-0.068-0.176-0.107l-4.027-3.041l-2.251-1.7
					C315.078,38.416,315.057,38.288,315.146,38.216z"/>
			</g>
			<g>
				<path style="fill:#576BAD;" d="M323.917,41.752c0.058,0.027,0.112,0.056,0.161,0.089l8.349,5.522l-0.254,0.055l-0.351,0.075
					l-0.968,0.208l-3.896-1.925l-6.536-5.628L323.917,41.752z"/>
			</g>
			<g>
				<path style="fill:#35468E;" d="M315.847,38.048l4.574,2.099l6.536,5.628l-5.224-2.581c-0.065-0.032-0.124-0.068-0.176-0.107
					l-4.027-3.041l-2.251-1.7c-0.061-0.046-0.103-0.089-0.133-0.13C314.958,37.958,315.349,37.82,315.847,38.048z"/>
			</g>
		</g>
		<g>
			<g>
				<path style="fill:#35468E;" d="M330.63,48.369v-1.382c0.027,0.233,0.194,0.462,0.505,0.64c0.684,0.391,1.796,0.389,2.483-0.005
					c0.317-0.181,0.487-0.414,0.513-0.65v1.382c0.005,0.043,0.005,0.087,0,0.13v0.057c-0.055,0.216-0.222,0.426-0.513,0.593
					c-0.688,0.393-1.8,0.395-2.483,0.005c-0.292-0.167-0.458-0.379-0.499-0.597C330.625,48.455,330.625,48.412,330.63,48.369z"/>
			</g>
			<g>
				<path style="fill:#576BAD;" d="M333.619,47.622c-0.688,0.393-1.8,0.395-2.483,0.005c-0.311-0.178-0.478-0.406-0.505-0.64
					c-0.032-0.28,0.138-0.566,0.513-0.78c0.688-0.393,1.8-0.395,2.484-0.004c0.369,0.211,0.536,0.493,0.505,0.77
					C334.105,47.208,333.936,47.441,333.619,47.622z"/>
			</g>
		</g>
		<g>
			<g>
				<path style="fill:#35468E;" d="M331.163,46.535c0-0.514,0.48-1.503,1.095-1.623c-0.394,0.816-0.476,1.738-0.222,2.574
					C331.531,47.364,331.163,46.985,331.163,46.535z"/>
			</g>
			<g>
				<path style="fill:#232F6D;" d="M332.257,44.912c0.041-0.008,0.082-0.012,0.124-0.012c0.673,0,1.219,1.088,1.219,1.636
					c0,0.548-0.546,0.992-1.219,0.992c-0.12,0-0.236-0.015-0.346-0.041C331.781,46.65,331.863,45.728,332.257,44.912z"/>
			</g>
		</g>
		<g>
			<g>
				<path style="fill:#1D2856;" d="M332.745,48.457c0.059,0.053,0.13,0.109,0.215,0.165l8.404,5.558
					c0.049,0.032,0.103,0.062,0.16,0.088l3.14,1.441l4.93,2.262c0.318,0.146,0.592,0.142,0.7,0.053
					c0.19,0.258-0.201,0.398-0.7,0.169l-4.93-2.262l-3.14-1.441c-0.058-0.026-0.112-0.056-0.16-0.088l-8.404-5.558
					c-0.086-0.057-0.156-0.112-0.215-0.166V48.457z"/>
			</g>
			<g>
				<path style="fill:#576BAD;" d="M334.142,48.1l3.631,1.794l6.893,5.816l-3.14-1.441c-0.058-0.026-0.112-0.056-0.16-0.088
					l-8.404-5.558c-0.085-0.056-0.157-0.112-0.215-0.165L334.142,48.1z"/>
			</g>
			<g>
				<path style="fill:#35468E;" d="M349.595,57.972l-4.93-2.262l-6.893-5.816l5.936,2.933c0.065,0.032,0.124,0.068,0.176,0.107
					l4.027,3.041l2.251,1.7c0.199,0.15,0.221,0.279,0.132,0.351C350.187,58.114,349.913,58.118,349.595,57.972z"/>
			</g>
		</g>
	</g>
	<g>
		<g>
			<g>
				<path style="fill:#1D2856;" d="M245.573,0.283c0.03,0.041,0.073,0.084,0.133,0.13l2.251,1.7l4.027,3.041
					c0.051,0.039,0.111,0.075,0.176,0.107l9.12,4.506l0.968-0.208l0.351-0.075l0.254-0.054v0.221c-0.001,0-0.606,0.13-0.606,0.13
					l-0.968,0.208l-9.12-4.506c-0.065-0.032-0.124-0.068-0.176-0.107l-4.027-3.041l-2.251-1.7
					C245.505,0.484,245.484,0.355,245.573,0.283z"/>
			</g>
			<g>
				<path style="fill:#576BAD;" d="M254.344,3.819c0.058,0.026,0.112,0.056,0.16,0.089l8.349,5.522L262.6,9.484l-0.351,0.075
					l-0.968,0.208l-3.896-1.925l-6.536-5.627L254.344,3.819z"/>
			</g>
			<g>
				<path style="fill:#35468E;" d="M246.274,0.116l4.574,2.099l6.536,5.627l-5.224-2.581c-0.065-0.032-0.124-0.068-0.176-0.107
					l-4.027-3.041l-2.251-1.7c-0.061-0.046-0.104-0.089-0.133-0.13C245.385,0.026,245.775-0.113,246.274,0.116z"/>
			</g>
		</g>
		<g>
			<g>
				<path style="fill:#35468E;" d="M261.057,10.436V9.054c0.027,0.233,0.194,0.462,0.505,0.64c0.684,0.391,1.796,0.389,2.484-0.004
					c0.317-0.181,0.487-0.414,0.513-0.65v1.382c0.005,0.043,0.005,0.087,0,0.13v0.057c-0.054,0.216-0.222,0.426-0.513,0.593
					c-0.688,0.393-1.8,0.395-2.484,0.005c-0.292-0.167-0.458-0.379-0.499-0.597C261.052,10.523,261.052,10.479,261.057,10.436z"/>
			</g>
			<g>
				<path style="fill:#576BAD;" d="M264.046,9.689c-0.688,0.393-1.8,0.395-2.484,0.004c-0.311-0.178-0.478-0.406-0.505-0.64
					c-0.032-0.28,0.138-0.566,0.513-0.78c0.688-0.393,1.8-0.395,2.484-0.004c0.369,0.211,0.536,0.493,0.505,0.77
					C264.532,9.275,264.363,9.508,264.046,9.689z"/>
			</g>
		</g>
		<g>
			<g>
				<path style="fill:#35468E;" d="M261.589,8.602c0-0.514,0.48-1.503,1.095-1.623c-0.394,0.816-0.476,1.739-0.222,2.574
					C261.958,9.432,261.589,9.052,261.589,8.602z"/>
			</g>
			<g>
				<path style="fill:#232F6D;" d="M262.684,6.979c0.041-0.008,0.082-0.012,0.124-0.012c0.673,0,1.219,1.088,1.219,1.636
					c0,0.548-0.546,0.992-1.219,0.992c-0.12,0-0.236-0.015-0.346-0.041C262.208,8.718,262.29,7.795,262.684,6.979z"/>
			</g>
		</g>
		<g>
			<g>
				<path style="fill:#1D2856;" d="M263.172,10.524c0.059,0.054,0.13,0.109,0.215,0.165l8.404,5.558
					c0.049,0.032,0.103,0.062,0.16,0.088l3.14,1.441l4.93,2.262c0.318,0.146,0.592,0.142,0.7,0.053
					c0.19,0.259-0.201,0.398-0.7,0.169l-4.93-2.262l-3.14-1.441c-0.058-0.026-0.112-0.056-0.16-0.088l-8.404-5.558
					c-0.086-0.057-0.156-0.112-0.215-0.166V10.524z"/>
			</g>
			<g>
				<path style="fill:#576BAD;" d="M264.569,10.167l3.631,1.794l6.893,5.816l-3.14-1.441c-0.058-0.026-0.112-0.056-0.16-0.088
					l-8.404-5.558c-0.085-0.057-0.157-0.112-0.216-0.165L264.569,10.167z"/>
			</g>
			<g>
				<path style="fill:#35468E;" d="M280.022,20.039l-4.93-2.262l-6.893-5.816l5.936,2.933c0.065,0.032,0.124,0.068,0.176,0.107
					l4.027,3.041l2.251,1.7c0.199,0.15,0.221,0.279,0.132,0.351C280.614,20.181,280.34,20.185,280.022,20.039z"/>
			</g>
		</g>
	</g>
</g>
</svg>
