<?xml version="1.0" encoding="iso-8859-1"?>
<!-- Generator: Adobe Illustrator 24.2.3, SVG Export Plug-In . SVG Version: 6.00 Build 0)  -->
<svg version="1.1" id="_x31_" xmlns="http://www.w3.org/2000/svg" xmlns:xlink="http://www.w3.org/1999/xlink" x="0px" y="0px"
	 viewBox="0 0 340.803 96.074" style="enable-background:new 0 0 340.803 96.074;" xml:space="preserve">
<path style="fill-rule:evenodd;clip-rule:evenodd;fill:#78a9d5;" d="M0,0.06c10.44,0.03,20.87,0.01,31.32,0
	C36.23,0,41.16,2.53,43.84,6.67c2.5,3.54,3.45,7.83,4.68,11.92c3.78,12.73,7.5,25.48,11.29,38.21c0.06,1.15,1.77,1.59,2.1,0.37
	c3.87-12.85,7.6-25.74,11.44-38.6c1.32-4.53,2.45-9.35,5.52-13.07c1.97-2.41,4.73-4.13,7.74-4.93c2.56-0.71,5.23-0.44,7.85-0.48
	c9.16,0.03,18.33-0.08,27.5,0.06c-0.06,31.97,0.03,63.95-0.05,95.92c-9.91-0.06-19.83,0.09-29.75-0.08
	c0-18.76,0.04-37.51-0.02-56.27c-0.06-1.67-2.82-1.53-3.01,0.04c-5.9,18.74-11.85,37.46-17.66,56.22c-7,0.16-14.01,0.03-21.02,0.06
	c-5.89-18.74-11.74-37.49-17.7-56.2c-0.25-1.55-2.08-1.6-3.06-0.7c0.02,18.95-0.02,37.9,0.02,56.85c-9.9,0.12-19.8,0-29.7,0.06
	C0,64.05,0,32.06,0,0.06L0,0.06z M135.48,0.12c9.89-0.15,19.8,0.08,29.69-0.12c0.16,18.98,0.02,37.97,0.07,56.95
	c0.85,0.76,2.4,0.99,2.92-0.26c6.59-13.81,13.15-27.64,19.73-41.45c2.09-4.29,3.78-8.94,7.18-12.41c1.52-1.44,3.42-2.83,5.62-2.74
	c10.09,0,20.18-0.06,30.27,0.03c0.01,31.96,0.01,63.92,0,95.88c-9.9,0.08-19.8,0.07-29.71,0c0-18.93,0.04-37.87-0.02-56.8
	c-0.02-1.63-2.78-1.49-3.06-0.03c-6.21,13.7-12.39,27.41-18.59,41.1c-1.91,4.16-3.72,8.44-6.57,12.06c-1.59,2.02-3.9,3.83-6.6,3.71
	c-10.31,0-20.63,0.01-30.94-0.01C135.49,64.06,135.51,32.09,135.48,0.12L135.48,0.12z M245.45,43.92c31.1-0.21,62.2,0,93.3-0.1
	c-1.05,4.28-3.82,7.97-6.75,11.19c-5.79,6.28-14.1,10.11-22.65,10.34c-11.36,0.06-22.72-0.01-34.08,0.03
	c-0.07,10.23,0,20.45-0.03,30.68c-9.91-0.04-19.82,0.03-29.74-0.04C245.45,78.65,245.55,61.29,245.45,43.92z"/>
<path style="fill-rule:evenodd;clip-rule:evenodd;fill:#78a9d5;" d="M241.68,0.12c23.23-0.03,46.47-0.05,69.7-0.02
	c6.1,0.44,11.98,2.91,16.81,6.62c7.01,5.46,11.74,13.84,12.52,22.71c0.18,3.2,0.12,6.42-0.36,9.59c-14.24,0.08-28.47,0-42.71,0.02
	c-4.89-0.04-9.8,0.2-14.65-0.52c-10.93-1.39-21.71-5.94-29.46-13.92C247,18.04,242.97,9.22,241.68,0.12z"/>
</svg>
