<?xml version="1.0" encoding="iso-8859-1"?>
<!-- Generator: Adobe Illustrator 24.2.3, SVG Export Plug-In . SVG Version: 6.00 Build 0)  -->
<svg version="1.1" id="&#x421;&#x43B;&#x43E;&#x439;_1"
	 xmlns="http://www.w3.org/2000/svg" xmlns:xlink="http://www.w3.org/1999/xlink" x="0px" y="0px" viewBox="0 0 6487.323 5114.941"
	 style="enable-background:new 0 0 6487.323 5114.941;" xml:space="preserve">
<g>
	<path d="M3902.271,4246.408c-15.204-30.015-46.826-36.275-75.285-21.001c-21.996,11.806-47.245,39.846-68.53,81.565
		c-13.155,25.784-26.291,46.664-38.582,62.653c-23.268,30.272-35.08,44.041-21.164-3.03
		c32.832-111.063,40.015-179.808,30.436-215.188c-10.144-37.466-33.326-51.127-65.699-45.005
		c-20.079,3.798-42.905,18.485-66.628,41.816c-67.586,66.471-159.141,217.668-212.005,380.57
		c-5.584,17.178,3.814,35.632,20.991,41.216c17.178,5.584,35.632-3.814,41.216-20.992h0
		c49.714-153.193,134.012-293.611,195.622-354.202c28.439-27.968,28.341-24.188,24.446,15.125
		c-3.102,31.3-12.868,76.558-31.099,138.228c-12.171,41.17-12.21,71.925-3.908,91.465c15.146,35.645,51.417,39.632,82.593,22.543
		c56.003-30.697,81.25-93.478,113.082-145.052c14.77-23.934,21.18-34.807,14.813,0.172c-6.549,35.985-4.959,62.418,2.813,80.515
		c18.284,42.572,61.106,41.957,97.215,23.751c38.419-19.369,87.544-65.351,132.483-124.216
		c26.063-34.136-25.905-73.815-51.968-39.68c-26.781,35.079-54.29,64.423-78.595,84.316c-36.879,30.187-47.056,38.28-37.693-13.166
		C3913.68,4291.158,3911.042,4263.722,3902.271,4246.408z"/>
	<path d="M1589.776,2211.488c-18.097,0-32.768,14.671-32.768,32.768s14.671,32.769,32.768,32.769h1441.341
		c43.103,0,43.103-65.537,0-65.537l0,0H1589.776z"/>
	<path style="fill:#E91E57;" d="M4555.357,2815.5L4555.357,2815.5l0,2042.674c0,10.805-8.969,19.773-19.773,19.773H85.311
		c-10.809,0-19.774-8.964-19.774-19.773V1795.861c0-10.809,8.966-19.773,19.774-19.773h2635.419c43.103,0,43.103-65.536,0-65.536
		H85.311c-46.986,0-85.311,38.324-85.311,85.31v3062.313c0,46.985,38.325,85.309,85.311,85.309h4450.273
		c46.981,0,85.31-38.328,85.31-85.309V2815.5C4620.894,2772.398,4555.357,2772.398,4555.357,2815.5z"/>
	<path d="M3876.351,3325.782H2746.41c-43.103,0-43.103,65.537,0,65.537h1129.94
		C3919.453,3391.319,3919.453,3325.782,3876.351,3325.782z"/>
	<path d="M3876.351,2983.241H2746.41c-43.103,0-43.103,65.537,0,65.537h1129.94
		C3919.453,3048.777,3919.453,2983.241,3876.351,2983.241z"/>
	<path d="M2746.41,3668.323c-43.103,0-43.103,65.537,0,65.537h569.42c43.103,0,43.103-65.537,0-65.537H2746.41z"/>
	<path style="fill:#E91E57;" d="M6373.525,1539.798L4587.723,121.107C4433.493-1.404,4442.49,2.038,4232.088,0L2647.353,6.776
		c-172.766-2.469-261.41,5.665-279.723,52.777c-25.825,66.437,135.453,187.742,193.88,236.005l1635.652,1351.125
		c135.018,111.53,164.778,134.382,358.755,128.277l725.885-22.124c42.934-1.178,41.143-66.458-1.792-65.28l-726.142,22.127
		c-181.156,5.692-197.887-16.71-319.591-117.244L2602.385,244.422c-188.578-151.04-220.096-177.328,44.324-172.363l1584.982-6.777
		c188.412,1.827,177.596-2.381,315.329,107.026l1783.644,1416.976c100.802,75.473,82.219,63.749-30.512,67.183l-350.179,10.672
		c-42.934,1.179-41.143,66.458,1.792,65.28h0l350.365-10.678c51.276-1.563,174.128,3.816,184.588-50.231
		C6495.352,1626.895,6409.381,1568.282,6373.525,1539.798z"/>
	<path style="fill:#E91E57;" d="M2066.58,3259.496c0-56.643-45.929-102.572-102.572-102.572c-41.812,0-79.309,25.347-95.02,63.875
		l-187.08-11.689c-12.657-54.376-63.062-91.33-118.621-87.468l-55.668-146.91c24.742-19.983,39.089-49.861,39.089-81.746
		c0-57.995-47.026-105.021-105.021-105.021s-105.021,47.026-105.021,105.021c0,15.285,3.268,29.808,9.141,42.909l-145.118,131.829
		c-19.5-12.184-42.542-19.225-67.227-19.225c-61.875,0-114.845,44.669-125.242,105.514l-447.625,49.28
		c-0.268-0.553-0.541-1.105-0.819-1.653l193.186-193.186c14.241,7.217,30.346,11.285,47.4,11.285
		c57.995,0,105.022-47.026,105.022-105.021c0-57.996-47.026-105.021-105.022-105.021c-57.995,0-105.022,47.026-105.022,105.021
		c0,17.055,4.068,33.159,11.285,47.4l-193.187,193.187c-14.241-7.216-30.345-11.285-47.4-11.285
		c-57.995,0-105.021,47.026-105.021,105.021c0,57.995,47.026,105.021,105.021,105.021c24.028,0,46.172-8.071,63.869-21.651
		l213.8,146.414c-16.797,39.233-17.837,84.503-2.895,124.473l-120.444,74.455c-17.775-14.784-40.622-23.676-65.544-23.676
		c-56.643,0-102.572,45.929-102.572,102.572s45.929,102.572,102.572,102.572c29.723,0,57.71-12.751,77.246-35.094l351.695,145.988
		c-1.141,50.677,39.594,92.395,90.301,92.395c38.001,0,71.859-23.777,84.854-59.301l331.712-6.348
		c5.367,14.837,14.165,28.226,25.612,39.078l-66.897,145.627c-4.291-0.521-8.659-0.792-13.09-0.792
		c-59.361,0-107.495,48.134-107.495,107.495c0,59.361,48.133,107.496,107.495,107.496c59.362,0,107.495-48.133,107.495-107.496
		c0-30.343-12.678-59-35.074-79.433l66.897-145.628h0c59.66,6.069,111.734-40.607,111.734-100.822
		c0-63.433-57.476-110.859-119.363-99.75l-73.931-133.187c16.098-15.521,27.858-34.954,34.018-56.463l286.394,5.608
		c13.075,36.966,48.102,61.836,87.489,61.836c51.232,0,92.775-41.543,92.775-92.775c0-33.447-17.915-64.085-46.807-80.6
		l33.012-206.375C2030.248,3352.506,2066.58,3309.636,2066.58,3259.496z M800.361,2875.234c21.813,0,39.485,17.672,39.485,39.485
		c0,21.813-17.672,39.485-39.485,39.485s-39.485-17.672-39.485-39.485C760.876,2892.906,778.548,2875.234,800.361,2875.234z
		 M466.038,3288.528c-21.813,0-39.485-17.671-39.485-39.485c0-21.813,17.672-39.484,39.485-39.484l0,0
		c21.813,0,39.485,17.672,39.485,39.484C505.523,3270.856,487.851,3288.528,466.038,3288.528z M554.826,3793.688
		c-20.461,0-37.035-16.575-37.035-37.036c0-20.46,16.575-37.035,37.035-37.035c20.461,0,37.035,16.575,37.035,37.035
		C591.861,3777.112,575.287,3793.688,554.826,3793.688z M1436.259,4330.231c-23.179,0-41.958-18.78-41.958-41.959
		c0-23.179,18.779-41.959,41.958-41.959c23.18,0,41.959,18.779,41.959,41.959
		C1478.218,4311.453,1459.439,4330.231,1436.259,4330.231z M1585.963,3926.579c19.784,0,35.811,16.026,35.811,35.81
		c0,19.785-16.026,35.811-35.811,35.811c-19.784,0-35.811-16.027-35.811-35.811
		C1550.153,3942.605,1566.179,3926.579,1585.963,3926.579z M1571.269,3186.901L1571.269,3186.901
		c26.547,0,48.058,21.511,48.058,48.058s-21.51,48.058-48.058,48.058c-26.547,0-48.057-21.511-48.057-48.058
		C1523.212,3208.412,1544.722,3186.901,1571.269,3186.901z M1441.686,2853.503c21.813,0,39.485,17.672,39.485,39.485
		c0,21.813-17.672,39.485-39.485,39.485s-39.485-17.672-39.485-39.485C1402.201,2871.175,1419.873,2853.503,1441.686,2853.503z
		 M1245.433,3115.462l144.368-131.148c17.271,9.835,36.844,14.482,56.682,13.586l55.669,146.911
		c-14.77,11.34-26.601,26.182-34.321,43.142l-208.289-28.257C1257.568,3143.863,1252.68,3128.934,1245.433,3115.462
		L1245.433,3115.462z M1133.461,3114.038c16.993,0,32.376,6.886,43.509,18.019c11.133,11.132,18.019,26.516,18.019,43.509
		c0,33.987-27.541,61.528-61.528,61.528c-33.987,0-61.528-27.541-61.528-61.528S1099.474,3114.038,1133.461,3114.038z
		 M1094.848,3296.653c12.177,3.88,25.15,5.977,38.613,5.977c51.427,0,97.607-30.948,117.314-78.176v0l208.282,28.256
		c4.358,27.76,18.914,52.826,40.688,70.496l-77.462,188.726c-54.536-7.038-107.469,21.62-131.2,71.455l-225.905-41.465
		c-0.723-44.831-19.201-87.087-51.536-118.115L1094.848,3296.653z M1467.396,3637.946c0,33.987-27.541,61.528-61.528,61.528
		c-33.987,0-61.529-27.54-61.529-61.528c0-33.988,27.541-61.529,61.529-61.529S1467.396,3603.959,1467.396,3637.946z
		 M566.877,3278.469c0.983-3.375,1.802-6.818,2.447-10.323l444.76-48.965c5.779,15.81,14.609,30.152,25.778,42.312l-81.199,127.146
		c-18.884-7.381-39.435-11.434-60.932-11.434v0c-45.545,0-86.845,18.185-117.037,47.69L566.877,3278.469z M999.666,3544.677
		c0,56.303-45.632,101.934-101.935,101.934c-56.303,0-101.935-45.631-101.935-101.934c0-56.303,45.632-101.935,101.935-101.935h0
		C952.77,3442.742,999.666,3489.025,999.666,3544.677z M1008.85,3909.701l-351.694-145.988c0.695-10.195-0.116-20.483-2.435-30.436
		l120.462-74.465c39.782,42.696,98.75,61.583,155.958,50l80.862,197.756C1010.925,3907.588,1009.877,3908.63,1008.85,3909.701z
		 M1074.068,3996.976c-13.697,0-24.789-11.093-24.789-24.79s11.092-24.789,24.789-24.789s24.789,11.093,24.789,24.789
		S1087.765,3996.976,1074.068,3996.976z M1510.847,3894.359c-9.613,10.608-17.01,23.262-21.462,37.229l-331.715,6.348
		c-14.151-34.496-48.022-56.752-85.298-56.057l-81.08-198.287c28.006-18.899,49.811-45.93,62.245-77.388h0l225.629,41.414
		c4.979,66.155,60.292,117.393,126.702,117.393c10.713,0,21.116-1.329,31.055-3.826L1510.847,3894.359z M1815.709,3613.319
		l-286.397-5.608c-6.912-28.314-23.453-53.358-46.605-70.966l77.463-188.729c51.343,4.979,99.706-25.115,117.665-73.639
		l187.078,11.688c7.399,27.663,26.183,51.018,51.484,64.303l-33.011,206.368C1852.768,3562.946,1827.256,3584.361,1815.709,3613.319
		z M1901.918,3674.898c-15.05,0-27.238-12.19-27.238-27.239c0-15.049,12.189-27.238,27.238-27.238s27.238,12.189,27.238,27.238
		C1929.156,3662.708,1916.968,3674.898,1901.918,3674.898z M1926.973,3259.497c0-20.46,16.574-37.035,37.035-37.035
		c20.461,0,37.035,16.575,37.035,37.035c0,20.461-16.574,37.036-37.035,37.036
		C1943.547,3296.533,1926.973,3279.958,1926.973,3259.497z"/>
	<path style="fill:#E91E57;" d="M5591.231,1730.435c116.098,81.853,138.827,137.731,134.109,277.752l-0.524,1761.998
		c0,42.933,65.28,42.933,65.28,0l0.524-1759.949c5.465-162.199-27.364-238.553-161.757-333.305L4479.372,866.483
		c-14.774-10.392-35.176-6.839-45.567,7.936s-6.839,35.176,7.935,45.568l0,0L5591.231,1730.435z"/>
	<path d="M5967.81,3356.984c-32.623-27.914-75.118,21.751-42.496,49.665c140.008,119.953,152.227,411.474,108.418,613.054
		c-7.083,32.594-55.269,218.562-117.009,181.6c-114.771-69.351-133.064,12.63-147.741,105.651
		c-23.53,149.118-72.465,266.603-119.593,334.422c-36.655,52.749-69.75,94.534-66.144-0.863c1.014-26.832,5.9-62.107,15.557-106.666
		c21.388-101.262,22.948-186.162,10.276-258.9c-37.57-215.676-175.361-239.317-152.94-532.746
		c10.07-131.789,55.891-258.586,127.968-334.523c29.632-31.147-17.726-76.203-47.359-45.056h0.001
		c-82.53,86.948-134.745,228.862-145.89,374.715c-23.988,313.951,116.626,335.737,153.708,548.618
		c11.352,65.166,9.789,142.003-9.764,234.58c-22.062,104.454-19.381,171.396-2.067,205.752c32.899,65.283,96.9,35.668,135.942-5.04
		c61.589-64.217,134.333-211.124,164.817-404.31c11.392-79.421,14.575-76.299,55.993-54.614
		c32.592,17.065,62.194,18.301,91.975,0.277c65.444-39.61,100.892-158.315,116.269-229.075
		C6145.335,3814.483,6128.271,3494.46,5967.81,3356.984z"/>
	<path style="fill:#E91E57;" d="M5473.493,1934.387l-256.326,403.468l0,0c-21.12,33.245-42.212,61.613-78.245,81.681
		c-137.973,76.844-422.835,18.271-745.93-112.854c-391.36-158.831-812.515-407.373-1136.64-678.348
		c-253.253-211.725-421.778-421.242-405.931-569.478c3.993-37.359,26.155-79.224,44.056-112.249l36.755-67.812
		c20.373-37.883-37.228-68.859-57.6-30.976l-151.275,279.095c-10.197,18.813-24.388,42.447-31.725,62.195
		c-66.889,180.022,142.298,442.484,465.533,697.568c331.591,261.679,749.281,501.848,1142.058,657.266
		c382.79,151.466,713.245,200.645,830.314,54.091c13.864-17.354,30.426-46.453,42.262-65.083l357.99-563.492
		C5551.826,1933.137,5496.531,1898.065,5473.493,1934.387z M5120.755,2489.612c-12.42,19.549-31.875,54.541-46.548,71.898
		c-97.506,115.35-398.283,61.435-751.92-78.495c-387.461-153.315-798.566-389.397-1125.674-647.538
		c-293.186-231.37-489.518-461.8-449.319-610.017c6.909-25.478,32.5-67.269,44.849-90.052c34.895-64.38,19.981-48.596,33.893,6.752
		c37.441,148.955,193.064,330.462,409.325,511.26c326.507,272.965,751.106,523.599,1145.345,683.595
		c298.908,121.309,567.862,180.244,727.447,129.868C5150.683,2453.46,5150.151,2443.341,5120.755,2489.612z"/>
	<path d="M1937.994,2835.447c0-49.219-39.912-89.13-89.131-89.13c-49.219,0-89.131,39.912-89.131,89.13
		c0,49.22,39.911,89.131,89.131,89.131C1898.082,2924.578,1937.994,2884.666,1937.994,2835.447z M1825.269,2835.447
		c0-13.037,10.557-23.594,23.594-23.594c13.037,0,23.594,10.558,23.594,23.594c0,13.037-10.557,23.594-23.594,23.594
		C1835.826,2859.041,1825.269,2848.484,1825.269,2835.447z"/>
	<path d="M563.688,4249.636c0,64.622,52.398,117.02,117.02,117.02s117.02-52.398,117.02-117.02
		c0-64.623-52.398-117.021-117.02-117.021C616.086,4132.615,563.688,4185.014,563.688,4249.636z M732.192,4249.636
		c0,28.44-23.044,51.483-51.484,51.483c-28.44,0-51.483-23.043-51.483-51.483c0-28.439,23.044-51.484,51.483-51.484
		C709.148,4198.152,732.192,4221.195,732.192,4249.636z"/>
	<path d="M1131.639,2751.813c64.622,0,117.02-52.398,117.02-117.02c0-64.622-52.398-117.021-117.02-117.021
		c-64.623,0-117.021,52.398-117.021,117.021C1014.619,2699.415,1067.017,2751.813,1131.639,2751.813z M1131.639,2583.309
		c28.44,0,51.483,23.044,51.483,51.484c0,28.44-23.044,51.483-51.483,51.483s-51.484-23.043-51.484-51.483
		S1103.199,2583.309,1131.639,2583.309z"/>
</g>
<g style="display:none;">
	<path style="display:inline;fill:#E91E57;" d="M1300.222,3839.186c-8.285-0.002-16.23-3.294-22.088-9.154l-25.868-25.868
		c-17.541-17.645-41.415-27.534-66.296-27.462h-41.958c-51.764,0-93.726-41.963-93.726-93.726v-437.388
		c0-17.255,13.988-31.242,31.242-31.242h93.726v62.484h-62.484v406.146c0,17.254,13.988,31.242,31.242,31.242h41.958
		c41.458-0.107,81.237,16.374,110.472,45.77l3.78,3.78l3.78-3.78c29.235-29.396,69.014-45.876,110.472-45.77h41.958
		c17.255,0,31.242-13.988,31.242-31.242v-406.146h-249.936v-62.484h281.178c17.255,0,31.242,13.988,31.242,31.242v437.388
		c0,51.763-41.963,93.726-93.726,93.726h-41.958c-24.88-0.072-48.754,9.817-66.296,27.462l-25.868,25.868
		C1316.453,3835.892,1308.508,3839.184,1300.222,3839.186z"/>
	<path style="display:inline;fill:#E91E57;" d="M1393.948,2745.715h-187.452c-17.255,0-31.242-13.988-31.242-31.242v-20.87
		c-19.302-31.386-30.072-67.27-31.242-104.098c0-37.49,15.215-124.968,156.21-124.968s156.21,87.478,156.21,124.968
		c-1.17,36.828-11.94,72.712-31.242,104.098v20.87C1425.19,2731.727,1411.203,2745.715,1393.948,2745.715z M1238.832,2683.231
		h123.187c-0.268-9.228,3.689-18.074,10.747-24.025c13.082-20.96,20.39-45.006,21.182-69.701c0-17.089,0-62.484-93.726-62.484
		s-93.726,45.395-93.726,62.484c0.792,24.695,8.1,48.741,21.182,69.701C1234.744,2665.188,1238.822,2673.973,1238.832,2683.231z"/>
	<rect x="1268.98" y="2402.052" style="display:inline;fill:#E91E57;" width="62.484" height="93.726"/>
	<path style="display:inline;fill:#E91E57;" d="M1456.432,3276.829v-62.484c23.978-0.022,45.829-13.763,56.236-35.366
		c-46.57-5.645-82.952-42.91-87.478-89.602c0-101.787,112.659-195.606,182.516-244c-15.246-3.937-30.929-5.932-46.676-5.936h-91.664
		l9.154,9.154c12.196,12.206,12.188,31.987-0.018,44.183c-4.004,4-9.019,6.838-14.51,8.21
		c-73.015,17.897-125.919,81.179-130.592,156.21c-1.25,19.151-1.937,40.24-1.937,63.421v124.968h-62.484v-124.968
		c0-23.306,0.687-45.957,2.031-67.264c5.111-83.345,54.263-157.645,128.967-194.95l-28.118-28.118
		c-12.199-12.203-12.196-31.984,0.007-44.183c5.857-5.855,13.799-9.146,22.081-9.147h167.082
		c38.791,0.042,77.044,9.078,111.753,26.4l16.277,8.123c15.44,7.701,21.714,26.461,14.013,41.902
		c-2.756,5.527-7.089,10.113-12.451,13.178c-56.454,32.242-202.948,135.341-202.948,222.818c0,12.747,24.337,31.242,62.484,31.242
		c17.255,0,31.242,13.988,31.242,31.242C1581.401,3220.879,1525.451,3276.829,1456.432,3276.829z"/>
	<path style="display:inline;fill:#E91E57;" d="M1737.611,2964.409h-187.452v-62.484h152.742
		c-7.467-28.118-24.525-30.992-28.649-31.242l0.875-62.484c32.429,0,93.726,26.118,93.726,124.968
		C1768.853,2950.422,1754.865,2964.409,1737.611,2964.409z"/>
	<path style="display:inline;fill:#E91E57;" d="M1672.721,2820.227l-57.673-24.056l28.493-68.357
		c0.344-5.717-8.185-13.34-22.182-13.34h-79.917c-13.996,0-22.526,7.623-22.526,11.778l28.836,69.92l-57.673,24.056l-28.493-68.264
		c-3.405-8.145-5.157-16.885-5.155-25.712c3.203-43.865,41.112-76.981,85.01-74.262h79.917c43.897-2.719,81.807,30.397,85.01,74.262
		c-0.014,8.749-1.744,17.411-5.092,25.494L1672.721,2820.227z"/>
	<rect x="1550.159" y="2589.505" style="display:inline;fill:#E91E57;" width="62.484" height="93.726"/>
	<path style="display:inline;fill:#E91E57;" d="M1643.885,3495.524c-4.834,0.053-9.615-1.016-13.965-3.124l-55.892-28.118h-55.111
		v-62.484h62.484c4.834-0.053,9.615,1.016,13.965,3.124l42.364,21.182l46.551-46.551c5.883-5.802,13.825-9.038,22.088-8.998h50.362
		l-17.496-52.612c-5.452-16.37,3.398-34.061,19.769-39.514c3.176-1.058,6.501-1.598,9.849-1.601
		c13.965,0,24.431-31.242,28.899-62.484h-60.141c-17.254,0.016-31.255-13.958-31.271-31.213
		c-0.011-11.859,6.693-22.701,17.306-27.991c17.058-8.529,29.086-39.74,36.428-75.293l-93.976,93.882
		c-16.2,14.933-19.991,39.052-9.154,58.235c3.614,7.12,10.334,12.155,18.183,13.622c17.255,0,31.242,13.988,31.242,31.242
		c0.223,34.656-17.123,67.066-46.082,86.103c-38.303,21.682-89.79,12.497-157.46-28.118l32.179-53.549
		c64.296,38.584,88.602,30.617,94.507,27.274c3.933-2.43,7.054-5.976,8.966-10.185c-13.554-7.703-25.053-18.559-33.523-31.648
		c-27.579-43.936-20.492-101.202,16.964-137.09l156.21-156.21c12.271-12.13,32.052-12.016,44.182,0.256
		c5.787,5.855,9.03,13.757,9.023,21.989c0.505,53.395-9.121,106.402-28.368,156.21h28.368c17.255,0,31.242,13.988,31.242,31.242
		c0,56.236-14.902,119.563-54.142,144.901l21.276,63.921c5.453,16.37-3.398,34.061-19.769,39.514
		c-3.176,1.058-6.501,1.598-9.849,1.601h-80.792l-53.33,53.33C1660.115,3492.229,1652.17,3495.522,1643.885,3495.524z"/>
	<path style="display:inline;fill:#E91E57;" d="M1768.853,3714.218c-4.834,0.053-9.615-1.016-13.965-3.124
		c-20.495-10.279-111.409-58.641-136.059-121.844h-99.912v-62.484h124.968c17.255,0,31.242,13.988,31.242,31.242
		c0,22.619,40.615,57.111,80.073,81.479c9.632-47.37,14.209-95.628,13.653-143.963c-0.194-17.253,13.635-31.397,30.889-31.591
		c12.104-0.136,23.197,6.731,28.471,17.626c12.247,24.525,63.39,47.988,112.94,63.453c-19.235-32.742-42.505-62.939-69.264-89.883
		c-12.191-12.21-12.176-31.991,0.034-44.183c7.75-7.738,18.987-10.853,29.615-8.21c44.741,11.137,90.143,19.423,135.934,24.806
		c-29.669-23.064-61.472-43.244-94.976-60.266c-15.443-7.696-21.723-26.455-14.026-41.897c5.265-10.563,16.032-17.258,27.835-17.306
		c72.116,0.865,142.674-20.997,201.667-62.484h-170.425c-17.255-0.047-31.204-14.073-31.157-31.327
		c0.042-15.212,11.034-28.184,26.033-30.72c82.478-16.928,156.263-62.601,208.197-128.874l-193.107,64.327
		c-16.396,5.376-34.045-3.557-39.421-19.953c-4.604-14.041,1.259-29.388,14.052-36.783
		c78.703-40.015,142.763-103.857,183.047-182.422l-118.97,79.323c-14.28,9.685-33.707,5.961-43.393-8.319
		c-7.522-11.091-7.134-25.743,0.966-36.419c35.405-45.593,51.149-103.43,43.739-160.678l-144.026,197.793l-50.518-36.741
		l181.766-249.936c6.472-8.762,16.969-13.616,27.837-12.872c10.889,0.893,20.52,7.408,25.4,17.183
		c24.48,55.229,30.335,116.92,16.683,175.768l94.226-62.828c14.353-9.576,33.752-5.704,43.328,8.649
		c3.444,5.162,5.273,11.233,5.253,17.438c-6.528,73.628-38.575,142.662-90.602,195.169l112.096-37.49
		c16.345-5.527,34.076,3.242,39.604,19.588c2.69,7.957,2.064,16.662-1.738,24.151c-37.224,68.844-89.785,128.204-153.617,173.487
		h94.257c17.255,0,31.242,13.988,31.242,31.242c0,6.76-2.193,13.337-6.249,18.745c-54.329,64.513-128.534,109.17-210.977,126.968
		c36.215,22.884,66.706,53.76,89.134,90.258c7.713,15.435,1.453,34.199-13.981,41.913c-4.388,2.193-9.231,3.322-14.137,3.295
		c-46.102-1.074-92.056-5.649-137.465-13.684c24.45,30.943,39.617,68.189,43.739,107.41c0.004,17.254-13.981,31.245-31.236,31.248
		c-2.101,0-4.196-0.211-6.255-0.631c-53.371-10.339-104.814-28.899-152.492-55.017c-3.874,53.83-13.778,116.002-37.99,140.214
		C1784.989,3710.893,1777.095,3714.183,1768.853,3714.218z"/>
	<path style="display:inline;fill:#E91E57;" d="M1925.063,4057.88c-86.273,0-156.21-69.938-156.21-156.21
		c0-86.272,69.938-156.21,156.21-156.21c86.272,0,156.21,69.938,156.21,156.21C2081.17,3987.9,2011.293,4057.777,1925.063,4057.88z
		 M1925.063,3807.944c-51.764,0-93.726,41.963-93.726,93.726s41.963,93.726,93.726,93.726c51.763,0,93.726-41.963,93.726-93.726
		S1976.826,3807.944,1925.063,3807.944z"/>
	<rect x="1893.821" y="3651.734" style="display:inline;fill:#E91E57;" width="62.484" height="124.968"/>
	<rect x="1862.579" y="3682.976" style="display:inline;fill:#E91E57;" width="124.968" height="62.484"/>
	<rect x="1800.095" y="3870.428" style="display:inline;fill:#E91E57;" width="249.936" height="62.484"/>
	<path style="display:inline;fill:#E91E57;" d="M1862.579,4120.364c-3.036-0.004-6.056-0.446-8.966-1.312l-312.42-93.726
		c-13.221-3.961-22.277-16.128-22.276-29.93v-93.726h62.484v70.482l272.274,81.667l49.3-49.269l44.176,44.176l-62.484,62.484
		C1878.809,4117.07,1870.864,4120.362,1862.579,4120.364z"/>
	<path style="display:inline;fill:#E91E57;" d="M1144.012,3276.829c-69.018,0-124.968-55.95-124.968-124.968
		c0-17.255,13.988-31.242,31.242-31.242c38.147,0,62.484-18.495,62.484-31.242c0-87.665-146.494-190.576-203.073-222.818
		c-14.979-8.564-20.18-27.649-11.616-42.629c3.065-5.362,7.651-9.695,13.178-12.451l16.308-8.123
		c34.735-17.343,73.023-26.38,111.846-26.4h167.082c17.255,0.004,31.239,13.994,31.235,31.249
		c-0.002,8.282-3.292,16.224-9.147,22.082l-28.118,28.118c74.705,37.321,123.855,111.63,128.967,194.982
		c1.343,21.276,2.031,43.926,2.031,67.233v124.968h-62.484v-124.968c0-23.181-0.687-44.27-1.937-63.296
		c-4.673-75.031-57.577-138.313-130.592-156.21c-16.74-4.182-26.92-21.143-22.738-37.883c1.372-5.491,4.21-10.506,8.21-14.51
		l9.154-9.279h-91.664c-15.746,0.004-31.429,1.999-46.676,5.936c69.857,48.394,182.516,142.214,182.516,244
		c-4.526,46.692-40.908,83.957-87.478,89.602c10.407,21.603,32.257,35.344,56.236,35.366V3276.829z"/>
	<path style="display:inline;fill:#E91E57;" d="M1050.286,2964.409H862.834c-17.254,0-31.242-13.988-31.242-31.242
		c0-98.85,61.297-124.968,93.726-124.968l0.875,62.484c-4.124,0.281-21.182,3.124-28.649,31.242h152.742V2964.409z"/>
	<path style="display:inline;fill:#E91E57;" d="M1110.365,2820.227l-57.673-24.056l28.493-68.357
		c0.344-5.717-8.185-13.34-22.182-13.34h-79.917c-13.996,0-22.526,7.623-22.526,11.778l28.836,69.92l-57.673,24.056l-28.493-68.264
		c-3.405-8.145-5.157-16.885-5.155-25.712c3.203-43.865,41.112-76.981,85.01-74.262h79.917c43.897-2.719,81.807,30.397,85.01,74.262
		c-0.014,8.749-1.744,17.411-5.093,25.494L1110.365,2820.227z"/>
	<rect x="987.802" y="2589.505" style="display:inline;fill:#E91E57;" width="62.484" height="93.726"/>
	<path style="display:inline;fill:#E91E57;" d="M956.56,3495.524c-8.285-0.002-16.231-3.294-22.088-9.154l-53.33-53.33H800.35
		c-17.254-0.013-31.231-14.011-31.218-31.266c0.003-3.347,0.543-6.673,1.601-9.849l21.276-63.921
		c-39.24-25.337-54.142-88.665-54.142-144.901c0-17.254,13.987-31.242,31.242-31.242h28.368
		c-19.247-49.808-28.873-102.815-28.368-156.21c0.004-17.254,13.994-31.239,31.249-31.235c8.282,0.002,16.224,3.292,22.081,9.147
		l156.21,156.21c37.467,35.88,44.567,93.147,16.996,137.09c-8.495,13.068-19.988,23.918-33.523,31.648
		c1.951,4.247,5.114,7.823,9.091,10.279c5.967,3.312,30.336,11.06,94.351-27.368l32.179,53.549
		c-67.67,40.615-119.126,49.769-157.46,28.118c-29.054-19.039-46.456-51.524-46.207-86.259c0-17.254,13.988-31.242,31.242-31.242
		c7.854-1.449,14.593-6.457,18.245-13.559c10.781-19.194,6.967-43.28-9.216-58.204l-93.976-93.82
		c7.342,35.553,19.37,66.764,36.428,75.293c15.357,7.866,21.43,26.692,13.564,42.05c-5.299,10.346-15.905,16.895-27.529,16.998
		h-60.141c4.405,31.586,14.777,62.484,28.899,62.484c17.254,0.013,31.231,14.011,31.218,31.266
		c-0.003,3.347-0.543,6.673-1.601,9.849l-17.496,52.612h50.362c8.285,0.002,16.23,3.294,22.088,9.154l46.551,46.551l42.364-21.182
		c4.338-2.162,9.119-3.285,13.965-3.28h62.484v62.484h-55.111l-55.892,28.118C966.175,3494.507,961.394,3495.577,956.56,3495.524z"
		/>
	<path style="display:inline;fill:#E91E57;" d="M831.592,3714.218c-8.285-0.002-16.231-3.294-22.088-9.154
		c-24.213-24.213-34.116-86.384-37.99-140.214c-47.639,26.106-99.039,44.666-152.367,55.017
		c-16.906,3.451-33.408-7.457-36.859-24.363c-0.42-2.058-0.632-4.154-0.631-6.255c4.122-39.221,19.289-76.467,43.739-107.41
		c-45.409,8.035-91.363,12.61-137.465,13.684c-17.254,0.008-31.249-13.973-31.257-31.228c-0.002-4.853,1.126-9.639,3.295-13.98
		c22.383-36.481,52.82-67.356,88.977-90.258c-82.443-17.797-156.648-62.454-210.977-126.968
		c-10.353-13.804-7.555-33.386,6.248-43.739c5.408-4.056,11.985-6.249,18.745-6.249h94.257
		c-63.776-45.301-116.282-104.659-153.461-173.487c-7.7-15.441-1.425-34.2,14.016-41.901c7.404-3.692,15.969-4.297,23.818-1.682
		l112.096,37.49c-52.105-52.529-84.2-121.626-90.727-195.325c-0.003-17.255,13.983-31.244,31.237-31.247
		c6.173-0.001,12.209,1.827,17.344,5.253l94.226,62.828c-13.652-58.848-7.797-120.539,16.683-175.768
		c7.76-15.411,26.544-21.613,41.955-13.853c4.414,2.222,8.237,5.46,11.156,9.448l181.797,249.936l-50.393,36.803L562.91,2753.525
		c-7.531,57.324,8.223,115.275,43.739,160.896c10.358,13.8,7.568,33.383-6.232,43.741c-10.603,7.958-25.075,8.358-36.101,0.997
		l-119.188-79.448c40.337,78.676,104.53,142.573,183.391,182.547c14.939,8.635,20.049,27.745,11.414,42.683
		c-7.395,12.793-22.741,18.656-36.783,14.052l-193.326-64.327c51.911,66.254,125.659,111.924,208.103,128.874
		c17.013,2.875,28.474,18.998,25.599,36.011c-2.53,14.967-15.45,25.949-30.629,26.035H442.472
		c58.992,41.491,129.551,63.353,201.667,62.484c17.255-0.016,31.255,13.958,31.271,31.213c0.011,11.859-6.693,22.701-17.306,27.991
		c-33.48,17.016-65.262,37.185-94.913,60.235c45.773-5.351,91.156-13.626,135.872-24.775c16.744-4.164,33.694,6.034,37.859,22.778
		c2.643,10.628-0.472,21.864-8.21,29.615c-26.739,26.931-49.997,57.106-69.232,89.821c49.55-15.621,100.724-38.959,112.909-63.39
		c7.697-15.443,26.455-21.722,41.898-14.026c10.613,5.29,17.317,16.132,17.306,27.991c-0.565,48.336,4.012,96.595,13.653,143.963
		c39.459-24.4,80.073-58.86,80.073-81.479c0-17.254,13.988-31.242,31.242-31.242h124.968v62.484h-99.974
		c-24.65,63.046-115.596,111.409-136.059,121.844C841.163,3713.192,836.405,3714.261,831.592,3714.218z"/>
	<path style="display:inline;fill:#E91E57;" d="M1300.222,3995.396c-8.285-0.002-16.23-3.294-22.088-9.154
		c-56.324-58.544-104.964-124.023-144.744-194.856c6.673,33.424,19.377,65.354,37.49,94.226c7.369,12.286,5.437,28.01-4.686,38.146
		c-20.837,25.42-52.894,38.893-85.634,35.991c-14.421-2.439-27.818-9.029-38.553-18.964l-40.146,20.089
		c-12.03,6.004-26.551,3.638-36.053-5.874l-22.619-22.619c-36.075-3.091-70.601-16.063-99.787-37.49
		c-13.513-10.729-15.77-30.381-5.041-43.894c4.57-5.756,11.024-9.717,18.225-11.186c16.05-20.991,28.702-44.375,37.49-69.295
		c4.811-93.57,119.126-118.72,187.452-118.72v62.484c-1.25,0-124.968,2.062-124.968,62.484c0.004,3.754-0.663,7.478-1.968,10.997
		c-9.411,26.736-21.997,52.246-37.49,75.98c12.7,4.366,26.029,6.625,39.459,6.686c8.285,0.002,16.23,3.294,22.088,9.154
		l15.309,15.309l42.364-21.182c15.433-7.716,34.199-1.46,41.915,13.973c0.004,0.008,0.008,0.015,0.012,0.023
		c0.875,1.593,6.248,9.373,12.497,10.404c4.802,0.191,9.527-1.252,13.403-4.093c-20.12-38.959-47.113-105.442-23.588-146.994
		c13.224-22.077,37.794-34.78,63.453-32.804c11.842-0.005,22.668,6.684,27.962,17.277c35.29,67.216,78.333,130.066,128.249,187.265
		c49.861-57.207,92.852-120.057,128.092-187.265c5.318-10.643,16.22-17.342,28.118-17.277c25.702-2.025,50.333,10.684,63.578,32.804
		c23.525,41.521-3.437,107.972-23.588,146.838c3.927,2.857,8.707,4.299,13.559,4.093c6.03-0.968,11.685-9.373,12.216-10.372
		c7.703-15.439,26.464-21.711,41.904-14.008c0.008,0.004,0.016,0.008,0.023,0.011l42.364,21.182l15.309-15.309
		c5.878-5.813,13.821-9.06,22.088-9.029c13.401-0.094,26.697-2.374,39.365-6.748c-15.493-23.735-28.08-49.244-37.49-75.98
		c-1.274-3.525-1.908-7.249-1.875-10.997c0-59.797-123.718-62.484-124.968-62.484v-62.484c68.139,0,182.453,25.212,187.296,118.719
		c8.814,24.918,21.463,48.309,37.49,69.326c16.916,3.4,27.874,19.869,24.474,36.785c-1.445,7.192-5.376,13.647-11.103,18.232
		c-29.186,21.427-63.712,34.399-99.787,37.49l-22.619,22.619c-9.502,9.511-24.024,11.877-36.053,5.874l-40.146-20.089
		c-10.738,9.928-24.134,16.518-38.553,18.964c-32.742,2.913-64.804-10.562-85.635-35.991c-10.124-10.137-12.055-25.86-4.686-38.146
		c17.991-28.72,30.59-60.483,37.178-93.726c-39.744,70.677-88.309,136.017-144.526,194.45
		C1316.406,3992.086,1308.486,3995.378,1300.222,3995.396z"/>
	
		<rect x="1768.913" y="3896.682" transform="matrix(0.3162 -0.9487 0.9487 0.3162 -2559.5051 4439.7178)" style="display:inline;fill:#E91E57;" width="62.453" height="197.481"/>
	<path style="display:inline;fill:#E91E57;" d="M746.832,4119.052l-17.933-59.86l290.145-87.04v-70.482h62.484v93.726
		c0.001,13.802-9.054,25.969-22.276,29.93L746.832,4119.052z"/>
	
		<rect x="701.579" y="3964.147" transform="matrix(0.9486 -0.3165 0.3165 0.9486 -1223.4895 458.7699)" style="display:inline;fill:#E91E57;" width="197.606" height="62.453"/>
	
		<rect x="659.778" y="3780.397" transform="matrix(0.8805 -0.4741 0.4741 0.8805 -1819.0509 807.0583)" style="display:inline;fill:#E91E57;" width="62.484" height="461.289"/>
	<path style="display:inline;fill:#E91E57;" d="M581.656,3839.186H487.93c-10.444,0.001-20.197-5.215-25.993-13.903l-62.484-93.726
		l51.987-34.679l53.205,79.823h57.704l16.808-33.648l-27.118-81.448l59.36-19.745l31.242,93.726
		c2.629,7.851,2.033,16.425-1.656,23.838l-31.242,62.484C604.429,3832.542,593.542,3839.239,581.656,3839.186z"/>
	<path style="display:inline;fill:#E91E57;" d="M1300.222,4370.3c-10.443,0.002-20.197-5.215-25.993-13.902l-62.484-93.726
		c-3.414-5.14-5.239-11.17-5.249-17.339c0-63.703,30.211-306.172,31.492-316.294l61.984,7.748
		c-0.312,2.374-28.274,227.036-30.805,299.361l31.055,46.675l31.055-46.582c-2.531-72.356-30.492-296.987-30.805-299.361
		l61.984-7.748c1.281,10.185,31.492,252.498,31.492,316.201c-0.01,6.169-1.835,12.2-5.249,17.339l-62.484,93.726
		C1320.42,4365.085,1310.666,4370.302,1300.222,4370.3z"/>
	<path style="display:inline;fill:#E91E57;" d="M1425.19,4339.059c-17.255,0.002-31.244-13.983-31.246-31.238
		c-0.001-4.371,0.916-8.693,2.691-12.688c10.511-22.887,19.131-46.596,25.775-70.888l-19.308-19.308
		c-12.188-12.213-12.168-31.995,0.045-44.183c2.356-2.351,5.072-4.311,8.046-5.804c0-0.313,0-0.688,0-1.062
		c-28.415-38.873-62.057-73.64-99.974-103.318l40.302-47.8c81.073,68.42,122.188,118.501,122.188,148.868
		c0.179,10.361-1.635,20.66-5.342,30.336l10.06,10.06c6.709,6.706,10.007,16.096,8.966,25.524
		c-2.769,17.803-7.322,35.283-13.59,52.174c42.146-8.405,73.434-44.007,76.356-86.884c0-40.614-148.587-187.452-218.694-187.452
		v-62.484c94.601,0,281.178,165.864,281.178,249.936C1612.643,4271.919,1532.069,4339.059,1425.19,4339.059z"/>
	<path style="display:inline;fill:#E91E57;" d="M1175.254,4339.059c-106.879,0-187.452-67.139-187.452-156.21
		c0-84.072,186.577-249.936,281.178-249.936v62.484c-70.107,0-218.694,146.838-218.694,187.452
		c2.925,42.836,34.163,78.413,76.262,86.853c-6.268-16.892-10.821-34.371-13.59-52.174c-1.041-9.428,2.258-18.819,8.966-25.525
		l10.06-10.06c-3.708-9.677-5.521-19.975-5.342-30.336c0-30.368,41.115-80.448,122.188-148.868l40.302,47.8
		c-37.917,29.678-71.559,64.445-99.974,103.317c0,0.375,0,0.75,0,1.063c15.419,7.744,21.64,26.522,13.896,41.941
		c-1.494,2.974-3.453,5.69-5.804,8.046l-19.307,19.308c6.639,24.294,15.26,48.003,25.775,70.888
		c7.023,15.76-0.061,34.23-15.822,41.253C1183.915,4338.126,1179.61,4339.048,1175.254,4339.059z"/>
</g>
<path style="opacity:0.07;fill:#E91E57;" d="M4635.362,5114.941h-4320c-76.583,0-138.667-62.083-138.667-138.667V2042.941
	c0-76.583,62.083-138.667,138.667-138.667h2728.5c76.583,0,128,501.333,1730.167,928v2144
	C4774.028,5052.858,4711.945,5114.941,4635.362,5114.941z"/>
</svg>
