<?xml version="1.0" encoding="iso-8859-1"?>
<!-- Generator: Adobe Illustrator 24.2.3, SVG Export Plug-In . SVG Version: 6.00 Build 0)  -->
<svg version="1.1" id="svg10306" xmlns="http://www.w3.org/2000/svg" xmlns:xlink="http://www.w3.org/1999/xlink" x="0px" y="0px"
	 viewBox="0 0 500 162.816" style="enable-background:new 0 0 500 162.816;" xml:space="preserve" >
<g id="layer1" transform="translate(-333.70157,-536.42431)">
	<g id="g10267" transform="matrix(4.9846856,0,0,-4.9846856,-1470.1185,1039.6264)">
		<g>
			<defs>
				<path id="SVGID_1_" d="M413.742,90.435c-0.057-4.494,4.005-7.002,7.065-8.493c3.144-1.53,4.2-2.511,4.188-3.879
					c-0.024-2.094-2.508-3.018-4.833-3.054c-4.056-0.063-6.414,1.095-8.289,1.971l-1.461-6.837c1.881-0.867,5.364-1.623,8.976-1.656
					c8.478,0,14.025,4.185,14.055,10.674c0.033,8.235-11.391,8.691-11.313,12.372c0.027,1.116,1.092,2.307,3.426,2.61
					c1.155,0.153,4.344,0.27,7.959-1.395l1.419,6.615c-1.944,0.708-4.443,1.386-7.554,1.386
					C419.4,100.749,413.787,96.507,413.742,90.435 M448.569,100.179c-1.548,0-2.853-0.903-3.435-2.289l-12.111-28.917h8.472
					l1.686,4.659h10.353l0.978-4.659h7.467l-6.516,31.206H448.569 M449.754,91.749l2.445-11.718h-6.696L449.754,91.749
					 M403.47,100.179l-6.678-31.206h8.073l6.675,31.206H403.47 M391.527,100.179l-8.403-21.24l-3.399,18.06
					c-0.399,2.016-1.974,3.18-3.723,3.18h-13.737l-0.192-0.906c2.82-0.612,6.024-1.599,7.965-2.655
					c1.188-0.645,1.527-1.209,1.917-2.742l6.438-24.903h8.532l13.08,31.206L391.527,100.179"/>
			</defs>
			<clipPath id="SVGID_2_">
				<use xlink:href="#SVGID_1_"  style="overflow:visible;"/>
			</clipPath>
			<g id="g10269" style="clip-path:url(#SVGID_2_);">
				<g id="g10275" transform="translate(351.611,96.896)">
					
						<linearGradient id="path10283_1_" gradientUnits="userSpaceOnUse" x1="40.4939" y1="-24.2654" x2="41.4939" y2="-24.2654" gradientTransform="matrix(419.708 154.5691 154.5691 -419.708 -13225.4521 -16470.8613)">
						<stop  offset="0" style="stop-color: #78a9d5;"/>
						<stop  offset="1" style="stop-color: #78a9d5;"/>
					</linearGradient>
					<path id="path10283" style="fill:url(#path10283_1_);" d="M0,0l98.437,36.252l22.394-60.809L22.395-60.809"/>
				</g>
			</g>
		</g>
	</g>
</g>
</svg>
